<?xml version="1.0" encoding="utf-8"?>
<!-- Generator: Adobe Illustrator 18.1.1, SVG Export Plug-In . SVG Version: 6.00 Build 0)  -->
<svg version="1.1" xmlns="http://www.w3.org/2000/svg" xmlns:xlink="http://www.w3.org/1999/xlink" x="0px" y="0px"
	 viewBox="0 0 1020 659" enable-background="new 0 0 1020 659" xml:space="preserve">
<g id="Walls">
	<polygon fill="#E0E0E0" points="649,470.3 649,-31.5 1020,-31.5 1020,569.5 	"/>
	<polygon fill="#FFFFFF" points="0,558.6 649,470.3 649,-31.5 0,-31.5 	"/>
	<polygon fill="#575757" points="0,843.5 0,558.6 648.8,470.3 1020,569.5 1020,843.5 	"/>
</g>
<g id="Window">
	<path fill="#9EC9D8" stroke="#896847" stroke-width="5" stroke-miterlimit="10" d="M744.2,79.3c0.2-7.1-4.7-28.3,1.9-31
		c11.7-4.9,13.7-2.2,23.3-4.4c39.3-8.8,79-15.5,119-19.9c-14.6,130.5-21.3,261.9-20.3,393.2c-38.6-10.6-77.1-21.3-115.7-31.9
		c-1.8-0.5-3.7-1-4.9-2.4c-1.4-1.6-1.7-3.9-1.8-6c-3-38.8,0.5-62.8,0.4-113.2c-0.1-30-3.1-58.7-3.1-93.4
		C742.9,129.6,742.9,115.5,744.2,79.3z"/>
	<g id="Layer_19">
	</g>
	<path fill="#86A9B2" d="M763.5,373.4c-1.8-9.6-2.4-19.4-1.8-29.1c4.2,11.7,9.1,23.2,14.8,34.3c-4.4-1.7-8.9-3.4-13.3-5.2"/>
	<path fill="#86A9B2" d="M785.2,365.6c2.6,5.5,2.5,12.2,5.9,17.3c-6.5-2.4-9.7-9.6-12.5-16c-4.9-10.9-10.9-21.5-13.4-33.2
		c-1-4.7-1.4-9.5-1.8-14.3c3.8,10.2,8,20.3,12.7,30.1c1.6,3.4,3.3,6.8,5.4,10C782.8,361.5,784.2,363.4,785.2,365.6z"/>
	<path fill="none" stroke="#896847" stroke-width="5" stroke-miterlimit="10" d="M744.3,302.1c25.5,2.5,43.8,3.7,62.9,6.4
		c24,3.4,38.9,10.9,63.6,13.4"/>
	<path fill="none" stroke="#896847" stroke-width="5" stroke-miterlimit="10" d="M745,221.6c42.1,4.4,84.6,5.5,127,3.3"/>
	<path fill="none" stroke="#896847" stroke-width="5" stroke-miterlimit="10" d="M742.9,138.6c44.8-1.7,89.6-3.9,134.4-6.6"/>
	<path fill="none" stroke="#896847" stroke-width="5" stroke-miterlimit="10" d="M814,34.9c0.6,34.1,1.2,68.1,1.8,102.2
		c0.2,14.4,0.5,28.8,0.7,43.2c1.3,75.2,2.6,150.4,1.4,225.6"/>
</g>
<g id="Head">
	<path fill="#FFFFFF" stroke="#000000" stroke-width="2" stroke-miterlimit="10" d="M279,585.4c1,3.7,0.7,7.7-0.8,11.2
		c-2.2,0-4.5,0.8-5.8,2.5c-1.3,1.7-1.5,4.4,0.1,6s4.7,1,5.4-1.1c-0.4,2-0.4,4-0.2,6c2.8,0.3,5.2-2.9,4.2-5.5c-0.6,2.7,1.4,6,4.1,6
		c2.8,0.1,4.6-4.2,2.3-5.7c0,2.8,3.2,5.1,5.8,4.2c2.7-0.9,3.7-4.8,1.9-6.9c-0.6-0.6-1.3-1.1-1.9-1.7c-2.3-2.4-1.7-6.2-1-9.5"/>
	<path fill="#FFFFFF" stroke="#000000" stroke-width="2" stroke-miterlimit="10" d="M333.2,587.2c-0.4,0.2-0.5-0.8,0-0.8
		c0.5,0,0.8,0.5,0.9,1c1.1,3.9-0.2,8.5-3.3,11.2c-1.5,1.3-3.6,2.6-3.6,4.6c0,2.1,2.5,3.4,4.6,3c2-0.4,3.6-1.9,5.1-3.4
		c-1,1.4-2.1,2.9-2.4,4.6c-0.3,1.7,0.4,3.8,2.1,4.3c1.8,0.6,3.9-0.8,4.5-2.6c0.7-1.8,0.4-3.8,0.1-5.8c1.2,1.3,1.5,3,2.3,4.5
		c0.8,1.5,2.4,2.9,4,2.5c1.5-0.4,2.2-2.4,1.8-4s-1.6-2.8-2.7-4c0.8,1.9,1.6,3.9,3.2,5.1c1.6,1.3,4.2,1.5,5.6-0.1
		c1.5-1.7,0.5-4.4-1-6.1c-1.5-1.7-3.6-2.9-4.7-4.8c-1.2-1.9-1-5,1.2-5.7"/>
	
		<path fill="#0071BC" stroke="#2E3192" stroke-width="2" stroke-linecap="round" stroke-linejoin="round" stroke-miterlimit="10" d="
		M379.1,444.1c7.6,17.4,0.3,37.2-4.7,55.5c-6.4,22.9-7.1,26.2-6.2,49.9c0.2,5.6,0,15.1,0,20.7c0,6.8-0.5,18.3-6.2,19.2
		c-12.3,1.9-49.7-2.4-49.7-2.4s-7.4-19.6-6.9-30.2c0.9-20.4,1.9-40.7,2.8-61.1c-6.4,19.2-5.3,40.1-3.4,60.3
		c1,10.5,0.3,30.5,0.3,30.5l-32.5,5.6c0,0-7.8-45.9-5.5-59c5.4-30.8,5.7-62.2,5.9-93.5"/>
	<path fill="none" stroke="#2E3192" stroke-miterlimit="10" d="M364.7,474c-8.4-3-14.5-11.3-15-20.2"/>
	<path fill="none" stroke="#2E3192" stroke-miterlimit="10" d="M272.4,458.6c4.3-0.5,8.2-3.9,9.4-8.1"/>
	<path fill="none" stroke="#2E3192" stroke-miterlimit="10" d="M308,454.2c0.5,9.5,0.1,19.1-1.2,28.5c-0.1,0.4,0,1.1,0.4,1.1
		c0.1,0,0.3,0,0.4-0.1c2.7-1.1,4.2-4,5.3-6.7c2.7-7,3.9-14.6,3.5-22.2"/>
	<path fill="none" stroke="#2E3192" stroke-miterlimit="10" d="M344,584.3c-7.7-22-2.3-46.3,5.4-68.2c7.7-22,17.7-43.6,19.4-66.8"/>
	<path fill="none" stroke="#2E3192" stroke-miterlimit="10" d="M297.3,583.3c-0.9-8.5-0.5-17.2,1.4-25.5c0.6-2.8,1.4-5.7,1.5-8.6
		c0.1-2-0.2-4.1,0.2-6.1c0.6-3.1,2.7-6.1,1.9-9.1"/>
	<g>
		<path fill="#AF1E30" d="M338.6,425.4c1.2-0.1,1.7,0.7,2.5,1.1c5.1,2.9,10.5,5.3,16.5,6.8c0.3,0.1,0.6,0.2,0.9,0.3
			c0.5,0.2,1.1,0.3,0.9,0.9c-0.2,0.7-0.9,0.6-1.5,0.5c-1.9-0.3-3.7-0.7-5.6-1c-8.3-1.5-16.4-3.5-24.1-6.5
			c-8.9-3.5-17.2-7.6-24.3-13.3c-1.5-1.2-3.1-2.4-4.6-3.7c-1.1-0.9-0.9,0-1.1,0.4c-2.6-3-4.5-6.3-6.4-9.6
			c-7.6-13.4-12.9-27.5-16.2-42.1c-1.1-4.8-2-9.7-2.7-14.5c-0.4-2.7-0.5-5.6-0.1-8.4c0.3-2.4,0.3-4.8,0.2-7.2
			c-1.8-19.4,1-15.2,6.6-32.3c-4.6,1.7-1.5-3.1,1.2-6.9c5.9-19,23.2-30.5,37.4-24c2.9,0.2,3.8,8.7,7.2,10.9
			c-7.7-3.3-18.8-5.2-23.2,1.3c-9.7,14-19.5,27.5-20.6,46.2c-0.1,2.7-0.1,5.4,0,8.1c0.2,8.5,1.2,16.8,2.9,25.2
			c0.9,4.3,2,8.6,4.9,12.4c0.7,0.9,1.5,1.9,1.1,3.2c-1.4-1.4-1.6-3.5-3.6-4.9c-0.3,1.1,0.1,1.8,0.5,2.4c1.7,3.3,3.2,6.6,5.2,9.7
			c8.9,14.5,20.3,27.6,34.7,38.8c2.9,2.3,5.8,4.5,9.2,6.2C337.1,425.7,337.9,426.5,338.6,425.4z M283.1,379.7
			c-0.5,0.8-0.1,1.1,0,1.4c1.4,3.8,3.5,7.4,5.7,10.9c3,4.7,5.2,9.8,10.1,13.6c3.3,2.6,6.9,4.7,11.2,6.2c0.6,0.2,1.1,0.4,1.6-0.1
			c0.5-0.5,0.1-1-0.1-1.4c-0.3-0.4-0.7-0.8-1.1-1.2c-3.5-3.5-7.8-6.3-11.6-9.6c-4.6-3.9-8.2-8.3-11.4-13
			C286.1,384.5,284.7,382.2,283.1,379.7z"/>
		<path fill="#AF1E30" d="M288.3,398.4c-1.7-0.5-1.7-1.9-2.3-3c-2.2-4.2-5.6-7.6-9.2-10.9c-0.7-0.7-1.7-1.1-2.8-0.7
			c-1.1,0.3-1.1,1.1-1.2,1.9c-0.3,2.5,0.6,4.8,1.6,7.1c2.9,6.3,6.5,12.3,10.5,18.1c3.6,5.1,8.8,9.1,14.7,12.5
			c10.6,6.2,22.4,10.8,34.3,15c3.7,1.3,7.5,2.6,11.4,3.4c3.1,0.6,6.3,0.5,9.5,0.3c2.2-0.1,4.3-0.4,6.5,0.1c0.5,0.1,1.2,0,1.1,0.6
			c-0.1,0.5-0.6,0.6-1.2,0.7c-2.4,0.2-4.9,0.4-7.3,0.6c-4.4,0.2-8.8,0-13.1-0.4c-5.7-0.6-11.3-1.4-17-2.1c-8.1-1.1-16-2.8-23.7-4.7
			c-7.8-1.9-15.5-4.2-23.2-6.3c-1.9-0.5-3.9-1.1-5.9-1.2c-1.1-0.1-1.6,0.1-1.3,1.2c1.2,3.4,2.9,6.7,4.8,9.8c0.5,0.8,1.7,0.8,2,1.6
			c-2.5-0.1-5-0.3-7.5-0.3c-1.3,0-1.8-0.5-2-1.6c-0.8-5.3-0.5-10.6,0.3-15.9c6.3,0,12,2.2,18.1,3.1c-5.3-2.7-10.6-5.2-15.9-7.7
			c-0.8-0.4-1.2-0.2-1.4,0.6c-0.2,0.7,0.2,1.6-0.7,2.1c-0.3-2.5,0.8-5.1-0.1-7.6c0.4,0.1,0.7,0.3,0.8,0.6c0.2,1.3,1.4,1.9,2.6,2.4
			c4.2,1.8,8.5,3.6,12.7,5.5c8,3.5,16,6.9,24.5,9.5c0.5,0.1,0.9,0.4,1.5,0c-0.9-1-2.1-1.6-3.4-2.1c-5.9-2.3-11.7-4.7-17.2-7.5
			c-4-2.1-7.6-4.4-10.1-7.9c-4.1-5.6-7.1-11.6-9.5-17.8c-0.4-1-0.9-1-1.7-0.4c-0.3-1.5-0.1-3,0.7-4.3c2.3-4,3.3-8.1,2.6-12.5
			c-0.5-2.8,0.6-5.4,1.7-8c0.7-1.7,1.5-3.4,2.3-5.1c0.2-0.4,0.4-1,1-0.9c0.7,0,0.6,0.6,0.7,1c1.3,4.1,2.4,8.2,3.8,12.2
			c2,5.7,4.3,11.3,7.4,16.6C287.8,397.1,288,397.7,288.3,398.4z M269.3,418.8c0.6,0.3,1,0.6,1.4,0.8c10,5,20.4,9.5,31.1,13.6
			c1.5,0.6,3.1,0.9,4.7,1.3c0.4,0.1,1.2,0.3,1.4-0.2c0.3-0.6-0.5-0.8-1.1-0.9c-1.3-0.4-2.6-0.8-3.9-1.2
			c-10.6-3.7-20.7-8.2-30.8-12.8C271.4,419,270.6,418.4,269.3,418.8z M275.2,368c-0.8,1.6-2.1,2.8-1.3,4.1c0.6,1,1.8,1.8,2.7,2.7
			c0.1,0.1,0.5,0.3,0.7,0.2c0.4-0.1,0.4-0.4,0.3-0.7C276.8,372.5,276.5,370.3,275.2,368z"/>
		<path fill="#AF1E30" d="M397.2,395.2c-0.8-1.1,0.2-2.3-0.3-3.5c-0.7-1.9-1.6-3.7-2.1-5.9c-1.2,0.8-1.5,1.8-2,2.6
			c-4,6.9-7.7,13.8-12.1,20.5c-2.3,3.5-4.6,6.9-7.5,10.1c-0.2,0.3-0.5,0.5-0.8,0.7c-0.8,0.4-1.4,1.6-2.5,0.8c-1-0.7,0-1.6,0.5-2.2
			c7-8,11.7-17,16.9-25.9c0.6-1,0.5-1,0.4-2.2c-1.6,1.7-3.1,3.2-4.6,4.7c-1.8,1.8-3.3,3.8-5.5,5.2c-0.4,0.2-0.7,0.7-1.2,0.5
			c-0.6-0.2-0.3-0.7-0.2-1c0.1-1.2,0.7-2.3,1.3-3.4c5-9.3,10-18.6,15-27.9c3.2-6.1,6-12.2,7.9-18.6c1.7-5.9,2.7-11.9,3.4-17.8
			c0.2-2,0.4-4,0.5-6.1c-0.5-12.8-3.6-24.6-2.2-37c2.8,7.9,4.7,16.7,5.2,25.4c0.8-0.9,1.5-3.1,1.6-4c0.6,7.8,0.8,15.7-1.2,23
			c-0.3,2.3-0.7,4.5-1,6.8c-0.7,4.5-1.3,9-2.1,13.5c-0.7,4.3-1.2,8.6-2.8,12.8c-2,5.4-5.3,10.4-8,15.6
			c-5.3,10.1-10.6,20.2-17.4,29.8c-1.5,2.1-3.1,4.1-4.7,6.2c-0.2,0.3-0.8,0.6-0.3,1c0.6,0.4,0.8-0.2,1.1-0.3c0.7-0.4,1-1,1.5-1.6
			c7.4-9.6,13-19.9,18.8-30.1c1.9-3.3,3.8-6.7,5.7-10c0.4-0.8,0.9-1.6,1.8-2.3c0.4,0.9,0.4,1.7,0.4,2.6c-0.5,5.9-1.6,11.8-3.3,17.6
			C397.5,394.9,397.3,395.1,397.2,395.2z"/>
		<path fill="#C90010" d="M349.7,287c-2.4-0.2-5.1-0.2-7.3-0.8c-2.2-0.5-4.3-1.7-6.2-2.5c-7.5-2.9-16.6-10-15-17.7
			c3.4-10.4,9.4,8.2,15.5,10.1c1.8,1.3,3.7,2.4,5.7,3.2c6.1,2.3,13.3,2.1,20-0.9c2.8-1.2,5.5-2.6,7.9-4.2c2.5-1.6,4.7-3.4,6.8-5.4
			c2.3-2.5,5.3-3.3,5.6,0.6c1.5,5.9-4.3,5.6-6.3,9.3c-2.6,2.1-5.5,3.8-8.6,5.1c-3.2,1.3-6.6,2.3-10.4,2.9
			C354.9,287.1,352.4,287.2,349.7,287z"/>
		<path fill="#AF1E30" d="M424.6,304.9c-1.1-0.8-2.7-2.4-3.2-4.4c-0.8,13.5,6.8,24.5,2.6,38.8c-0.3,2.4-0.8,4.7-1.2,7.1
			c-0.5,2.4-0.9,4.7-1.1,7.1c0,0.4-0.2,0.8-0.8,0.8c-0.1-0.7,0.2-1.5-0.5-2.2c-0.8,0.2-0.7,0.7-0.8,1.2c-0.3,1.8-0.8,3.7-0.9,5.5
			c-0.2,3.5-2.3,5.7-6.4,6.8c-2.3,0.6-4.5,0.9-6.9,0.9c-1.3,0-1.8-0.5-1.4-1.5c2-5.6,2.4-11.4,3.2-17.2c0.3-2.2,0.6-4.4,0.9-6.6
			c0.3-2.2,0.6-4.4,0.9-6.6c1.6-4.8,0.6-14.5,1.2-19.3c1.7,4.9-0.8,12.5,3.4,14.7c1.5-6.7,4.8-16.2,0.8-20.2c-1.2-2-4.2,4.6-3.9,8.5
			c-0.9-4.9,1-8.6,5-11.3c1.4,6.8,1.3,14.6-0.8,21.4c-1.3,3.3-2.9,6.5-4.3,9.7c-0.2,0.4-0.3,0.7-0.4,1.1c-0.1,0.3-0.1,0.7,0.4,0.8
			c0.5,0.1,0.7-0.3,0.9-0.6c0.9-1.8,1.8-3.5,2.5-5.4c3.6-9.8,5.1-18.2,3.2-27c1.7-3.4,0.7-9,4.6-9.3
			C422.4,299.2,423.9,303.5,424.6,304.9z M409.6,356.8c-0.2,1.7-0.5,3.5-0.6,5.2c-0.1,1.1-1.1,2.7,0.1,3.3c1.3,0.7,3.1-0.3,4.5-0.9
			c1.9-0.8,3.6-1.8,3.9-3.7c0.5-2.7,0.7-5.4,1.3-8.1c0.4-2.1,0.8-4.2,1.1-6.3c0.3-2.1,0.6-4.2,0.9-6.4c1-10.5,2.4-22.9-2.4-31.9
			c0.6,7.8,0.4,15.5-2.7,23.5c-1.5,3.5-3.3,6.8-3.8,10.3C411.1,346.9,409.8,351.8,409.6,356.8z M420.9,349.1c0.5-2.9,1-5.9,1.4-8.8
			c2.1-8.7,1.9-19.3-0.9-27.2c2.7,8.8,1.7,17.5,0.3,27.1C421.4,343.2,421.1,346.1,420.9,349.1z"/>
		<path fill="#AF1E30" d="M328.5,264c4-0.3,7.9,2.7,11.5,3.5c2,0.4,3.9,0.7,5.9,1c8.2,1,16.6,0.9,25.2-0.1c1.7-0.2,3.5-0.4,5.2-0.7
			c-1.7,1.7-3.4,3.2-5.3,4.4c-1.9,1.1-4,1.9-6.5,2.2c-6.9,0.8-13.6,0.6-20.3-0.5c-2.2-0.4-4.4-0.9-6.6-1.5c-2.5-0.7-4.4-1.8-5.8-3.2
			C330.3,267.7,329.4,266,328.5,264z"/>
		<path fill="#AF1E30" d="M364.7,275.7c-5.5,3.9-14.9,4.5-21.5,2.5c-3.3-1-5.9-2.7-7-5c2.3,0.7,4.7,1.3,7,1.6c2.3,0.3,4.7,0.5,7,0.6
			C354.9,275.6,359.6,275.7,364.7,275.7z"/>
		<path fill="#C90010" d="M410.4,318c-0.2-3.6,2.2-9.4,3.8-8.9c5.4,4.2,1.5,15.2-0.6,20.9c-4.3-1.2-2.2-5.1-3.2-11.3
			C410.4,318.5,410.4,318.3,410.4,318z"/>
		<path fill="#C90010" d="M267.3,422.5c1-0.5,0.6-1.4,0.7-2.1c0.2-0.8,0.6-0.9,1.4-0.6c5.3,2.5,10.7,5,15.9,7.7
			c-6.1-0.9-11.8-3.1-18.1-3.1C267.2,423.8,267.2,423.1,267.3,422.5z"/>
		<path fill="#AF1E30" d="M408.3,370.4c-1.3-0.4-3-0.3-4.4-1c-0.5-0.2-1.1-0.5-0.8-1.1c0.2-0.6,0.7-0.7,1.4-0.7
			c3.9,0.3,7.5-0.6,11-2.1c0.5-0.2,1.1-0.6,1.6-0.1c0.5,0.5-0.1,0.9-0.4,1.3C414.8,369.3,411.9,370.2,408.3,370.4z"/>
		<path fill="#AF1E30" d="M371.4,431.4c-1.2,0.1-1.2,0.1-0.7-0.9c1.1-2,2.9-3.6,4.5-5.4c6.1-6.7,11.9-13.5,17.1-20.7
			c1.1-1.5,2.4-3,2.8-4.9c0.1-0.3,0.4-0.4,0.7-0.5c-0.2,2.2-1.6,4-2.9,5.8c-5.8,7.9-12.5,15.4-19.1,22.9
			C372.8,428.9,371.6,429.9,371.4,431.4z"/>
		<path fill="#AF1E30" d="M279.5,295.8c3.9-1.9,5.9-6.6,9.1-9.3c-2,4.7-3.3,9.5-7.7,11.1C280.3,297.1,279.5,296.7,279.5,295.8z"/>
		<path fill="#C90010" d="M413.8,305c-1.1,0.8-1.2,1.8-2.1,2.7c-1.9-3-3-6-0.5-8.7c1.6-0.9,2,2,3.1,3.4
			C414.5,303.5,413.6,303.9,413.8,305z"/>
		<path fill="#AF1E30" d="M368.4,285c0,0.8-0.8,0.8-1.3,1c-6.5,2.3-13.3,3.2-20.2,2.4c-2.6-0.3-5-0.8-7.4-1.6s-4.6-1.7-6.8-2.9
			c-0.4-0.2-1-0.4-0.8-1c2.1,1,4.1,1.9,6.2,2.6c2.1,0.8,4.3,1.4,6.6,1.8c7.5,1.4,14.8,0.3,21.9-1.8
			C367.2,285.4,367.8,285.2,368.4,285z"/>
		<path fill="#AF1E30" d="M285.3,286.9c-2.3,3.1-4,4.9-6.5,7.7c-1.9-3,3.4-3.7,4.1-5.1C283.8,288.7,284.4,287.8,285.3,286.9z"/>
		<path fill="#C90010" d="M289.5,283.2c0.5-2.4,1.4-3.4,3.6-3.2c-1,1.9-1.8,2.8-3.4,3.4C289.6,283.3,289.6,283.2,289.5,283.2z"/>
		<path fill="#AF1E30" d="M385.4,270.9c-1.5,2.4-2.7,6.2-6.2,7.2C381.3,275.8,383.3,273.3,385.4,270.9z"/>
		<path fill="#AF1E30" d="M326.9,279.4c-1.8-0.4-3.7-2.6-3.6-4.1C324.5,276.6,325.7,278,326.9,279.4z"/>
		<path fill="#AF1E30" d="M372.2,283.2c-0.6,1.5-2.1,1.8-3.8,1.8C369.7,284.4,371,283.8,372.2,283.2z"/>
		<path fill="#AF1E30" d="M379.2,278.1c-0.1,1.4-1.1,2.1-2.7,2.3C377.3,279.6,378.2,278.8,379.2,278.1z"/>
		<path fill="#AF1E30" d="M375.3,281.4c-0.3,1.2-1.2,1.7-2.6,1.6C373.4,282.4,374.3,281.8,375.3,281.4z"/>
		<path fill="#C90010" d="M287.5,284.7c-2.1,4.5-6.6,5.2-8,10.9c3.9-1.7,5.9-6.4,9.1-9.4C288.6,285.4,288.7,284.3,287.5,284.7z"/>
		<path fill="#C90010" d="M273.6,361.4L273.6,361.4L273.6,361.4c-0.5-3.2-1.3-6.4-2.6-9.5c-0.9,2.9-0.5,5.8-0.5,8.6
			c0.3,0.5,0.8,0.7,1.4,0.8C272.4,362.2,273,362.4,273.6,361.4C273.6,361.4,273.6,361.4,273.6,361.4z"/>
		<path fill="#AF1E30" d="M330.7,282.3c-0.7,0-1.3,0-1.2-0.8C330,281.7,330.4,281.9,330.7,282.3z"/>
		<path fill="#AF1E30" d="M331.8,283c-0.7,0-1.3,0-1.2-0.7C331.2,282.4,331.6,282.6,331.8,283z"/>
		<path fill="#AF1E30" d="M329.1,281.2c-0.7,0-1.3-0.2-1-0.9C328.5,280.6,328.9,280.8,329.1,281.2z"/>
		<path fill="#C90010" d="M265.8,356.2c-0.5-4.3,0.1-8.6,0.4-12.9c0.2-3.1,0.3-6.2,0.5-9.3s1.2-6,1.6-9.3c1.6-9.1,3.3-17.9,9.2-24.4
			c0.1-1-0.6-3.5-1.3-3.5c-8.4,2.4-9.7,11.9-16,15.5c-2.4,1.8-9.5,10.7-6.5,15.3c2.2,2.1,5.2,4.1,6.9,6.5c1.3,1.9,1,2.9-1.3,4
			c-1.7,0.9-3.6,1.5-5.1,2.6c-4.1,3-8.9,5.8-6.8,11.2c0.1,0.1,0.1,0.3,0,0.5c-0.3,1.3,0.1,2.4,0.8,3.5c0.4,0.2,0.8,0.3,1.3,0.2
			c0.2,0.4,0.5,0.6,1,0.4c0-0.2-0.1-0.3-0.2-0.4c-0.1-0.1-0.2-0.1-0.3-0.1c0.1,0,0.2,0,0.3,0.1c0.1,0.1,0.2,0.2,0.2,0.4
			c0.4,0.1,0.8,0.2,1.1,0.2c0.4,0.4,1,0.3,1.6,0.3c0.9,0.1,1.8,0.2,2.7,0.4c0.3,0,0.6,0.1,0.8,0.1c2.4,0.1,4.8,0.3,7.1,0.4
			C264.4,357.3,265.9,357.5,265.8,356.2z"/>
		<path fill="#C90010" d="M305.9,430.9c-5.9-2.3-11.7-4.7-17.2-7.5c-4-2.1-7.6-4.4-10.1-7.9c-4.1-5.6-7.1-11.6-9.5-17.8
			c-0.4-1-0.9-1-1.7-0.4c0,0.2,0.1,0.4,0.1,0.6c-0.1,1.7,0.6,3.2,1.4,4.7c0.4,1.2,0.6,2.4,0.7,3.6c-0.1,0.2-0.1,0.4-0.2,0.7
			c-0.3,0.9-0.6,1.7-0.8,2.6c-0.3,0.1-0.4,0.4-0.4,0.7c-0.9,1.5-1.7,3.1-1,4.8c0.4,0.1,0.7,0.3,0.8,0.6c0.2,1.3,1.4,1.9,2.6,2.4
			c4.2,1.8,8.5,3.6,12.7,5.5c8,3.5,16,6.9,24.5,9.5c0.5,0.1,0.9,0.4,1.5,0C308.4,432,307.2,431.4,305.9,430.9z"/>
		<path fill="#C90010" d="M433,365.5c0.3,0,0.6-0.1,0.9-0.2c0.7,0,1.8-0.1,2.4-0.4c2.8-0.6,5.8-0.8,8.4-2.1c0.7-0.3,0.7-1.6,0.2-2.2
			c0-0.2,0-0.4-0.1-0.6c0-1.3-0.4-2.4-2.3-2c-6.3,1.3-12.6,2-18.9,3.1c-0.5,0-0.5,0-1.1-0.1c0.4-0.6,0.4-0.6,1.3-0.8
			c2-0.3,4-0.1,6-0.5c3.8-0.6,8.1-1.7,12-2.5c1-0.2,2.5,0.1,2.1-1.9c-0.6-2.6-1-5.4-1.9-8c0-0.7-0.2-1.3-0.5-2
			c0.1-0.3,0.1-0.5-0.2-0.7c-0.5-2-1.1-4-1.6-6c-0.5-2-1.1-4-1.6-6c-2.4-14.1-9.7-24.3-16.7-34.3c-0.3,21.5,7,26.6,2.8,40.6
			c-0.3,2.4-0.8,4.7-1.2,7.1s-0.9,4.7-1.1,7.1c0,0.4-0.2,0.8-0.8,0.8c-0.2,1.5-0.4,3-0.6,4.5c0.4,0.3,0.8,0.5,1.2,0.6
			c-0.4-0.1-0.8-0.3-1.2-0.6c-0.4,2.2-1.7,5.2-1.8,7.4c-0.1,1,0.7,0.9,2,0.5c0.4,0,0.9,0.5,1.3,0.5"/>
		<path fill="#C90010" d="M430,364.8"/>
		<path fill="#C90010" d="M429.5,365.2c0.3,0.1,0.6,0.1,0.9-0.2"/>
		<path fill="#99041D" d="M338.6,425.4c-0.7,1.2-1.5,0.3-2.1,0c-3.4-1.8-6.4-4-9.2-6.2c-14.4-11.2-25.8-24.3-34.7-38.8
			c-1.9-3.2-3.5-6.5-5.2-9.7c-0.3-0.7-0.7-1.4-0.5-2.4c2,1.4,2.2,3.5,3.6,4.9l0,0c0.2,0.9,0.6,1.7,1.3,2.4l0,0
			c0.2,0.9,0.6,1.7,1.3,2.4l0,0c0.3,0.9,0.6,1.7,1.4,2.3l0,0c0,0.4,0.2,0.8,0.7,1l0,0c0,0.4,0.2,0.8,0.7,1l0,0c0,0.4,0.3,0.8,0.7,1
			c0,0,0,0,0,0c0.6,1.3,1.4,2.6,2.4,3.7l0,0c0.1,0.6,0.5,1,1,1.4l0,0c0.1,0.6,0.5,1,1,1.4l0,0c0.1,0.6,0.5,1,1,1.4l0,0
			c0.1,0.4,0.3,0.8,0.7,1l0,0c0.1,0.6,0.5,1,1.1,1.4l0,0c0.2,0.7,0.8,1.3,1.4,1.7c0.1,0.1,0.2,0.2,0.3,0.3c0.2,0.5,0.6,1,1.2,1.4
			c0.1,0.1,0.2,0.2,0.3,0.3c0.3,0.7,0.8,1.3,1.5,1.7c0.1,0.1,0.2,0.2,0.3,0.3c0.3,0.7,0.8,1.3,1.5,1.7c0.3,0.3,0.6,0.7,0.9,1
			c0.7,1,1.6,1.9,2.6,2.7c0.3,0.3,0.6,0.7,1,1c1.1,1.5,2.5,2.7,4,3.9c1.2,1.2,2.3,2.4,3.7,3.3c0.4,0.6,1.1,1.1,1.8,1.5
			c0.4,0.3,0.8,0.6,1.1,0.9c0.3,0.5,0.8,0.9,1.4,1.2c0.4,0.3,0.8,0.6,1.2,0.9c0.2,0.4,0.6,0.6,1.1,0.8c0.1,0.1,0.3,0.2,0.4,0.3
			c0.2,0.4,0.6,0.6,1.1,0.8c0.1,0.1,0.3,0.2,0.4,0.3c0.2,0.4,0.6,0.6,1.1,0.8c0.1,0.1,0.3,0.2,0.4,0.3c0.2,0.4,0.6,0.6,1.1,0.8
			c0.5,0.3,1,0.7,1.5,1c0.2,0.4,0.6,0.6,1.1,0.8c0.1,0.1,0.3,0.2,0.4,0.3c0.2,0.4,0.6,0.6,1.1,0.8
			C338,424.8,338.3,425.1,338.6,425.4z"/>
		<g>
			<path fill="#C90010" d="M330.7,282.3"/>
			<path fill="#C90010" d="M413.4,307.2c0.7,0,4.3-3.6,4.3-3.6l1.1-7.4c0-0.5,0.1-1-0.6-1.8c-5.4-15.7-16.7-26.9-31-23.8
				c-5.4,1.6-8.7,10-14.5,12.4c-0.1,0.1-0.3,0.1-0.4,0.2c-0.6,1.5-2.1,1.8-3.8,1.8l0,0c0,0.8-0.8,0.8-1.3,1
				c-6.5,2.3-13.3,3.2-20.2,2.4c-2.6-0.3-4.9-1.4-7.3-2.1s-4.2-2.7-6.4-3.9c-8.6-10.1-22.2-17-31.7-5c-9.4,11.1-18.7,28-19.8,46.7
				c-0.1,2.7-0.1,5.4,0,8.1c0.2,8.5,1.2,16.8,2.9,25.2c0.9,4.3,2,8.6,4.9,12.4c0.7,0.9,1.5,1.9,1.1,3.2l0,0l0,0
				c0.2,0.9,0.6,1.7,1.3,2.4l0,0l0,0v0l0,0l0,0c0.2,0.9,0.6,1.7,1.3,2.4l0,0l0,0c0.3,0.9,0.6,1.7,1.4,2.3c0,0,0,0,0,0l0,0l0,0l0,0
				c0,0.4,0.2,0.8,0.7,1l0,0c0,0,0,0,0,0l0,0h0l0,0c0,0.4,0.2,0.8,0.7,1l0,0l0,0c0,0.4,0.3,0.8,0.7,1l0,0l0,0
				c0.6,1.3,1.4,2.6,2.4,3.7c0,0,0,0,0,0l0,0l0,0l0,0c0.1,0.6,0.5,1,1,1.4c0,0,0,0,0,0l0,0l0,0l0,0c0.1,0.6,0.5,1,1,1.4
				c0,0,0-0.1,0-0.1c0,0,0,0.1,0,0.1l0,0l0,0l0,0l0,0l0,0c0.1,0.6,0.5,1,1,1.4l0,0l0,0c0.1,0.4,0.3,0.8,0.7,1c0,0,0,0,0,0l0,0l0,0
				l0,0c0.1,0.6,0.5,1,1.1,1.4c0,0,0,0,0,0l0,0l0,0l0,0c0.2,0.7,0.8,1.3,1.4,1.7c0-0.1,0-0.2,0.1-0.3c0,0.1,0,0.2-0.1,0.3
				c0.1,0.1,0.2,0.2,0.3,0.3h0c0.2,0.5,0.6,1,1.2,1.4c0,0,0-0.1,0-0.1c0-0.1,0-0.3,0-0.4c0,0.1,0,0.3,0,0.4c0,0,0,0.1,0,0.1
				c0.1,0.1,0.2,0.2,0.3,0.3l0,0c0.3,0.7,0.8,1.3,1.5,1.7c0.1,0.1,0.2,0.2,0.3,0.3l0,0c0.3,0.7,0.8,1.3,1.5,1.7
				c0.3,0.3,0.6,0.7,0.9,1l0,0c0.7,1,1.6,1.9,2.6,2.7c0.3,0.3,0.6,0.7,1,1l0,0c1.1,1.5,2.5,2.7,4,3.9c1.2,1.2,2.3,2.4,3.7,3.3h0
				c0.4,0.6,1.1,1.1,1.8,1.5c0.4,0.3,0.8,0.6,1.1,0.9h0c0.3,0.5,0.8,0.9,1.4,1.2c0.4,0.3,0.8,0.6,1.2,0.9h0c0.2,0.4,0.6,0.6,1.1,0.8
				c0.1,0.1,0.3,0.2,0.4,0.3h0c0.2,0.4,0.6,0.6,1.1,0.8c0.1,0.1,0.3,0.2,0.4,0.3h0c0.2,0.4,0.6,0.6,1.1,0.8c0.1,0.1,0.3,0.2,0.4,0.3
				h0c0.2,0.4,0.6,0.6,1.1,0.8c0.5,0.3,1,0.7,1.5,1h0c0.2,0.4,0.6,0.6,1.1,0.8c0-0.2,0-0.3,0-0.4c0,0.1,0.1,0.3,0,0.4
				c0.1,0.1,0.3,0.2,0.4,0.3h0c0.2,0.4,0.6,0.6,1.1,0.8c0.3,0.3,0.6,0.6,0.9,0.9c1.2-0.1,1.7,0.7,2.5,1.1c5.1,2.9,10.5,5.3,16.5,6.8
				c0.3,0.1,0.6,0.2,0.9,0.3c0.5,0.2,1.1,0.3,0.9,0.9c-0.2,0.7-0.9,0.6-1.5,0.5c-1.9-0.3-3.7-0.7-5.6-1c-8.3-1.5-16.4-3.5-24.1-6.5
				c-8.9-3.5-17.2-7.6-24.3-13.3c-1.5-1.2-3.1-2.4-4.6-3.7c-1.1-0.9-0.9,0-1.1,0.4c0.3,0.4,0.6,0.8,0.9,1.2c1.1,1.6,2.9,2.9,3.6,4.8
				c-1.7-0.4-2.2-1.8-3.5-2.6c-0.1-0.1-0.2-0.2-0.3-0.3c-0.3-0.7-0.9-1.2-1.5-1.7c-0.1-0.1-0.2-0.2-0.3-0.4c-0.2-0.5-0.5-1-1.1-1.4
				l0,0c-0.1-0.6-0.5-1-1-1.4l0,0c-0.1-0.4-0.3-0.8-0.7-1l0,0c0-0.4-0.3-0.8-0.7-1l0,0c0-0.4-0.3-0.8-0.7-1l0,0c0-0.4-0.2-0.8-0.7-1
				l0,0c0-0.4-0.3-0.8-0.7-1.1c-0.1-0.2-0.2-0.4-0.3-0.6c-0.1-0.4-0.2-0.8-0.7-1l0,0c-0.1-0.7-0.5-1.2-1-1.7
				c-0.1-0.2-0.2-0.4-0.3-0.6c0-0.4-0.3-0.8-0.7-1.1c-0.1-0.2-0.2-0.4-0.3-0.6c-1.7-0.5-1.7-1.9-2.3-3c-2.2-4.2-5.6-7.6-9.2-10.9
				c-0.7-0.7-1.7-1.1-2.8-0.7c-1.1,0.3-1.1,1.1-1.2,1.9c-0.3,2.5,0.6,4.8,1.6,7.1c2.9,6.3,6.5,12.3,10.5,18.1
				c3.6,5.1,8.8,9.1,14.7,12.5c10.6,6.2,22.4,10.8,34.3,15c3.7,1.3,7.5,2.6,11.4,3.4c3.1,0.6,6.3,0.5,9.5,0.3
				c2.2-0.1,4.3-0.4,6.5,0.1c0.5,0.1,1.2,0,1.1,0.6c-0.1,0.5-0.6,0.6-1.2,0.7c-2.4,0.2-4.9,0.4-7.3,0.6c-4.4,0.2-8.8,0-13.1-0.4
				c-5.7-0.6-11.3-1.4-17-2.1c-8.1-1.1-16-2.8-23.7-4.7c-7.8-1.9-15.5-4.2-23.2-6.3c-1.9-0.5-3.9-1.1-5.9-1.2
				c-1.1-0.1-1.6,0.1-1.3,1.2c1.2,3.4,2.9,6.7,4.8,9.8c0.5,0.8,1.7,0.8,2,1.6c1.4,0.1,2.9,0.3,4.3,0.4c0.8,0.3,1.6,0.3,2.4,0.3
				c0.4,0.1,0.8,0.1,1.1,0.2c0.5,0.4,1,0.3,1.6,0.3c0.3,0,0.5,0.1,0.8,0.1c0.4,0.4,1,0.3,1.6,0.3c0.2,0.1,0.5,0.1,0.7,0.2
				c0,0,0.1-0.1,0.1-0.1c0,0-0.1,0.1-0.1,0.1c0.2,0.2,0.5,0.2,0.8,0.2h0c0.3,0.1,0.5,0.1,0.8,0.2c0.7,0.4,1.5,0.6,2.4,0.7
				c0.2,0.1,0.5,0.1,0.7,0.2c0.2,0.2,0.5,0.3,0.8,0.2c1.2,0.3,2.3,0.6,3.5,1c0.2,0.3,0.5,0.3,0.8,0.2c0.8,0.2,1.5,0.4,2.3,0.6
				c0.2,0.2,0.5,0.2,0.8,0.2c0.2,0.1,0.5,0.1,0.7,0.2c0.2,0.3,0.5,0.3,0.8,0.2c0.4,0.1,0.7,0.2,1.1,0.3c0.3,0.1,0.6,0.1,0.8,0.2
				c0.4,0.1,0.7,0.2,1.1,0.3c0.2,0.2,0.5,0.2,0.8,0.2c0.4,0.1,0.8,0.1,1.1,0.2c0.2,0.2,0.5,0.3,0.8,0.2c0.6,0.1,1.3,0.2,1.9,0.3
				c0.2,0.2,0.5,0.2,0.8,0.2c0.6,0.1,1.3,0.2,1.9,0.3c1,0.6,2.1,0.3,3.2,0.4c0.4,0.1,0.8,0.1,1.1,0.2c4.9,0.8,9.9,0.8,14.8,0.5
				c0.3,0,0.5,0,0.8-0.1c0.7,0.1,1.4,0.2,2.1-0.1l0,0c0.5,0,1,0,1.6-0.1v0c0.4,0.1,0.9,0.2,1.3-0.1c0.5,0,1-0.1,1.6-0.1
				c0.4,0.1,0.9,0.2,1.2-0.1v0c0.3,0,0.5,0,0.8-0.1v0c0.3,0.1,0.6,0.1,0.9-0.1c0.3,0,0.5-0.1,0.8-0.1v0c0.4,0.1,0.9,0.1,1.2-0.2
				c0.3,0,0.5-0.1,0.8-0.1c1.3,0,2.5-0.2,3.7-0.6c0.3-0.1,0.5-0.1,0.8-0.2c2-0.2,3.9-0.6,5.8-1.2l0,0c4.9-1.3,9.9-2.6,14.8-3.9
				c0.3,0.1,0.6,0.1,0.8-0.2c1.8-0.4,3.5-0.7,5.3-1.1c0.3,0.1,0.6,0.1,0.8-0.2c0.7-0.1,1.3-0.2,2-0.3c0.3,0.1,0.6,0.1,0.8-0.2
				c0.3,0,0.5-0.1,0.8-0.1c0.3,0.1,0.6,0.1,0.9-0.1c0.3,0,0.5-0.1,0.8-0.1c0.3,0,0.6,0,0.9-0.1c0.4-0.1,0.8-0.1,1.2-0.2
				c0.1-0.2,0.2-0.3,0.3-0.4c-0.1,0.1-0.2,0.2-0.3,0.4c0.3,0,0.6,0,0.9-0.1c0.7,0,1.3-0.1,2-0.1v0c0.3,0.1,0.6,0.1,0.9-0.1
				c1.9,0.3,2.5-0.4,2.7-1.9c0.3-3,0.8-6,0.9-9c0.2-0.4,0.2-0.7-0.1-1c0-0.5,0-1.1,0-1.6c0.1-0.4,0.2-0.7-0.1-1c0-0.3-0.1-0.6-0.1-1
				c0.1-0.3,0.1-0.5-0.1-0.7c0-0.2-0.1-0.4-0.1-0.6c-0.2,0-0.3-0.2-0.5-0.3c0.1,0.1,0.3,0.2,0.5,0.3c0.1-0.8-0.2-1.5-0.6-2.1
				c-0.6,0.2-1,0.5-1.2,1l0,0c-1.1,0.7-2.3,1.4-3.1,2.4l0,0c-3,2.1-6.1,4.3-9.1,6.4c-0.3,0.2-0.6,0.4-0.9,0.5
				c-0.5-0.1-1,0.6-1.6,0.1c0.7-0.9,1.7-1.4,2.6-2.1c2-1.5,4.3-2.6,6-4.4c0.1-0.1,0.2-0.2,0.4-0.3c0.9-0.5,1.7-1.1,2.3-1.8h0
				c0.1-0.1,0.2-0.2,0.3-0.3c0-0.1,0-0.1,0-0.2c0,0.1,0,0.1,0,0.2c0.5-0.2,0.8-0.5,1-0.9c0.4-0.4,0.8-0.8,1.2-1.2
				c0.5-0.2,0.8-0.5,0.9-1c2.4-2.6,4.1-5.5,5.5-8.5c0.3-0.2,0.3-0.4,0.3-0.7c0.1-0.2,0.2-0.4,0.3-0.6c0.3-0.2,0.3-0.4,0.2-0.7
				c0.1-0.2,0.2-0.4,0.2-0.6c0.4-0.3,0.4-0.6,0.3-1c0.3-1.4,0.7-2.8,0.1-4.2c0.1-0.6-0.2-1.1-1-1.7c-3,3.9-5.9,7.7-8.9,11.6
				c0,0,0,0,0,0c-1.4,1.2-2.4,2.6-3.6,3.9c-3.1,3.6-6.2,7.2-9.3,10.7c-0.5,0.2-0.8,0.5-0.9,0.9l0,0c-0.5,0.2-0.8,0.5-1,0.9
				c-0.4,0.2-0.8,0.3-1.3,0.5c-1.2,0.1-1.2,0.1-0.7-0.9c1.1-2,2.9-3.6,4.5-5.4c6.1-6.7,11.9-13.5,17.1-20.7c1.1-1.5,2.4-3,2.8-4.9
				c0.1-0.3,0.4-0.4,0.7-0.5c0.1-0.2,0.1-0.4,0.2-0.6c0.4-0.3,0.4-0.6,0.4-1c0.1-0.2,0.1-0.4,0.2-0.6c0.4-0.3,0.4-0.6,0.4-1
				c0.1-0.2,0.1-0.4,0.2-0.6c-0.8-1.1,0.2-2.3-0.3-3.5c-0.7-1.9-1.6-3.7-2.1-5.9c-1.2,0.8-1.5,1.8-2,2.6c-4,6.9-7.7,13.8-12.1,20.5
				c-2.3,3.5-4.6,6.9-7.5,10.1c-0.2,0.3-0.5,0.5-0.8,0.7c-0.8,0.4-1.4,1.6-2.5,0.8c-1-0.7,0-1.6,0.5-2.2c7-8,11.7-17,16.9-25.9
				c0.6-1,0.5-1,0.4-2.2c-1.6,1.7-3.1,3.2-4.6,4.7c-1.8,1.8-3.3,3.8-5.5,5.2c-0.4,0.2-0.7,0.7-1.2,0.5c-0.6-0.2-0.3-0.7-0.2-1
				c0.1-1.2,0.7-2.3,1.3-3.4c5-9.3,10-18.6,15-27.9c3.2-6.1,6-12.2,7.9-18.6c1.7-5.9,2.7-11.9,3.4-17.8c0.2-2,0.4-4,0.5-6.1
				c-0.5-12.8-3.6-24.6-2.2-37c2.8,7.9,4.7,16.7,5.2,25.4l2.8-3.5 M302.9,392C302.9,392,302.9,392,302.9,392
				C302.9,392,302.9,392,302.9,392z M302.9,391.9C302.9,391.9,302.9,391.9,302.9,391.9C302.9,391.9,302.9,391.9,302.9,391.9z
				 M303,391.8C303,391.8,303,391.8,303,391.8C303,391.8,303,391.8,303,391.8z M303,391.7C303,391.7,303,391.7,303,391.7
				C303,391.7,303,391.7,303,391.7z M303,391.6C303,391.6,303,391.6,303,391.6C303,391.6,303,391.6,303,391.6z M303,391.5
				C303,391.5,303,391.5,303,391.5C303,391.5,303,391.5,303,391.5z M303,391.4C303,391.4,303,391.4,303,391.4
				C303,391.4,303,391.4,303,391.4z M302.9,391.4C302.9,391.4,302.9,391.4,302.9,391.4C302.9,391.4,302.9,391.4,302.9,391.4z
				 M299,386.4C299,386.4,299,386.4,299,386.4C299,386.4,299,386.4,299,386.4z M299,386.1C299,386.1,299,386.1,299,386.1
				C299,386.1,299,386.1,299,386.1z M296.1,381.9C296.1,381.9,296.1,381.9,296.1,381.9C296.1,381.9,296.1,381.9,296.1,381.9z
				 M294.6,380.1C294.6,380.1,294.6,380.2,294.6,380.1L294.6,380.1C294.6,380.2,294.6,380.1,294.6,380.1z M294.7,379.4
				C294.7,379.4,294.7,379.4,294.7,379.4C294.7,379.4,294.7,379.4,294.7,379.4z M294.7,379.6C294.7,379.6,294.7,379.6,294.7,379.6
				C294.7,379.6,294.7,379.6,294.7,379.6z M294.7,379.7C294.7,379.8,294.7,379.8,294.7,379.7C294.7,379.8,294.7,379.8,294.7,379.7z
				 M294.6,379.9C294.6,380,294.6,380,294.6,379.9C294.6,380,294.6,380,294.6,379.9z M300.1,388.3
				C300.1,388.3,300.1,388.3,300.1,388.3L300.1,388.3C300.1,388.3,300.1,388.3,300.1,388.3z M303.9,393.4
				C303.9,393.4,303.9,393.4,303.9,393.4L303.9,393.4C303.9,393.4,303.9,393.4,303.9,393.4z M305.4,394.5
				C305.4,394.5,305.4,394.6,305.4,394.5C305.4,394.6,305.4,394.5,305.4,394.5z"/>
		</g>
		<path fill="#C90010" d="M283.1,379.7c1.6,2.5,2.9,4.8,4.5,7c3.2,4.7,6.8,9.1,11.4,13c3.8,3.2,8.1,6.1,11.6,9.6
			c0.4,0.4,0.8,0.7,1.1,1.2c0.3,0.4,0.6,0.9,0.1,1.4c-0.5,0.5-1,0.3-1.6,0.1c-4.3-1.4-7.9-3.6-11.2-6.2c-4.8-3.8-7.1-8.9-10.1-13.6
			c-2.2-3.5-4.3-7.1-5.7-10.9C283,380.8,282.6,380.5,283.1,379.7z"/>
		<path fill="#99041D" d="M269.3,418.8c1.3-0.4,2.1,0.2,2.8,0.5c10.1,4.5,20.2,9.1,30.8,12.8c1.3,0.4,2.6,0.8,3.9,1.2
			c0.5,0.2,1.3,0.3,1.1,0.9c-0.2,0.5-1,0.3-1.4,0.2c-1.6-0.4-3.2-0.7-4.7-1.3c-10.7-4.1-21.1-8.6-31.1-13.6
			C270.3,419.4,269.9,419.2,269.3,418.8z"/>
		<path fill="#C90010" d="M275.2,368c1.3,2.3,1.5,4.4,2.4,6.4c0.1,0.3,0.1,0.6-0.3,0.7c-0.2,0-0.5-0.1-0.7-0.2
			c-0.9-0.9-2.1-1.7-2.7-2.7C273.1,370.8,274.4,369.6,275.2,368z"/>
		<path fill="#AF1E30" d="M274,359.5c-2.3-8-3-16.2-3.1-24.4c0-2.7,0-5.5,0.1-8.3c0.6-8.4,3.1-16.9,7.6-24.4c2.8-4.7-3.7-6-2.3-11.7
			c-13.5,8-25.9,19.8-33.1,36.8c-1.2,2.8-2.4,5.6-3.6,8.5s-2.3,5.7-3.1,8.6c-0.5,1.7,0.2,2.5,2,3.1c2.3,0.8,4.5,1.7,6.7,2.7
			c0.5,0.2,1.4,0.4,1,1.1c-0.4,0.8-1.2,0.2-1.7,0.1c-2.4-0.7-4.8-1.6-7.2-2.3c-0.6-0.2-1.6-0.8-2,0.1c-0.4,0.8-0.7,1.9,0.6,2.5
			c3.9,1.7,7.8,3.4,12.2,4.3c-0.7-1.1-1.1-2.3-0.8-3.5c0-0.2,0-0.3,0-0.5c-2.2-5.4,2.7-8.2,6.8-11.2c1.5-1.1,3.4-1.7,5.1-2.6
			c2.3-1.1,2.6-2.2,1.3-4c-1.7-2.4-4.1-4.3-6.3-6.4c-2.7-7.6,3.7-12,6.3-14.8c5.7-4.5,8.5-10.2,13.5-14.7c2.4-1.8,3.7,0.2,2.7,2.1
			c-4.5,7.5-7.6,15-9.2,24.1c-0.4,3.3-0.6,6.4-0.8,9.6s-0.3,6.2-0.5,9.3c-0.3,4.3-0.9,8.6-0.4,12.9c0.1,1.2-1.4,1.1-1.8,1.9
			c2.7-0.1,5,0.5,6.6,2.4c0-2.9-0.4-5.7,0.5-8.6c1.3,3.1,2.1,6.3,2.6,9.5C275.1,360.9,274.2,360,274,359.5z M270.7,350.5
			L270.7,350.5c0,0.1-0.1,0.1-0.1,0.2C270.6,350.7,270.7,350.6,270.7,350.5z"/>
		<path fill="#C90010" d="M409.6,356.8c0.2-5,1.5-9.9,2.2-14.9c0.5-3.5,2.3-6.9,3.8-10.3c3.2-8,3.3-15.7,2.7-23.5
			c4.9,9,3.5,21.4,2.4,31.9c-0.3,2.1-0.6,4.2-0.9,6.4c-0.3,2.1-0.6,4.2-1.1,6.3c-0.6,2.7-0.8,5.4-1.3,8.1c-0.3,1.8-2,2.9-3.9,3.7
			c-1.4,0.6-3.2,1.6-4.5,0.9c-1.2-0.6-0.2-2.2-0.1-3.3C409.1,360.2,409.4,358.5,409.6,356.8z"/>
		<path fill="#99041D" d="M420.9,349.1c0.2-2.9,0.5-5.9,0.8-8.8c1.4-9.7,1.5-18.6-0.3-27.1c3.7,6.3,3,18.5,0.9,27.2
			C421.9,343.2,421.4,346.1,420.9,349.1z"/>
		<g>
			<path fill="#FFFFFF" d="M316.1,333.9l5.6-5.4l1.8,0.1L318,334l4.3,5.9l-1.8-0.1L316.1,333.9z"/>
			<path fill="#FFFFFF" d="M323.7,341.7l1.7-14.5l2.5,0.1l-0.6,4.8c0.1-0.5,0.3-0.9,0.5-1.2c0.2-0.3,0.5-0.4,0.9-0.4l1.2,0.1
				c0.7,0,1.2,0.4,1.6,1c0.4,0.7,0.6,1.4,0.5,2.3l-0.6,4.8c-0.1,0.9-0.4,1.6-1,2.2c-0.6,0.6-1.2,0.9-1.8,0.9L323.7,341.7z
				 M326.3,340.2l1.2,0.1c0.3,0,0.7-0.1,0.9-0.4c0.3-0.3,0.4-0.7,0.5-1.1l0.6-4.8c0.1-0.4,0-0.8-0.2-1.2c-0.2-0.3-0.5-0.5-0.8-0.5
				c-0.3,0-0.6,0.1-0.9,0.4c-0.3,0.3-0.4,0.7-0.5,1.1L326.3,340.2z"/>
			<path fill="#FFFFFF" d="M337.3,331.1l2.5,0.1c0.7,0,1.2,0.4,1.6,1c0.4,0.7,0.6,1.4,0.5,2.3l-0.6,4.8c-0.1,0.9-0.4,1.6-1,2.2
				c-0.6,0.6-1.2,0.9-1.8,0.9l-2.5-0.1c-0.7,0-1.2-0.4-1.6-1c-0.4-0.7-0.6-1.4-0.5-2.3l0.6-4.8c0.1-0.9,0.4-1.6,1-2.2
				C336,331.3,336.6,331,337.3,331.1z M336.9,334.3l-0.6,4.8c-0.1,0.4,0,0.8,0.2,1.2c0.2,0.3,0.5,0.5,0.8,0.5c0.3,0,0.7-0.1,0.9-0.4
				c0.3-0.3,0.4-0.7,0.5-1.1l0.6-4.8c0.1-0.4,0-0.8-0.2-1.2c-0.2-0.3-0.5-0.5-0.8-0.5c-0.3,0-0.6,0.1-0.9,0.4
				C337.1,333.5,337,333.8,336.9,334.3z"/>
			<path fill="#FFFFFF" d="M350.8,343.1l-2.5-0.1l0.2-1.6c-0.2,1.1-0.7,1.6-1.4,1.5l-1.2-0.1c-0.7,0-1.2-0.4-1.6-1
				c-0.4-0.7-0.6-1.4-0.5-2.3l0.6-4.8c0.1-0.9,0.4-1.6,1-2.2s1.2-0.9,1.8-0.9l2.5,0.1l0.4-3.2l2.5,0.1L350.8,343.1z M349.4,333.3
				l-1.2-0.1c-0.3,0-0.6,0.1-0.9,0.4c-0.3,0.3-0.4,0.7-0.5,1.1l-0.6,4.8c-0.1,0.4,0,0.8,0.2,1.2c0.2,0.3,0.5,0.5,0.8,0.5
				c0.3,0,0.7-0.1,0.9-0.4c0.3-0.3,0.4-0.7,0.5-1.1L349.4,333.3z"/>
			<path fill="#FFFFFF" d="M354.3,345c-0.1,1.1,0.3,1.7,1,1.7l1.2,0.1c0.3,0,0.7-0.1,0.9-0.4c0.3-0.3,0.4-0.7,0.5-1.1l0.4-3.2
				c-0.2,1.1-0.7,1.6-1.4,1.5l-1.2-0.1c-0.7,0-1.2-0.4-1.6-1c-0.4-0.7-0.6-1.4-0.5-2.3l0.9-8l2.5,0.1l-0.9,8c-0.1,0.4,0,0.8,0.2,1.2
				c0.2,0.3,0.5,0.5,0.8,0.5c0.3,0,0.7-0.1,0.9-0.4c0.3-0.3,0.4-0.7,0.5-1.1l0.9-8l2.5,0.1l-1.5,12.9c-0.1,0.9-0.4,1.6-1,2.2
				c-0.6,0.6-1.2,0.9-1.8,0.9l-2.5-0.1c-1.4-0.1-2.1-1.2-2.1-3.4L354.3,345z"/>
			<path fill="#FFFFFF" d="M369.8,336.9l-5.6,5.4l-1.8-0.1l5.6-5.4l-4.3-5.9l1.8,0.1L369.8,336.9z"/>
		</g>
		<path fill="#99041D" d="M326.7,258.8c3.9,2.9,8.9,4.2,14.1,5.4c1.7,0.4,3.4,0.7,5.2,0.9c9.1,1.1,18.3,1,27.4-0.3
			c1.6-0.2,3.3-0.6,4.9-1.1c8.7,2.1,19.1,1.7,25.7,7.9c15.8,16.3,29.9,35.5,37.3,59c0.7,2.6,1.4,5.1,2.1,7.7
			c2.1,7.7,4,15.4,5.4,23.2c0.4,2.1,0,2.8-2.5,3.7c-6.1,2-12.4,3.1-18.8,3.9c-2.4,0.3-4.7,0.6-7.1,1c-0.9,0.1-1.9,0.3-2.6,0.8
			c-3.2,2.1-6.8,2.7-10.7,2.5c-1.6-0.1-2.1,0.4-2.2,1.6c-0.4,3.8-1,7.7-1.4,11.5c-0.4,4-1.6,7.8-3,11.7c-0.5,1.3-0.5,2.5,0.1,3.8
			c1.5,3.4,0.8,6.8-0.4,10.2c-1,2.7-3.5,14.5-3.4,17.3c0.1,3.8-0.5,7.5-1,11.2c-0.4,2.9-1.2,3.6-4.8,3.7
			c-10.6,0.4-20.5,3.3-30.6,5.9c-6.7,1.7-13.6,3.1-20.6,3.5c-6.9,0.3-13.7,0.1-20.5-0.3c-9.4-0.5-18.2-2.7-26.9-5.2
			c-7.8-2.3-16-3.1-24.3-3c-3.2,0-4.1-0.6-4.7-3.1c-0.8-3.6-1-7.2-0.7-10.8c0.4-4.7,0.9-9.3,1-14c0-0.1,0-0.1,0-0.2
			c-1.2-3.5-0.2-6.7,1.7-9.9c0.7-1.2,0.6-2.5-0.1-3.8c-2.6-4.8-2.3-9.5,0.4-14.3c1-1.7,1.3-3.5,1.1-5.4c-0.5-5.2,0.5-10.3,3.3-15.1
			c0.3-0.5,0.5-1.1,0.8-1.7c0.7-1.2,0.2-2-1-2.9c-3.9-2.9-8.8-3-13.6-3.3c-6.7-0.5-12.8-2.3-18.7-4.6c-2.1-0.8-4.3-1.3-6.3-2.4
			c0.4-3.7,0.8-7.4,1.3-11c1.6-0.4,0.9-1.6,1.2-2.4c1.4-4,3.1-8,4.9-11.9c0.9-2,1.8-3.9,2.8-5.9c2.6-6.5,6.3-13.1,11.1-16.7
			c17.1-13.6,29.7-27.4,45.9-40c8.1-6.3,18-2.9,27.2-7.1C326,258.7,326.3,258.7,326.7,258.8z M293.7,407.2L293.7,407.2
			c0-0.4-0.2-0.8-0.7-1l0,0c0-0.4-0.2-0.8-0.7-1l0,0c0-0.4-0.3-0.8-0.7-1.1c-0.1-0.2-0.2-0.4-0.3-0.6c-0.1-0.4-0.2-0.8-0.7-1l0,0
			c-0.1-0.7-0.5-1.2-1-1.7c-0.1-0.2-0.2-0.4-0.3-0.6c0-0.4-0.3-0.8-0.7-1.1c-0.1-0.2-0.2-0.4-0.3-0.6c-0.3-0.7-0.6-1.3-0.9-1.9
			c-3.1-5.3-5.4-10.9-7.4-16.6c-1.4-4-2.5-8.1-3.8-12.2c-0.1-0.4,0-1-0.7-1c-0.6,0-0.8,0.5-1,0.9c-0.8,1.7-1.6,3.4-2.3,5.1
			c-1.1,2.6-2.2,5.2-1.7,8c0.8,4.4-0.2,8.5-2.6,12.5c-0.8,1.3-0.9,2.8-0.7,4.3c0,0.2,0.1,0.4,0.1,0.6c-0.1,1.7,0.6,3.2,1.4,4.7
			c0.4,1.2,0.6,2.4,0.7,3.6c-0.1,0.2-0.1,0.4-0.2,0.7c-0.3,0.9-0.6,1.7-0.8,2.6c-0.3,0.1-0.4,0.4-0.4,0.7c-0.9,1.5-1.7,3.1-1,4.8
			c0.9,2.5-0.2,5.1,0.1,7.6c0,0.6-0.1,1.3-0.1,1.9c-0.8,5.3-1.1,10.6-0.3,15.9c0.2,1.1,0.7,1.5,2,1.6c2.5,0.1,5,0.2,7.5,0.3
			c1.4,0.1,2.9,0.3,4.3,0.4c0.8,0.3,1.6,0.3,2.4,0.3c0.4,0.1,0.8,0.1,1.1,0.2c0.5,0.4,1,0.3,1.6,0.3c0.3,0,0.5,0.1,0.8,0.1
			c0.4,0.4,1,0.3,1.6,0.3c0.2,0.1,0.5,0.1,0.7,0.2c0.2,0.2,0.5,0.2,0.8,0.2c0.3,0.1,0.5,0.1,0.8,0.2c0.7,0.4,1.5,0.6,2.4,0.7
			c0.2,0.1,0.5,0.1,0.7,0.2c0.2,0.2,0.5,0.3,0.8,0.2c1.2,0.3,2.3,0.6,3.5,1c0.2,0.3,0.5,0.3,0.8,0.2c0.8,0.2,1.5,0.4,2.3,0.6
			c0.2,0.2,0.5,0.2,0.8,0.2c0.2,0.1,0.5,0.1,0.7,0.2c0.2,0.3,0.5,0.3,0.8,0.2c0.4,0.1,0.7,0.2,1.1,0.3c0.3,0.1,0.6,0.1,0.8,0.2
			c0.4,0.1,0.7,0.2,1.1,0.3c0.2,0.2,0.5,0.2,0.8,0.2c0.4,0.1,0.8,0.1,1.1,0.2c0.2,0.2,0.5,0.3,0.8,0.2c0.6,0.1,1.3,0.2,1.9,0.3
			c0.2,0.2,0.5,0.2,0.8,0.2c0.6,0.1,1.3,0.2,1.9,0.3c1,0.6,2.1,0.3,3.2,0.4c0.4,0.1,0.8,0.1,1.1,0.2c4.9,0.8,9.9,0.8,14.8,0.5
			c0.3,0,0.5,0,0.8-0.1c0.7,0.1,1.4,0.2,2.1-0.1c0.5,0,1,0,1.6-0.1c0.4,0.1,0.9,0.2,1.3-0.1c0.5,0,1-0.1,1.6-0.1
			c0.4,0.1,0.9,0.2,1.2-0.1c0.3,0,0.5,0,0.8-0.1c0.3,0.1,0.6,0.1,0.9-0.1c0.3,0,0.5-0.1,0.8-0.1c0.4,0.1,0.9,0.1,1.2-0.2
			c0.3,0,0.5-0.1,0.8-0.1c1.3,0,2.5-0.2,3.7-0.6c0.3-0.1,0.5-0.1,0.8-0.2c2-0.2,3.9-0.6,5.8-1.2c4.9-1.3,9.9-2.6,14.8-3.9
			c0.3,0.1,0.6,0.1,0.8-0.2c1.8-0.4,3.5-0.7,5.3-1.1c0.3,0.1,0.6,0.1,0.8-0.2c0.7-0.1,1.3-0.2,2-0.3c0.3,0.1,0.6,0.1,0.8-0.2
			c0.3,0,0.5-0.1,0.8-0.1c0.3,0.1,0.6,0.1,0.9-0.1c0.3,0,0.5-0.1,0.8-0.1c0.3,0,0.6,0,0.9-0.1c0.4-0.1,0.8-0.1,1.2-0.2
			c0.3,0,0.6,0,0.9-0.1c0.7,0,1.3-0.1,2-0.1c0.3,0.1,0.6,0.1,0.9-0.1c1.9,0.3,2.5-0.4,2.7-1.9c0.3-3,0.8-6,0.9-9
			c0.2-0.4,0.2-0.7-0.1-1c0-0.5,0-1.1,0-1.6c0.1-0.4,0.2-0.7-0.1-1c0-0.3-0.1-0.6-0.1-1c0.1-0.3,0.1-0.5-0.1-0.7
			c0-0.2-0.1-0.4-0.1-0.6c0.1-0.8-0.2-1.5-0.6-2.1c-0.6,0.2-1,0.5-1.2,1l0,0c-1.1,0.7-2.3,1.4-3.1,2.4l0,0c-3,2.1-6.1,4.3-9.1,6.4
			c-0.3,0.2-0.6,0.4-0.9,0.5c-0.5-0.1-1,0.6-1.6,0.1c0.7-0.9,1.7-1.4,2.6-2.1c2-1.5,4.3-2.6,6-4.4c0.1-0.1,0.2-0.2,0.4-0.3
			c0.9-0.5,1.7-1.1,2.3-1.8c0.1-0.1,0.2-0.2,0.3-0.3c0.5-0.2,0.8-0.5,1-0.9c0.4-0.4,0.8-0.8,1.2-1.2c0.5-0.2,0.8-0.5,0.9-1
			c2.4-2.6,4.1-5.5,5.5-8.5c0.3-0.2,0.3-0.4,0.3-0.7c0.1-0.2,0.2-0.4,0.3-0.6c0.3-0.2,0.3-0.4,0.2-0.7c0.1-0.2,0.2-0.4,0.2-0.6
			c0.4-0.3,0.4-0.6,0.3-1c0.3-1.4,0.7-2.8,0.1-4.2c0.1-0.6-0.2-1.1-1-1.7c-3,3.9-5.9,7.7-8.9,11.6l0,0c-1.4,1.2-2.4,2.6-3.6,4
			c-3.1,3.6-6.2,7.2-9.3,10.7l0,0c-0.5,0.2-0.8,0.5-0.9,0.9l0,0c-0.5,0.2-0.8,0.5-1,0.9c-0.4,0.2-0.8,0.3-1.3,0.5
			c0.2-1.4,1.4-2.4,2.4-3.5c6.6-7.5,13.3-15,19.1-22.9c1.3-1.8,2.7-3.6,2.9-5.8c0.1-0.2,0.1-0.4,0.2-0.6c0.4-0.3,0.4-0.6,0.4-1
			c0.1-0.2,0.1-0.4,0.2-0.6c0.4-0.3,0.4-0.6,0.4-1c0.1-0.2,0.1-0.4,0.2-0.6c0.1-0.2,0.3-0.4,0.4-0.6c1.7-5.8,2.7-11.6,3.3-17.6
			c0.1-0.8,0-1.7-0.4-2.6c-0.9,0.7-1.4,1.5-1.8,2.3c-1.9,3.3-3.8,6.6-5.7,10c-5.9,10.2-11.5,20.5-18.8,30.1
			c-0.4,0.6-0.8,1.2-1.5,1.6c-0.3,0.2-0.6,0.8-1.1,0.3c-0.5-0.4,0.1-0.7,0.3-1c1.5-2.1,3.2-4.1,4.7-6.2c6.7-9.6,12-19.7,17.4-29.8
			c2.7-5.2,6-10.2,8-15.6c1.5-4.2,2-8.5,2.8-12.8c0.8-4.5,1.4-9,2.1-13.5c0.3-2.3,0.7-4.5,1-6.8c3.1-11.1-0.1-21.9,1.3-33.4
			c1.1,3,0,6.8,1.1,9.7c2.3-0.8,3.4-3.7,4.3-5.6c1.9-3.8-2.4-5-3.6-7c2.9,0.2,4,4.1,5.9,6.1c5.2-13.2-7.8-25.2-15.3-30.4
			c-4.2-2.2-12.3-3-14.2-1.7c-4.5,3-8.6,9.8-14.5,12c-0.1,0.1-0.3,0.1-0.4,0.2c-1.3,0.6-2.5,1.2-3.8,1.8l0,0
			c-0.6,0.2-1.3,0.4-1.9,0.6c-7.2,2.2-14.4,3.2-21.9,1.8c-2.3-0.4-4.6-0.7-6.6-1.8c-14.6-8.4-17.9-13.4-20.6-18.8
			c-3.6-7.2-30.7,4.1-36.6,23.1c3.8-0.8,8.7-11.1,8-5.4c-0.3,15.4-18.5,26-15.8,44.5c0.1,2.4,0.1,4.8-0.2,7.2
			c-0.4,2.8-0.3,5.7,0.1,8.4c0.7,4.8,1.6,9.7,2.7,14.5c3.4,14.6,8.6,28.6,16.2,42.1c1.9,3.3,3.8,6.6,6.4,9.6
			c0.3,0.4,0.6,0.8,0.9,1.2c1.1,1.6,2.9,2.9,3.6,4.8c-1.7-0.4-2.2-1.8-3.5-2.6c-0.1-0.1-0.2-0.2-0.3-0.3c-0.3-0.7-0.9-1.2-1.5-1.7
			c-0.1-0.1-0.2-0.2-0.3-0.4c-0.2-0.5-0.5-1-1.1-1.4l0,0c-0.1-0.6-0.5-1-1-1.4l0,0c-0.1-0.4-0.3-0.8-0.7-1l0,0
			C294.3,407.8,294.1,407.4,293.7,407.2z M278.7,294.4c1.5,1.3,1.9,4.2,3.4,3.3c2.5-2.8,8.4-9.2,5.2-13.2
			C286,290.2,279.6,287.9,278.7,294.4L278.7,294.4z M273.6,361.4L273.6,361.4c1.5-0.5,0.5-1.3,0.4-1.9c-2.3-8-3-16.2-3.1-24.4
			c0-2.7,0-5.5,0.1-8.3c0.6-8.4,3.1-16.9,7.6-24.4c2.8-4.7-3.7-6-2.3-11.7c-13.5,8-25.9,19.8-33.1,36.8c-1.2,2.8-2.4,5.6-3.6,8.5
			s-2.3,5.7-3.1,8.6c-0.5,1.7,0.2,2.5,2,3.1c2.3,0.8,4.5,1.7,6.7,2.7c0.5,0.2,1.4,0.4,1,1.1c-0.4,0.8-1.2,0.2-1.7,0.1
			c-2.4-0.7-4.8-1.6-7.2-2.3c-0.6-0.2-1.6-0.8-2,0.1c-0.4,0.8-0.7,1.9,0.6,2.5c3.9,1.7,7.8,3.4,12.2,4.3c0.4,0.2,0.8,0.3,1.3,0.2
			c0.2,0.4,0.5,0.6,1,0.4c0.4,0.1,0.8,0.2,1.1,0.2c0.4,0.4,1,0.3,1.6,0.3c0.9,0.1,1.8,0.2,2.7,0.4c0.3,0,0.6,0.1,0.8,0.1
			c2.4,0.1,4.8,0.3,7.1,0.4c2.7-0.1,5,0.5,6.6,2.4c0.3,0.5,0.8,0.7,1.4,0.8C272.4,362.2,273,362.4,273.6,361.4z M427,365.9
			c0.3,0,0.5-0.1,0.8-0.1c0.3,0.1,0.6,0.1,0.9-0.1c0.3,0,0.5-0.1,0.8-0.1c0.3,0.1,0.6,0.1,0.9-0.2c0.3,0,0.5-0.1,0.8-0.1
			c0.7,0,1.4-0.1,2.1-0.4c0.3,0,0.5-0.1,0.8-0.1c0.7,0,1.4-0.1,2.1-0.4c2.8-0.6,5.7-0.9,8.3-2.2c0.7-0.3,1.1-0.7,0.6-1.3
			c0-0.2,0-0.4-0.1-0.6c0-1.3-0.4-2.4-2.3-2c-6.3,1.3-12.6,2-18.9,3.1c-0.5,0-1.1-0.1-1.6-0.1c0.1-1.1,1.3-1,2.1-1.1
			c2-0.3,3.9-0.5,5.9-0.8c3.8-0.6,7.7-1.3,11.5-2.1c1-0.2,2.5-0.2,2.3-1.6c-0.5-2.7-1-5.4-1.9-8c0-0.7-0.2-1.3-0.5-2
			c0.1-0.3,0.1-0.5-0.2-0.7c-0.5-2-1.1-4-1.6-6c-0.5-2-1.1-4-1.6-6c-1.3-3.7-2.3-9.2-3.7-12.4c-3.7-8.4-8.2-15.1-13.3-22.1
			c-4.7,8.4-2,17.3-3.8,26.8c-1.1,2.8-2.1,5.7-3.3,8.7c-0.7,1.8-1.7,3.6-2.5,5.4c-0.1,0.3-0.4,0.7-0.9,0.6c-0.5-0.1-0.4-0.5-0.4-0.8
			c0.1-0.4,0.2-0.7,0.4-1.1c1.5-3.2,3-6.3,4.3-9.7c2.1-7.8,2.2-14.6,0.8-21.4c-8.8,6.3-3.6,18.2-6.5,27.7c-0.3,2.2-0.6,4.4-0.9,6.6
			c-0.3,2.2-0.6,4.4-0.9,6.6c-0.8,5.8-1.2,11.5-3.2,17.2c-0.4,1,0.1,1.5,1.4,1.5c2.3,0,4.6-0.3,6.9-0.9c4-1.1,6.1-3.3,6.4-6.8
			c0.1-1.8,0.6-3.7,0.9-5.5c0.1-0.4,0-1,0.8-1.2c0.7,0.7,0.4,1.5,0.5,2.2c-0.2,1.5-0.4,3-0.6,4.5c-0.4,2.2-1.4,4.3-1.5,6.5
			c-0.1,1,0.4,1.5,1.8,1.1c0.4,0,0.8,0,1.2,0c0.4,0.1,0.9,0.2,1.3-0.1c1.1-0.1,2.1-0.2,3.2-0.3C426.5,366.1,426.8,366.1,427,365.9z
			 M349.7,287c2.6,0.2,5.2,0.1,7.8-0.3c3.8-0.6,7.2-1.6,10.4-2.9c3.2-1.3,6-3,8.6-5.1c2-3.8,7.8-3.5,6.3-9.3
			c-0.3-3.9-3.3-3.1-5.6-0.6c-2.1,2.1-4.3,3.8-6.8,5.4c-2.5,1.6-5.1,3-7.9,4.2c-6.7,2.9-13.9,3.2-20,0.9c-2-0.8-4-1.8-5.7-3.2
			c-6.1-1.9-12.1-20.6-15.5-10.1c-1.6,7.6,8.2,12.8,15.4,17.8c1.8,1.3,4,1.6,6.2,2.1C345,286.5,347.3,286.9,349.7,287z M328.5,264
			c2,4.4,5.4,7.5,9,8.3c2.2,0.6,4.4,1.1,6.6,1.5c6.6,1.1,13.4,1.3,20.3,0.5c2.5-0.3,4.6-1.1,6.5-2.2c1.9-1.1,3.6-2.6,5.3-4.4
			c-1.7,0.3-3.5,0.5-5.2,0.7c-8.6,1-17,1.1-25.2,0.1c-2-0.2-3.9-0.6-5.9-1c-2-0.4-3.9-0.9-5.9-1.4
			C332.2,265.5,330.3,264.8,328.5,264z M364.7,275.7c-5.1,0-9.8-0.1-14.5-0.3c-2.4-0.1-4.7-0.3-7-0.6c-2.3-0.3-4.6-0.9-7-1.6
			c1.1,2.3,3.8,4,7,5C349.8,280.2,359.2,279.5,364.7,275.7z M408.3,370.4c3.5-0.2,6.5-1.1,8.4-3.6c0.3-0.4,0.8-0.9,0.4-1.3
			c-0.5-0.5-1.1-0.1-1.6,0.1c-3.5,1.4-7,2.4-11,2.1c-0.7-0.1-1.2,0.1-1.4,0.7c-0.2,0.6,0.3,0.9,0.8,1.1
			C405.3,370.1,407,370,408.3,370.4z"/>
	</g>
	<path fill="#FFFFFF" stroke="#000000" stroke-width="2" stroke-miterlimit="10" d="M244.8,354.7c0,2.2-0.2,4.3-0.8,6.4
		c-0.7,2.6-2.1,5.2-4.6,6.3c-3.1,1.5-6.8,0-10-1.3c-10.4-4.2-21.5-6.8-32.8-7.6c-4.3-0.3-9.9-1.3-10.7-5.6c-0.3-1.8,0.3-3.7-0.1-5.4
		c-1-3.5-6.7-3.9-8.7-0.9c-2,3-0.5,7.5,2.5,9.5c-2.2-2.1-6.1-4.2-7.9-1.7c-1,1.4-0.4,3.5,0.9,4.6c1.3,1.2,3,1.6,4.7,2
		c-2-1.7-5.5-1.8-6.8,0.5s1.8,5.6,3.8,3.9c-2.5-1.6-5.4,2.7-3.7,5.2s5.3,2.6,8.1,1.6c2.8-0.9,5.3-2.7,8.2-3.2c5.4-1,10.5,2.3,15.4,5
		c8.9,4.9,18.8,7.6,28.6,10.4c5.5,1.5,11.4,3.1,16.7,0.9c6.3-2.5,9.5-9.3,12.1-15.5c1.7-3.9,3.3-7.8,5-11.7"/>
	<path fill="#FFFFFF" stroke="#000000" stroke-width="2" stroke-miterlimit="10" d="M419.7,368.4c-0.2,3-0.5,6-0.7,9.1
		c-0.4,5-0.7,10.2,1.4,14.7c1.5,3.1,4,5.6,6.5,8c8.3,8.1,16.5,16.2,24.8,24.2c-1.5,2-2.2,4.5-2,6.9c2.2,0.8,4.7,1.1,7,0.9
		c0.1-1.3,0.1-2.6,0.2-4c-0.6,1.5,0.8,3.2,2.4,3.7c1.5,0.4,3.3-0.7,3.6-2.3c0.4-2.5-2.3-4.2-4.7-5.1c3.7,1.8,7.7,3,11.8,3.6
		c0.2-4.1-3.5-8-7.6-8c1.9,1.2,4,2.4,6.2,2.5c2.3,0.1,4.7-1.5,4.8-3.7c0.1-2.2-2.1-4-4.3-4.5c-2.2-0.5-4.5-0.2-6.7-0.7
		c-5.7-1.2-9.2-6.7-11.7-12c-2.5-5.3-4.8-11.1-9.7-14.1c-1.9-1.2-4.4-2-5.3-4.1c-0.5-1.1-0.5-2.4-0.4-3.6c0.3-5.2,0.9-10.5,1.7-15.6
		"/>
</g>
<g id="Jeans">
	<path fill="#FFFFFF" stroke="#000000" stroke-width="2" stroke-miterlimit="10" d="M397.5,262.5c14.4-13.7,13.5-37,7.9-56
		c-2.4-8.1-5.4-16-9.8-23.2c-11.2-18.6-32.8-31.8-54.3-29c-17.5,2.3-32.9,14.9-40.2,31s-7.2,35-1.4,51.7c3,8.7,7.7,17.1,14.8,22.9
		c8.4,6.9,19.5,9.6,30.2,11.5C363,274.5,384.1,275.3,397.5,262.5z"/>
	<path fill="#FFFFFF" stroke="#000000" stroke-width="2" stroke-miterlimit="10" d="M322.2,168.1c1.9-12.9,4.1-27.3,3.2-41.2
		c8.7,10.6,16.2,25.6,22.4,37.7"/>
	<path fill="#FFFFFF" stroke="#000000" stroke-width="2" stroke-miterlimit="10" d="M363.4,164c1.2-10.6,10.7-23.7,12.9-34.1
		c5.2,13,5.2,25,7.2,38.9"/>
	<path fill="#FFFFFF" stroke="#000000" stroke-width="2" stroke-miterlimit="10" d="M348,194.3c-4.5,3.1-12.8,4.5-20.2,3.6
		c-1.4-0.2-2.9-0.5-3.2-1.3c-0.1-0.3,0.1-0.6,0.3-0.9c1.5-2.2,5.5-3.8,10-4.2c4.5-0.4,9.3,0.6,12.2,2.3L348,194.3z"/>
	<path d="M334.8,192c2.3,1.4,2.9,3.8,1.5,5.5C332.6,197.1,332.6,193.6,334.8,192z"/>
	<path fill="none" stroke="#000000" stroke-width="2" stroke-miterlimit="10" d="M331.1,235.9c2.7,6.5,9.8,8.9,14.7,11.5
		s12.1,2.6,17.4,2c1.2-0.2,2.4-0.8,3.5-1.1c2.2-0.7,1.7-1,1.7-2.1c-0.1-4.8-1.4-14.2-2.4-20.5c-1.1-6.7-8.7-5.7-11.1-11.7
		c5.6-0.7,11.2-2.1,16.7-4.3c-2.1,4.4-4.3,8.9-6.4,13.3c2.2,6.9,2,14.1,3.8,21.9c0.5,2,5.2,2.5,6.6,2.8
		c12.2,2.3,20.7-11.6,21.2-13.6"/>
	<path fill="#FFFFFF" stroke="#000000" stroke-width="2" stroke-miterlimit="10" d="M389.4,191.5c-4.5,3.1-9,4.8-16.3,3.9
		c-1.4-0.2-6.8-0.8-7-1.5c-0.1-0.3,1.6-2.2,1.9-2.4c2.7-1.9,3.9-2.3,8.4-2.7c4.5-0.4,9.3,0.6,12.2,2.3L389.4,191.5z"/>
	<path d="M378.8,195.6c0.5-1,0-2-0.1-3.2c0-1.2,0.2-1.9-1.4-4.5c-1.7,1.1-1.8,2.3-1.1,4.3c0.2,0.6,0.2,0.6,1.8,2.7L378.8,195.6z"/>
</g>
<g id="Layer_12">
	<path fill="#FFFFFF" stroke="#606060" stroke-width="2" stroke-miterlimit="10" d="M693.8,167.2c2.6-7.4-0.7-15.9-6.7-21
		c-5.9-5.1-13.9-7.1-21.7-7.5c9.9-7.2,13.1-22.2,7-32.8c-6.2-10.6-20.8-15.3-32-10.2c6.9-3.3,7.2-14.1,2-19.7
		c-5.2-5.6-13.6-7.1-21.3-6.7c-7.7,0.3-15.3,2.1-22.9,1.4c3.7-5.8,0.7-14-5-17.9c-5.7-3.9-13-4.3-19.8-3.7
		c-10.2,0.9-20.1,3.9-29.1,8.6c2.5-3.9-0.1-9.6-4.3-11.7c-4.2-2.1-9.1-1.7-13.7-0.8c-9.9,2-19.4,6.1-27.8,11.9
		c-4.3-6-12.2-12.7-18-8.1c-3.8,3.1-3.7,9.5-7.7,12.4c-4.2,3-9.9,0.1-14.7-1.9c-6.7-2.9-14.2-3.9-21.5-3.1c-7,0.8-14.5,4-17.2,10.5
		c-2.8,6.5,2.5,15.8,9.5,14.4c-9.5,1.8-17,8.9-23.9,15.7c-2.4,2.4-5,5-5.6,8.4s2,7.4,5.4,6.9c-7.3,8.1-9.4,20.5-5.3,30.6
		c4.1,10.1,14.3,17.4,25.2,18.1c-2.1,12.4,11.2,24.8,23.5,21.7c-0.2,9.6,6.7,19,15.9,21.8c8.3,2.5,17.9,0.2,25.3,4.7
		c6.9,4.2,12.1,13.9,19.9,11.9c-0.6-3.6-1.2-7.1-1.8-10.7c17.2,13.6,39.4,20.4,61.3,19.3c4.7-0.2,9.7-1,13-4.3s3.1-10.1-1.2-11.8
		c14.6,5,30.8,5.5,45.6,1.2c8.9-2.6,18.8-9.9,16.4-18.8c14.4-2.3,28.2-7.9,40.2-16.2C687.4,176.4,692,172.5,693.8,167.2z"/>
	<path fill="none" stroke="#606060" stroke-width="2" stroke-miterlimit="10" d="M435,193.8c-1.5,0.7-3.9,4.7-4.3,8.2
		c-0.2,2.5,1.5,6.1,3.2,7.9c3.1,3.3,9.3-0.4,9.7-4.9c0.4-4.6-1.2-10.9-5.6-12.1C437.2,192.6,435.7,193.5,435,193.8z"/>
	<path fill="none" stroke="#606060" stroke-width="2" stroke-miterlimit="10" d="M406,195.7c-2.3,3.9-0.1,6.9,3.4,9.8
		c3.8,3.1,10.3-1.1,9.8-5.9s-7.1-9.9-10.9-6.9C407.9,193,406,195.7,406,195.7z"/>
</g>
<g id="Layer_11">
	<g>
		<path fill="#FFFFFF" stroke="#000000" stroke-width="0.5" stroke-miterlimit="10" d="M563.5,178.3c-9.1-8.7-8.6-23.5-5-35.6
			c1.5-5.1,3.4-10.2,6.2-14.7c7.1-11.8,20.8-20.2,34.5-18.4c11.1,1.4,20.9,9.5,25.5,19.7c4.7,10.2,4.6,22.2,0.9,32.8
			c-1.9,5.5-4.9,10.9-9.4,14.5c-5.4,4.4-12.4,6.1-19.2,7.3C585.4,185.9,572,186.4,563.5,178.3z"/>
		<path fill="#FFFFFF" stroke="#000000" stroke-width="0.5" stroke-miterlimit="10" d="M606.9,117.5c-1.2-8.2-2.6-17.4-2-26.2
			c-5.5,6.7-10.3,16.2-14.3,24"/>
		<path fill="#FFFFFF" stroke="#000000" stroke-width="0.5" stroke-miterlimit="10" d="M585.1,115.8c-0.8-6.7-6.8-15-8.2-21.7
			c-3.3,8.3-3.3,15.9-4.6,24.7"/>
		<path fill="#FFFFFF" stroke="#000000" stroke-width="0.5" stroke-miterlimit="10" d="M585.1,163.6c-3.8,4.1-10.2,5.7-15.5,3.8
			c-1.2-0.4-2.3-1-3-2c-0.7-1-0.8-2.2-1-3.3c-0.3-2.9-0.4-5.9-0.3-8.9c0-0.6,0.1-1.2,0.4-1.7c0.3-0.5,0.7-0.8,1.2-1.1
			c2-1.4,3.9-2.8,5.9-4.2c-3.8-1.8-8.2-2.2-12.3-1.2c4.7,3.1,5.3,9.7,4.5,15.3c-0.3,2-0.8,4-2,5.6c-1.2,1.6-3.9,2.4-5.8,1.8"/>
		<path fill="#FFFFFF" stroke="#000000" stroke-width="0.5" stroke-miterlimit="10" d="M573.9,132.6c2.9,3.9,8.2,5.7,12.8,4.5
			c0.9-0.2,1.8-0.7,2-1.6c0.1-0.4,0-0.8-0.2-1.1c-1-2.7-3.5-4.8-6.3-5.3c-2.9-0.5-5.9,0.7-7.7,3L573.9,132.6z"/>
		<path d="M582.3,129.7c-1.4,1.7-1.8,4.8-0.9,6.9C583.7,136.1,583.7,131.6,582.3,129.7z"/>
		<path fill="none" stroke="#000000" stroke-width="0.5" stroke-miterlimit="10" d="M561.5,133.3c1.4,0.7,2.9-0.2,4.2-0.9
			c0.6-0.4,1.2-0.7,1.8-1.1c-0.7-1.7-1.5-2.3-2.9-3.3"/>
		<path d="M562.5,133.7c0-1,0.7-1.5,0.9-2.4s0.4-1.2,1.5-2.4c0.4,1.6-0.1,2.5-0.8,3.7c-0.2,0.4,0.1,0.9-1.5,1.3"/>
		<path stroke="#2B2B2B" stroke-width="0.5" stroke-miterlimit="10" d="M511.8,172.6c8.8-9,7.7-23.8,3.7-35.7
			c-1.7-5.1-3.8-10-6.7-14.5c-7.5-11.5-21.5-19.4-35.1-17.2c-11.1,1.8-20.5,10.2-24.8,20.6c-4.3,10.4-3.8,22.4,0.3,32.8
			c2.1,5.5,5.2,10.7,9.9,14.2c5.5,4.2,12.6,5.6,19.5,6.6C490.2,181,503.6,181,511.8,172.6z"/>
		<path stroke="#2B2B2B" stroke-width="0.5" stroke-miterlimit="10" d="M467.3,112.8c1.2-8.2,2.6-17.4,2-26.2
			c5.5,6.7,10.3,16.2,14.3,24"/>
		<path stroke="#2B2B2B" stroke-width="0.5" stroke-miterlimit="10" d="M489.1,111.1c0.8-6.7,6.8-15,8.2-21.7
			c3.3,8.3,3.3,15.9,4.6,24.7"/>
		<path fill="none" stroke="#6B6B6B" stroke-width="0.5" stroke-miterlimit="10" d="M489.1,159c3.8,4.1,10.2,5.7,15.5,3.8
			c1.2-0.4,2.3-1,3-2c0.7-1,0.8-2.2,1-3.3c0.3-2.9,0.4-5.9,0.3-8.9c0-0.6-0.1-1.2-0.4-1.7c-0.3-0.5-0.7-0.8-1.2-1.1
			c-2-1.4-3.9-2.8-5.9-4.2c3.8-1.8,8.2-2.2,12.3-1.2c-4.7,3.1-5.3,9.7-4.5,15.3c0.3,2,0.8,4,2,5.6c1.2,1.6,3.9,2.4,5.8,1.8"/>
		<path fill="#FFFFFF" stroke="#6B6B6B" stroke-width="0.5" stroke-miterlimit="10" d="M500.4,127.9c-2.9,3.9-8.2,5.7-12.8,4.5
			c-0.9-0.2-1.8-0.7-2-1.6c-0.1-0.4,0-0.8,0.2-1.1c1-2.7,3.5-4.8,6.3-5.3s5.9,0.7,7.7,3L500.4,127.9z"/>
		<path d="M491.9,125c1.4,1.7,1.8,4.8,0.9,6.9C490.5,131.5,490.5,127,491.9,125z"/>
		<path fill="#FFFFFF" stroke="#6B6B6B" stroke-width="0.5" stroke-miterlimit="10" d="M512.8,128.7c-1.4,0.7-2.9-0.2-4.2-0.9
			c-0.6-0.4-1.2-0.7-1.8-1.1c0.7-1.7,1.5-2.3,2.9-3.3"/>
		<path d="M511.7,129c0-1-0.7-1.5-0.9-2.4c-0.2-0.9-0.4-1.2-1.5-2.4c-0.4,1.6,0.1,2.5,0.8,3.7c0.2,0.4-0.1,0.9,1.5,1.3"/>
	</g>
</g>
</svg>
