<?xml version="1.0" encoding="utf-8"?>
<!-- Generator: Adobe Illustrator 18.1.1, SVG Export Plug-In . SVG Version: 6.00 Build 0)  -->
<svg version="1.1" xmlns="http://www.w3.org/2000/svg" xmlns:xlink="http://www.w3.org/1999/xlink" x="0px" y="0px"
	 viewBox="0 0 520 453" enable-background="new 0 0 520 453" xml:space="preserve">
<g id="Walls">
	<polygon fill="#E0E0E0" points="318,246.7 318,-195.5 520,-195.5 520,286.5 	"/>
	<polygon fill="#FFFFFF" points="0,286.5 318,246.7 318,-195.5 0,-195.5 	"/>
	<polygon fill="#575757" points="0,574.5 0,286.5 346.3,246.7 520,286.5 520,574.5 	"/>
</g>
<g id="Window">
	<path fill="#9EC9D8" stroke="#896847" stroke-width="5" stroke-miterlimit="10" d="M227.8,63.9c0-26.4,1.1-63,1.2-93.5
		c0-35.7,0-61.8-1.1-93.7c-0.2-6.2-1.6-27.3-1.6-27.3s-11.8-3-20.5-3.8c-37.1-3.6-67.3-3.8-104.7-3.8c0,121.7,1.7,142.3,9.7,345.7
		c33.9-9.4,84.1-9.1,118.1-18.5L227.8,63.9z"/>
	<g id="Layer_19">
	</g>
	<path fill="#86A9B2" d="M210.8,147.7c1.6-8.4,2.1-17.1,1.6-25.6c-3.7,10.3-8,20.4-13,30.2c3.9-1.5,7.8-3,11.7-4.6"/>
	<path fill="#86A9B2" d="M191.8,140.8c-2.3,4.9-2.2,10.7-5.2,15.2c5.7-2.1,8.5-8.5,11-14.1c4.3-9.6,9.6-18.9,11.8-29.2
		c0.9-4.1,1.2-8.4,1.6-12.6c-3.3,9-7,17.8-11.2,26.5c-1.4,3-2.9,6-4.7,8.8C193.9,137.2,192.7,138.9,191.8,140.8z"/>
	<path fill="none" stroke="#896847" stroke-width="5" stroke-miterlimit="10" d="M227.8,85.1c-22.5,2.2-38.5,3.2-55.3,5.6
		c-21.1,3-43.3,9.5-65,11.8"/>
	<path fill="none" stroke="#896847" stroke-width="5" stroke-miterlimit="10" d="M227.1,14.2c-37,3.9-85.8,5.8-123,3.9"/>
	<path fill="none" stroke="#896847" stroke-width="5" stroke-miterlimit="10" d="M228.9-58.7c-39.4-1.5-87.9-3.4-127.2-5.8"/>
	<path fill="none" stroke="#896847" stroke-width="5" stroke-miterlimit="10" d="M167.6-157c-0.5,29.9-2.2,66.9-2.7,96.9
		c-0.2,12.7-0.4,25.3-0.7,38c-1.1,66.1-2.3,132.2-1.3,198.4"/>
</g>
<g id="Chair">
	<path fill="#754C24" stroke="#603813" stroke-width="3" stroke-miterlimit="10" d="M317.5,421.2c-1.9-22.8-10-45.4-8-68.2
		c1.1-12.1,5-24.7-0.4-36.2c2.4,0.2,4.4-1.9,3.4-3.5c-41.3-3.8-83.1-5-124.7-3.4c-3.4-33-6.7-66-12.4-98.9c-0.6-3.2-1.3-6.7-4.3-9.1
		c-3-2.4-9.1-2.9-11.5-0.2c0.5,1.9-3.1,2.7-5.8,2.7c-18.8,0.2-37.5,2.8-55.2,7.6c-11.4,3.1-23,7.2-35.1,6.5
		c-4.7-0.3-10.6-0.9-13.1,2c26.2,42.7,31.7,90.4,36.8,137.1c3.5,32.1,7.1,64.4,3.4,96.5c-0.1,1.3-0.2,2.8,1.2,3.6
		c0.8,0.5,2,0.6,3.1,0.6c4.9,0.3,9.9,0.5,14.8,0.8c0.8-8.2-4.7-99-7.4-107c38.3,3.1,67.1,9.9,104.4,11.5c3.5,6,5.5,102.3,10.2,107.8
		c4.4,5.2,15.4,3.9,22.6,0.8c-3.9-2.8-12.6-109.7-9.4-113c22.5-8.4,45.1-12.9,64.8-24.5c-1.7,3,5.2,102.8,7,105.8
		c5.8,0.4,11.2-2.8,13.5-6.7C317.9,429.9,317.8,425.4,317.5,421.2z M77.8,229.3c27.1-2.5,53.7-7.3,79.3-14.3c0.6-0.2,1.4-0.4,2-0.1
		c0.8,0.3,0.9,1,1,1.6c0.9,6.8,1.8,13.6,2.7,20.4c-26.5-2.7-52.7,5.9-75.2,16.4C84.4,245.2,81.1,237.2,77.8,229.3z M98.7,288
		c-2.4-7.9-4.8-15.7-7.2-23.6c22.9-5.1,45.7-10.2,68.6-15.3c2.3-0.5,5-1.4,5.3-3.1c0.7,8.1,1.4,16.1,2,24.2
		C142.8,270.7,118.4,277.1,98.7,288z M170,308.7c-0.5,0.7-1.6,1-2.5,1.3c-14.8,4.7-29.6,9.3-44.4,14c-4.4,1.4-8.9,2.8-13.6,3.1
		c-1.2-9.3-3.5-18.6-6.9-27.6c19.6-8,41.6-12.2,63.3-16.3c0.7-0.1,1.6-0.3,2.2,0.1c0.4,0.3,0.4,0.7,0.5,1.1
		c0.6,7.4,1.2,14.9,1.8,22.3C170.4,307.3,170.5,308.1,170,308.7z"/>
	<path fill="#754C24" stroke="#603813" stroke-width="3" stroke-miterlimit="10" d="M330.4,304.8c-35.1-7.2-71.8-7.6-108-7
		c-8.2,0.1-16.6,0.3-24.5,2c-4.4,0.9-8.7,2.3-12.9,3.7c-18.3,6-36.7,11.9-55,17.9c-3.8,1.2-7.8,2.5-10.7,4.9c-3,2.3-4.7,6-3.2,9.1
		c16.8,4,34.3,5.4,51.7,6.8c17.5,1.4,35,2.8,52.6,4.2c4.3,0.3,8.6,0.7,12.9,0.3c4.5-0.4,8.8-1.7,13.1-3
		c27.4-8.4,53.8-19.2,78.4-32.1C327.7,310,331.1,307.6,330.4,304.8z"/>
</g>
<g id="Karl_x5F_Handdrawn">
	<g id="Tshirt">
		<g>
			<g>
				<defs>
					<polygon id="SVGID_1_" points="57.7,223.1 184.4,200.6 233.1,325.6 106.4,348.1 					"/>
				</defs>
				<clipPath id="SVGID_2_">
					<use xlink:href="#SVGID_1_"  overflow="visible"/>
				</clipPath>
				<g clip-path="url(#SVGID_2_)">
					<defs>
						<polygon id="SVGID_3_" points="21.8,158.6 158.6,134.3 293.6,480.8 156.8,505.1 						"/>
					</defs>
					<clipPath id="SVGID_4_">
						<use xlink:href="#SVGID_3_"  overflow="visible"/>
					</clipPath>
					<path clip-path="url(#SVGID_4_)" fill="#AF1E30" d="M166.1,317.5c0.6-0.3,1.2,0.2,1.8,0.4c3.8,1.1,7.6,1.9,11.5,2
						c0.2,0,0.4,0,0.6,0c0.3,0,0.7,0,0.8,0.4c0.1,0.5-0.3,0.5-0.7,0.5c-1.2,0.1-2.3,0.1-3.5,0.2c-5.2,0.2-10.4,0.1-15.7-0.8
						c-6.1-1-12.1-2.4-17.9-5c-1.3-0.6-2.5-1.1-3.8-1.7c-0.9-0.4-0.5,0.1-0.5,0.4c-2.4-1.5-4.5-3.3-6.6-5.2
						c-8.5-7.4-16-15.5-22.5-24.2c-2.1-2.9-4.2-5.8-6.1-8.7c-1.1-1.7-2-3.4-2.7-5.3c-0.6-1.6-1.4-3.1-2.2-4.6
						c-7.2-11.9-4.2-9.7-6.4-21.2c-2.1,1.7-1.8-1.8-1.5-4.5c-2.7-12.8,3.5-22.3,13.6-20.3c1.7-0.3,4.9,5,7.5,5.8
						c-5.4-1-12.3-0.7-12.7,4c-1.1,10.1-2.4,19.9,2.9,31.9c0.8,1.7,1.7,3.4,2.5,5.1c2.8,5.3,6,10.4,9.6,15.4
						c1.9,2.6,3.9,5.2,6.7,7.1c0.7,0.5,1.4,1,1.6,1.8c-1.3-0.7-2-2-3.6-2.6c0.2,0.7,0.6,1.1,1,1.5c2,1.8,3.9,3.7,6,5.4
						c9.6,7.9,20.2,14.5,31.8,19.6c2.3,1,4.7,2,7.2,2.6C165.3,317.9,166.1,318.4,166.1,317.5 M120.3,296.5c0,0.5,0.3,0.7,0.4,0.9
						c2,2.2,4.3,4.2,6.7,6.1c3.2,2.6,6.1,5.5,10,7.2c2.7,1.2,5.4,2,8.3,2.3c0.4,0,0.8,0.1,0.9-0.3c0.1-0.4-0.2-0.6-0.5-0.8
						c-0.3-0.2-0.6-0.4-1-0.6c-3.1-1.7-6.4-2.9-9.6-4.4c-3.8-1.8-7.3-4.1-10.5-6.6C123.5,299,122,297.8,120.3,296.5"/>
					<path clip-path="url(#SVGID_4_)" fill="#AF1E30" d="M129.1,307.5c-1.1-0.1-1.6-1-2.2-1.6c-2.6-2.3-5.5-4-8.7-5.6
						c-0.6-0.3-1.3-0.5-1.8-0.1c-0.5,0.4-0.3,0.9-0.1,1.4c0.6,1.6,1.9,3,3.2,4.2c3.6,3.5,7.5,6.9,11.7,10c3.7,2.7,7.8,4.5,12.3,5.8
						c8,2.4,16,3.7,24.1,4.7c2.5,0.3,5,0.6,7.6,0.6c2,0,3.7-0.5,5.5-1.1c1.2-0.4,2.3-0.9,3.7-0.8c0.3,0,0.7-0.2,0.8,0.3
						c0.1,0.3-0.2,0.5-0.5,0.6c-1.3,0.5-2.6,0.9-4,1.4c-2.4,0.8-5,1.2-7.6,1.5c-3.4,0.4-6.8,0.7-10.3,1c-4.9,0.5-9.9,0.4-14.9,0.3
						c-5-0.1-10.1-0.5-15.1-0.7c-1.2-0.1-2.5-0.1-3.7,0.1c-0.7,0.1-0.9,0.3-0.4,0.9c1.7,2,3.7,3.8,5.8,5.5c0.5,0.4,1.2,0.3,1.7,0.8
						c-1.5,0.3-2.9,0.5-4.4,0.8c-0.8,0.2-1.2-0.1-1.6-0.7c-2.1-3.2-3.6-6.6-4.8-10c3.6-0.9,7.5-0.3,11.2-0.5
						c-3.8-0.9-7.6-1.8-11.4-2.6c-0.6-0.1-0.7,0.1-0.6,0.5c0.1,0.5,0.6,0.9,0.2,1.4c-1-1.5-1.2-3.3-2.5-4.7c0.3,0,0.5,0.1,0.6,0.3
						c0.5,0.8,1.4,1,2.2,1.2c3,0.6,6,1.1,8.9,1.7c5.6,1.1,11.2,2.1,16.9,2.6c0.3,0,0.6,0.2,0.9-0.2c-0.8-0.5-1.7-0.7-2.6-0.9
						c-4-0.6-8.1-1.3-12.1-2.3c-2.9-0.7-5.7-1.7-8.2-3.5c-4.1-3-7.7-6.3-11-9.9c-0.5-0.6-0.8-0.5-1.1,0c-0.6-0.9-1-1.8-1-2.8
						c0.1-2.8-0.7-5.6-2.5-8.2c-1.1-1.7-1.4-3.5-1.5-5.2c-0.1-1.2-0.2-2.3-0.3-3.5c0-0.3-0.1-0.6,0.3-0.7c0.4-0.1,0.5,0.3,0.7,0.5
						c2,2.4,3.9,4.8,6,7.2c2.9,3.3,6,6.5,9.4,9.4C128.4,306.7,128.7,307.1,129.1,307.5 M124.8,323c0.5,0.1,0.7,0.2,1,0.3
						c7.3,1.8,14.6,3.2,21.9,4.3c1,0.1,2,0.1,3,0.1c0.3,0,0.8,0.1,0.7-0.3c0-0.4-0.6-0.4-0.9-0.4c-0.9-0.1-1.7-0.1-2.6-0.2
						c-7.2-0.8-14.3-2.3-21.4-3.8C126,322.8,125.4,322.5,124.8,323 M112.1,290.2c0,1.1-0.3,2,0.6,2.8c0.7,0.6,1.6,0.9,2.4,1.3
						c0.1,0.1,0.4,0.1,0.4,0.1c0.2-0.1,0.1-0.3-0.1-0.5C114.4,292.8,113.6,291.5,112.1,290.2"/>
					<path clip-path="url(#SVGID_4_)" fill="#AF1E30" d="M189.7,290.5c-0.8-0.6-0.6-1.5-1.3-2.1c-1-1.1-2.1-2.1-3-3.4
						c-0.4,0.7-0.3,1.3-0.3,1.9c-0.1,4.9,0,9.7-0.4,14.6c-0.2,2.5-0.4,5-1.1,7.4c-0.1,0.2-0.1,0.4-0.2,0.6c-0.3,0.4-0.3,1.2-1.1,0.8
						c-0.8-0.3-0.5-1-0.4-1.4c1.4-6,1.3-12.3,1.4-18.6c0-0.7,0-0.7-0.5-1.5c-0.4,1.3-0.7,2.5-1.1,3.6c-0.5,1.4-0.7,2.8-1.5,4
						c-0.1,0.2-0.2,0.5-0.5,0.5c-0.4,0-0.4-0.4-0.5-0.6c-0.4-0.8-0.3-1.6-0.4-2.3c-0.1-6.5-0.2-13.1-0.4-19.6
						c-0.1-4.2-0.4-8.5-1.4-12.8c-0.9-3.9-2.2-7.8-3.7-11.7c-0.5-1.3-1-2.6-1.6-3.9c-4.3-8-9.8-14.9-12.9-23
						c4.1,4.6,7.9,9.8,11,15.3c0.2-0.7-0.1-2.1-0.4-2.7c2.8,4.8,5.4,9.8,6.6,14.6c0.5,1.5,1.1,2.9,1.6,4.4c1.1,2.9,2.1,5.9,3.1,8.8
						c0.9,2.8,2,5.6,2.5,8.4c0.6,3.7,0.3,7.3,0.4,10.9c0.2,7.1,0.4,14.2-0.4,21.1c-0.2,1.5-0.5,3-0.7,4.5c0,0.2-0.3,0.5,0.2,0.6
						c0.5,0.2,0.4-0.2,0.5-0.4c0.3-0.3,0.3-0.8,0.3-1.2c1.1-7.1,1-14.3,1.1-21.5c0-2.3,0-4.7,0.1-7.1c0-0.5,0-1.1,0.3-1.7
						c0.5,0.5,0.8,1,1,1.6c1.6,3.8,2.8,7.6,3.7,11.5C189.8,290.2,189.7,290.4,189.7,290.5"/>
					<path clip-path="url(#SVGID_4_)" fill="#C90010" d="M128.7,229c-1.4,0.2-3,0.5-4.4,0.5c-1.4,0-2.9-0.5-4.3-0.7
						c-5.2-0.8-12.6-4-14.1-9c-1.4-7,7.9,3.9,12,4.2c1.4,0.6,2.8,1,4.2,1.2c4.2,0.6,8.2-0.5,11-3.3c1.2-1.2,2.3-2.4,3.2-3.7
						c0.9-1.3,1.6-2.8,2.1-4.4c0.5-1.9,2-2.8,3.4-0.4c2.7,3.5-0.7,4.1-0.6,6.7c-0.8,1.7-1.9,3.1-3.3,4.4s-3,2.3-5,3.2
						C131.7,228.4,130.2,228.8,128.7,229"/>
					<path clip-path="url(#SVGID_4_)" fill="#AF1E30" d="M176.6,229.9c-0.8-0.3-2.3-1.1-3.2-2.3c3.8,8.6,11.6,14.5,13.7,24
						c0.6,1.5,1.1,3.1,1.5,4.6c0.5,1.6,1,3.1,1.6,4.6c0.1,0.3,0.2,0.5-0.2,0.6c-0.3-0.4-0.4-1-1-1.3c-0.4,0.2-0.2,0.5-0.1,0.8
						c0.4,1.2,0.7,2.4,1.2,3.6c1,2.2,0.5,3.9-1.5,5.1c-1.1,0.7-2.3,1.2-3.6,1.5c-0.7,0.2-1.2-0.1-1.3-0.8c-0.6-3.8-2.3-7.5-3.6-11.2
						c-0.5-1.4-1-2.8-1.5-4.2c-0.5-1.4-1-2.8-1.5-4.2c-0.6-3.2-4.2-9.2-5.4-12.3c2.5,2.9,3.5,8,6.6,8.8c-1.3-4.4-2.4-10.8-5.9-12.8
						c-1.3-1.1-0.9,3.5,0.5,5.9c-2.1-2.9-2.2-5.6-0.8-7.8c3,4.1,5.3,9,6.3,13.6c0.3,2.3,0.4,4.5,0.6,6.7c0,0.2,0.1,0.5,0.1,0.7
						c0.1,0.2,0.2,0.5,0.5,0.5c0.3,0,0.3-0.3,0.3-0.5c-0.1-1.2-0.1-2.5-0.3-3.7c-1.1-6.7-2.9-12.2-6.7-17.4
						c-0.1-2.4-2.5-5.8-0.4-6.5C173.6,226.6,175.8,229.1,176.6,229.9 M184.6,264.6c0.4,1.1,0.8,2.2,1.3,3.3c0.3,0.7,0.2,1.9,1.1,2.1
						c1,0.2,1.6-0.6,2.2-1.2c0.8-0.7,1.5-1.6,1.1-2.8c-0.6-1.7-1.3-3.5-1.8-5.2c-0.4-1.4-0.9-2.8-1.4-4.1c-0.5-1.4-1-2.7-1.5-4.1
						c-2.7-6.7-5.9-14.8-11.5-19.7c2.8,4.8,5.1,9.7,5.9,15.1c0.3,2.4,0.3,4.7,1.1,7C182.3,258.2,183.1,261.4,184.6,264.6
						 M188.5,258.2c-0.7-1.9-1.3-3.8-2-5.7c-1.5-5.7-5-12.4-9.1-17c4.3,5.2,6.5,10.8,8.8,17C186.9,254.4,187.7,256.3,188.5,258.2"/>
					<path clip-path="url(#SVGID_4_)" fill="#AF1E30" d="M109.4,217.5c2.2-0.7,5.3,0.6,7.6,0.6c1.2,0,2.4-0.1,3.6-0.2
						c4.9-0.5,9.6-1.7,14.2-3.5c0.9-0.4,1.8-0.7,2.7-1.1c-0.4,1.3-0.9,2.5-1.6,3.5c-0.7,1-1.7,1.8-3,2.3c-3.6,1.5-7.5,2.3-11.6,2.5
						c-1.4,0.1-2.8,0.1-4.2,0c-1.6-0.1-3.1-0.5-4.3-1.2C111.6,219.5,110.5,218.6,109.4,217.5"/>
					<path clip-path="url(#SVGID_4_)" fill="#AF1E30" d="M133.6,219.8c-1.9,3.2-7,4.9-11.4,4.5c-2.2-0.2-4.2-0.9-5.6-2.2
						c1.6,0.1,3,0.1,4.4,0c1.4-0.1,2.8-0.3,4.2-0.6C128,221.1,130.7,220.5,133.6,219.8"/>
					<path clip-path="url(#SVGID_4_)" fill="#C90010" d="M172.8,240.1c-1.2-2.2-1.8-6.2-0.6-6.1c4.4,1.9,5.6,9.4,6.2,13.2
						c-2.8-0.2-2.9-2.9-5.4-6.6C172.9,240.4,172.8,240.3,172.8,240.1"/>
					<path clip-path="url(#SVGID_4_)" fill="#C90010" d="M124.8,325.5c0.4-0.5-0.1-0.9-0.2-1.4c-0.1-0.5,0-0.7,0.6-0.5
						c3.8,0.8,7.6,1.7,11.4,2.6c-3.7,0.3-7.7-0.3-11.2,0.5C125.2,326.4,125,326,124.8,325.5"/>
					<path clip-path="url(#SVGID_4_)" fill="#AF1E30" d="M188.2,273.3c-0.9-0.1-1.8,0.2-2.8,0c-0.4-0.1-0.7-0.2-0.8-0.6
						c-0.1-0.4,0.2-0.6,0.6-0.6c2.3-0.3,4-1.4,5.5-2.8c0.2-0.2,0.5-0.5,0.9-0.3c0.4,0.2,0.3,0.6,0.2,0.9
						C191.5,271.7,190.1,272.7,188.2,273.3"/>
					<path clip-path="url(#SVGID_4_)" fill="#AF1E30" d="M186.5,316.8c-0.6,0.2-0.7,0.2-0.7-0.4c0-1.4,0.5-2.7,0.9-4
						c1.4-5,2.4-10.2,3.1-15.4c0.2-1.1,0.4-2.2,0.1-3.4c-0.1-0.2,0.1-0.3,0.3-0.4c0.6,1.4,0.4,2.7,0.2,4.1c-0.8,5.8-2.2,11.4-3.6,17
						C186.5,315,186.2,315.8,186.5,316.8"/>
					<path clip-path="url(#SVGID_4_)" fill="#AF1E30" d="M91.7,244.2c1.6-1.7,1.2-4.9,2.2-7.1c0.4,3.2,1.1,6.4-0.9,8
						C92.6,244.9,92,244.8,91.7,244.2"/>
					<path clip-path="url(#SVGID_4_)" fill="#C90010" d="M170.6,231.5c-0.4,0.7-0.1,1.3-0.3,2c-2-1.6-3.6-3.3-3-5.4
						c0.6-0.8,1.8,1,2.8,1.7C170.5,230.5,170.1,230.8,170.6,231.5"/>
					<path clip-path="url(#SVGID_4_)" fill="#AF1E30" d="M138.6,225.2c0.3,0.5-0.2,0.6-0.4,0.8c-3,2.3-6.5,3.8-10.7,4.3
						c-1.5,0.2-3.1,0.2-4.7,0c-1.6-0.1-3.2-0.4-4.8-0.9c-0.3-0.1-0.7-0.1-0.7-0.5c1.5,0.3,2.9,0.6,4.3,0.8c1.4,0.2,2.8,0.3,4.3,0.2
						c4.7-0.2,8.5-1.8,11.8-4.2C138,225.6,138.3,225.4,138.6,225.2"/>
					<path clip-path="url(#SVGID_4_)" fill="#AF1E30" d="M92.2,237.8c-0.3,2.3-0.7,3.6-1.2,5.7c-2-1.6,0.7-2.8,0.7-3.8
						C91.9,239.1,92,238.5,92.2,237.8"/>
					<path clip-path="url(#SVGID_4_)" fill="#C90010" d="M93.4,234.9c-0.5-1.6-0.3-2.3,1-2.5c0.1,1.3-0.1,2-0.8,2.6
						C93.5,235,93.5,234.9,93.4,234.9"/>
					<path clip-path="url(#SVGID_4_)" fill="#AF1E30" d="M143.7,214c-0.1,1.7,0.5,4.3-1.2,5.4C143,217.6,143.4,215.8,143.7,214"/>
					<path clip-path="url(#SVGID_4_)" fill="#AF1E30" d="M113.4,227.3c-1.2,0-2.9-1.1-3.3-2.1C111.1,226,112.2,226.7,113.4,227.3"/>
					<path clip-path="url(#SVGID_4_)" fill="#AF1E30" d="M140.2,223.5c0.1,1-0.6,1.4-1.6,1.7C139.2,224.6,139.7,224.1,140.2,223.5"
						/>
					<path clip-path="url(#SVGID_4_)" fill="#AF1E30" d="M142.5,219.4c0.3,0.9,0,1.5-0.8,1.8C141.9,220.6,142.2,219.9,142.5,219.4"
						/>
					<path clip-path="url(#SVGID_4_)" fill="#AF1E30" d="M141.3,221.9c0.2,0.8-0.1,1.3-1,1.4C140.6,222.8,140.9,222.3,141.3,221.9"
						/>
					<path clip-path="url(#SVGID_4_)" fill="#C90010" d="M92.8,236.1c0.2,3.1-2.1,4.2-1.1,8c1.7-1.6,1.3-4.9,2.2-7.1
						C93.6,236.4,93.3,235.7,92.8,236.1"/>
					<path clip-path="url(#SVGID_4_)" fill="#C90010" d="M109.1,286.2L109.1,286.2L109.1,286.2c-1.3-2-2.7-3.9-4.5-5.6
						c0.4,1.9,1.5,3.7,2.4,5.5c0.3,0.2,0.7,0.3,1.1,0.3C108.7,286.9,109,287,109.1,286.2C109.1,286.2,109.1,286.2,109.1,286.2"/>
					<path clip-path="url(#SVGID_4_)" fill="#AF1E30" d="M116.4,228.7c-0.4,0.1-0.7,0.2-0.9-0.3
						C115.8,228.4,116.1,228.5,116.4,228.7"/>
					<path clip-path="url(#SVGID_4_)" fill="#AF1E30" d="M117.3,229c-0.4,0.1-0.7,0.2-0.9-0.3C116.7,228.7,117,228.7,117.3,229"/>
					<path clip-path="url(#SVGID_4_)" fill="#AF1E30" d="M115.2,228.2c-0.4,0.1-0.8,0.1-0.9-0.4C114.6,227.9,114.9,228,115.2,228.2"
						/>
					<path clip-path="url(#SVGID_4_)" fill="#C90010" d="M103.1,284.1c-1.6-2.6-2.7-5.4-3.9-8.2c-0.9-2-1.8-4-2.7-5.9
						c-0.9-2-1.2-3.9-2-6c-2-5.9-3.8-11.7-2.5-16.6c-0.2-0.6-1.4-2.1-1.9-2c-4,2.7-1.7,8.8-4.2,11.9c-0.8,1.5-2,8,1.2,10.5
						c1.9,1,4.2,1.9,5.9,3.2c1.3,1,1.5,1.7,0.5,2.7c-0.7,0.8-1.6,1.5-2.1,2.3c-1.4,2.4-3.2,4.9-0.3,8c0.1,0.1,0.1,0.2,0.2,0.3
						c0.2,0.9,0.8,1.5,1.6,2.1c0.3,0.1,0.6,0.1,0.8,0c0.2,0.2,0.5,0.3,0.7,0.1c-0.1-0.1-0.2-0.2-0.3-0.2c-0.1,0-0.1,0-0.2,0
						c0.1,0,0.1,0,0.2,0c0.1,0,0.2,0.1,0.3,0.2c0.2,0,0.5,0,0.7,0c0.4,0.2,0.7,0,1,0c0.5,0,1.1-0.1,1.6-0.1c0.2,0,0.3,0,0.5,0
						c1.4-0.2,2.8-0.5,4.2-0.7C102.6,285,103.5,284.9,103.1,284.1"/>
					<path clip-path="url(#SVGID_4_)" fill="#C90010" d="M149.3,325.5c-4-0.6-8.1-1.3-12.1-2.3c-2.9-0.7-5.7-1.7-8.2-3.5
						c-4.1-3-7.7-6.3-11-9.9c-0.5-0.6-0.8-0.5-1.1,0c0.1,0.1,0.2,0.2,0.3,0.4c0.5,1.1,1.4,1.9,2.2,2.8c0.6,0.7,1.1,1.4,1.5,2.2
						c0,0.1,0.1,0.3,0.1,0.4c0.1,0.6,0.2,1.1,0.3,1.7c-0.1,0.1-0.1,0.3,0,0.5c0,1.1,0,2.2,1,3.2c0.3,0,0.5,0.1,0.6,0.3
						c0.5,0.8,1.4,1,2.2,1.2c3,0.6,6,1.1,8.9,1.7c5.6,1.1,11.2,2.1,16.9,2.6c0.3,0,0.6,0.2,0.9-0.2
						C151.1,325.9,150.2,325.6,149.3,325.5"/>
					<path clip-path="url(#SVGID_4_)" fill="#C90010" d="M200.5,266.8c0.1-0.1,0.3-0.2,0.4-0.2c0.4-0.1,1-0.3,1.3-0.6
						c1.4-0.8,3-1.3,4.1-2.5c0.3-0.3-0.1-1.1-0.6-1.4c-0.1-0.1-0.2-0.3-0.2-0.4c-0.4-0.8-1-1.5-2-0.9c-3.1,1.7-6.5,3-9.7,4.6
						c-0.3,0.1-0.3,0.1-0.6,0.1c0-0.5,0-0.5,0.5-0.7c1-0.5,2.2-0.6,3.2-1.1c2-0.9,4.1-2.2,6-3.2c0.5-0.3,1.5-0.3,0.6-1.5
						c-1.2-1.6-2.3-3.3-3.6-4.8c-0.2-0.4-0.5-0.8-0.9-1.2c0-0.2-0.1-0.3-0.3-0.4c-0.9-1.2-1.9-2.3-2.8-3.5c-0.9-1.2-1.9-2.3-2.8-3.5
						c-5.8-8.5-13.2-13.9-20.3-19.3c6.6,13.5,12.4,15.8,14.4,25.1c0.6,1.5,1.1,3.1,1.5,4.6c0.5,1.6,1,3.1,1.6,4.6
						c0.1,0.3,0.2,0.5-0.2,0.6c0.4,1,0.7,1.9,1.1,2.9c0.3,0.1,0.6,0.2,0.8,0.2c-0.3,0-0.5-0.1-0.8-0.2c0.5,1.4,0.7,3.5,1.3,4.9
						c0.3,0.7,0.7,0.5,1.3,0c0.2-0.1,0.7,0.2,0.9,0.1"/>
					<path clip-path="url(#SVGID_4_)" fill="#C90010" d="M198.5,267.2c0.2,0,0.4,0,0.4-0.2"/>
					<path clip-path="url(#SVGID_4_)" fill="#99041D" d="M166.1,317.5c0,0.8-0.7,0.4-1.2,0.3c-2.5-0.6-4.9-1.6-7.2-2.6
						c-11.7-5.1-22.2-11.7-31.8-19.6c-2.1-1.7-4-3.6-6-5.4c-0.4-0.4-0.8-0.8-1-1.5c1.6,0.6,2.3,1.9,3.6,2.6c0,0,0,0,0,0
						c0.4,0.5,0.9,1,1.5,1.3l0,0c0.4,0.5,0.9,1,1.5,1.3c0,0,0,0,0,0c0.4,0.5,0.9,1,1.5,1.3l0,0c0.2,0.3,0.4,0.5,0.7,0.6l0,0
						c0.2,0.3,0.4,0.5,0.7,0.6c0,0,0,0,0,0c0.2,0.3,0.4,0.5,0.7,0.5c0,0,0,0,0,0c0.7,0.8,1.6,1.4,2.5,2c0,0,0,0,0,0
						c0.2,0.4,0.6,0.6,1,0.7c0,0,0,0,0,0c0.2,0.3,0.6,0.6,1,0.7l0,0c0.3,0.3,0.6,0.6,1,0.7c0,0,0,0,0,0c0.2,0.3,0.4,0.4,0.7,0.5l0,0
						c0.2,0.4,0.6,0.6,1,0.7l0,0c0.3,0.4,0.8,0.7,1.4,0.9c0.1,0.1,0.2,0.1,0.2,0.2c0.3,0.3,0.7,0.6,1.1,0.7c0.1,0.1,0.2,0.1,0.3,0.2
						c0.4,0.4,0.9,0.7,1.4,0.9c0.1,0.1,0.2,0.1,0.2,0.2c0.4,0.4,0.9,0.7,1.4,0.9c0.3,0.2,0.6,0.3,0.9,0.5c0.7,0.6,1.5,1,2.4,1.4
						c0.3,0.2,0.6,0.3,0.9,0.5c1.1,0.8,2.3,1.4,3.5,1.9c1,0.6,2,1.2,3.1,1.6c0.4,0.3,1,0.6,1.5,0.7c0.3,0.1,0.6,0.3,0.9,0.4
						c0.3,0.3,0.7,0.4,1.2,0.6c0.3,0.1,0.6,0.3,0.9,0.4c0.2,0.2,0.5,0.3,0.9,0.4c0.1,0,0.2,0.1,0.3,0.1c0.3,0.2,0.6,0.3,0.9,0.4
						c0.1,0,0.2,0.1,0.3,0.1c0.2,0.2,0.5,0.3,0.9,0.3c0.1,0,0.2,0.1,0.3,0.1c0.2,0.2,0.5,0.3,0.9,0.3c0.4,0.1,0.8,0.3,1.1,0.4
						c0.3,0.2,0.6,0.3,0.9,0.3c0.1,0,0.2,0.1,0.3,0.1c0.2,0.2,0.5,0.3,0.9,0.4C165.5,317.2,165.8,317.4,166.1,317.5"/>
					<path clip-path="url(#SVGID_4_)" fill="#C90010" d="M171.1,232.9c0.4-0.1,1.3-2.9,1.3-2.9l-1.7-4.8c-0.2-0.3-0.2-0.6-0.9-1
						c-8-9.1-17.9-14.6-25.1-10.7c-2.5,1.8-1.8,7.5-4.3,9.8c-0.1,0.1-0.1,0.1-0.2,0.2c0.1,1-0.6,1.4-1.6,1.7c0,0,0,0,0,0
						c0.3,0.5-0.2,0.6-0.4,0.8c-3,2.3-6.5,3.8-10.7,4.3c-1.5,0.2-3.2-0.2-4.8-0.3c-1.6-0.1-3.2-1.1-4.8-1.5
						c-8-5.2-17.9-7.6-19.5,1.3c-1.8,8.3-1.7,20.2,3.6,32.1c0.8,1.7,1.7,3.4,2.5,5.1c2.8,5.3,6,10.4,9.6,15.4
						c1.9,2.6,3.9,5.2,6.7,7.1c0.7,0.5,1.4,1,1.6,1.8l0,0l0,0c0.4,0.5,0.9,1,1.5,1.3l0,0l0,0c0,0,0,0,0,0c0.4,0.5,0.9,1,1.5,1.3l0,0
						l0,0c0.4,0.5,0.9,1,1.5,1.3c0,0,0,0,0,0c0.2,0.3,0.4,0.5,0.7,0.6l0,0c0,0,0,0,0,0l0,0c0.2,0.3,0.4,0.5,0.7,0.5l0,0l0,0
						c0.2,0.3,0.4,0.5,0.7,0.5l0,0c0,0,0,0,0,0c0.7,0.8,1.6,1.4,2.5,2c0,0,0,0,0,0l0,0l0,0c0.2,0.4,0.6,0.6,1,0.7c0,0,0,0,0,0
						c0.2,0.3,0.6,0.6,1,0.7c0,0,0-0.1,0-0.1c0,0,0,0.1,0,0.1l0,0l0,0l0,0l0,0c0.3,0.3,0.6,0.6,1,0.7l0,0l0,0
						c0.2,0.3,0.4,0.4,0.7,0.5c0,0,0,0,0,0l0,0c0.2,0.3,0.6,0.6,1,0.7c0,0,0,0,0,0l0,0c0.3,0.4,0.8,0.7,1.4,0.9c0-0.1,0-0.2-0.1-0.2
						c0,0.1,0.1,0.1,0.1,0.2c0.1,0.1,0.2,0.1,0.2,0.2l0,0c0.3,0.3,0.7,0.6,1.1,0.7c0,0,0-0.1,0-0.1c0-0.1-0.1-0.2-0.1-0.3
						c0,0.1,0.1,0.2,0.1,0.3c0,0,0,0.1,0,0.1l0.3,0.2l0,0c0.4,0.4,0.9,0.7,1.4,0.9c0.1,0.1,0.2,0.1,0.2,0.2c0.4,0.4,0.9,0.7,1.4,0.9
						c0.3,0.2,0.6,0.3,0.9,0.5l0,0c0.7,0.6,1.5,1,2.4,1.4c0.3,0.2,0.6,0.3,0.9,0.5l0,0c1.1,0.8,2.3,1.4,3.5,1.9c1,0.6,2,1.2,3.1,1.6
						c0.4,0.3,1,0.6,1.5,0.7c0.3,0.1,0.6,0.3,0.9,0.4c0.3,0.3,0.7,0.4,1.2,0.6c0.3,0.1,0.6,0.3,0.9,0.4c0.2,0.2,0.5,0.3,0.9,0.4
						c0.1,0,0.2,0.1,0.3,0.1c0.3,0.2,0.6,0.3,0.9,0.4c0.1,0,0.2,0.1,0.3,0.1c0.2,0.2,0.5,0.3,0.9,0.3c0.1,0,0.2,0.1,0.3,0.1
						c0.2,0.2,0.5,0.3,0.9,0.3c0.4,0.1,0.8,0.3,1.1,0.4c0.3,0.2,0.6,0.3,0.9,0.3c0-0.1-0.1-0.2-0.1-0.3c0.1,0.1,0.1,0.2,0.1,0.3
						c0.1,0,0.2,0.1,0.3,0.1l0,0c0.2,0.2,0.5,0.3,0.9,0.4c0.3,0.1,0.5,0.3,0.8,0.4c0.6-0.3,1.2,0.2,1.8,0.4c3.8,1.1,7.6,1.9,11.5,2
						c0.2,0,0.4,0,0.6,0c0.3,0,0.7,0,0.8,0.4c0.1,0.5-0.3,0.5-0.7,0.5c-1.2,0.1-2.3,0.1-3.5,0.2c-5.2,0.2-10.4,0.1-15.7-0.8
						c-6.1-1-12.1-2.4-17.9-5c-1.3-0.6-2.5-1.1-3.8-1.7c-0.9-0.4-0.5,0.1-0.5,0.4c0.3,0.2,0.6,0.4,0.9,0.6c1.2,0.9,2.6,1.4,3.5,2.5
						c-1.1,0-1.8-0.8-2.8-1.2c-0.1-0.1-0.2-0.1-0.2-0.2c-0.4-0.4-0.9-0.6-1.4-0.9c-0.1-0.1-0.2-0.1-0.3-0.2
						c-0.3-0.3-0.6-0.6-1.1-0.7l0,0c-0.2-0.4-0.6-0.6-1-0.7c0,0,0,0,0,0c-0.2-0.3-0.4-0.4-0.7-0.5l0,0c-0.2-0.3-0.4-0.5-0.7-0.5l0,0
						c-0.2-0.3-0.4-0.5-0.7-0.5l0,0c-0.2-0.3-0.4-0.5-0.7-0.5l0,0c-0.2-0.3-0.4-0.5-0.7-0.6c-0.1-0.1-0.2-0.2-0.4-0.3
						c-0.2-0.3-0.4-0.5-0.7-0.6l0,0c-0.3-0.4-0.7-0.7-1.1-1c-0.1-0.1-0.3-0.2-0.4-0.3c-0.2-0.3-0.4-0.5-0.7-0.6
						c-0.1-0.1-0.2-0.2-0.4-0.3c-1.1-0.1-1.6-1-2.2-1.6c-2.6-2.3-5.5-4-8.7-5.6c-0.6-0.3-1.3-0.5-1.8-0.1c-0.5,0.4-0.3,0.9-0.1,1.4
						c0.6,1.6,1.9,3,3.2,4.2c3.6,3.5,7.5,6.9,11.7,10c3.7,2.7,7.8,4.5,12.3,5.8c8,2.4,16,3.7,24.1,4.7c2.5,0.3,5,0.6,7.6,0.6
						c2,0,3.7-0.5,5.5-1.1c1.2-0.4,2.3-0.9,3.7-0.8c0.3,0,0.7-0.2,0.8,0.3c0.1,0.3-0.2,0.5-0.5,0.6c-1.3,0.5-2.6,0.9-4,1.4
						c-2.4,0.8-5,1.2-7.6,1.5c-3.4,0.4-6.8,0.7-10.3,1c-4.9,0.5-9.9,0.4-14.9,0.3c-5-0.1-10.1-0.5-15.1-0.7
						c-1.2-0.1-2.5-0.1-3.7,0.1c-0.7,0.1-0.9,0.3-0.3,0.9c1.7,2,3.7,3.8,5.8,5.5c0.5,0.4,1.2,0.3,1.7,0.8c0.9-0.1,1.7-0.2,2.6-0.3
						c0.5,0.1,1,0,1.5-0.2c0.2,0,0.5,0,0.7,0c0.4,0.2,0.7,0,1,0c0.2,0,0.3,0,0.5,0c0.4,0.2,0.7,0.1,1,0c0.2,0,0.3,0,0.5,0
						c0,0,0,0,0-0.1c0,0,0,0,0,0.1c0.2,0.1,0.4,0.1,0.5,0c0.2,0,0.3,0,0.5,0c0.5,0.2,1,0.2,1.5,0.1c0.2,0,0.3,0,0.5,0
						c0.2,0.1,0.4,0.1,0.5,0c0.8,0,1.5,0.1,2.3,0.1c0.2,0.1,0.4,0.1,0.5,0c0.5,0,1,0.1,1.5,0.1c0.2,0.1,0.4,0.1,0.5,0
						c0.2,0,0.3,0,0.5,0c0.2,0.1,0.4,0.1,0.5,0c0.2,0,0.5,0,0.7,0c0.2,0,0.3,0,0.5,0c0.2,0,0.5,0,0.7,0c0.2,0.1,0.4,0.1,0.5,0
						c0.2,0,0.5,0,0.7,0c0.2,0.1,0.4,0.1,0.5,0c0.4,0,0.8,0,1.2-0.1c0.2,0.1,0.4,0.1,0.5,0c0.4,0,0.8-0.1,1.2-0.1
						c0.7,0.2,1.3-0.1,1.9-0.2c0.2,0,0.5,0,0.7,0c3-0.2,5.8-0.9,8.5-1.8c0.1,0,0.3-0.1,0.4-0.1c0.4-0.1,0.9,0,1.1-0.3
						c0.3-0.1,0.6-0.2,0.9-0.3c0.3,0,0.5,0,0.7-0.2c0.3-0.1,0.6-0.2,0.9-0.3c0.3,0,0.5,0,0.7-0.3c0.1-0.1,0.3-0.1,0.4-0.2
						c0.2,0,0.4,0,0.5-0.2c0.1-0.1,0.3-0.1,0.4-0.2c0.3,0,0.5,0,0.7-0.3c0.1-0.1,0.3-0.1,0.4-0.2c0.7-0.2,1.4-0.5,1.9-0.9
						c0.1-0.1,0.3-0.1,0.4-0.2c1.1-0.4,2-0.9,2.9-1.6l0,0c2.4-1.5,4.8-3,7.2-4.5c0.2,0,0.4-0.1,0.4-0.2c0.9-0.5,1.8-1,2.7-1.4
						c0.2,0,0.4,0,0.4-0.2c0.3-0.2,0.7-0.3,1-0.5c0.2,0,0.4,0,0.4-0.2c0.1-0.1,0.3-0.1,0.4-0.2c0.2,0,0.4,0,0.4-0.2
						c0.1-0.1,0.3-0.1,0.4-0.2c0.2-0.1,0.3-0.1,0.5-0.2c0.2-0.1,0.4-0.2,0.6-0.3c0-0.1,0-0.2,0-0.3c0,0.1-0.1,0.2,0,0.3
						c0.2-0.1,0.3-0.1,0.5-0.2c0.4-0.1,0.7-0.2,1.1-0.3c0.2,0,0.4,0,0.4-0.2c1.1-0.1,1.3-0.6,0.9-1.6c-0.8-1.9-1.4-3.9-2.4-5.8
						c0-0.2-0.1-0.5-0.4-0.6c-0.2-0.3-0.4-0.7-0.5-1c0-0.2-0.1-0.5-0.4-0.6c-0.1-0.2-0.2-0.4-0.3-0.6c0-0.2-0.1-0.3-0.3-0.4
						c-0.1-0.1-0.2-0.2-0.3-0.4c-0.1,0-0.2,0-0.4-0.1c0.1,0.1,0.2,0.1,0.4,0.1c-0.2-0.5-0.6-0.9-1-1.3c-0.3,0.2-0.4,0.5-0.4,0.8
						c0,0,0,0,0,0c-0.4,0.6-0.8,1.2-1,2l0,0c-1,1.8-2.1,3.5-3.1,5.3c-0.1,0.2-0.2,0.3-0.3,0.5c-0.3,0-0.4,0.5-0.9,0.3
						c0.1-0.6,0.5-1.1,0.8-1.7c0.6-1.2,1.6-2.2,2-3.6c0-0.1,0.1-0.2,0.1-0.2c0.4-0.4,0.6-0.9,0.7-1.5c0-0.1,0.1-0.2,0.1-0.2
						c0,0,0-0.1-0.1-0.1c0,0,0,0.1,0.1,0.1c0.2-0.2,0.3-0.4,0.3-0.7c0.1-0.3,0.2-0.6,0.3-1c0.2-0.2,0.3-0.4,0.2-0.7
						c0.5-2,0.6-4,0.4-6.1c0.1-0.2,0-0.3-0.1-0.5c0-0.1,0-0.3,0-0.4c0.1-0.2,0-0.3-0.1-0.5c0-0.1,0-0.3-0.1-0.4
						c0.2-0.2,0-0.4-0.1-0.7c-0.3-0.9-0.5-1.9-1.3-2.7c-0.2-0.4-0.5-0.7-1.1-0.9c-0.5,2.9-0.9,5.7-1.4,8.5c0,0,0,0,0,0
						c-0.4,0.9-0.5,2-0.8,3c-0.6,2.7-1.2,5.4-1.9,8c-0.2,0.2-0.3,0.4-0.2,0.7l0,0c-0.2,0.2-0.3,0.4-0.3,0.7
						c-0.2,0.2-0.4,0.3-0.6,0.5c-0.6,0.2-0.7,0.2-0.7-0.4c0-1.4,0.5-2.7,0.9-4c1.4-5,2.4-10.2,3.1-15.4c0.2-1.1,0.4-2.2,0.1-3.4
						c-0.1-0.2,0.1-0.3,0.3-0.4c0-0.1,0-0.3-0.1-0.4c0.2-0.2,0-0.4-0.1-0.7c0-0.1-0.1-0.3-0.1-0.4c0.2-0.2,0.1-0.4-0.1-0.7
						c0-0.1-0.1-0.3-0.1-0.4c-0.8-0.6-0.6-1.5-1.3-2.1c-1-1.1-2.1-2.1-3-3.4c-0.4,0.7-0.3,1.3-0.3,1.9c-0.1,4.9,0,9.7-0.4,14.6
						c-0.2,2.5-0.4,5-1.1,7.4c-0.1,0.2-0.1,0.4-0.2,0.6c-0.3,0.4-0.3,1.2-1.1,0.8c-0.8-0.3-0.5-1-0.4-1.4c1.4-6,1.3-12.3,1.4-18.6
						c0-0.7,0-0.7-0.5-1.5c-0.4,1.3-0.7,2.5-1.1,3.6c-0.5,1.4-0.7,2.8-1.5,4c-0.1,0.2-0.2,0.5-0.5,0.5c-0.4,0-0.4-0.4-0.5-0.6
						c-0.4-0.8-0.3-1.6-0.4-2.3c-0.1-6.5-0.2-13.1-0.4-19.6c-0.1-4.2-0.4-8.5-1.4-12.8c-0.9-3.9-2.2-7.8-3.7-11.7
						c-0.5-1.3-1-2.6-1.6-3.9c-4.3-8-9.8-14.9-12.9-23c4.1,4.6,7.9,9.8,11,15.3l0.5-2.6 M135.4,301.4
						C135.4,301.4,135.4,301.4,135.4,301.4C135.4,301.4,135.4,301.4,135.4,301.4 M135.3,301.4C135.3,301.4,135.3,301.4,135.3,301.4
						C135.3,301.4,135.3,301.4,135.3,301.4 M135.3,301.3C135.3,301.3,135.3,301.3,135.3,301.3C135.3,301.3,135.3,301.3,135.3,301.3
						 M135.3,301.3C135.3,301.3,135.3,301.3,135.3,301.3C135.3,301.3,135.3,301.3,135.3,301.3 M135.3,301.2
						C135.3,301.2,135.3,301.2,135.3,301.2C135.3,301.2,135.3,301.2,135.3,301.2 M135.2,301.2C135.2,301.2,135.2,301.1,135.2,301.2
						C135.2,301.1,135.2,301.2,135.2,301.2 M135.2,301.1C135.2,301.1,135.2,301.1,135.2,301.1C135.2,301.1,135.2,301.1,135.2,301.1
						 M135.2,301.1C135.2,301.1,135.2,301.1,135.2,301.1C135.2,301.1,135.2,301.1,135.2,301.1 M131.4,298.5
						C131.4,298.5,131.4,298.5,131.4,298.5C131.4,298.5,131.4,298.5,131.4,298.5 M131.3,298.3C131.3,298.3,131.3,298.3,131.3,298.3
						C131.3,298.3,131.3,298.3,131.3,298.3 M128.3,296C128.3,296,128.3,296,128.3,296C128.3,296,128.3,296,128.3,296 M126.9,295.1
						C126.9,295.1,126.9,295.2,126.9,295.1C126.9,295.2,126.9,295.1,126.9,295.1 M126.7,294.7C126.7,294.7,126.7,294.7,126.7,294.7
						C126.7,294.7,126.7,294.7,126.7,294.7 M126.8,294.8C126.8,294.8,126.8,294.8,126.8,294.8C126.8,294.8,126.8,294.8,126.8,294.8
						 M126.8,294.9C126.8,294.9,126.8,294.9,126.8,294.9C126.8,294.9,126.8,294.9,126.8,294.9 M126.9,295
						C126.9,295,126.9,295,126.9,295C126.9,295,126.9,295,126.9,295 M132.6,299.5C132.6,299.5,132.6,299.5,132.6,299.5
						C132.6,299.5,132.6,299.5,132.6,299.5 M136.4,302.2C136.4,302.2,136.4,302.2,136.4,302.2C136.4,302.2,136.4,302.2,136.4,302.2
						 M137.6,302.7C137.6,302.7,137.6,302.7,137.6,302.7C137.6,302.7,137.6,302.7,137.6,302.7"/>
					<path clip-path="url(#SVGID_4_)" fill="#C90010" d="M120.3,296.5c1.7,1.3,3.2,2.6,4.7,3.8c3.3,2.5,6.7,4.8,10.5,6.6
						c3.2,1.5,6.5,2.7,9.6,4.4c0.3,0.2,0.7,0.4,1,0.6c0.3,0.2,0.6,0.5,0.5,0.8c-0.1,0.4-0.5,0.3-0.9,0.3c-2.9-0.3-5.6-1.2-8.3-2.3
						c-3.9-1.7-6.8-4.6-10-7.2c-2.4-1.9-4.7-3.9-6.7-6.1C120.6,297.1,120.2,297,120.3,296.5"/>
					<path clip-path="url(#SVGID_4_)" fill="#99041D" d="M124.8,323c0.6-0.4,1.2-0.2,1.8-0.1c7.1,1.4,14.3,2.9,21.4,3.8
						c0.9,0.1,1.7,0.1,2.6,0.2c0.3,0,0.8,0,0.9,0.4c0,0.4-0.5,0.3-0.7,0.3c-1,0-2,0-3-0.1c-7.3-1.1-14.6-2.5-21.9-4.3
						C125.5,323.2,125.3,323.1,124.8,323"/>
					<path clip-path="url(#SVGID_4_)" fill="#C90010" d="M112.1,290.2c1.5,1.3,2.3,2.6,3.4,3.7c0.1,0.1,0.3,0.3,0.1,0.5
						c-0.1,0.1-0.3,0-0.4-0.1c-0.8-0.4-1.7-0.8-2.4-1.3C111.8,292.2,112.1,291.3,112.1,290.2"/>
					<path clip-path="url(#SVGID_4_)" fill="#AF1E30" d="M108.7,285c-3.9-4.7-6.8-9.8-9.5-14.9c-0.9-1.7-1.7-3.5-2.5-5.2
						c-2.3-5.4-3.6-11.1-3.4-16.4c0.1-3.3-4-3.3-5-7c-5.1,6.9-8.4,16-7.1,27.7c0.2,1.9,0.4,3.9,0.7,5.8c0.2,1.9,0.5,3.9,0.9,5.8
						c0.2,1.1,0.9,1.5,2.1,1.7c1.6,0.2,3.1,0.5,4.7,0.8c0.4,0.1,0.9,0.1,0.9,0.6c0,0.5-0.6,0.3-0.9,0.3c-1.6-0.1-3.2-0.3-4.8-0.5
						c-0.4,0-1.1-0.3-1.1,0.4c0,0.6,0.2,1.3,1.1,1.5c2.7,0.5,5.5,1,8.2,1c-0.8-0.6-1.4-1.3-1.6-2.1c0-0.1-0.1-0.2-0.2-0.3
						c-2.9-3.1-1.1-5.5,0.3-8c0.5-0.9,1.4-1.6,2.1-2.3c0.9-1,0.8-1.7-0.5-2.7c-1.7-1.3-3.7-2.1-5.6-3.2c-3.9-4.4-1.7-8.1-1.1-10.2
						c1.8-3.6,1.6-7.6,3-11.1c0.8-1.5,2.1-0.4,2.2,0.9c-0.2,5.3,0.4,10.5,2.4,16.4c0.8,2.1,1.7,4.1,2.6,6.1c0.9,2,1.8,4,2.7,5.9
						c1.2,2.7,2.2,5.5,3.9,8.2c0.5,0.8-0.4,0.9-0.5,1.4c1.5-0.4,3-0.4,4.5,0.6c-0.9-1.8-2-3.5-2.4-5.5c1.7,1.8,3.2,3.7,4.5,5.6
						C109.8,285.7,109,285.3,108.7,285 M104,279.8L104,279.8c0,0,0,0.1,0,0.1C104,279.9,104,279.9,104,279.8"/>
					<path clip-path="url(#SVGID_4_)" fill="#C90010" d="M184.6,264.6c-1.5-3.2-2.3-6.4-3.5-9.6c-0.8-2.3-0.9-4.6-1.1-7
						c-0.7-5.5-3.1-10.3-5.9-15.1c5.6,5,8.7,13,11.5,19.7c0.5,1.4,1,2.7,1.5,4.1c0.5,1.4,1,2.7,1.4,4.1c0.5,1.8,1.2,3.5,1.8,5.2
						c0.4,1.2-0.2,2.1-1.1,2.8c-0.6,0.6-1.3,1.4-2.2,1.2c-0.9-0.2-0.8-1.4-1.1-2.1C185.4,266.8,185,265.7,184.6,264.6"/>
					<path clip-path="url(#SVGID_4_)" fill="#99041D" d="M188.5,258.2c-0.8-1.9-1.6-3.8-2.3-5.7c-2.3-6.3-5-11.9-8.8-17
						c4.1,3.5,7.6,11.2,9.1,17C187.2,254.4,187.9,256.3,188.5,258.2"/>
					<polygon clip-path="url(#SVGID_4_)" fill="#FFFFFF" points="124.5,263.1 125.9,259 127,258.8 125.6,263 129.9,266.1 
						128.8,266.3 					"/>
					<path clip-path="url(#SVGID_4_)" fill="#FFFFFF" d="M131.2,267l-3.6-9.3l1.4-0.3l1.2,3.1c-0.1-0.4-0.1-0.6-0.1-0.8
						c0.1-0.2,0.2-0.3,0.4-0.3l0.7-0.1c0.4-0.1,0.8,0.1,1.2,0.4c0.4,0.4,0.8,0.8,1,1.4l1.2,3.1c0.2,0.6,0.3,1.1,0.1,1.5
						s-0.4,0.7-0.8,0.8L131.2,267z M132.2,265.7l0.7-0.1c0.2,0,0.3-0.2,0.4-0.4c0.1-0.2,0-0.5-0.1-0.8l-1.2-3.1
						c-0.1-0.3-0.3-0.5-0.5-0.7c-0.2-0.2-0.4-0.2-0.6-0.2c-0.2,0-0.3,0.2-0.4,0.4c-0.1,0.2,0,0.5,0.1,0.8L132.2,265.7z"/>
					<path clip-path="url(#SVGID_4_)" fill="#FFFFFF" d="M135.5,258.4l1.4-0.3c0.4-0.1,0.8,0.1,1.2,0.4c0.4,0.4,0.8,0.8,1,1.4
						l1.2,3.1c0.2,0.6,0.3,1.1,0.1,1.5c-0.1,0.5-0.4,0.7-0.8,0.8l-1.4,0.3c-0.4,0.1-0.8-0.1-1.3-0.4c-0.4-0.4-0.8-0.8-1-1.4
						l-1.2-3.1c-0.2-0.6-0.3-1.1-0.1-1.5C134.9,258.7,135.2,258.5,135.5,258.4 M136.3,260.5l1.2,3.1c0.1,0.3,0.3,0.5,0.5,0.7
						c0.2,0.2,0.4,0.3,0.6,0.2c0.2,0,0.3-0.2,0.4-0.4c0.1-0.2,0-0.5-0.1-0.8l-1.2-3.1c-0.1-0.3-0.3-0.5-0.5-0.7
						c-0.2-0.2-0.4-0.3-0.6-0.2c-0.2,0-0.3,0.2-0.4,0.4C136.2,259.9,136.2,260.2,136.3,260.5"/>
					<path clip-path="url(#SVGID_4_)" fill="#FFFFFF" d="M147,264.1l-1.4,0.3l-0.4-1c0.2,0.7,0.1,1.1-0.3,1.2l-0.7,0.1
						c-0.4,0.1-0.8-0.1-1.3-0.4c-0.4-0.4-0.8-0.8-1-1.4l-1.2-3.1c-0.2-0.6-0.3-1.1-0.1-1.5c0.1-0.5,0.4-0.7,0.8-0.8l1.4-0.3
						l-0.8-2.1l1.4-0.3L147,264.1z M143.1,258.2l-0.7,0.1c-0.2,0-0.3,0.2-0.4,0.4c-0.1,0.2,0,0.5,0.1,0.8l1.2,3.1
						c0.1,0.3,0.3,0.5,0.5,0.7c0.2,0.2,0.4,0.3,0.6,0.2c0.2,0,0.3-0.2,0.4-0.4c0.1-0.2,0-0.5-0.1-0.8L143.1,258.2z"/>
					<path clip-path="url(#SVGID_4_)" fill="#FFFFFF" d="M149.6,264.8c0.3,0.7,0.7,1,1.1,0.9l0.7-0.1c0.2,0,0.3-0.2,0.4-0.4
						c0.1-0.2,0-0.5-0.1-0.8l-0.8-2.1c0.2,0.7,0.1,1.1-0.3,1.2l-0.7,0.1c-0.4,0.1-0.8-0.1-1.3-0.4c-0.4-0.4-0.8-0.8-1-1.4l-2-5.2
						l1.4-0.3l2,5.2c0.1,0.3,0.3,0.5,0.5,0.7c0.2,0.2,0.4,0.3,0.6,0.2c0.2,0,0.3-0.2,0.4-0.4c0.1-0.2,0-0.5-0.1-0.8l-2-5.2l1.4-0.3
						l3.2,8.3c0.2,0.6,0.3,1.1,0.1,1.5c-0.1,0.5-0.4,0.7-0.8,0.8l-1.4,0.3c-0.8,0.1-1.6-0.5-2.2-1.8L149.6,264.8z"/>
					<polygon clip-path="url(#SVGID_4_)" fill="#FFFFFF" points="155.8,257.6 154.3,261.7 153.3,261.9 154.7,257.8 150.4,254.6 
						151.5,254.5 					"/>
					<path clip-path="url(#SVGID_4_)" fill="#99041D" d="M106.7,214.4c3.1,1.3,6.4,1.4,9.7,1.4c1.1,0,2.1,0,3.2-0.2
						c5.5-0.6,10.7-1.9,15.4-4c0.9-0.4,1.6-0.8,2.4-1.3c5.6,0.1,11.3-1.6,17.1,1.4c14.1,8.1,28.1,18.2,39.7,32
						c1.2,1.5,2.4,3,3.6,4.5c3.6,4.5,7.1,9.1,10.4,13.9c0.9,1.3,0.9,1.8-0.3,2.6c-2.8,2.1-6.1,3.6-9.4,5.1c-1.2,0.5-2.5,1.1-3.7,1.6
						c-0.5,0.2-0.9,0.5-1.2,0.9c-1.1,1.8-3,2.7-5.3,3.1c-0.9,0.2-1,0.5-0.7,1.3c1,2.5,1.9,5,2.8,7.4c1,2.6,1.6,5.1,2,7.7
						c0.1,0.9,0.5,1.7,1.2,2.4c1.9,1.9,2.6,4.2,3,6.5c0.3,1.8,2.6,9.6,3.5,11.3c1.3,2.3,2.1,4.8,3,7.2c0.7,1.9,0.5,2.4-1.5,3
						c-5.9,1.7-10.6,4.9-15.4,7.9c-3.3,2-6.7,3.9-10.5,5c-3.8,1.1-7.7,1.9-11.7,2.6c-5.5,1-11.2,0.8-16.9,0.4
						c-5.2-0.4-10,0.3-14.7,1.5c-1.8,0.5-2.5,0.2-3.6-1.3c-1.6-2.1-2.8-4.4-3.8-6.7c-1.2-3-2.4-6-3.9-8.9c0,0,0-0.1,0-0.1
						c-1.8-2-2.2-4.2-2.2-6.5c0-0.9-0.5-1.7-1.3-2.4c-3-2.6-4.3-5.7-4.3-9.1c0-1.2-0.4-2.4-1.1-3.6c-1.9-3.2-3-6.5-2.9-9.9
						c0-0.4-0.1-0.8-0.1-1.2c0-0.9-0.5-1.3-1.5-1.7c-3.1-1.3-5.9-0.7-8.7-0.2c-3.9,0.6-8,0.3-12-0.3c-1.4-0.2-2.9-0.2-4.3-0.6
						l-2.8-7.1c0.8-0.5,0-1.2-0.1-1.7c-0.5-2.7-0.8-5.5-1-8.2c-0.1-1.4-0.2-2.7-0.3-4.1c-0.6-4.5-0.6-9.1,1-12
						c5.4-10.9,8.2-21.3,13.3-31.5c2.6-5.1,9.3-4.3,13.2-8.2C106.3,214.5,106.5,214.5,106.7,214.4 M134.9,312.3L134.9,312.3
						c-0.1-0.3-0.4-0.5-0.7-0.5l0,0c-0.2-0.3-0.4-0.5-0.7-0.5l0,0c-0.2-0.3-0.4-0.5-0.7-0.6c-0.1-0.1-0.2-0.2-0.4-0.3
						c-0.2-0.3-0.4-0.5-0.7-0.6l0,0c-0.3-0.4-0.7-0.7-1.1-0.9c-0.1-0.1-0.3-0.2-0.4-0.3c-0.2-0.3-0.4-0.5-0.7-0.6
						c-0.1-0.1-0.2-0.2-0.4-0.3c-0.4-0.4-0.7-0.8-1.1-1.1c-3.4-2.9-6.5-6.1-9.4-9.4c-2.1-2.3-4-4.8-6-7.2c-0.2-0.2-0.3-0.6-0.7-0.5
						c-0.4,0.1-0.3,0.4-0.3,0.7c0.1,1.2,0.2,2.3,0.3,3.5c0.2,1.8,0.4,3.6,1.5,5.2c1.8,2.6,2.6,5.4,2.5,8.2c0,0.9,0.4,1.9,1,2.8
						c0.1,0.1,0.2,0.2,0.3,0.4c0.5,1.1,1.4,1.9,2.2,2.8c0.6,0.7,1.1,1.4,1.5,2.2c0,0.1,0.1,0.3,0.1,0.4c0.1,0.6,0.2,1.1,0.3,1.7
						c-0.1,0.1-0.1,0.3,0,0.5c0,1.1,0,2.2,1,3.2c1.3,1.4,1.5,3.2,2.5,4.7c0.2,0.4,0.4,0.8,0.5,1.2c1.2,3.4,2.7,6.8,4.8,10
						c0.4,0.6,0.9,0.9,1.6,0.7c1.4-0.3,2.9-0.6,4.4-0.8c0.9-0.1,1.7-0.2,2.6-0.3c0.5,0.1,1,0,1.5-0.2c0.2,0,0.5,0,0.7,0
						c0.4,0.2,0.7,0,1,0c0.2,0,0.3,0,0.5,0c0.4,0.2,0.7,0.1,1,0c0.2,0,0.3,0,0.5,0c0.2,0.1,0.4,0.1,0.5,0c0.2,0,0.3,0,0.5,0
						c0.5,0.2,1,0.2,1.5,0.1c0.2,0,0.3,0,0.5,0c0.2,0.1,0.4,0.1,0.5,0c0.8,0,1.5,0.1,2.3,0.1c0.2,0.1,0.4,0.1,0.5,0l1.5,0.1
						c0.2,0.1,0.4,0.1,0.5,0c0.2,0,0.3,0,0.5,0c0.2,0.1,0.4,0.1,0.5,0c0.2,0,0.5,0,0.7,0c0.2,0,0.3,0,0.5,0c0.2,0,0.5,0,0.7,0
						c0.2,0.1,0.4,0.1,0.5,0c0.2,0,0.5,0,0.7,0c0.2,0.1,0.4,0.1,0.5,0c0.4,0,0.8,0,1.2-0.1c0.2,0.1,0.4,0.1,0.5,0
						c0.4,0,0.8-0.1,1.2-0.1c0.7,0.2,1.3-0.1,1.9-0.2c0.2,0,0.5,0,0.7,0c3-0.2,5.8-0.9,8.5-1.8c0.1,0,0.3-0.1,0.4-0.1
						c0.4-0.1,0.9,0,1.1-0.3c0.3-0.1,0.6-0.2,0.9-0.3c0.3,0,0.5,0,0.7-0.2c0.3-0.1,0.6-0.2,0.9-0.3c0.3,0,0.5,0,0.7-0.3
						c0.1-0.1,0.3-0.1,0.4-0.2c0.2,0,0.4,0,0.5-0.2c0.1-0.1,0.3-0.1,0.4-0.2c0.3,0,0.5,0,0.7-0.3c0.1-0.1,0.3-0.1,0.4-0.2
						c0.7-0.2,1.4-0.5,1.9-0.9c0.1-0.1,0.3-0.1,0.4-0.2c1.1-0.4,2-0.9,2.9-1.6c2.4-1.5,4.8-3,7.2-4.5c0.2,0,0.4-0.1,0.4-0.2
						c0.9-0.5,1.8-1,2.7-1.4c0.2,0,0.4,0,0.4-0.2c0.3-0.2,0.7-0.3,1-0.5c0.2,0,0.4,0,0.4-0.2c0.1-0.1,0.3-0.1,0.4-0.2
						c0.2,0,0.4,0,0.4-0.2c0.1-0.1,0.3-0.1,0.4-0.2c0.2-0.1,0.3-0.1,0.5-0.2c0.2-0.1,0.4-0.2,0.6-0.3c0.2-0.1,0.3-0.1,0.5-0.2
						c0.4-0.1,0.7-0.2,1.1-0.3c0.2,0,0.4,0,0.4-0.2c1.1-0.1,1.3-0.6,0.9-1.6c-0.8-1.9-1.4-3.9-2.4-5.8c0-0.2-0.1-0.5-0.4-0.6l-0.5-1
						c0-0.2-0.1-0.5-0.4-0.6c-0.1-0.2-0.2-0.4-0.3-0.6c0-0.2-0.1-0.3-0.3-0.4c-0.1-0.1-0.2-0.2-0.3-0.4c-0.2-0.5-0.6-0.9-1-1.3
						c-0.3,0.2-0.4,0.5-0.4,0.8l0,0c-0.4,0.6-0.8,1.2-1,2l0,0c-1,1.8-2.1,3.5-3.1,5.3c-0.1,0.2-0.2,0.3-0.3,0.5
						c-0.3,0-0.4,0.5-0.9,0.3c0.1-0.6,0.5-1.1,0.8-1.7c0.6-1.2,1.6-2.2,2-3.6c0-0.1,0.1-0.2,0.1-0.2c0.4-0.4,0.6-0.9,0.7-1.5
						c0-0.1,0.1-0.2,0.1-0.2c0.2-0.2,0.3-0.4,0.3-0.7c0.1-0.3,0.2-0.6,0.3-1c0.2-0.2,0.3-0.4,0.2-0.7c0.5-2,0.6-4,0.4-6.1
						c0.1-0.2,0-0.3-0.1-0.5c0-0.1,0-0.3,0-0.4c0.1-0.2,0-0.3-0.1-0.5c0-0.1,0-0.3-0.1-0.4c0.2-0.2,0-0.4-0.1-0.7
						c-0.3-0.9-0.5-1.9-1.3-2.7c-0.2-0.4-0.5-0.7-1.1-0.9c-0.5,2.9-0.9,5.7-1.4,8.5l0,0c-0.4,0.9-0.5,2-0.8,3
						c-0.6,2.7-1.2,5.4-1.9,8l0,0c-0.2,0.2-0.3,0.4-0.2,0.7l0,0c-0.2,0.2-0.3,0.4-0.3,0.7c-0.2,0.2-0.4,0.3-0.6,0.5
						c-0.3-0.9,0-1.7,0.2-2.6c1.4-5.6,2.8-11.2,3.6-17c0.2-1.3,0.4-2.7-0.2-4.1c0-0.1,0-0.3-0.1-0.4c0.2-0.2,0-0.4-0.1-0.7
						c0-0.1-0.1-0.3-0.1-0.4c0.2-0.2,0.1-0.4-0.1-0.7c0-0.1-0.1-0.3-0.1-0.4c0-0.1,0.1-0.3,0-0.4c-0.9-3.9-2.1-7.7-3.7-11.5
						c-0.2-0.5-0.5-1-1-1.6c-0.3,0.6-0.3,1.2-0.3,1.7c0,2.3,0,4.7-0.1,7.1c-0.1,7.2,0,14.5-1.1,21.5c-0.1,0.4-0.1,0.8-0.3,1.2
						c-0.1,0.2-0.1,0.6-0.5,0.4c-0.4-0.2-0.2-0.4-0.2-0.6c0.2-1.5,0.5-3,0.7-4.5c0.8-7,0.6-14,0.4-21.1c-0.1-3.6,0.2-7.2-0.4-10.9
						c-0.5-2.8-1.5-5.6-2.5-8.4c-1-2.9-2-5.9-3.1-8.8c-0.5-1.5-1.1-2.9-1.6-4.4c-1.7-7.4-6.9-13.7-9.8-21.2c1.6,1.7,2.1,4.3,3.7,6
						c1-0.8,0.7-2.8,0.7-4.1c-0.1-2.6-2.9-2.8-4.3-3.9c1.7-0.3,3.5,2,5.3,3c-1.2-9-12.3-14.8-18.3-17c-3-0.8-7.9-0.2-8.6,0.9
						c-1.6,2.5-1.8,7.3-4.4,9.5l-0.2,0.2c-0.5,0.6-1,1.1-1.6,1.7l0,0c-0.3,0.2-0.6,0.4-0.9,0.6c-3.4,2.4-7.1,4-11.8,4.2
						c-1.4,0-2.8,0.2-4.3-0.2c-10.9-3.3-14.3-5.9-17.6-9c-4.3-4.1-16.1,6.8-13.4,19.6c1.9-1,1.4-8.2,2.8-4.5
						c4.7,9.7-2.2,18.9,5.1,30.2c0.8,1.5,1.6,3,2.2,4.6c0.7,1.8,1.6,3.6,2.7,5.3c1.9,3,4,5.9,6.1,8.7c6.5,8.7,13.9,16.8,22.5,24.2
						c2.1,1.8,4.2,3.6,6.6,5.2c0.3,0.2,0.6,0.4,0.9,0.6c1.2,0.9,2.6,1.4,3.5,2.5c-1.1,0-1.8-0.8-2.8-1.2c-0.1-0.1-0.2-0.1-0.2-0.2
						c-0.4-0.4-0.9-0.6-1.4-0.9c-0.1-0.1-0.2-0.1-0.3-0.2c-0.3-0.3-0.6-0.6-1.1-0.7l0,0c-0.2-0.4-0.6-0.6-1-0.7l0,0
						c-0.2-0.3-0.4-0.4-0.7-0.5l0,0C135.5,312.6,135.2,312.4,134.9,312.3 M90.9,243.4c1.2,0.6,2.4,2.4,3,1.6c0.6-2.1,1.9-6.9-1.2-9
						C93.6,239.8,89.3,239.2,90.9,243.4L90.9,243.4z M109.1,286.2L109.1,286.2c0.7-0.5-0.1-0.9-0.4-1.2c-3.9-4.7-6.8-9.8-9.5-14.9
						c-0.9-1.7-1.7-3.5-2.5-5.2c-2.3-5.4-3.6-11.1-3.4-16.4c0.1-3.3-4-3.3-5-7c-5.1,6.9-8.4,16-7.1,27.7c0.2,1.9,0.4,3.9,0.7,5.8
						c0.2,1.9,0.5,3.9,0.9,5.8c0.2,1.1,0.9,1.5,2.1,1.7c1.6,0.2,3.1,0.5,4.7,0.8c0.4,0.1,0.9,0.1,0.9,0.6c0,0.5-0.6,0.3-0.9,0.3
						c-1.6-0.1-3.2-0.3-4.8-0.5c-0.4,0-1.1-0.3-1.1,0.4c0,0.6,0.2,1.3,1.1,1.5c2.7,0.5,5.5,1,8.2,1c0.3,0.1,0.6,0.1,0.8,0
						c0.2,0.2,0.5,0.3,0.7,0.1c0.2,0,0.5,0,0.7,0c0.4,0.2,0.7,0,1,0c0.6,0,1.1-0.1,1.6-0.1c0.2,0,0.3,0,0.5,0
						c1.4-0.2,2.8-0.5,4.2-0.7c1.5-0.4,3-0.4,4.5,0.6c0.3,0.2,0.7,0.3,1.1,0.3C108.7,286.9,109,287,109.1,286.2 M197.3,267.9
						c0.1-0.1,0.3-0.1,0.4-0.2c0.2,0,0.4,0,0.5-0.2c0.1-0.1,0.3-0.1,0.4-0.2c0.2,0,0.4,0,0.4-0.2c0.1-0.1,0.3-0.1,0.4-0.2
						c0.4-0.1,0.8-0.3,1.1-0.5c0.1-0.1,0.3-0.1,0.4-0.2c0.4-0.1,0.8-0.3,1.1-0.5c1.4-0.8,2.9-1.4,4-2.5c0.3-0.3,0.4-0.6-0.1-0.9
						c-0.1-0.1-0.2-0.3-0.2-0.4c-0.4-0.8-1-1.5-2-0.9c-3.1,1.7-6.5,3-9.7,4.6c-0.3,0.1-0.6,0.1-0.9,0.2c-0.3-0.7,0.4-0.8,0.9-1
						c1-0.5,2.1-0.9,3.1-1.3c2-0.9,3.9-1.9,5.9-2.9c0.5-0.3,1.3-0.5,0.8-1.3c-1.1-1.6-2.3-3.3-3.6-4.8c-0.2-0.4-0.5-0.8-0.9-1.2
						c0-0.2-0.1-0.3-0.3-0.4c-0.9-1.2-1.9-2.3-2.8-3.5c-0.9-1.2-1.9-2.3-2.8-3.5c-1.9-2.1-4.2-5.5-6-7.3c-4.8-4.8-9.4-8.4-14.5-12.1
						c0,5.9,4.3,11.1,6.3,17.4c0.3,1.9,0.6,3.9,0.9,5.9c0.2,1.2,0.2,2.5,0.3,3.7c0,0.2,0,0.5-0.3,0.5c-0.3,0-0.4-0.3-0.5-0.5
						c-0.1-0.2-0.1-0.5-0.1-0.7c-0.2-2.2-0.3-4.4-0.6-6.7c-1.3-5.2-3.4-9.5-6.3-13.6c-3,5.2,3.7,11.9,5.1,18.3
						c0.5,1.4,1,2.8,1.5,4.2c0.5,1.4,1,2.8,1.6,4.2c1.4,3.7,3,7.4,3.6,11.2c0.1,0.7,0.6,0.9,1.3,0.8c1.3-0.3,2.5-0.8,3.6-1.5
						c1.9-1.3,2.4-2.9,1.5-5.1c-0.5-1.2-0.8-2.4-1.2-3.6c-0.1-0.3-0.3-0.6,0.1-0.8c0.6,0.3,0.7,0.9,1,1.3c0.4,1,0.7,1.9,1.1,2.9
						c0.5,1.4,0.6,2.9,1.2,4.3c0.3,0.7,0.7,0.9,1.3,0.5c0.2-0.1,0.4-0.1,0.7-0.2c0.3,0,0.5,0,0.7-0.2c0.6-0.2,1.1-0.4,1.7-0.6
						C197.1,268.1,197.2,268.1,197.3,267.9 M128.7,229c1.5-0.2,3-0.7,4.3-1.3c2-0.9,3.6-2,5-3.2s2.5-2.7,3.3-4.4
						c-0.1-2.6,3.3-3.3,0.6-6.7c-1.4-2.4-2.9-1.5-3.4,0.4c-0.5,1.6-1.2,3-2.1,4.4c-0.9,1.3-2,2.6-3.2,3.7c-2.9,2.8-6.9,3.9-11,3.3
						c-1.4-0.2-2.8-0.6-4.2-1.2c-4.1-0.3-13.3-11.3-12-4.2c1.5,5,8.7,6.9,14.3,9.1c1.4,0.5,2.8,0.4,4.2,0.5
						C125.9,229.3,127.3,229.2,128.7,229 M109.4,217.5c2.5,2.5,5.4,4,7.7,4c1.5,0.1,2.9,0.1,4.2,0c4.1-0.2,8-1,11.6-2.5
						c1.3-0.5,2.3-1.3,3-2.3c0.7-1,1.2-2.2,1.6-3.5c-0.9,0.4-1.8,0.8-2.7,1.1c-4.6,1.8-9.3,3.1-14.2,3.5c-1.2,0.1-2.4,0.2-3.6,0.2
						c-1.2,0-2.5,0-3.8-0.1C112,217.9,110.7,217.7,109.4,217.5 M133.6,219.8c-2.9,0.7-5.6,1.3-8.3,1.8c-1.4,0.3-2.8,0.5-4.2,0.6
						c-1.4,0.1-2.9,0.1-4.4,0c1.4,1.3,3.4,2,5.6,2.2C126.6,224.7,131.7,223,133.6,219.8 M188.2,273.3c1.9-0.6,3.3-1.6,3.6-3.4
						c0-0.3,0.2-0.7-0.2-0.9c-0.4-0.2-0.7,0.1-0.9,0.3c-1.5,1.4-3.2,2.5-5.5,2.8c-0.4,0.1-0.6,0.2-0.6,0.6c0.1,0.4,0.5,0.5,0.8,0.6
						C186.4,273.5,187.3,273.2,188.2,273.3"/>
				</g>
			</g>
		</g>
	</g>
	<g id="Arms">
		<path fill="#FFFFFF" stroke="#000000" stroke-width="2" stroke-miterlimit="10" d="M86.4,287.7c3.4,6.4-1,14.3,2.9,20.4
			c1,1.5,2.2,2.8,3.8,3.6c1.7,0.8,3.6,0.7,5.5,0.7c3.4-0.1,7-0.3,9.9,1.5c1,0.7,1.8,1.5,2.8,2.2c0.9,0.7,2.1,1.3,3.2,1.3
			c1.2,0,2.4-0.9,2.5-2.1c0.1-1.2-1.3-2.3-2.3-1.7c1.7-0.6,3.6,2.5,5,1.4c0.6-0.5,0.5-1.6,0-2.2s-1.4-0.9-2.2-1
			c2.2,1.4,4.9,2.1,7.5,2c0.2-1.2-0.7-2.4-1.8-3c-1.1-0.6-2.4-0.6-3.7-0.6c1.4-0.1,2.7,0.8,4,1.4c1.3,0.5,3.2,0.4,3.7-1
			c0.5-1.4-0.9-2.7-2.3-3s-2.9-0.1-4.3-0.6c0-1.4-1.7-2-3-2.2c-3.1-0.4-6.2-0.5-9.4-0.3c-1.1,0.1-2.2,0.2-3.3-0.1
			c-1-0.3-2-1-2.7-1.7c-2.5-2.5-4-6-3.9-9.6c0-0.9,1.3-4.6,0.5-4.9"/>
	</g>
	<g id="Layer_14">
		<g>
			<path fill="#FFFFFF" stroke="#000000" stroke-width="2" stroke-miterlimit="10" d="M153.7,224.9c7.8-10.3,4.7-25.1-0.9-36.8
				c-2.4-4.9-5.2-9.7-8.7-13.8c-9.2-10.7-24.4-16.9-37.9-12.8c-11,3.3-19.5,13.1-22.5,24.1c-3,11.1-0.9,23.2,4.6,33.3
				c2.9,5.3,6.7,10.1,11.9,13.1c6.2,3.5,13.5,4.1,20.6,4.1C132.8,236.2,146.4,234.5,153.7,224.9z"/>
			<path fill="#FFFFFF" stroke="#000000" stroke-width="2" stroke-miterlimit="10" d="M95.4,172.4c-0.2-8.4-0.3-18-2.4-26.8
				c6.7,5.9,13.1,14.7,18.4,21.8"/>
			<path fill="#FFFFFF" stroke="#000000" stroke-width="2" stroke-miterlimit="10" d="M121.4,165.4c-0.3-6.9,4.3-16.3,4.6-23.3
				c4.7,7.8,6,15.5,8.8,24.2"/>
			<path fill="#FFFFFF" stroke="#000000" stroke-width="2" stroke-miterlimit="10" d="M114.7,186.4c-2.6,2.4-7.8,4.3-12.6,4.4
				c-0.9,0-1.9,0-2.2-0.5c-0.1-0.2,0-0.4,0.1-0.6c0.7-1.5,3.1-3,6-3.8c2.8-0.7,6-0.6,8.1,0.2L114.7,186.4z"/>
			<path d="M106,186.4c1.6,0.6,2.2,2.1,1.5,3.4C105.1,189.9,104.7,187.6,106,186.4z"/>
			<path fill="none" stroke="#000000" stroke-width="2" stroke-miterlimit="10" d="M118.4,225.8c3-5.4,8.4-5.6,11.9-5.7
				c0.8,0,1.4-0.7,2.2-1.1c1.3-0.6,1-0.8,0.8-1.5c-0.5-2.9-2.4-8.5-3.6-12.2c-1.4-4-6.1-2.6-8.3-5.9c3.6-1,7-2.5,10.3-4.4
				c-0.9,2.9-1.8,5.8-2.8,8.8c2.1,4,2.7,8.4,4.7,12.9c0.5,1.2,3.7,1.5,4.5,1c6.6-4,10.4-1.1,12.1-1.1"/>
			<path fill="#FFFFFF" stroke="#000000" stroke-width="2" stroke-miterlimit="10" d="M140.9,180.2c-2.6,2.4-5.2,4-10,4.2
				c-0.9,0-4.4,0.2-4.7-0.2c-0.1-0.2,0.8-1.6,0.9-1.8c1.5-1.5,2.2-1.9,5.1-2.6s6-0.6,8.1,0.2L140.9,180.2z"/>
			<path d="M134.6,184c0.2-0.7-0.2-1.3-0.4-2c-0.1-0.8,0-1.3-1.3-2.7c-0.9,0.9-0.9,1.7-0.2,2.9c0.2,0.4,0.2,0.4,1.4,1.6L134.6,184z"
				/>
		</g>
	</g>
</g>
<g id="Desk">
	<path fill="#754C24" stroke="#603813" stroke-width="5" stroke-miterlimit="10" d="M180.3,610.9c-3.2-81.8-4.4-162.6-6.4-247.4"/>
	<path fill="#754C24" stroke="#603813" stroke-width="5" stroke-miterlimit="10" d="M29.8,331.9c1.8,68.2,2.7,136.5,2.8,204.8"/>
	<path fill="#754C24" stroke="#603813" stroke-width="5" stroke-miterlimit="10" d="M491.4,286.5c1.1,76,2.2,152.1,3.3,228.1"/>
	<path fill="#754C24" stroke="#603813" stroke-width="5" stroke-miterlimit="10" d="M306.8,552.8c75.2-19.5,84.5-22.2,156-42.3
		c2.6-0.7,28.9-5.9,30.3-8.2c1.1-1.9,0-34.3,0-36.4c-0.6-62.5-1.1-113-1.7-175.6c-81.9,21.6-158.5,45.4-238.2,70.4
		c-21.6,6.8-42.6,13.4-75.5,22.9c3,60.1,2.6,110.1,2.6,175c0,3.2,1.4,35.4,1.4,35.4s37.9-12.1,40.2-13.1
		C239.8,573.8,289.6,557.2,306.8,552.8z"/>
	<path fill="#754C24" stroke="#603813" stroke-width="5" stroke-miterlimit="10" d="M83.3,546.3c-1.5-0.6-49.1-17.2-49.1-17.2
		s0.9-33.3,0.9-35.8c0.1-63.6-0.3-94.5,0.2-158.4c38.3,12.7,95.4,30.3,136.3,43.6c-0.9,17.5,0.2,35.7,0.6,55.3
		c0.7,30.7,1.8,52.9,1.8,85.5c0,17.7-0.2,56.9,2,74.6C140.8,579.7,118.3,560.6,83.3,546.3z"/>
	<path fill="#754C24" stroke="#603813" stroke-width="5" stroke-miterlimit="10" d="M-16.1,339.1c29.3,7.5,38.8,10.9,58.6,16.3
		c35.6,9.7,16.9,5.2,54.6,16c6.3,1.8,76.4,20.9,76.4,20.9s125.8-35.9,132.3-37.7c110-30.1,111.1-32.3,225.5-51.1
		c-46.7-16.5-30.3-12.5-78.1-26.1c-10.2-2.9-95.1-25.2-95.1-25.2s-87.5,21.1-100.4,24.8c-85.8,24.7-65.2,17.6-160.5,38.5
		C72.1,321,18.4,328.7-16.1,339.1z"/>
</g>
<g id="Phone">
	<path fill="#C69C6D" stroke="#967D62" stroke-miterlimit="10" d="M340,289.5c0.3-1.1-0.8-2.2-1.9-2c-0.5,0.5-0.6,1.3-0.4,2
		c-0.4-0.6-1.1-0.9-1.8-1c0.2-0.9,0-1.9-0.5-2.7c-2.2,0.1-5,0.7-5.2,2.9c-0.1,0.6,0.1,1.3-0.1,1.9c-0.5,1.1-2,1.1-3.2,1.2
		c-1.4,0.1-2.8,0.7-4.1,1.2c-7.5,3.1-15.2,6.5-20.5,12.6c-2.8,3.3-0.9,6.2,2.8,7.6c11.6,4.6,23.3,9.2,34.9,13.7
		c3.3,1.3,6.7,2.6,10.2,2.6c2.1,0,4.1-0.4,6.1-0.9c5.9-1.3,11.8-2.5,17.8-3.8c2.7-0.6,5.8-1.5,6.5-4.2c0.3-1.1,0.1-2.2-0.1-3.2
		c-0.7-4-1.7-7.9-2.9-11.8c-0.2,1.8-2.5,2.3-4.3,2.4c-5.9,0.6-11.6,2.6-17.4,3.9s-12.1,1.8-17.6-0.5c-2.4-1-4.6-2.5-7-3.6
		c-1.5-0.7-3.2-1.2-4.6-2c-3.6-2-6-6.1-5.9-10.3c-4.3,0.9-8.7,1.8-12.5,4c-4.3,2.4-11.4,9.9-4.3,13.1c12.9,5.7,26,11,39.2,15.9
		c2,0.7,4,1.5,6.2,1.7c2.5,0.2,5.1-0.4,7.6-1c6.9-1.6,13.7-3.4,20.5-5.2c1.2-0.3,2.6-0.7,3.3-1.8c1.3-1.9,0-4.4-0.5-6.7
		c-0.9-3.7,0.3-8.3-2.4-10.9c-2.1-2.1-5.7-1.9-8.2-3.5c-3.4-2.2-3.8-7-4.4-11.1c-0.2-1.4-0.4-2.8-1.2-4c-0.8-1.2-2.3-2-3.6-1.6
		c-1.4,0.4-2.1,2.3-1.2,3.3c0,0.6-1,0.9-1.5,0.5c-0.5-0.4-0.7-1.1-0.9-1.7c-0.2-0.6-0.6-1.3-1.2-1.4c-1.1-0.3-1.8,1.3-1.5,2.5
		c-0.7-0.1-1.4-0.3-1.9-0.6c0-1.2-0.1-2.3-0.1-3.5c-1.1-0.8-2.7-0.9-3.9-0.2c-1.2,0.7-1.9,2.1-1.8,3.5c-1.9-1.2-4.8,0.8-4.5,3
		C341.2,290,340.6,289.9,340,289.5z"/>
	<g id="Layer_13">
		<path fill="#6B6156" d="M359.8,295.5c-1.1-1.3-2.5-3.6-4.4-3.5c-1.8,0-3.6,0.8-5.1,1.7c-1.2,0.7-1.3,2.1-0.6,3.1c0,0,0,0,0,0
			c0,0.2,0.1,0.5,0.1,0.7c0,0.2,0.1,0.4,0.1,0.6c0.3,0.8,0.8,1.5,1.6,1.8c1.6,0.7,3.8-0.1,5.5-0.4c0.3-0.1,0.6-0.2,0.8-0.4
			C359.9,299.4,361.3,297.1,359.8,295.5z"/>
	</g>
	<path fill="#C69C6D" stroke="#967D62" stroke-miterlimit="10" d="M333,287.8c0-0.5-0.2-1.1-0.7-1.2c-0.2,0-0.4,0-0.6,0.1
		c-1.8,0.8-2.2,3.2-2.2,5.1c0,2.4,0.2,4.8,1.3,7c0.3,0.7,0.7,1.3,1.3,1.8c0.6,0.5,1.4,0.8,2.1,1.1c4.4,1.7,8.8,3.3,13.4,4.1
		c1.3,0.2,2.9,0.2,3.7-0.9c0.6-0.9,0.3-2.1,0-3.1c-1.1-3.6-2.2-7.3-3.2-10.9c-0.4-1.2-0.7-2.4-1.6-3.3c-0.8-0.9-2.3-1.4-3.3-0.7
		c-1.5,0.9-1.2,3.2-1.3,5c-0.1,0.6-0.2,1.2-0.7,1.5c-0.3,0.2-0.7,0.2-1.1,0.2c-2.3,0-4.6-0.3-6.8-0.9
		C333.1,291,333.1,289.4,333,287.8z"/>
	<g>
		<path fill="#C69C6D" stroke="#967D62" stroke-miterlimit="10" d="M173.8,237.3c3.7,0.2,7.3-0.4,10.6-1.8c1-0.4,1.8-1.3,2.1-2.4
			c0.7-2.1,0.6-3.9,0.6-5.4c0.1-4.2-0.6-5.4-0.9-8.2c-1.1-10-4-15.1-7-22.9c-1-2.5-2-5.1-3.6-7.3c-3.9-5.1-11.2-6-14.4-1.7
			c-0.2,0.2-0.4,0.5-0.4,0.9c0,0.6,0.4,1.2,0.8,1.7c2.4,3.1,4.2,6.7,5.8,10.3c0.5,1.3,1.9,1.7,2.6,0.8l1.2-1.5
			c0.2-0.2,0.6-0.1,0.8,0.2l6,12.6c0.4,0.9,0.6,2,0.3,2.8c-1.3,3.5-7.7-2.3-8.7,3.1c-0.1,0.7-0.1,1.5,0,2.3l1.6,13.5
			c0.1,0.8,0.3,1.8,0.9,2.4C172.5,237.2,173.2,237.2,173.8,237.3z"/>
		<path fill="#C69C6D" stroke="#967D62" stroke-miterlimit="10" d="M175.6,235.7c-1.6-5.8-1.9-14.2-1.8-18.1"/>
		<path fill="#C69C6D" stroke="#967D62" stroke-miterlimit="10" d="M170.9,198.3c-1.6-3.5-4.3-8.7-6.3-12"/>
	</g>
	<g id="Layer_16">
		<path fill="#FFFFFF" stroke="#000000" stroke-miterlimit="10" d="M196,278.1c-1.6-0.4-2.9-1.6-3.9-2.9c-1.2-1.7-2.1-3.9-1.3-5.8
			c0.8-2,3.3-2.9,5.4-2.4c2.1,0.5,3.8,2.1,5,3.9c0.6,0.9,1.1,2.1,0.6,3c-0.2,0.4-0.6,0.7-1,1c-1.7,1.3-3.3,2.5-5,3.8"/>
		<path fill="#FFFFFF" stroke="#000000" stroke-linecap="round" stroke-linejoin="round" stroke-miterlimit="10" d="M200.9,280.5
			c1.9-0.3,3.2-2.1,3.7-3.9c0.5-1.8,0.3-3.8,0.1-5.6c-0.9-8.2-1.7-16.4-2.6-24.6c-0.4-3.5-0.7-7.1-1.8-10.5
			c-1.2-3.6-3.1-6.9-5.1-10.2c-3.4-5.7-6.7-11.3-10.1-17c-1.8-3-5.5-8.5-7.8-5.9c-1.1,1.2,1.9,3,3.4,2.5c-1.2-0.2-2.5,1.1-2.1,2.3
			c0.9,0.9,2.5,1.1,3.5,0.4c-1.1,0.7-2.1,1.8-2.1,3.1c0,1.3,1.7,1.5,2.6,0.6c-0.7,0.2-2.4,2.1-0.9,3.1c1.3,0.8,5.6,6.5,5.4,11.2
			s5.6,9.7,5.4,14.4c-0.3,5.2,2,13.2,3.3,18.2c1.2,4.5-1.9,6-0.8,10.5c1.1,4.3-1.6,8.4,2.1,10.7
			C198.4,280.4,199.7,280.8,200.9,280.5z"/>
	</g>
	<g>
		<path fill="none" stroke="#967D62" stroke-width="2" stroke-miterlimit="10" d="M328.3,289.2c2-0.4,2.9-1.3,1.9-2
			c-3.5,0-11.3,1.3-8.2,1.9c2.4,0.4,3.6-1.8,2.1-2.5c-1.7-0.8-9.6,0.7-7,1.2c2.4,0.5,4.4-1.7,2.9-2.5c-1.6-0.8-9,0.7-6.4,1.1
			c2.6,0.4,5.2-1.5,4.3-2.4c-1.3-1.3-11.8,1-8,1.5c3.3,0.4,5.8-2.5,2.9-3.2c-1.9-0.5-7.6,0.5-5.9,1c2.2,0.7,5.1-2,2.9-2.7
			c-2.4-0.8-9.2,0.9-9.9-0.2c-0.8-1.2,5.8-2.3,2.8-2.9c-2.1-0.4-7.4,0.8-5.4,1.3c2.6,0.7,2.4-2.2-0.8-2.5s-8.9,1.8-5.7,2
			c4,0.4,1-3-3-3.3c-4-0.3-11.3,1.9-7.4,2.4c3.4,0.4,4.8-2.6,1.6-3.2c-3.3-0.6-7.7,2.6-3.9,2.6c2.6,0,3-1.5,2.3-2.3
			c-0.7-0.8-3.6-1.4-6-1.1c-2.4,0.3-2.7,2.4-0.3,2c2.6-0.4,2.6-1.9,1.6-2.7c-0.7-0.7-4.1-0.9-5.7-0.5c-2,0.5-3,1.8-1.1,2.4
			c3.6,1,7.9-2.1,4.5-3.1c-3.5-1-13.3,1.2-8.9,1.8c3.8,0.5,6.7-2.4,4.2-3.5c-2.6-1.1-10.4,0.4-9.3,1.7c0.9,1,6.8,0,6.5-1.1
			s-4-2.2-7.1-1.9c-2.6,0.3-4.3,2.1-1.9,2.5c3.1,0.6,5.3-1.9,2.7-2.7c-2.6-0.8-9.8,0.8-6.6,1.3c2.5,0.4,4.4-1.3,3.7-2.2
			c-0.7-0.9-3.7-1.5-6.4-1.3c-0.7,0.1-1.5,0.2-1.9,0.4c-1.7,0.7,2.4,1.7,4.5,1.1s0.9-1.9-1.5-2.3c-2.4-0.4-7.5-0.9-8.1,0
			c-0.5,0.8,4.9,0.4,6.2-0.2c1.3-0.6,0.6-1.7-1.6-2c-3.4-0.4-10,1.2-7.4,2c2.4,0.7,5.4-1.5,3.8-2.5c-1.6-1-8.5-1.4-8.3-0.3
			c0.1,0.8,5.3,0.4,5.7-0.4c0.9-1.7-12.1-2.4-11.2-0.6c0.7,1.4,9-0.3,7.7-1.7s-12.8-2-10.6-0.7c1.4,0.8,4.5-1.3,3.8-2.1
			c-0.7-0.9-4.2-1.4-6.5-0.9c-2.3,0.5-1.7,2.2,1,2.1c3.2-0.1,2.8-2,0.3-2.7c-2.5-0.7-7.6-1.6-9.2-0.7c-1.4,0.8,7.1,1,6.9,0.1
			c-0.2-1.2-7.6-2.2-9.8-1.2c-1,0.4,3.2,1,3.9,0.5c1.2-0.9-0.4-2.1-2.5-2.8c-2.1-0.7-6.7-0.5-7.2,0.4c-0.5,1,4.6,1.6,6.8,0.8
			c2.2-0.8,1.5-2.1-0.4-2.9c-1.7-0.8-4.7-1.3-7.5-1c-2.7,0.3-4.1,2.3-1.2,2.2c3-0.1,3-1.9,1.1-2.6c-1.9-0.8-6.5-1-7.9-0.1
			c-1.1,0.7,2.7,1.3,4.6,0.9c1.9-0.4,2.4-1.3,2.1-2c-0.3-0.7-1.2-1.5-3.1-1.8s-5.8-0.1-5.3,0.6c0.4,0.5,2.9,1,4.1,0.7
			c3.1-0.8-1.4-3.6-5.1-3.2c-2.5,0.3,3,1.5,4.7,0.8c1.6-0.7-0.2-1.8-2.7-2.1c-2.6-0.2-7.3-0.2-7.4,0.7c-0.1,1.1,7.2-0.7,4.9-1.6
			c-1.8-0.7-4.1-1.3-6.8-1.3c-2.7-0.1-6.6,1.1-4.4,1.7c2.3,0.6,5.8-0.6,6.2-1.6c0.4-1-1.7-2-4.6-2.1c-2.3-0.1-4.9,1.2-3,1.6
			c2.4,0.5,5.4-1,4.6-1.9s-4.5-1.4-6.9-0.8"/>
		<path fill="none" stroke="#8C6239" stroke-miterlimit="10" d="M328.3,289.2c2-0.4,2.9-1.3,1.9-2c-3.5,0-11.3,1.3-8.2,1.9
			c2.4,0.4,3.6-1.8,2.1-2.5c-1.7-0.8-9.6,0.7-7,1.2c2.4,0.5,4.4-1.7,2.9-2.5c-1.6-0.8-9,0.7-6.4,1.1c2.6,0.4,5.2-1.5,4.3-2.4
			c-1.3-1.3-11.8,1-8,1.5c3.3,0.4,5.8-2.5,2.9-3.2c-1.9-0.5-7.6,0.5-5.9,1c2.2,0.7,5.1-2,2.9-2.7c-2.4-0.8-9.2,0.9-9.9-0.2
			c-0.8-1.2,5.8-2.3,2.8-2.9c-2.1-0.4-7.4,0.8-5.4,1.3c2.6,0.7,2.4-2.2-0.8-2.5s-8.9,1.8-5.7,2c4,0.4,1-3-3-3.3
			c-4-0.3-11.3,1.9-7.4,2.4c3.4,0.4,4.8-2.6,1.6-3.2c-3.3-0.6-7.7,2.6-3.9,2.6c2.6,0,3-1.5,2.3-2.3c-0.7-0.8-3.6-1.4-6-1.1
			c-2.4,0.3-2.7,2.4-0.3,2c2.6-0.4,2.6-1.9,1.6-2.7c-0.7-0.7-4.1-0.9-5.7-0.5c-2,0.5-3,1.8-1.1,2.4c3.6,1,7.9-2.1,4.5-3.1
			c-3.5-1-13.3,1.2-8.9,1.8c3.8,0.5,6.7-2.4,4.2-3.5c-2.6-1.1-10.4,0.4-9.3,1.7c0.9,1,6.8,0,6.5-1.1s-4-2.2-7.1-1.9
			c-2.6,0.3-4.3,2.1-1.9,2.5c3.1,0.6,5.3-1.9,2.7-2.7c-2.6-0.8-9.8,0.8-6.6,1.3c2.5,0.4,4.4-1.3,3.7-2.2c-0.7-0.9-3.7-1.5-6.4-1.3
			c-0.7,0.1-1.5,0.2-1.9,0.4c-1.7,0.7,2.4,1.7,4.5,1.1s0.9-1.9-1.5-2.3c-2.4-0.4-7.5-0.9-8.1,0c-0.5,0.8,4.9,0.4,6.2-0.2
			c1.3-0.6,0.6-1.7-1.6-2c-3.4-0.4-10,1.2-7.4,2c2.4,0.7,5.4-1.5,3.8-2.5c-1.6-1-8.5-1.4-8.3-0.3c0.1,0.8,5.3,0.4,5.7-0.4
			c0.9-1.7-12.1-2.4-11.2-0.6c0.7,1.4,9-0.3,7.7-1.7s-12.8-2-10.6-0.7c1.4,0.8,4.5-1.3,3.8-2.1c-0.7-0.9-4.2-1.4-6.5-0.9
			c-2.3,0.5-1.7,2.2,1,2.1c3.2-0.1,2.8-2,0.3-2.7c-2.5-0.7-7.6-1.6-9.2-0.7c-1.4,0.8,7.1,1,6.9,0.1c-0.2-1.2-7.6-2.2-9.8-1.2
			c-1,0.4,3.2,1,3.9,0.5c1.2-0.9-0.4-2.1-2.5-2.8c-2.1-0.7-6.7-0.5-7.2,0.4c-0.5,1,4.6,1.6,6.8,0.8c2.2-0.8,1.5-2.1-0.4-2.9
			c-1.7-0.8-4.7-1.3-7.5-1c-2.7,0.3-4.1,2.3-1.2,2.2c3-0.1,3-1.9,1.1-2.6c-1.9-0.8-6.5-1-7.9-0.1c-1.1,0.7,2.7,1.3,4.6,0.9
			c1.9-0.4,2.4-1.3,2.1-2c-0.3-0.7-1.2-1.5-3.1-1.8s-5.8-0.1-5.3,0.6c0.4,0.5,2.9,1,4.1,0.7c3.1-0.8-1.4-3.6-5.1-3.2
			c-2.5,0.3,3,1.5,4.7,0.8c1.6-0.7-0.2-1.8-2.7-2.1c-2.6-0.2-7.3-0.2-7.4,0.7c-0.1,1.1,7.2-0.7,4.9-1.6c-1.8-0.7-4.1-1.3-6.8-1.3
			c-2.7-0.1-6.6,1.1-4.4,1.7c2.3,0.6,5.8-0.6,6.2-1.6c0.4-1-1.7-2-4.6-2.1c-2.3-0.1-4.9,1.2-3,1.6c2.4,0.5,5.4-1,4.6-1.9
			s-4.5-1.4-6.9-0.8"/>
	</g>
</g>
</svg>
