<?xml version="1.0" encoding="utf-8"?>
<!-- Generator: Adobe Illustrator 18.1.1, SVG Export Plug-In . SVG Version: 6.00 Build 0)  -->
<svg version="1.1" xmlns="http://www.w3.org/2000/svg" xmlns:xlink="http://www.w3.org/1999/xlink" x="0px" y="0px"
	 viewBox="0 0 920 617" enable-background="new 0 0 920 617" xml:space="preserve">
<g id="Walls">
	<polygon fill="#E0E0E0" points="566,362.4 566,-172.5 920,-172.5 920,469.7 	"/>
	<polygon fill="#FFFFFF" points="0,447.8 566,362.4 566,-172.5 0,-164.6 	"/>
	<polygon fill="#575757" points="0,761.5 0,447.8 565.9,362.4 920,469.7 920,761.5 	"/>
</g>
<g id="Window">
	<path fill="#9EC9D8" stroke="#896847" stroke-width="5" stroke-miterlimit="10" d="M666.6-55c0.3-7.5-5-30.2,2-33.1
		c12.5-5.2,14.6-2.3,24.9-4.6c41.9-9.4,84.4-16.5,127.1-21.3C805,25.3,797.8,165.5,798.9,305.7c-41.2-11.4-82.3-22.7-123.5-34.1
		c-1.9-0.5-3.9-1.1-5.2-2.6c-1.5-1.7-1.8-4.2-2-6.5c-3.2-41.4,0.5-67.1,0.4-120.9c-0.1-32-3.3-62.7-3.3-99.7
		C665.2-1.4,665.3-16.4,666.6-55z"/>
	<g id="Layer_19">
	</g>
	<path fill="#86A9B2" d="M687.3,258.9c-1.9-10.2-2.6-20.7-2-31.1c4.5,12.5,9.8,24.8,15.8,36.6c-4.7-1.8-9.5-3.7-14.2-5.5"/>
	<path fill="#86A9B2" d="M710.4,250.6c2.8,5.9,2.7,13,6.3,18.4c-7-2.6-10.3-10.3-13.3-17.1c-5.2-11.7-11.6-23-14.3-35.4
		c-1.1-5-1.5-10.2-1.9-15.3c4,10.9,8.5,21.7,13.6,32.2c1.7,3.6,3.6,7.3,5.7,10.7C707.8,246.2,709.3,248.3,710.4,250.6z"/>
	<path fill="none" stroke="#896847" stroke-width="5" stroke-miterlimit="10" d="M666.7,182.8c27.3,2.7,46.7,3.9,67.2,6.8
		c25.7,3.6,41.5,11.6,67.9,14.3"/>
	<path fill="none" stroke="#896847" stroke-width="5" stroke-miterlimit="10" d="M667.5,96.9c44.9,4.7,90.4,5.9,135.5,3.5"/>
	<path fill="none" stroke="#896847" stroke-width="5" stroke-miterlimit="10" d="M665.3,8.3c47.9-1.8,95.7-4.2,143.4-7.1"/>
	<path fill="none" stroke="#896847" stroke-width="5" stroke-miterlimit="10" d="M741.2-102.5c0.6,36.4,1.2,72.7,1.9,109.1
		c0.3,15.4,0.5,30.7,0.8,46.1c1.4,80.3,2.8,160.6,1.5,240.9"/>
</g>
<g id="Feet">
</g>
<g id="Tail">
</g>
<g id="Arms">
</g>
<g id="Jeans">
</g>
<g id="Head">
</g>
<g id="Couch">
	<path fill="none" stroke="#0071BC" stroke-width="3" stroke-miterlimit="10" d="M637.9,302.3c-32.2-5.4-64.5,6.2-96.9,9.3
		c-20.5,2-41.1,0.5-61.7-0.3c-104-3.8-207.9,10.5-311.3,24.8c-4.1,0.6-8.6,1.4-11.3,5.3c-2.8,4-2.8,9.8-2.6,15.1
		c1.7,53.9,3.3,107.9,5,161.8c0.1,4.1,0.3,8.6,2.3,11.9c1.7,2.7,4.3,4.2,6.9,5.6c30.3,16.1,60.6,32.3,91,48.4
		c-1.6,1.3-3.2,2.5-4.8,3.8c53.9-1,106.4-21.3,159.9-29.9c46.6-7.5,93.9-6.1,140.5-13.9c64.2-10.8,127.1-39,191.9-35.6
		c5.1,0.3,11,0.4,14.6-4.2c2.9-3.6,3.4-9.2,3.8-14.3c2-27.4,4.1-54.8,6.1-82.2c-33.6-22.5-71.9-33.9-110-33
		c-2.7-17.8-5.5-35.7-8.2-53.5c-0.8-5.1-1.7-10.6-4.7-14.1C645.6,304,641.7,303,637.9,302.3z"/>
	<g>
		<path fill="#0071BC" stroke="#29ABE2" stroke-width="3" stroke-miterlimit="10" d="M252.8,467.2c-0.2-3.2,0.6-6.7-1.1-9.1
			c-1.2-1.6-3-2.1-4.7-2.6c-30.2-8.3-63.3-32.8-90.1-52.2c-2.1,30.3-0.2,71-2.3,101.3c-0.3,4.9-0.7,10,0.6,14.7
			c2.9,11.3,13.2,16.3,22.2,20.3c27.1,12.2,54,26.9,77.1,48.3C257.4,542.7,256.2,511.1,252.8,467.2z"/>
		<path fill="#29ABE2" d="M732,515.8c-0.2-15.2,11.4-115.1,5.5-114.9c-41.8,1.4-63.6-23.9-106.4-19.2c-21.2,2.3-65.8,11.7-86.8,16
			c-55.6,11.3-83-0.7-139.2,4.7c-20.9,2-132.2,20.6-153.1,22.6c1.8,19.5,47.8,137.7,49.6,157.2c98.2-11.9,198-31.2,296.2-43.1
			c10.8-1.3,21.2-5.2,32-6.6C643.6,530.9,706.4,518.8,732,515.8z"/>
		<path fill="#0071BC" stroke="#29ABE2" stroke-width="3" stroke-miterlimit="10" d="M157,403.3c8.8,5,17.6,9.9,26.5,14.9
			c-0.6-9.8-1.1-19.5-1.7-29.3c-0.6-10.7-1.3-21.7-5.4-31.1c-4-9.4-12.4-16.8-20.7-14.8C157.4,363.7,155.2,382.6,157,403.3"/>
		<linearGradient id="SVGID_1_" gradientUnits="userSpaceOnUse" x1="416.6872" y1="442.042" x2="403.5982" y2="268.4715">
			<stop  offset="0" style="stop-color:#29ABE2"/>
			<stop  offset="0.407" style="stop-color:#22A2DB"/>
			<stop  offset="0.5781" style="stop-color:#1E9CD7"/>
			<stop  offset="0.8096" style="stop-color:#2E3192"/>
			<stop  offset="1" style="stop-color:#005B97"/>
		</linearGradient>
		<path fill="url(#SVGID_1_)" d="M345.5,315c-64.1,4.2-122.2,10-185.5,23.4c18.3,17.3,22.5,24.4,23.4,83.9
			c13.3,0.5,25.5-4.4,38.6-7.1c-1.9,7.6,15.7,27.4,22,26.9c133-11,272.8-28.7,405.7-39.7c-0.3-4.1-4.5-17.4-4.8-21.5
			c10.4,2.7,12.2,1.8,13.6-11.4c1.4-13.3-1.5-39.6-5.8-51.8c-1.5-4.3-3.1-8.9-6.2-11.6c-3.5-3.2-10.8-5.1-15.1-5.1
			c-52.2,0.2-90.1-1.1-143.8,3.5c-19.1,1.6-42.8,5.8-66,6.6C397.7,311.8,369.7,313.4,345.5,315z"/>
		<path fill="#29ABE2" stroke="#0071BC" stroke-miterlimit="10" d="M458.3,443.8c-51.3,9.2-101.5,15.4-155.2,16
			c-0.3,17.9-2.7,37.9-0.1,55.5c51.2-16.1,107.4-27.3,160.1-29.2C461.6,472.1,459.9,458,458.3,443.8z"/>
		<path fill="#29ABE2" stroke="#0071BC" stroke-miterlimit="10" d="M416.7,430.7c12.3,5.2,28.7,13,41.6,13.2
			c-45.6,7.2-94.6,9.5-140.1,16.7c-4.7,0.7-9.5,1.5-14.1,0c-5.5-1.8-10.1-6.5-14.8-10.6c-9.9-8.6-21.3-14.6-33.1-17.4
			c34.6-8.2,69.7-13.4,104.9-15.7c8.2-0.5,16.4-0.9,24.5,0.9C396.4,420.1,406.4,426.3,416.7,430.7z"/>
		<path fill="#29ABE2" stroke="#0071BC" stroke-miterlimit="10" d="M463.2,450.6c0,5.1,5,36.3,5,36.3s14.3,2.8,19.6,2
			c41.3-6.6,78.3-12.5,119.6-19.1c0.4-14-1.1-28.1-4.4-41.5c-44.2,8.1-85.2,8.2-131.4,15.6c-1.9,0.3-6.3-1.2-7.4,0.8
			C463.2,446.3,463.2,448.5,463.2,450.6z"/>
		<path fill="#29ABE2" stroke="#0071BC" stroke-miterlimit="10" d="M605.6,428.8c-14-7-28.2-13.2-42.6-18.5
			c-8.4-3.1-18.7-7.1-18.7-7.1s-26.4,0.2-39.6,1c-35,2.1-69.6,9.6-104.2,16.3c18.6,6.4,37.3,12.9,55.9,19.3c3.3,1.1,6.6,2.3,10,2.4
			c4.2,0.1,8.2-2,12.3-2.7c25.9-4.5,44.6-4.5,68.7-8.4C566.8,427.8,584.8,432.3,605.6,428.8z"/>
		<path fill="#29ABE2" stroke="#0071BC" stroke-miterlimit="10" d="M612.1,471.7c23.4-0.3,46.7-2.2,70-5.6c16-2.3,32-5.4,47.9-8.9
			c0.1-12.4-1-24.7-3-36.8c-40-2.1-80.2,1.8-119.5,11.7C607.1,445.5,608.7,459,612.1,471.7z"/>
		<path fill="#29ABE2" stroke="#0071BC" stroke-miterlimit="10" d="M611,428.8c3.1,0.1,6.2-0.7,9.3-1.4c34.2-8,69.2-8.8,103.9-9.6
			c-27.7-17.7-58.9-29.3-89.7-24.5c-9.1,1.4-17.9,4.2-26.9,5.9c-17.7,3.4-35.7,2.7-53.6,2c14.3,7.5,28.6,15,42.9,22.5
			C601.4,426.2,606.1,428.6,611,428.8z"/>
		<path fill="none" stroke="#0071BC" stroke-width="3" stroke-miterlimit="10" d="M389,411c1.2-21,0.2-42.1-2.8-62.8
			c-1.1-7.6-2.6-15.3-5.9-21.8c-3.3-6.5-8.9-11.7-15.1-11.8"/>
		<path fill="none" stroke="#0071BC" stroke-width="3" stroke-miterlimit="10" d="M544.3,397.7c-0.4-15.4-0.8-30.9-1.2-46.3
			c-0.2-8.6-0.5-17.5-2.9-25.6c-2.4-8.1-7.5-15.5-14.2-17.4"/>
		<path fill="#29ABE2" stroke="#0071BC" stroke-miterlimit="10" d="M246.4,454.5c6.3,2.2,13,2,19.3,0.2c7.8-2.3,19.5-4.8,27.2-1.6
			c-13.8-11-40.4-27.5-61.1-36.7c-7-3.1-18.4-3-25.7-2.1c-8.9,1.1-17.2,8-26.1,6.5C197.8,435,220,445.4,246.4,454.5z"/>
		<path fill="#29ABE2" stroke="#0071BC" stroke-miterlimit="10" d="M292.9,453.1c-15,1-25-0.2-39.7,3.1c5.5,42.8,2,88.4,1.4,131.7
			c15-6.3,38.5-3.5,54.2-6.4C305.4,540.6,298.7,495.6,292.9,453.1z"/>
		<path fill="#29ABE2" stroke="#0071BC" stroke-miterlimit="10" d="M768.3,397.4c-12.2,2-24.5,3.7-36.8,5.1c0,38.5,0,77.1,0.1,115.6
			c11.3,1.9,22.9-0.1,33.5-5.5C766.1,474.2,767.2,435.8,768.3,397.4z"/>
		<path fill="#29ABE2" stroke="#0071BC" stroke-miterlimit="10" d="M746.7,390.6c-4.9-1.5-9.8-2.4-14.8-3.3
			c-7.9-1.4-15.8-3.4-23.7-4.2c-17.5-1.9-34.7-8-34.7-8s-21.2,3-35.3,5.8c20.9,9.8,42.9,15,64.8,20.2c21.2,5,43.7,9.9,63.8,0
			C760.5,396.3,753.7,392.8,746.7,390.6z"/>
	</g>
	<path fill="#FFFFFF" stroke="#000000" stroke-width="2" stroke-miterlimit="10" d="M433.7,540.8c-0.7,2.6-0.5,5.3,0.6,7.8
		c1.5,0,3.1,0.6,4,1.7c0.9,1.2,1,3.1-0.1,4.2c-1.1,1.1-3.3,0.7-3.7-0.7c0.3,1.4,0.3,2.8,0.2,4.2c-1.9,0.2-3.7-2-2.9-3.8
		c0.4,1.9-0.9,4.1-2.9,4.2s-3.2-2.9-1.6-4c0,2-2.2,3.6-4.1,2.9c-1.8-0.7-2.6-3.3-1.3-4.8c0.4-0.5,0.9-0.8,1.3-1.2
		c1.6-1.7,1.2-4.4,0.7-6.6"/>
	<path fill="#FFFFFF" stroke="#000000" stroke-width="2" stroke-miterlimit="10" d="M400,549.1c0.3,0.2,0.3-0.5,0-0.5
		c-0.3,0-0.5,0.4-0.6,0.7c-0.8,2.7,0.1,5.9,2.3,7.8c1.1,0.9,2.5,1.8,2.5,3.2c0,1.4-1.8,2.3-3.2,2.1c-1.4-0.3-2.5-1.4-3.5-2.4
		c0.7,1,1.5,2,1.7,3.2c0.2,1.2-0.3,2.6-1.5,3c-1.3,0.5-2.7-0.6-3.2-1.8c-0.5-1.3-0.3-2.7,0-4c-0.8,0.9-1.1,2.1-1.6,3.2
		s-1.7,2-2.8,1.7c-1.1-0.3-1.5-1.7-1.3-2.8c0.3-1.1,1.1-1.9,1.9-2.8c-0.5,1.3-1.1,2.7-2.3,3.6c-1.1,0.9-2.9,1-3.9,0
		c-1-1.2-0.4-3.1,0.7-4.2c1.1-1.2,2.5-2,3.3-3.3c0.8-1.3,0.7-3.5-0.8-4"/>
	<g>
		<path fill="#0071BC" stroke="#2E3192" stroke-width="2" stroke-miterlimit="10" d="M439,539.2c-7.8,6.4-19.2,4.1-28.9,1.4
			c-1.6-25.6-3.1-51.1-4.7-76.7c-0.2-3.3-0.4-6.6-1.8-9.6c-3.6-7.5-13.2-9.6-21.5-10.7c11.1,4.5,23.5,10.2,27.2,21.6
			c1.6,4.8,1.3,10,1,15.1c-1.1,18.4-2.2,36.7-3.2,55.1c-0.1,2.1-0.3,4.3-1,6.3c-3.2,8.7-14.8,9.9-24,9.6c-2.4-0.1-5-0.3-6.6-2
			c-1.3-1.4-1.6-3.3-1.9-5.2c-2.1-15.6-2.8-31.4-2-47.1c0.4-7.7,0.2-17.2-6.7-20.8c-2.2-1.2-4.7-1.5-7.2-1.7
			c-5.3-0.6-10.6-1.2-15.9-1.8c-4.6-0.5-9.4-1.1-13.7-2.9c-9-3.8-14.8-12.6-20.1-20.8c-2.5-4-5.2-8.4-4.9-13.1
			c0.5-8.4,9.5-13.4,17.3-16.5c15.7-6.2,32.2-11.4,49-11.2c11.6,0.1,24.8,4.2,29.4,14.8c-2.3-0.9-4.2,2.7-2.9,4.8
			c1.3,2.1,3.9,2.8,6.3,3.3c9.2,1.9,18.3,3.8,27.5,5.7c5.2,1.1,10.7,2.3,14.4,6.1c4.3,4.4,4.9,11.2,5.3,17.3c1.1,20,1.2,40.2-2,60
			C446.3,527.3,444.4,534.7,439,539.2z"/>
		<path fill="none" stroke="#2E3192" stroke-width="2" stroke-miterlimit="10" d="M370.7,474.5c3.3-1.6,6.5-3.2,9.8-4.8
			c-3.6,1.1-6.7,3.8-8.2,7.3c2.1-3.7,5.9-6.4,10-7.1c0.6-0.1,1.3-0.1,1.5,0.4c0.2,0.5-1.1,0.6-0.7,0.1"/>
		<path fill="none" stroke="#2E3192" stroke-width="2" stroke-miterlimit="10" d="M413.3,458.8c3.4-0.2,6.6-2.3,8.1-5.3
			c-1.6,2.9-4,5.4-6.9,7.2c3.6,0,7.2,0.1,10.7,0.1c-1.5,1.4-3.5,2.3-5.5,2.5"/>
		<path fill="none" stroke="#2E3192" stroke-width="2" stroke-miterlimit="10" d="M344.8,444.7c-3.3-0.1-6.2,2.3-7.8,5.2
			c-1.6,2.9-2.1,6.2-2.5,9.5c7.4-11.8,21.1-19.4,35-19.5c-10.7,0.6-22.1,1.5-30.4,8.1c5.3-5.6,11.4-11.5,19.1-11.9
			c-10.6,2.5-21.1,5.1-31.7,7.6c1.7,0.5,3.6,0.2,5-0.8c-1.1,0.7-2.3,1.3-3.4,2"/>
		<path fill="none" stroke="#2E3192" stroke-width="2" stroke-miterlimit="10" d="M385.1,548.6c-0.7-20-1.3-39.9-2-59.9
			c-0.2-4.7-0.4-9.8-3.2-13.7c-2.2-3-5.6-4.9-9-6.3c-12.2-5.1-25.9-5.7-38.4-10.2c-12.5-4.5-24.6-15.1-23.9-28.4"/>
		<path fill="none" stroke="#2E3192" stroke-width="2" stroke-miterlimit="10" d="M418.1,540.2c0.9-9.6,1.8-19.3,2.7-28.9
			c1.4-14.4,2.7-29.2-1.1-43.2c-0.5-1.7-1-3.5-2.1-4.9c-1-1.3-2.4-2.2-3.8-3c-4-2.4-8.2-4.5-12.5-6.3"/>
		<path fill="none" stroke="#2E3192" stroke-width="2" stroke-miterlimit="10" d="M385.1,429.4c4-2.1,8.6-3.1,13.2-2.9
			c-5.7,0-11.4,1.6-16.2,4.6c5.2,0,10.3,0,15.5,0"/>
	</g>
	<g>
		<g>
			<defs>
				<polygon id="SVGID_2_" points="224.7,302.1 384.3,298.6 432,435.9 272.5,439.3 				"/>
			</defs>
			<clipPath id="SVGID_3_">
				<use xlink:href="#SVGID_2_"  overflow="visible"/>
			</clipPath>
			<g clip-path="url(#SVGID_3_)">
				<defs>
					<polygon id="SVGID_4_" points="186.7,229.5 359,225.8 491.4,606.4 319.1,610.1 					"/>
				</defs>
				<clipPath id="SVGID_5_">
					<use xlink:href="#SVGID_4_"  overflow="visible"/>
				</clipPath>
				<path clip-path="url(#SVGID_5_)" fill="#AF1E30" d="M349.7,417c0.8-0.2,1.4,0.4,2.2,0.7c4.6,1.8,9.2,3.2,14,3.9
					c0.3,0,0.5,0.1,0.8,0.1c0.4,0.1,0.9,0.1,0.9,0.6c0.1,0.5-0.5,0.4-0.9,0.4c-1.4-0.1-2.9-0.3-4.3-0.4c-6.5-0.6-12.9-1.6-19.4-3.3
					c-7.5-2-14.8-4.4-21.7-8c-1.5-0.8-3-1.5-4.5-2.4c-1.1-0.6-0.6,0.1-0.6,0.4c-2.8-2-5.3-4.2-7.7-6.4c-9.8-9-18.2-18.6-25.4-28.6
					c-2.4-3.3-4.6-6.7-6.7-10c-1.2-1.9-2.2-3.9-2.8-5.9c-0.6-1.7-1.4-3.4-2.2-5.1c-7.7-13.5-4.3-10.7-5.8-23
					c-2.8,1.4-2.1-2.1-1.4-4.9c-2-13.7,6.6-22.6,18.9-18.9c2.2,0,5.6,5.9,8.7,7.2c-6.6-1.9-15.2-2.6-16.2,2.2
					c-2.4,10.3-5,20.3,0.4,33.6c0.8,1.9,1.7,3.8,2.6,5.7c2.9,5.9,6.4,11.8,10.3,17.5c2.1,3,4.3,6,7.6,8.5c0.8,0.6,1.7,1.3,1.9,2.2
					c-1.5-0.9-2.3-2.4-4.2-3.3c0.2,0.8,0.7,1.2,1.1,1.7c2.3,2.2,4.5,4.4,6.9,6.6c11.1,9.7,23.6,18.2,37.5,25.3
					c2.8,1.4,5.6,2.8,8.7,3.9C348.7,417.3,349.5,417.9,349.7,417 M295,388c-0.1,0.6,0.3,0.8,0.5,1c2.3,2.6,4.9,5,7.7,7.4
					c3.7,3.1,7,6.6,11.7,9c3.2,1.6,6.5,2.9,10,3.7c0.5,0.1,0.9,0.2,1.1-0.1c0.2-0.4-0.2-0.7-0.5-0.9c-0.3-0.3-0.7-0.5-1.1-0.8
					c-3.6-2.2-7.6-4-11.4-6.1c-4.5-2.5-8.6-5.4-12.4-8.5C298.6,391.1,296.9,389.6,295,388"/>
				<path clip-path="url(#SVGID_5_)" fill="#AF1E30" d="M304.8,400.8c-1.4-0.3-1.9-1.3-2.6-2c-2.9-2.8-6.5-5-10.2-7.2
					c-0.7-0.4-1.6-0.7-2.3-0.4c-0.7,0.3-0.4,0.9-0.2,1.4c0.6,1.8,2,3.4,3.5,4.9c4.1,4.3,8.7,8.3,13.5,12.2c4.3,3.4,9.3,5.9,14.6,8
					c9.6,3.8,19.5,6.3,29.5,8.7c3.1,0.7,6.2,1.4,9.3,1.8c2.5,0.3,4.7,0,6.9-0.3c1.5-0.2,3-0.5,4.7-0.3c0.4,0.1,0.8-0.1,1,0.4
					c0.1,0.4-0.3,0.5-0.6,0.5c-1.7,0.3-3.4,0.6-5.1,0.8c-3.1,0.4-6.3,0.5-9.5,0.4c-4.3-0.1-8.6-0.4-12.9-0.6
					c-6.1-0.3-12.3-1.1-18.5-2c-6.2-0.9-12.5-2.1-18.7-3.1c-1.5-0.3-3.1-0.5-4.6-0.5c-0.8,0-1.1,0.2-0.5,0.9c2,2.3,4.2,4.5,6.7,6.6
					c0.6,0.5,1.5,0.5,2,1c-1.8,0.1-3.7,0.1-5.5,0.2c-0.9,0-1.5-0.2-1.9-1c-2.3-3.7-3.8-7.4-5-11.1c4.5-0.4,9.3,0.9,14,1.2
					c-4.6-1.6-9.3-3.1-13.9-4.5c-0.7-0.2-0.9-0.1-0.8,0.5c0.1,0.5,0.7,1.1,0.1,1.5c-1-1.8-1.1-3.6-2.6-5.3c0.3,0,0.6,0.2,0.8,0.4
					c0.6,0.9,1.6,1.2,2.6,1.5c3.6,1,7.3,2.1,10.9,3.2c6.9,2,13.7,4,20.7,5.3c0.4,0.1,0.8,0.3,1.1-0.1c-1-0.6-2-1-3.1-1.3
					c-5-1.3-9.9-2.6-14.8-4.3c-3.6-1.2-6.9-2.7-9.8-5c-4.8-3.7-8.9-7.7-12.7-12c-0.6-0.7-0.9-0.7-1.4-0.2c-0.7-1-1-2.1-0.9-3.1
					c0.4-2.9-0.3-5.9-2.3-8.9c-1.3-1.9-1.3-3.8-1.4-5.7c0-1.2,0-2.5,0-3.7c0-0.3-0.1-0.7,0.4-0.7c0.5,0,0.6,0.4,0.8,0.7
					c2.2,2.8,4.4,5.6,6.7,8.4c3.3,3.9,6.8,7.7,10.7,11.2C304,399.9,304.4,400.3,304.8,400.8 M297.9,416.2c0.6,0.2,0.9,0.3,1.2,0.5
					c8.8,3,17.7,5.6,26.7,7.8c1.2,0.3,2.5,0.5,3.8,0.6c0.3,0,1,0.2,1-0.2c0-0.5-0.6-0.5-1.1-0.6c-1.1-0.2-2.1-0.4-3.2-0.6
					c-8.8-2-17.5-4.7-26.2-7.3C299.4,416.1,298.7,415.8,297.9,416.2 M285.5,380.2c-0.1,1.2-0.6,2.1,0.4,2.9c0.8,0.7,1.9,1.2,2.8,1.8
					c0.2,0.1,0.4,0.2,0.5,0.1c0.3-0.1,0.1-0.3,0-0.5C288,383.2,287.1,381.8,285.5,380.2"/>
				<path clip-path="url(#SVGID_5_)" fill="#AF1E30" d="M381.7,392.7c-0.9-0.7-0.6-1.6-1.3-2.4c-1.2-1.3-2.4-2.5-3.4-4
					c-0.6,0.6-0.5,1.3-0.6,2c-0.6,5-1,10.1-1.9,15.1c-0.5,2.6-1,5.1-2.1,7.5c-0.1,0.2-0.2,0.4-0.4,0.5c-0.4,0.3-0.5,1.2-1.5,0.7
					c-0.9-0.4-0.5-1.1-0.3-1.6c2.4-6,2.8-12.6,3.6-19.1c0.1-0.7,0.1-0.7-0.4-1.6c-0.6,1.3-1.1,2.4-1.7,3.6c-0.7,1.3-1.1,2.8-2.2,4
					c-0.2,0.2-0.3,0.5-0.7,0.4c-0.5-0.1-0.4-0.5-0.5-0.7c-0.4-0.9-0.3-1.7-0.2-2.5c0.5-6.8,1-13.6,1.5-20.4
					c0.3-4.4,0.3-8.9-0.5-13.5c-0.7-4.2-1.9-8.5-3.4-12.7c-0.5-1.4-1-2.8-1.6-4.3c-4.6-9-10.6-17-13.7-25.9
					c4.6,5.4,8.9,11.4,12.1,17.5c0.3-0.7,0-2.2-0.2-2.9c3,5.4,5.7,11,6.7,16.2c0.5,1.6,1,3.2,1.5,4.8c1,3.2,2,6.4,3,9.6
					c0.9,3,1.9,6.1,2.2,9.1c0.4,3.9-0.3,7.6-0.6,11.4c-0.5,7.4-1,14.8-2.6,21.9c-0.4,1.5-0.9,3-1.3,4.6c-0.1,0.2-0.4,0.4,0.1,0.7
					c0.5,0.3,0.5-0.2,0.7-0.3c0.4-0.3,0.4-0.8,0.5-1.2c2.1-7.1,2.7-14.7,3.6-22.2c0.3-2.4,0.5-4.9,0.8-7.3c0.1-0.6,0.1-1.2,0.5-1.7
					c0.6,0.6,0.9,1.2,1.1,1.8c1.6,4.2,2.8,8.3,3.4,12.5C381.8,392.4,381.7,392.5,381.7,392.7"/>
				<path clip-path="url(#SVGID_5_)" fill="#C90010" d="M312.2,319.3c-1.8,0-3.7,0.1-5.5-0.2c-1.7-0.3-3.6-0.9-5.3-1.4
					c-6.3-1.6-15.2-6.1-16.5-11.6c-1-7.5,9.4,5.3,14.4,6.3c1.7,0.8,3.4,1.5,5.1,1.9c5.1,1.3,10.2,0.7,14-1.7c1.6-1,3.1-2.1,4.3-3.4
					c1.2-1.2,2.3-2.6,3.1-4.2c0.8-1.9,2.7-2.6,4.2,0.1c3,4-1.3,4.1-1.4,6.9c-1.2,1.6-2.7,2.9-4.5,4c-1.8,1.1-4,2-6.5,2.6
					C316,319.1,314.2,319.3,312.2,319.3"/>
				<path clip-path="url(#SVGID_5_)" fill="#AF1E30" d="M371.7,327.8c-1-0.5-2.7-1.5-3.7-2.9c3.8,9.5,12.9,16.8,14.6,27.1
					c0.6,1.7,1,3.4,1.4,5.1c0.4,1.7,0.9,3.4,1.5,5.1c0.1,0.3,0.1,0.5-0.3,0.6c-0.3-0.5-0.3-1.1-1.1-1.5c-0.5,0.2-0.3,0.5-0.2,0.9
					c0.4,1.3,0.6,2.6,1.1,3.9c1,2.5,0.2,4.1-2.3,5.1c-1.4,0.6-3,0.9-4.6,1c-0.9,0.1-1.5-0.3-1.5-1c-0.4-4.1-2-8.1-3.3-12.2
					c-0.5-1.5-1-3.1-1.5-4.6c-0.5-1.5-1-3.1-1.5-4.6c-0.4-3.4-4.3-10.2-5.5-13.6c2.8,3.4,3.6,8.8,7.3,10.1c-1.1-4.8-1.9-11.6-6-14.2
					c-1.5-1.3-1.5,3.5,0,6.2c-2.3-3.4-2.1-6.1-0.1-8.2c3.3,4.7,5.7,10.1,6.5,15.1c0.2,2.4,0.1,4.7,0.1,7c0,0.3,0,0.5,0.1,0.8
					c0.1,0.2,0.2,0.5,0.5,0.6c0.4,0,0.4-0.2,0.4-0.4c0-1.3,0.2-2.6,0-3.9c-0.7-7.1-2.3-13.1-6.6-19.1c0.1-2.5-2.5-6.4,0.2-6.8
					C368.3,323.9,370.7,326.9,371.7,327.8 M378,365c0.4,1.2,0.8,2.5,1.3,3.7c0.3,0.8,0.1,2,1.2,2.3c1.2,0.4,2.1-0.4,2.9-0.9
					c1.1-0.6,2-1.5,1.6-2.8c-0.5-1.9-1.3-3.8-1.7-5.7c-0.4-1.5-0.8-3-1.3-4.5c-0.5-1.5-1-3-1.5-4.5c-2.7-7.4-5.8-16.2-12.2-22.2
					c3,5.4,5.4,10.8,5.8,16.6c0.1,2.5-0.1,5,0.7,7.5C375.8,358,376.4,361.5,378,365 M383.6,359c-0.6-2.1-1.2-4.2-1.9-6.3
					c-1.3-6.2-5-13.6-9.6-19c4.8,6.1,6.9,12.2,9.1,19C382,354.8,382.7,356.9,383.6,359"/>
				<path clip-path="url(#SVGID_5_)" fill="#AF1E30" d="M289.5,304.4c2.8-0.4,6.5,1.4,9.4,1.8c1.5,0.2,3,0.3,4.5,0.4
					c6.2,0.3,12.1-0.3,18-1.4c1.2-0.2,2.3-0.5,3.5-0.8c-0.7,1.3-1.4,2.5-2.4,3.4c-1,0.9-2.2,1.6-4,1.9c-4.7,1-9.6,1.2-14.7,0.8
					c-1.7-0.1-3.4-0.4-5.2-0.7c-2-0.3-3.7-1-5.2-1.9C292,306.8,290.7,305.6,289.5,304.4"/>
				<path clip-path="url(#SVGID_5_)" fill="#AF1E30" d="M319.2,310.5c-2.7,3-9.2,4-14.5,2.9c-2.7-0.5-5.1-1.6-6.7-3.1
					c1.9,0.4,3.7,0.6,5.5,0.7c1.8,0.1,3.5,0.1,5.2,0.1C312.2,311,315.6,310.8,319.2,310.5"/>
				<path clip-path="url(#SVGID_5_)" fill="#C90010" d="M365.8,337.8c-1.3-2.5-1.6-6.7-0.2-6.4c5.3,2.6,6,10.6,6.4,14.7
					c-3.5-0.6-3.3-3.5-6-7.7C366,338.1,365.9,337.9,365.8,337.8"/>
				<path clip-path="url(#SVGID_5_)" fill="#C90010" d="M297.7,418.8c0.5-0.4,0-1-0.1-1.5c-0.1-0.5,0.1-0.7,0.8-0.5
					c4.6,1.5,9.3,2.9,13.9,4.5c-4.7-0.3-9.5-1.6-14-1.2C298,419.7,297.8,419.3,297.7,418.8"/>
				<path clip-path="url(#SVGID_5_)" fill="#AF1E30" d="M381.5,374.6c-1.1-0.2-2.3-0.1-3.5-0.5c-0.4-0.1-0.9-0.3-1-0.7
					c0-0.4,0.3-0.5,0.8-0.5c2.9,0,5.2-0.9,7.2-2.1c0.3-0.2,0.6-0.5,1.1-0.2c0.5,0.3,0.3,0.7,0.2,1
					C385.8,373.5,384,374.3,381.5,374.6"/>
				<path clip-path="url(#SVGID_5_)" fill="#AF1E30" d="M375.1,419.4c-0.8,0.1-0.8,0.1-0.8-0.6c0.1-1.5,0.9-2.7,1.5-4
					c2.2-5,4-10.1,5.5-15.4c0.3-1.1,0.7-2.3,0.4-3.6c-0.1-0.2,0.1-0.3,0.4-0.4c0.6,1.5,0.2,2.9-0.2,4.2c-1.5,5.9-3.9,11.5-6.2,17.1
					C375.3,417.6,374.8,418.4,375.1,419.4"/>
				<path clip-path="url(#SVGID_5_)" fill="#AF1E30" d="M264.8,329.3c2.2-1.5,2.1-4.9,3.5-7c0.1,3.4,0.7,6.8-1.9,8.2
					C265.8,330.2,265.1,329.9,264.8,329.3"/>
				<path clip-path="url(#SVGID_5_)" fill="#C90010" d="M364,328.5c-0.5,0.6-0.3,1.3-0.6,2c-2.3-2-4.1-4-3.2-6.1
					c0.8-0.7,2.1,1.3,3.3,2.2C364,327.4,363.5,327.7,364,328.5"/>
				<path clip-path="url(#SVGID_5_)" fill="#AF1E30" d="M325,316.9c0.3,0.5-0.3,0.6-0.6,0.8c-3.9,2-8.5,3-13.7,2.8
					c-1.9-0.1-3.9-0.3-5.8-0.7c-1.9-0.4-3.9-1-5.9-1.7c-0.4-0.1-0.8-0.2-0.9-0.7c1.8,0.6,3.5,1.1,5.3,1.5c1.7,0.4,3.5,0.7,5.3,0.9
					c5.9,0.6,10.7-0.6,15.1-2.5C324.2,317.2,324.6,317.1,325,316.9"/>
				<path clip-path="url(#SVGID_5_)" fill="#AF1E30" d="M266.1,322.8c-0.6,2.3-1.2,3.7-2.1,5.7c-2.3-2,1.2-2.8,1.3-3.8
					C265.5,324.1,265.7,323.4,266.1,322.8"/>
				<path clip-path="url(#SVGID_5_)" fill="#C90010" d="M267.9,319.9c-0.4-1.7-0.1-2.4,1.5-2.5c-0.1,1.4-0.4,2.1-1.3,2.6
					C268,320,267.9,319.9,267.9,319.9"/>
				<path clip-path="url(#SVGID_5_)" fill="#AF1E30" d="M332.5,306.1c-0.3,1.8,0.1,4.5-2,5.4C331.1,309.7,331.8,307.9,332.5,306.1"
					/>
				<path clip-path="url(#SVGID_5_)" fill="#AF1E30" d="M293.4,315.2c-1.4-0.2-3.5-1.6-3.9-2.7C290.8,313.4,292.1,314.3,293.4,315.2
					"/>
				<path clip-path="url(#SVGID_5_)" fill="#AF1E30" d="M327.1,315.4c0,1.1-0.9,1.4-2.1,1.5C325.7,316.4,326.4,315.9,327.1,315.4"/>
				<path clip-path="url(#SVGID_5_)" fill="#AF1E30" d="M330.4,311.5c0.3,1-0.1,1.5-1.2,1.8C329.5,312.6,329.9,312,330.4,311.5"/>
				<path clip-path="url(#SVGID_5_)" fill="#AF1E30" d="M328.7,314c0.2,0.9-0.3,1.3-1.3,1.3C327.7,314.8,328.1,314.3,328.7,314"/>
				<path clip-path="url(#SVGID_5_)" fill="#C90010" d="M266.9,321.1c-0.1,3.3-3,4-2.2,8.1c2.2-1.4,2.1-4.8,3.4-7.1
					C267.9,321.5,267.6,320.8,266.9,321.1"/>
				<path clip-path="url(#SVGID_5_)" fill="#C90010" d="M282.2,375.6L282.2,375.6L282.2,375.6c-1.4-2.2-3-4.4-5-6.5
					c0.3,2.1,1.5,4.1,2.4,6.1c0.4,0.3,0.8,0.4,1.3,0.5C281.5,376.3,282,376.3,282.2,375.6C282.2,375.6,282.2,375.6,282.2,375.6"/>
				<path clip-path="url(#SVGID_5_)" fill="#AF1E30" d="M297,317c-0.5,0-0.9,0-1.1-0.5C296.3,316.6,296.7,316.8,297,317"/>
				<path clip-path="url(#SVGID_5_)" fill="#AF1E30" d="M298.1,317.5c-0.5,0.1-0.9,0.1-1.1-0.4C297.4,317.1,297.8,317.2,298.1,317.5
					"/>
				<path clip-path="url(#SVGID_5_)" fill="#AF1E30" d="M295.5,316.4c-0.5,0-1,0-1-0.6C294.9,315.9,295.3,316.1,295.5,316.4"/>
				<path clip-path="url(#SVGID_5_)" fill="#C90010" d="M274.8,372.4c-1.8-3-2.8-6.1-4-9.1c-0.9-2.2-1.8-4.4-2.7-6.6
					c-0.9-2.2-1.1-4.3-1.9-6.6c-1.8-6.5-3.5-12.8-1.4-17.6c-0.2-0.7-1.6-2.4-2.1-2.4c-5.2,2.2-3,8.9-6.4,11.7
					c-1.1,1.4-3.3,8,0.4,11.1c2.2,1.4,5.1,2.6,7.1,4.2c1.6,1.3,1.6,2,0.4,2.9c-0.9,0.7-2.1,1.3-2.8,2.1c-2,2.3-4.5,4.5-1.2,8.2
					c0.1,0.1,0.2,0.2,0.2,0.3c0.2,0.9,0.9,1.7,1.7,2.4c0.4,0.1,0.7,0.1,1,0.1c0.3,0.3,0.5,0.4,0.9,0.3c-0.1-0.1-0.2-0.2-0.3-0.3
					c-0.1,0-0.1-0.1-0.2-0.1c0.1,0,0.2,0,0.2,0.1c0.1,0,0.2,0.1,0.3,0.3c0.3,0,0.6,0.1,0.9,0.1c0.5,0.3,0.8,0.2,1.2,0.1
					c0.7,0,1.4,0.1,2.1,0.1c0.2,0,0.4,0,0.6,0c1.7,0,3.5-0.1,5.2-0.1C274.2,373.3,275.3,373.3,274.8,372.4"/>
				<path clip-path="url(#SVGID_5_)" fill="#C90010" d="M328,422.6c-5-1.3-9.9-2.6-14.8-4.3c-3.6-1.2-6.9-2.7-9.8-5
					c-4.8-3.7-8.9-7.7-12.7-12c-0.6-0.7-0.9-0.7-1.4-0.2c0.1,0.1,0.2,0.3,0.3,0.4c0.5,1.2,1.5,2.2,2.5,3.2c0.6,0.8,1.2,1.6,1.7,2.5
					c0,0.2,0.1,0.3,0.1,0.5c0.1,0.6,0.2,1.2,0.2,1.8c-0.2,0.1-0.1,0.3,0,0.5c-0.2,1.1-0.2,2.3,0.9,3.4c0.3,0,0.6,0.2,0.8,0.4
					c0.6,0.9,1.6,1.2,2.6,1.5c3.6,1,7.3,2.1,10.9,3.2c6.9,2,13.7,4,20.7,5.3c0.4,0.1,0.8,0.3,1.1-0.1
					C330.2,423.3,329.1,422.9,328,422.6"/>
				<path clip-path="url(#SVGID_5_)" fill="#C90010" d="M397.5,369.8c0.2,0,0.4-0.1,0.6-0.2c0.5,0,1.2-0.2,1.6-0.4
					c1.8-0.6,3.9-0.9,5.3-1.9c0.4-0.3,0-1.2-0.6-1.6c-0.1-0.1-0.2-0.3-0.2-0.4c-0.4-0.9-1-1.7-2.3-1.3c-4.1,1.2-8.4,2.1-12.5,3.2
					c-0.4,0-0.4,0-0.8,0c0.1-0.5,0.1-0.5,0.6-0.6c1.3-0.3,2.8-0.3,4.1-0.7c2.5-0.7,5.3-1.7,7.7-2.4c0.6-0.2,1.9,0,0.9-1.4
					c-1.3-1.8-2.5-3.7-4-5.5c-0.2-0.5-0.6-0.9-1-1.4c0-0.2-0.1-0.4-0.4-0.5c-1-1.4-2.1-2.7-3.1-4.1c-1-1.4-2.1-2.7-3.1-4.1
					c-6.3-9.7-14.9-16.5-23.2-23.2c6.8,15.1,13.7,18.3,15.3,28.3c0.6,1.7,1,3.4,1.4,5.1c0.4,1.7,0.9,3.4,1.5,5.1
					c0.1,0.3,0.1,0.5-0.3,0.6c0.4,1.1,0.7,2.1,1.1,3.2c0.4,0.2,0.7,0.3,1,0.3c-0.3-0.1-0.7-0.2-1-0.3c0.4,1.5,0.5,3.7,1.1,5.3
					c0.3,0.7,0.8,0.6,1.6,0.2c0.3,0,0.8,0.3,1.1,0.3"/>
				<path clip-path="url(#SVGID_5_)" fill="#C90010" d="M395,369.9c0.2,0,0.5,0,0.6-0.2"/>
				<path clip-path="url(#SVGID_5_)" fill="#99041D" d="M349.7,417c-0.1,0.9-1,0.3-1.5,0.1c-3-1-5.9-2.5-8.7-3.9
					c-14-7.1-26.4-15.6-37.5-25.3c-2.4-2.1-4.6-4.4-6.9-6.6c-0.5-0.4-1-0.9-1.1-1.7c1.9,0.9,2.7,2.3,4.2,3.3c0,0,0,0,0,0
					c0.5,0.6,1,1.2,1.7,1.6l0,0c0.5,0.6,1,1.1,1.7,1.6c0,0,0,0,0,0c0.5,0.6,1,1.2,1.8,1.6l0,0c0.2,0.3,0.4,0.5,0.8,0.7l0,0
					c0.2,0.3,0.4,0.5,0.8,0.7c0,0,0,0,0,0c0.2,0.3,0.4,0.5,0.8,0.7c0,0,0,0,0,0c0.8,0.9,1.8,1.7,3,2.5c0,0,0,0,0,0
					c0.3,0.4,0.7,0.7,1.2,0.9c0,0,0,0,0,0c0.3,0.4,0.7,0.7,1.2,0.9l0,0c0.3,0.4,0.7,0.7,1.2,0.9c0,0,0,0,0,0
					c0.2,0.3,0.5,0.5,0.9,0.7l0,0c0.3,0.4,0.7,0.7,1.2,0.9l0,0c0.4,0.5,1,0.8,1.6,1.2c0.1,0.1,0.2,0.1,0.3,0.2
					c0.3,0.4,0.8,0.7,1.3,0.9c0.1,0.1,0.2,0.1,0.3,0.2c0.5,0.5,1,0.8,1.6,1.1c0.1,0.1,0.2,0.1,0.3,0.2c0.5,0.5,1,0.8,1.7,1.1
					c0.3,0.2,0.7,0.5,1,0.7c0.8,0.7,1.8,1.3,2.8,1.8c0.3,0.2,0.7,0.5,1,0.7c1.3,1,2.7,1.8,4.2,2.5c1.2,0.8,2.4,1.5,3.7,2.1
					c0.5,0.4,1.1,0.7,1.8,1c0.4,0.2,0.7,0.4,1.1,0.6c0.4,0.4,0.9,0.6,1.4,0.8c0.4,0.2,0.8,0.4,1.1,0.6c0.3,0.3,0.6,0.4,1,0.5
					c0.1,0.1,0.2,0.1,0.4,0.2c0.3,0.3,0.7,0.4,1,0.5c0.1,0.1,0.2,0.1,0.4,0.2c0.3,0.3,0.6,0.4,1,0.5c0.1,0.1,0.3,0.1,0.4,0.2
					c0.3,0.3,0.6,0.4,1,0.5c0.5,0.2,0.9,0.4,1.4,0.6c0.3,0.3,0.7,0.4,1.1,0.5c0.1,0.1,0.2,0.1,0.4,0.2c0.3,0.3,0.7,0.4,1,0.5
					C349,416.6,349.3,416.8,349.7,417"/>
				<path clip-path="url(#SVGID_5_)" fill="#C90010" d="M364.4,330c0.5,0,1.9-2.8,1.9-2.8l-1.6-5.2c-0.2-0.4-0.2-0.7-1.1-1.2
					c-9-10.7-20.8-18-30-15c-3.3,1.4-3,7.5-6.3,9.5c-0.1,0.1-0.2,0.1-0.2,0.2c0,1.1-0.9,1.4-2.1,1.5c0,0,0,0,0,0
					c0.3,0.5-0.3,0.6-0.6,0.8c-3.9,2-8.5,3-13.7,2.8c-1.9-0.1-4-0.7-5.9-1.1c-1.9-0.4-3.9-1.6-5.8-2.4c-9.5-6.6-21.5-10.7-24.3-1.7
					c-3.1,8.3-4.2,20.6,1.1,33.9c0.8,1.9,1.7,3.8,2.6,5.7c2.9,5.9,6.4,11.8,10.3,17.5c2.1,3,4.3,6,7.6,8.5c0.8,0.6,1.7,1.3,1.9,2.2
					l0,0h0c0.5,0.6,1,1.2,1.7,1.6l0,0l0,0c0,0,0,0,0,0c0.5,0.6,1,1.1,1.7,1.6l0,0l0,0c0.5,0.6,1,1.2,1.7,1.6c0,0,0,0,0,0
					c0.2,0.3,0.4,0.5,0.8,0.7l0,0c0,0,0,0,0,0l0,0c0.2,0.3,0.4,0.5,0.8,0.7l0,0l0,0c0.2,0.3,0.4,0.5,0.8,0.7l0,0c0,0,0,0,0,0
					c0.8,0.9,1.8,1.7,3,2.5c0,0,0,0,0,0l0,0l0,0c0.3,0.4,0.7,0.7,1.2,0.9c0,0,0,0,0,0c0.3,0.4,0.7,0.7,1.2,0.9c0,0,0-0.1,0-0.1
					c0,0,0,0.1,0,0.1l0,0h0l0,0l0,0c0.3,0.4,0.7,0.7,1.2,0.9l0,0h0c0.2,0.3,0.5,0.5,0.8,0.7c0,0,0,0,0,0l0,0
					c0.3,0.4,0.7,0.7,1.2,0.9c0,0,0,0,0,0l0,0c0.4,0.5,1,0.8,1.6,1.2c0-0.1,0-0.2-0.1-0.2c0,0.1,0.1,0.2,0.1,0.2
					c0.1,0.1,0.2,0.1,0.3,0.2l0,0c0.3,0.4,0.8,0.7,1.3,0.9c0,0,0-0.1,0-0.1c0-0.1-0.1-0.2-0.1-0.3c0,0.1,0.1,0.2,0.1,0.3
					c0,0,0,0.1,0,0.1l0.3,0.2l0,0c0.5,0.5,1,0.8,1.6,1.1c0.1,0.1,0.2,0.1,0.3,0.2c0.5,0.5,1,0.8,1.7,1.1c0.3,0.2,0.7,0.5,1,0.7h0
					c0.8,0.7,1.8,1.3,2.8,1.8c0.3,0.2,0.7,0.5,1,0.7h0c1.3,1,2.7,1.8,4.2,2.5c1.2,0.8,2.4,1.5,3.7,2.1c0.5,0.4,1.1,0.7,1.8,1
					c0.4,0.2,0.7,0.4,1.1,0.6c0.4,0.4,0.9,0.6,1.4,0.8c0.4,0.2,0.8,0.4,1.1,0.6c0.3,0.3,0.6,0.4,1,0.5c0.1,0.1,0.2,0.1,0.4,0.2
					c0.3,0.3,0.7,0.4,1,0.5c0.1,0.1,0.2,0.1,0.4,0.2c0.3,0.3,0.6,0.4,1,0.5c0.1,0.1,0.3,0.1,0.4,0.2c0.3,0.3,0.6,0.4,1,0.5
					c0.5,0.2,0.9,0.4,1.4,0.6c0.3,0.3,0.7,0.4,1.1,0.5c0-0.1-0.1-0.2-0.2-0.3c0.1,0.1,0.1,0.2,0.2,0.3c0.1,0.1,0.2,0.1,0.4,0.2h0
					c0.3,0.3,0.6,0.4,1,0.5c0.3,0.2,0.6,0.4,1,0.6c0.8-0.2,1.4,0.4,2.2,0.7c4.6,1.8,9.2,3.2,14,3.9c0.3,0,0.5,0.1,0.8,0.1
					c0.4,0.1,0.9,0.1,0.9,0.6c0.1,0.5-0.5,0.4-0.9,0.4c-1.4-0.1-2.9-0.3-4.3-0.4c-6.5-0.6-12.9-1.6-19.4-3.3c-7.5-2-14.8-4.4-21.7-8
					c-1.5-0.8-3-1.5-4.5-2.4c-1.1-0.6-0.6,0.1-0.6,0.4c0.3,0.3,0.7,0.5,1,0.8c1.3,1.1,3.1,1.9,4.1,3.2c-1.4-0.2-2.2-1.2-3.4-1.6
					c-0.1-0.1-0.2-0.1-0.3-0.2c-0.5-0.5-1-0.8-1.7-1.1c-0.1-0.1-0.2-0.2-0.3-0.2c-0.3-0.4-0.7-0.7-1.2-0.9l0,0
					c-0.3-0.4-0.7-0.7-1.2-0.9c0,0,0,0,0,0c-0.2-0.3-0.5-0.5-0.8-0.7l0,0c-0.2-0.3-0.4-0.5-0.8-0.7l0,0c-0.2-0.3-0.4-0.5-0.8-0.7
					l0,0c-0.2-0.3-0.4-0.5-0.8-0.7l0,0c-0.2-0.3-0.5-0.5-0.8-0.7c-0.1-0.1-0.3-0.3-0.4-0.4c-0.2-0.3-0.4-0.5-0.8-0.7l0,0
					c-0.3-0.5-0.8-0.8-1.3-1.2c-0.1-0.1-0.3-0.3-0.4-0.4c-0.2-0.3-0.5-0.6-0.8-0.8c-0.1-0.1-0.3-0.3-0.4-0.4c-1.4-0.3-1.9-1.3-2.6-2
					c-2.9-2.8-6.5-5-10.2-7.2c-0.7-0.4-1.6-0.7-2.3-0.4c-0.7,0.3-0.4,0.9-0.2,1.4c0.6,1.8,2,3.4,3.5,4.9c4.1,4.3,8.7,8.3,13.5,12.2
					c4.3,3.4,9.3,5.9,14.6,8c9.6,3.8,19.5,6.3,29.5,8.7c3.1,0.7,6.2,1.4,9.3,1.8c2.5,0.3,4.7,0,6.9-0.3c1.5-0.2,3-0.5,4.7-0.3
					c0.4,0.1,0.8-0.1,1,0.4c0.1,0.4-0.3,0.5-0.6,0.5c-1.7,0.3-3.4,0.6-5.1,0.8c-3.1,0.4-6.3,0.5-9.5,0.4c-4.3-0.1-8.6-0.4-12.9-0.6
					c-6.1-0.3-12.3-1.1-18.5-2c-6.2-0.9-12.5-2.1-18.7-3.1c-1.5-0.3-3.1-0.5-4.6-0.5c-0.8,0-1.1,0.2-0.5,0.9c2,2.3,4.2,4.5,6.7,6.6
					c0.6,0.5,1.5,0.5,2,1c1.1,0,2.2,0.1,3.2,0.1c0.7,0.2,1.2,0.1,1.8,0.1c0.3,0,0.6,0,0.9,0.1c0.4,0.2,0.8,0.2,1.2,0.1
					c0.2,0,0.4,0,0.6,0.1c0.4,0.3,0.8,0.2,1.2,0.1c0.2,0,0.4,0.1,0.6,0.1c0,0,0,0,0-0.1c0,0,0,0,0,0.1c0.2,0.1,0.4,0.1,0.7,0.1
					c0.2,0,0.4,0,0.6,0.1c0.6,0.2,1.3,0.3,1.9,0.3c0.2,0,0.4,0.1,0.6,0.1c0.2,0.2,0.4,0.2,0.7,0.1c0.9,0.2,1.9,0.3,2.8,0.5
					c0.2,0.2,0.4,0.2,0.7,0.1c0.6,0.1,1.2,0.2,1.8,0.3c0.2,0.2,0.4,0.1,0.7,0.1c0.2,0,0.4,0.1,0.6,0.1c0.2,0.2,0.4,0.2,0.7,0.1
					c0.3,0,0.6,0.1,0.9,0.1c0.2,0,0.4,0,0.7,0.1c0.3,0,0.6,0.1,0.9,0.1c0.2,0.1,0.4,0.1,0.7,0.1c0.3,0,0.6,0.1,0.9,0.1
					c0.2,0.2,0.4,0.2,0.7,0.1c0.5,0,1,0.1,1.5,0.1c0.2,0.1,0.4,0.1,0.7,0.1c0.5,0,1,0.1,1.5,0.1c0.9,0.3,1.6,0.1,2.4,0.1
					c0.3,0,0.6,0,0.9,0.1c3.8,0.3,7.3,0,10.8-0.5c0.2,0,0.4-0.1,0.5-0.1c0.5,0,1.1,0.1,1.4-0.2c0.4,0,0.7-0.1,1.1-0.1
					c0.3,0,0.7,0.1,0.9-0.1c0.4,0,0.7-0.1,1.1-0.1c0.3,0,0.7,0.1,0.8-0.2c0.2,0,0.4-0.1,0.5-0.1c0.2,0,0.5,0,0.6-0.1
					c0.2,0,0.3-0.1,0.5-0.1c0.3,0,0.7,0.1,0.8-0.2c0.2,0,0.4-0.1,0.5-0.1c0.9-0.1,1.7-0.3,2.5-0.6c0.2-0.1,0.3-0.1,0.5-0.2
					c1.3-0.3,2.6-0.6,3.7-1.2h0c3.1-1.2,6.2-2.3,9.4-3.5c0.2,0,0.5,0,0.5-0.2c1.1-0.4,2.3-0.7,3.4-1.1c0.3,0,0.5,0,0.5-0.2
					c0.4-0.1,0.9-0.2,1.3-0.3c0.3,0,0.5,0,0.6-0.2c0.2,0,0.4-0.1,0.5-0.1c0.2,0,0.5,0,0.6-0.1c0.2,0,0.3-0.1,0.5-0.1
					c0.2,0,0.4-0.1,0.6-0.1c0.3-0.1,0.5-0.1,0.8-0.2c0-0.1,0-0.2,0.1-0.3c-0.1,0.1-0.1,0.2-0.1,0.3c0.2,0,0.4-0.1,0.6-0.1
					c0.5-0.1,0.9-0.1,1.4-0.2c0.3,0,0.5,0,0.6-0.1c1.4,0.1,1.7-0.4,1.3-1.5c-0.8-2.1-1.4-4.3-2.3-6.4c0-0.3-0.1-0.5-0.4-0.7
					c-0.2-0.4-0.4-0.7-0.6-1.1c0-0.3-0.1-0.5-0.4-0.7c-0.1-0.2-0.2-0.4-0.4-0.7c0-0.2-0.1-0.4-0.3-0.5c-0.1-0.1-0.2-0.3-0.3-0.4
					c-0.2,0-0.3-0.1-0.4-0.2c0.1,0.1,0.3,0.2,0.4,0.2c-0.2-0.5-0.6-1-1.1-1.5c-0.4,0.2-0.5,0.4-0.6,0.8c0,0,0,0,0,0
					c-0.6,0.6-1.2,1.1-1.4,1.9l0,0c-1.5,1.7-2.9,3.3-4.4,5c-0.2,0.1-0.3,0.3-0.5,0.4c-0.4,0-0.5,0.5-1.2,0.1
					c0.2-0.6,0.8-1.1,1.2-1.6c0.9-1.2,2.2-2.1,2.8-3.4c0.1-0.1,0.1-0.2,0.2-0.2c0.5-0.4,0.9-0.9,1.1-1.4c0-0.1,0.1-0.2,0.1-0.2
					c0,0,0-0.1-0.1-0.1c0,0,0,0.1,0.1,0.1c0.3-0.2,0.4-0.4,0.4-0.7c0.2-0.3,0.3-0.6,0.5-0.9c0.3-0.2,0.4-0.4,0.3-0.7
					c0.9-2,1.1-4.1,1.1-6.3c0.1-0.1,0.1-0.3,0-0.5c0-0.1,0-0.3,0-0.4c0.1-0.1,0.1-0.3-0.1-0.5c0-0.1,0-0.3,0-0.4
					c0.2-0.2,0.1-0.5-0.1-0.7c-0.2-1-0.4-2-1.3-3c-0.2-0.4-0.5-0.8-1.3-1.1c-0.9,2.9-1.7,5.8-2.5,8.6c0,0,0,0,0,0
					c-0.6,0.9-0.9,2-1.3,3c-1.1,2.7-2.1,5.4-3.1,8c-0.3,0.2-0.4,0.4-0.3,0.7l0,0c-0.3,0.1-0.4,0.4-0.4,0.7c-0.2,0.1-0.5,0.3-0.7,0.4
					c-0.8,0.1-0.8,0.1-0.8-0.6c0.1-1.5,0.9-2.7,1.5-4c2.2-5,4-10.1,5.5-15.4c0.3-1.1,0.7-2.3,0.4-3.6c-0.1-0.2,0.1-0.3,0.4-0.4
					c0-0.1,0-0.3,0-0.4c0.2-0.2,0.1-0.5-0.1-0.7c0-0.2,0-0.3-0.1-0.4c0.2-0.2,0.1-0.5,0-0.7c0-0.2-0.1-0.3-0.1-0.5
					c-0.9-0.7-0.6-1.6-1.3-2.4c-1.2-1.3-2.4-2.5-3.4-4c-0.6,0.6-0.5,1.3-0.6,2c-0.6,5-1,10.1-1.9,15.1c-0.5,2.6-1,5.1-2.1,7.5
					c-0.1,0.2-0.2,0.4-0.4,0.5c-0.4,0.3-0.5,1.2-1.5,0.7c-0.9-0.4-0.5-1.1-0.3-1.6c2.4-6,2.8-12.6,3.6-19.1c0.1-0.7,0.1-0.7-0.4-1.6
					c-0.6,1.3-1.1,2.4-1.7,3.6c-0.7,1.3-1.1,2.8-2.2,4c-0.2,0.2-0.3,0.5-0.7,0.4c-0.5-0.1-0.4-0.5-0.5-0.7c-0.4-0.9-0.3-1.7-0.2-2.5
					c0.5-6.8,1-13.6,1.5-20.4c0.3-4.4,0.3-8.9-0.5-13.5c-0.7-4.2-1.9-8.5-3.4-12.7c-0.5-1.4-1-2.8-1.6-4.3c-4.6-9-10.6-17-13.7-25.9
					c4.6,5.4,8.9,11.4,12.1,17.5l0.9-2.6 M313.2,395.5C313.2,395.5,313.2,395.5,313.2,395.5C313.2,395.5,313.2,395.5,313.2,395.5
					 M313.1,395.4C313.1,395.4,313.1,395.4,313.1,395.4C313.1,395.4,313.1,395.4,313.1,395.4 M313.1,395.4
					C313.1,395.4,313.1,395.4,313.1,395.4C313.1,395.4,313.1,395.4,313.1,395.4 M313.1,395.3C313.1,395.3,313.1,395.3,313.1,395.3
					C313.1,395.3,313.1,395.3,313.1,395.3 M313.1,395.2C313.1,395.2,313.1,395.2,313.1,395.2C313.1,395.2,313.1,395.2,313.1,395.2
					 M313,395.2C313,395.2,313,395.2,313,395.2C313,395.2,313,395.2,313,395.2 M313,395.1C313,395.1,313,395.1,313,395.1
					C313,395.1,313,395.1,313,395.1 M313,395.1C313,395.1,313,395.1,313,395.1C313,395.1,313,395.1,313,395.1 M308.5,391.8
					C308.5,391.8,308.5,391.8,308.5,391.8C308.5,391.8,308.5,391.8,308.5,391.8 M308.4,391.6C308.4,391.6,308.4,391.6,308.4,391.6
					C308.4,391.6,308.4,391.6,308.4,391.6 M304.9,388.8C304.9,388.8,304.9,388.8,304.9,388.8C304.9,388.8,304.9,388.8,304.9,388.8
					 M303.3,387.6C303.3,387.6,303.3,387.7,303.3,387.6C303.3,387.7,303.3,387.6,303.3,387.6 M303.1,387.2
					C303.1,387.2,303.1,387.2,303.1,387.2C303.1,387.2,303.1,387.2,303.1,387.2 M303.2,387.3C303.2,387.3,303.2,387.3,303.2,387.3
					C303.2,387.3,303.2,387.3,303.2,387.3 M303.2,387.4C303.2,387.4,303.2,387.4,303.2,387.4C303.2,387.4,303.2,387.4,303.2,387.4
					 M303.3,387.5C303.3,387.5,303.3,387.5,303.3,387.5C303.3,387.5,303.3,387.5,303.3,387.5 M309.9,393
					C309.9,393.1,309.9,393.1,309.9,393C309.9,393.1,309.9,393.1,309.9,393 M314.4,396.5C314.4,396.5,314.4,396.5,314.4,396.5
					C314.4,396.5,314.4,396.5,314.4,396.5 M315.8,397.2C315.8,397.2,315.8,397.2,315.8,397.2C315.8,397.2,315.8,397.2,315.8,397.2"
					/>
				<path clip-path="url(#SVGID_5_)" fill="#C90010" d="M295,388c1.9,1.6,3.7,3.2,5.5,4.7c3.8,3.1,7.9,6,12.4,8.5
					c3.8,2.1,7.8,3.8,11.4,6.1c0.4,0.2,0.8,0.5,1.1,0.8c0.3,0.3,0.7,0.6,0.5,0.9c-0.2,0.4-0.7,0.2-1.1,0.1c-3.5-0.8-6.8-2.1-10-3.7
					c-4.7-2.4-8-5.9-11.7-9c-2.8-2.3-5.4-4.8-7.7-7.4C295.2,388.7,294.8,388.5,295,388"/>
				<path clip-path="url(#SVGID_5_)" fill="#99041D" d="M297.9,416.2c0.8-0.3,1.5,0,2.2,0.2c8.7,2.6,17.4,5.3,26.2,7.3
					c1.1,0.2,2.1,0.4,3.2,0.6c0.4,0.1,1.1,0.2,1.1,0.6c0,0.4-0.6,0.3-1,0.2c-1.3-0.2-2.5-0.3-3.8-0.6c-9-2.3-17.9-4.9-26.7-7.8
					C298.8,416.5,298.4,416.4,297.9,416.2"/>
				<path clip-path="url(#SVGID_5_)" fill="#C90010" d="M285.5,380.2c1.7,1.5,2.6,3,3.8,4.4c0.2,0.2,0.3,0.4,0,0.5
					c-0.1,0-0.4,0-0.5-0.1c-1-0.6-2.1-1.1-2.8-1.8C284.9,382.3,285.4,381.4,285.5,380.2"/>
				<path clip-path="url(#SVGID_5_)" fill="#AF1E30" d="M281.8,374.3c-4.3-5.5-7.5-11.2-10.2-17c-0.9-1.9-1.8-3.9-2.6-5.8
					c-2.3-5.9-3.3-12.1-2.5-17.5c0.4-3.4-4.6-4-5.5-8.1c-7,6.3-12,15.3-11.6,27.6c0.1,2.1,0.1,4.1,0.2,6.1c0.1,2,0.3,4.1,0.6,6.2
					c0.2,1.2,1,1.7,2.4,2.1c1.9,0.4,3.8,1,5.7,1.5c0.4,0.1,1.1,0.2,1.1,0.8c-0.1,0.6-0.8,0.2-1.2,0.1c-2-0.4-3.9-0.8-5.9-1.2
					c-0.5-0.1-1.4-0.5-1.4,0.2c0,0.6,0.1,1.4,1.2,1.7c3.4,1,6.7,1.9,10.1,2.3c-0.9-0.7-1.6-1.5-1.7-2.4c0-0.1-0.1-0.2-0.2-0.3
					c-3.3-3.7-0.8-5.9,1.2-8.2c0.7-0.8,1.9-1.4,2.8-2.1c1.3-0.9,1.2-1.7-0.4-2.9c-2-1.6-4.4-2.8-6.6-4.2c-4.4-5.2-1.3-8.7-0.4-10.7
					c2.6-3.5,2.8-7.6,4.8-11.1c1.1-1.4,2.7-0.1,2.6,1.3c-0.8,5.5-0.5,11,1.3,17.4c0.8,2.3,1.7,4.6,2.6,6.7c0.9,2.2,1.8,4.4,2.7,6.6
					c1.2,3,2.2,6.1,4,9.1c0.5,0.9-0.6,0.9-0.7,1.4c1.9-0.2,3.8,0.1,5.5,1.3c-0.9-2-2.2-4-2.4-6.1c2,2.1,3.5,4.3,5,6.5
					C283.1,375.2,282.1,374.6,281.8,374.3 M276.5,368.2L276.5,368.2c0,0,0,0.1,0,0.2C276.5,368.3,276.5,368.2,276.5,368.2"/>
				<path clip-path="url(#SVGID_5_)" fill="#C90010" d="M378,365c-1.5-3.5-2.2-7-3.3-10.5c-0.8-2.5-0.6-5-0.7-7.5
					c-0.4-5.8-2.8-11.2-5.8-16.6c6.4,6,9.5,14.9,12.2,22.2c0.5,1.5,1,3,1.5,4.5c0.5,1.5,0.9,3,1.3,4.5c0.5,1.9,1.2,3.8,1.7,5.7
					c0.4,1.3-0.5,2.1-1.6,2.8c-0.8,0.5-1.7,1.3-2.9,0.9c-1.1-0.4-0.8-1.5-1.2-2.3C378.8,367.4,378.4,366.2,378,365"/>
				<path clip-path="url(#SVGID_5_)" fill="#99041D" d="M383.6,359c-0.8-2.1-1.6-4.2-2.3-6.2c-2.2-6.9-5-13.1-9.1-19
					c4.7,4.2,8.3,12.8,9.6,19C382.3,354.8,382.9,356.9,383.6,359"/>
				<polygon clip-path="url(#SVGID_5_)" fill="#FFFFFF" points="303.6,354.1 305.8,350 307.1,350 304.9,354 309.9,358 308.6,358 
									"/>
				<path clip-path="url(#SVGID_5_)" fill="#FFFFFF" d="M311.5,359.1l-3.6-10.3l1.8,0l1.2,3.4c-0.1-0.4-0.1-0.7,0-0.9
					c0.1-0.2,0.3-0.3,0.5-0.3l0.9,0c0.5,0,1,0.2,1.5,0.6c0.5,0.4,0.9,1,1.1,1.6l1.2,3.4c0.2,0.6,0.2,1.2,0,1.6
					c-0.2,0.5-0.5,0.7-1,0.7L311.5,359.1z M312.9,357.9l0.9,0c0.3,0,0.4-0.1,0.5-0.4c0.1-0.2,0.1-0.5,0-0.8l-1.2-3.4
					c-0.1-0.3-0.3-0.6-0.5-0.8c-0.3-0.2-0.5-0.3-0.8-0.3c-0.2,0-0.4,0.1-0.5,0.3c-0.1,0.2-0.1,0.5,0,0.8L312.9,357.9z"/>
				<path clip-path="url(#SVGID_5_)" fill="#FFFFFF" d="M317.8,350.9l1.8,0c0.5,0,1,0.2,1.5,0.6c0.5,0.4,0.9,1,1.1,1.6l1.2,3.4
					c0.2,0.6,0.2,1.2,0,1.6c-0.2,0.5-0.5,0.7-1,0.7l-1.8,0c-0.5,0-1-0.2-1.5-0.6c-0.5-0.4-0.9-1-1.1-1.6l-1.2-3.4
					c-0.2-0.6-0.2-1.2,0-1.6C316.9,351.1,317.3,350.9,317.8,350.9 M318.6,353.2l1.2,3.4c0.1,0.3,0.3,0.6,0.5,0.8
					c0.3,0.2,0.5,0.3,0.8,0.3c0.3,0,0.4-0.1,0.5-0.4c0.1-0.2,0.1-0.5,0-0.8l-1.2-3.4c-0.1-0.3-0.3-0.6-0.5-0.8
					c-0.3-0.2-0.5-0.3-0.8-0.3c-0.2,0-0.4,0.1-0.5,0.3C318.4,352.6,318.4,352.9,318.6,353.2"/>
				<path clip-path="url(#SVGID_5_)" fill="#FFFFFF" d="M331.4,358.6l-1.8,0l-0.4-1.1c0.2,0.8,0,1.1-0.5,1.2l-0.9,0
					c-0.5,0-1-0.2-1.5-0.6c-0.5-0.4-0.9-1-1.1-1.6L324,353c-0.2-0.6-0.2-1.2,0-1.6c0.2-0.5,0.5-0.7,1-0.7l1.8,0l-0.8-2.3l1.8,0
					L331.4,358.6z M327.2,351.8l-0.9,0c-0.2,0-0.4,0.1-0.5,0.3s-0.1,0.5,0,0.8l1.2,3.4c0.1,0.3,0.3,0.6,0.5,0.8
					c0.3,0.2,0.5,0.3,0.8,0.3c0.3,0,0.4-0.1,0.5-0.4c0.1-0.2,0.1-0.5,0-0.8L327.2,351.8z"/>
				<path clip-path="url(#SVGID_5_)" fill="#FFFFFF" d="M334.5,359.7c0.3,0.8,0.7,1.1,1.3,1.1l0.9,0c0.3,0,0.4-0.1,0.5-0.3
					c0.1-0.2,0.1-0.5,0-0.8l-0.8-2.3c0.2,0.8,0,1.1-0.5,1.2l-0.9,0c-0.5,0-1-0.2-1.5-0.6s-0.9-1-1.1-1.6l-2-5.7l1.8,0l2,5.7
					c0.1,0.3,0.3,0.6,0.5,0.8c0.3,0.2,0.5,0.3,0.8,0.3c0.3,0,0.4-0.1,0.5-0.4c0.1-0.2,0.1-0.5,0-0.8l-2-5.7l1.8,0l3.2,9.1
					c0.2,0.6,0.2,1.2,0,1.6c-0.2,0.5-0.5,0.7-1,0.7l-1.8,0c-1.1,0-1.9-0.7-2.6-2.2L334.5,359.7z"/>
				<polygon clip-path="url(#SVGID_5_)" fill="#FFFFFF" points="343,353.2 340.8,357.3 339.4,357.3 341.6,353.2 336.6,349.3 
					338,349.3 				"/>
				<path clip-path="url(#SVGID_5_)" fill="#99041D" d="M286.5,300.8c3.8,1.8,7.8,2.4,11.9,3c1.3,0.2,2.7,0.3,4,0.3
					c6.9,0.3,13.4-0.3,19.5-1.7c1.1-0.3,2.1-0.6,3.1-1c6.9,1,14.2,0.2,21,4.1c16.7,10.6,33,23.3,46,39.4c1.4,1.8,2.7,3.5,4.1,5.3
					c4,5.3,7.9,10.6,11.5,16c1,1.5,0.9,2-0.6,2.7c-3.7,1.7-7.9,2.8-12.2,3.8c-1.6,0.3-3.2,0.7-4.8,1.1c-0.6,0.1-1.2,0.3-1.6,0.7
					c-1.6,1.7-4,2.3-6.8,2.4c-1.1,0-1.3,0.4-1,1.3c1,2.7,1.8,5.4,2.8,8.2c1,2.8,1.4,5.6,1.7,8.3c0.1,0.9,0.5,1.8,1.3,2.7
					c2.2,2.3,2.8,4.8,3,7.2c0.2,1.9,2.2,10.4,3.2,12.3c1.3,2.6,2.1,5.3,3,7.9c0.7,2.1,0.3,2.6-2.2,2.9c-7.5,0.9-13.6,3.5-20,5.8
					c-4.3,1.6-8.7,2.9-13.6,3.6c-4.8,0.6-9.8,0.8-14.8,0.9c-6.9,0.1-13.9-0.9-21-2.2c-6.4-1.2-12.4-1.3-18.4-0.8
					c-2.3,0.2-3.1-0.2-4.4-1.9c-1.8-2.5-3.1-5-4.1-7.6c-1.2-3.3-2.4-6.6-3.9-9.9c0,0,0-0.1,0-0.1c-2-2.4-2.3-4.7-2.1-7
					c0.1-0.9-0.4-1.8-1.3-2.7c-3.4-3.2-4.7-6.6-4.4-10.1c0.1-1.3-0.2-2.5-1-3.9c-2.1-3.6-3-7.2-2.6-10.8c0.1-0.4,0-0.8,0-1.2
					c0.1-0.9-0.5-1.4-1.7-2c-3.7-1.9-7.3-1.6-10.8-1.6c-4.9,0-9.9-1-14.9-2.2c-1.7-0.4-3.5-0.7-5.2-1.3l-2.7-7.8
					c1-0.4,0.1-1.2,0.1-1.8c-0.3-2.9-0.4-5.8-0.4-8.6c0-1.4,0-2.8,0.1-4.3c-0.3-4.7,0.2-9.5,2.5-12.3c7.8-10.4,12.3-20.8,19.7-30.6
					c3.7-4.9,12-3,17.2-6.4C285.9,300.7,286.2,300.8,286.5,300.8 M311.5,406.7L311.5,406.7c-0.2-0.3-0.4-0.5-0.8-0.7l0,0
					c-0.2-0.3-0.4-0.5-0.8-0.7l0,0c-0.2-0.3-0.5-0.5-0.8-0.7c-0.1-0.1-0.3-0.3-0.4-0.4c-0.2-0.3-0.4-0.5-0.8-0.7l0,0
					c-0.3-0.5-0.8-0.8-1.3-1.2c-0.1-0.1-0.3-0.3-0.4-0.4c-0.2-0.3-0.5-0.6-0.8-0.8c-0.1-0.1-0.3-0.3-0.4-0.4
					c-0.4-0.4-0.8-0.9-1.3-1.3c-3.9-3.6-7.4-7.4-10.7-11.2c-2.3-2.8-4.5-5.6-6.7-8.4c-0.2-0.3-0.4-0.7-0.8-0.7
					c-0.4,0-0.4,0.4-0.4,0.7c0,1.2,0,2.4,0,3.7c0.1,1.9,0.1,3.8,1.4,5.7c2,3,2.6,6,2.3,8.9c-0.1,1,0.3,2,0.9,3.1
					c0.1,0.1,0.2,0.3,0.3,0.4c0.5,1.2,1.5,2.2,2.5,3.2c0.6,0.8,1.2,1.6,1.7,2.5c0,0.2,0.1,0.3,0.1,0.5c0.1,0.6,0.2,1.2,0.2,1.8
					c-0.2,0.1-0.1,0.3,0,0.5c-0.2,1.1-0.2,2.3,0.9,3.4c1.5,1.7,1.5,3.6,2.6,5.3c0.2,0.4,0.4,0.9,0.6,1.3c1.2,3.8,2.7,7.5,5,11.1
					c0.5,0.7,1,1,1.9,1c1.8-0.1,3.7-0.1,5.5-0.2c1.1,0,2.2,0.1,3.2,0.1c0.7,0.2,1.2,0.1,1.8,0.1c0.3,0,0.6,0,0.9,0.1
					c0.4,0.2,0.8,0.2,1.2,0.1c0.2,0,0.4,0,0.6,0.1c0.4,0.3,0.8,0.2,1.2,0.1c0.2,0,0.4,0.1,0.6,0.1c0.2,0.1,0.4,0.1,0.7,0.1
					c0.2,0,0.4,0,0.6,0.1c0.6,0.2,1.3,0.3,1.9,0.3c0.2,0,0.4,0.1,0.6,0.1c0.2,0.2,0.4,0.2,0.7,0.1c0.9,0.2,1.9,0.3,2.8,0.5
					c0.2,0.2,0.4,0.2,0.7,0.1l1.8,0.3c0.2,0.2,0.4,0.1,0.7,0.1c0.2,0,0.4,0.1,0.6,0.1c0.2,0.2,0.4,0.2,0.7,0.1
					c0.3,0,0.6,0.1,0.9,0.1c0.2,0,0.4,0,0.7,0.1c0.3,0,0.6,0.1,0.9,0.1c0.2,0.1,0.4,0.1,0.7,0.1c0.3,0,0.6,0.1,0.9,0.1
					c0.2,0.2,0.4,0.2,0.7,0.1c0.5,0,1,0.1,1.5,0.1c0.2,0.1,0.4,0.1,0.7,0.1c0.5,0,1,0.1,1.5,0.1c0.9,0.3,1.6,0.1,2.4,0.1
					c0.3,0,0.6,0,0.9,0.1c3.8,0.3,7.3,0,10.8-0.5c0.2,0,0.4-0.1,0.5-0.1c0.5,0,1.1,0.1,1.4-0.2c0.4,0,0.7-0.1,1.1-0.1
					c0.3,0,0.7,0.1,0.9-0.1c0.4,0,0.7-0.1,1.1-0.1c0.3,0,0.7,0.1,0.8-0.2c0.2,0,0.4-0.1,0.5-0.1c0.2,0,0.5,0,0.6-0.1
					c0.2,0,0.3-0.1,0.5-0.1c0.3,0,0.7,0.1,0.8-0.2c0.2,0,0.4-0.1,0.5-0.1c0.9-0.1,1.7-0.3,2.5-0.6c0.2-0.1,0.3-0.1,0.5-0.2
					c1.3-0.3,2.6-0.6,3.7-1.2c3.1-1.2,6.2-2.3,9.4-3.5c0.2,0,0.5,0,0.5-0.2c1.1-0.4,2.3-0.7,3.4-1.1c0.3,0,0.5,0,0.5-0.2
					c0.4-0.1,0.9-0.2,1.3-0.3c0.3,0,0.5,0,0.6-0.2c0.2,0,0.4-0.1,0.5-0.1c0.2,0,0.5,0,0.6-0.1c0.2,0,0.3-0.1,0.5-0.1
					c0.2,0,0.4-0.1,0.6-0.1c0.3-0.1,0.5-0.1,0.8-0.2c0.2,0,0.4-0.1,0.6-0.1c0.5-0.1,0.9-0.1,1.4-0.2c0.3,0,0.5,0,0.6-0.1
					c1.4,0.1,1.7-0.4,1.3-1.5c-0.8-2.1-1.4-4.3-2.3-6.4c0-0.3-0.1-0.5-0.4-0.7l-0.6-1.1c0-0.3-0.1-0.5-0.4-0.7
					c-0.1-0.2-0.2-0.4-0.4-0.7c0-0.2-0.1-0.4-0.3-0.5c-0.1-0.1-0.2-0.3-0.3-0.4c-0.2-0.5-0.6-1-1.1-1.5c-0.4,0.2-0.5,0.4-0.6,0.8
					l0,0c-0.6,0.6-1.2,1.1-1.4,1.9l0,0c-1.5,1.7-2.9,3.3-4.4,5c-0.2,0.1-0.3,0.3-0.5,0.4c-0.4,0-0.5,0.5-1.2,0.1
					c0.2-0.6,0.8-1.1,1.2-1.6c0.9-1.2,2.2-2.1,2.8-3.4c0.1-0.1,0.1-0.2,0.2-0.2c0.5-0.4,0.9-0.9,1.1-1.4c0-0.1,0.1-0.2,0.1-0.2
					c0.3-0.2,0.4-0.4,0.4-0.7c0.2-0.3,0.3-0.6,0.5-0.9c0.3-0.2,0.4-0.4,0.3-0.7c0.9-2,1.1-4.1,1.1-6.3c0.1-0.1,0.1-0.3,0-0.5
					c0-0.1,0-0.3,0-0.4c0.1-0.1,0.1-0.3-0.1-0.5c0-0.1,0-0.3,0-0.4c0.2-0.2,0.1-0.5-0.1-0.7c-0.2-1-0.4-2-1.3-3
					c-0.2-0.4-0.5-0.8-1.3-1.1c-0.9,2.9-1.7,5.8-2.5,8.6l0,0c-0.6,0.9-0.9,2-1.3,3c-1.1,2.7-2.1,5.4-3.1,8l0,0
					c-0.3,0.2-0.4,0.4-0.3,0.7l0,0c-0.3,0.1-0.4,0.4-0.4,0.7c-0.2,0.1-0.5,0.3-0.7,0.4c-0.3-1,0.2-1.8,0.6-2.6
					c2.3-5.6,4.6-11.2,6.2-17.1c0.4-1.4,0.7-2.7,0.2-4.2c0-0.1,0-0.3,0-0.4c0.2-0.2,0.1-0.5-0.1-0.7c0-0.2,0-0.3-0.1-0.4
					c0.2-0.2,0.1-0.5,0-0.7c0-0.2-0.1-0.3-0.1-0.5c0-0.1,0.1-0.3,0.1-0.4c-0.7-4.2-1.9-8.3-3.4-12.5c-0.2-0.6-0.6-1.2-1.1-1.8
					c-0.4,0.6-0.5,1.2-0.5,1.7c-0.3,2.4-0.5,4.9-0.8,7.3c-0.9,7.5-1.5,15-3.6,22.2c-0.1,0.4-0.2,0.9-0.5,1.2
					c-0.2,0.1-0.1,0.6-0.7,0.3c-0.5-0.2-0.2-0.5-0.1-0.7c0.4-1.5,0.9-3,1.3-4.6c1.7-7.1,2.2-14.5,2.6-21.9c0.2-3.8,0.9-7.5,0.6-11.4
					c-0.3-3-1.3-6.1-2.2-9.1c-0.9-3.2-1.9-6.4-3-9.6c-0.5-1.6-1-3.2-1.5-4.8c-1.4-7.9-7.2-15.3-10.1-23.5c1.8,2,2.2,4.7,4,6.8
					c1.4-0.7,1.2-2.8,1.3-4.1c0.1-2.7-3.3-3.4-4.9-4.7c2.2,0,4.2,2.6,6.3,4c-0.6-9.6-13.8-17.3-20.9-20.5c-3.7-1.3-9.8-1.4-10.7-0.4
					c-2.2,2.4-2.9,7.3-6.4,9.2l-0.2,0.2c-0.7,0.5-1.4,1-2.1,1.5l0,0c-0.4,0.2-0.8,0.3-1.2,0.5c-4.4,1.9-9.3,3.1-15.1,2.5
					c-1.8-0.2-3.5-0.2-5.3-0.9c-13.2-5.1-17.2-8.4-20.9-12.1c-4.9-4.9-20.7,4.6-18.6,18.2c2.5-0.7,2.5-8.3,4-4.2
					c4.9,10.9-4.7,19.3,3.3,32.1c0.8,1.7,1.7,3.4,2.2,5.1c0.7,2,1.7,4,2.8,5.9c2.1,3.4,4.4,6.7,6.7,10c7.2,10.1,15.6,19.6,25.4,28.6
					c2.4,2.2,4.9,4.4,7.7,6.4c0.3,0.3,0.7,0.5,1,0.8c1.3,1.1,3.1,1.9,4.1,3.2c-1.4-0.2-2.2-1.2-3.4-1.6c-0.1-0.1-0.2-0.1-0.3-0.2
					c-0.5-0.5-1-0.8-1.7-1.1c-0.1-0.1-0.2-0.2-0.3-0.2c-0.3-0.4-0.7-0.7-1.2-0.9l0,0c-0.3-0.4-0.7-0.7-1.2-0.9l0,0
					c-0.2-0.3-0.5-0.5-0.8-0.7l0,0C312.2,407,311.9,406.8,311.5,406.7 M263.8,328.3c1.5,0.8,2.7,2.9,3.6,2.2c0.9-2.1,3-6.9-0.6-9.6
					C267.6,325,262.3,323.8,263.8,328.3L263.8,328.3z M282.2,375.6L282.2,375.6c0.9-0.4-0.1-1-0.4-1.3c-4.3-5.5-7.5-11.2-10.2-17
					c-0.9-1.9-1.8-3.9-2.6-5.8c-2.3-5.9-3.3-12.1-2.5-17.5c0.4-3.4-4.6-4-5.5-8.1c-7,6.3-12,15.3-11.6,27.6c0.1,2.1,0.1,4.1,0.2,6.1
					c0.1,2,0.3,4.1,0.6,6.2c0.2,1.2,1,1.7,2.4,2.1c1.9,0.4,3.8,1,5.7,1.5c0.4,0.1,1.1,0.2,1.1,0.8c-0.1,0.6-0.8,0.2-1.2,0.1
					c-2-0.4-3.9-0.8-5.9-1.2c-0.5-0.1-1.4-0.5-1.4,0.2c0,0.6,0.1,1.4,1.2,1.7c3.4,1,6.7,1.9,10.1,2.3c0.4,0.1,0.7,0.1,1,0.1
					c0.3,0.3,0.5,0.4,0.9,0.3c0.3,0,0.6,0.1,0.9,0.1c0.5,0.3,0.8,0.2,1.2,0.1c0.7,0,1.4,0.1,2.1,0.1c0.2,0,0.4,0,0.6,0
					c1.7,0,3.5-0.1,5.2-0.1c1.9-0.2,3.8,0.1,5.5,1.3c0.4,0.3,0.8,0.4,1.3,0.5C281.5,376.3,282,376.3,282.2,375.6 M393.4,370.4
					c0.2,0,0.4-0.1,0.5-0.1c0.2,0,0.5,0,0.6-0.1c0.2,0,0.3-0.1,0.5-0.1c0.2,0,0.5,0,0.6-0.2c0.2,0,0.4-0.1,0.5-0.1
					c0.5,0,1-0.2,1.4-0.4c0.2,0,0.3-0.1,0.5-0.1c0.5,0,1-0.2,1.4-0.4c1.8-0.6,3.8-1,5.2-2c0.4-0.3,0.5-0.6,0-1
					c-0.1-0.1-0.2-0.3-0.2-0.4c-0.4-0.9-1-1.7-2.3-1.3c-4.1,1.2-8.4,2.1-12.5,3.2c-0.4,0-0.8,0-1.2,0c-0.3-0.8,0.6-0.8,1.2-0.9
					c1.3-0.3,2.7-0.6,3.9-0.9c2.5-0.7,5.1-1.3,7.6-2.1c0.6-0.2,1.7-0.3,1.1-1.3c-1.2-1.9-2.5-3.7-4-5.5c-0.2-0.5-0.6-0.9-1-1.4
					c0-0.2-0.1-0.4-0.4-0.5c-1-1.4-2.1-2.7-3.1-4.1c-1-1.4-2.1-2.7-3.1-4.1c-2.2-2.5-4.7-6.4-6.7-8.5c-5.4-5.7-10.8-10.1-16.8-14.8
					c-0.6,6.2,4.3,12.2,6.1,19c0.2,2.1,0.3,4.1,0.5,6.2c0.1,1.3,0,2.6,0,3.9c0,0.2-0.1,0.5-0.4,0.4c-0.4,0-0.5-0.3-0.5-0.6
					c-0.1-0.3-0.1-0.5-0.1-0.8c0-2.3,0.1-4.6-0.1-7c-1-5.6-3.2-10.4-6.5-15.1c-4.3,4.9,3.4,12.9,4.5,19.8c0.5,1.5,1,3.1,1.5,4.6
					c0.5,1.5,1,3.1,1.5,4.6c1.3,4.1,3,8.2,3.3,12.2c0.1,0.7,0.6,1.1,1.5,1c1.7-0.1,3.2-0.4,4.6-1c2.5-1,3.3-2.6,2.3-5.1
					c-0.5-1.3-0.8-2.6-1.1-3.9c-0.1-0.3-0.3-0.7,0.2-0.9c0.7,0.4,0.7,1,1.1,1.5c0.4,1.1,0.7,2.1,1.1,3.2c0.4,1.5,0.4,3.1,1,4.6
					c0.3,0.7,0.8,1.1,1.6,0.7c0.3,0,0.6-0.1,0.8-0.1c0.3,0,0.7,0.1,0.9-0.1c0.7-0.1,1.5-0.3,2.2-0.4
					C393.1,370.6,393.3,370.6,393.4,370.4 M312.2,319.3c1.9,0,3.7-0.2,5.5-0.7c2.5-0.6,4.7-1.5,6.5-2.6s3.3-2.4,4.5-4
					c0.2-2.8,4.5-2.9,1.4-6.9c-1.5-2.7-3.4-2-4.2-0.1c-0.8,1.6-1.8,2.9-3.1,4.2c-1.2,1.2-2.7,2.4-4.3,3.4c-3.8,2.4-8.9,3-14,1.7
					c-1.7-0.4-3.4-1.1-5.1-1.9c-5-1-15.4-13.8-14.4-6.3c1.4,5.4,10.1,8.6,16.9,11.7c1.7,0.8,3.4,0.9,5.1,1.1
					C308.7,319.2,310.5,319.3,312.2,319.3 M289.5,304.4c2.9,3,6.3,5,9.2,5.3c1.8,0.3,3.5,0.5,5.2,0.7c5.1,0.4,10,0.2,14.7-0.8
					c1.7-0.3,3-1,4-1.9c1-0.9,1.7-2.1,2.4-3.4c-1.2,0.3-2.3,0.5-3.5,0.8c-5.9,1.1-11.8,1.7-18,1.4c-1.5-0.1-3-0.2-4.5-0.4
					c-1.5-0.2-3.1-0.4-4.7-0.7C292.6,305.2,291.1,304.8,289.5,304.4 M319.2,310.5c-3.6,0.3-7,0.5-10.5,0.6c-1.7,0.1-3.5,0-5.2-0.1
					c-1.8-0.1-3.6-0.3-5.5-0.7c1.6,1.5,4,2.6,6.7,3.1C310,314.5,316.5,313.6,319.2,310.5 M381.5,374.6c2.5-0.4,4.3-1.1,4.8-3
					c0.1-0.3,0.3-0.7-0.2-1c-0.5-0.3-0.8,0-1.1,0.2c-2,1.2-4.3,2.1-7.2,2.1c-0.5,0-0.8,0.1-0.8,0.5c0,0.5,0.5,0.6,1,0.7
					C379.3,374.6,380.4,374.4,381.5,374.6"/>
			</g>
		</g>
	</g>
	<path fill="#FFFFFF" stroke="#000000" stroke-width="2" stroke-miterlimit="10" d="M256.5,372.6c1.1,1.8,2.1,9.9,3.2,11.7
		c1.8,3,3.6,6.1,6.6,7.9c2.1,1.2,4.5,1.6,6.9,2c7.9,1.4,15.9,2.7,23.8,4.1c-0.1,1.7,0.5,3.4,1.6,4.7c1.6-0.4,3.1-1.2,4.4-2.3
		c-0.5-0.8-1-1.6-1.5-2.3c0.2,1.1,1.8,1.5,2.8,1.2c1-0.4,1.6-1.7,1.1-2.7c-0.8-1.6-3-1.5-4.7-1.1c2.8-0.5,5.6-1.3,8.2-2.6
		c-1.5-2.4-5.2-3.2-7.6-1.6c1.6-0.1,3.2-0.2,4.5-1c1.3-0.8,2.1-2.7,1.3-4.1c-0.8-1.3-2.8-1.4-4.2-0.9s-2.7,1.6-4.1,2.2
		c-3.7,1.6-8-0.2-11.5-2.2c-3.5-2-7.1-4.5-11.2-4.2c-1.6,0.1-3.3,0.6-4.7-0.2c-0.7-0.4-1.2-1.2-1.7-1.9c-1.9-3.1-0.1-2.3-1.6-5.6"/>
	<path fill="#FFFFFF" stroke="#000000" stroke-width="2" stroke-miterlimit="10" d="M388.3,370.6c0.6,1.4,0.9,2.9,1,4.4
		c0.1,1.9-0.1,3.9-1.5,5.2c-1.7,1.7-4.4,1.6-6.9,1.6c-7.8-0.2-15.7,0.8-23.3,3c-2.9,0.9-6.8,1.6-8.4-1c-0.7-1.1-0.7-2.5-1.4-3.5
		c-1.5-2.1-5.3-0.9-5.9,1.6c-0.6,2.5,1.5,5,4,5.6c-2-0.9-5-1.3-5.5,0.8c-0.3,1.2,0.6,2.4,1.7,2.8c1.1,0.4,2.4,0.3,3.6,0.2
		c-1.7-0.6-4,0.2-4.3,2c-0.3,1.8,2.6,3.2,3.4,1.6c-2-0.4-2.8,3.1-1.2,4.3c1.7,1.2,4.1,0.4,5.7-0.9c1.6-1.3,2.8-3.1,4.6-4.1
		c3.3-2,7.4-1,11.2-0.5c7,1,14.2,0.4,21.2-0.2c3.9-0.3,8.2-0.8,11.1-3.5c3.5-3.2,3.9-8.4,4.1-13.1c0.1-3,0.3-7,0.4-10"/>
	<path fill="#FFFFFF" stroke="#000000" stroke-width="2" stroke-miterlimit="10" d="M344,309.3c9.4-8.9,8.8-24.1,5.2-36.5
		c-1.5-5.3-3.5-10.4-6.4-15.1c-7.3-12.1-21.4-20.7-35.4-18.9c-11.4,1.5-21.4,9.7-26.2,20.2c-4.8,10.5-4.7,22.8-0.9,33.7
		c2,5.7,5,11.1,9.6,14.9c5.5,4.5,12.7,6.2,19.7,7.5C321.5,317.1,335.3,317.6,344,309.3z"/>
	<path fill="#FFFFFF" stroke="#000000" stroke-width="2" stroke-miterlimit="10" d="M294.9,247.7c1.2-8.4,2.7-17.8,2.1-26.9
		c5.7,6.9,10.6,16.7,14.6,24.6"/>
	<path fill="#FFFFFF" stroke="#000000" stroke-width="2" stroke-miterlimit="10" d="M321.8,245.1c0.8-6.9,6.9-15.4,8.4-22.3
		c3.4,8.5,3.4,16.3,4.7,25.3"/>
	<path fill="#FFFFFF" stroke="#000000" stroke-width="2" stroke-miterlimit="10" d="M311.8,264.8c-2.9,2-8.4,3-13.2,2.3
		c-0.9-0.1-1.9-0.4-2.1-0.8c-0.1-0.2,0-0.4,0.2-0.6c1-1.4,3.6-2.5,6.5-2.7s6.1,0.4,7.9,1.5L311.8,264.8z"/>
	<path d="M303.1,263.3c1.5,0.9,1.9,2.5,1,3.6C301.7,266.6,301.7,264.3,303.1,263.3z"/>
	<path fill="none" stroke="#000000" stroke-width="2" stroke-miterlimit="10" d="M300.7,292.1c1.7,3.9,6.4,5.3,9.6,6.8
		s7.9,1.6,11.3,1.2c0.8-0.1,1.5-0.5,2.3-0.7c1.4-0.4,1.1-0.6,1.1-1.3c-0.1-2.8-0.9-8.5-1.6-12.2c-0.7-4-5.6-3.4-7.2-7
		c3.7-0.4,7.3-1.3,10.9-2.6c-1.4,2.6-2.8,5.3-4.2,7.9c1.4,4.1,1.3,8.4,2.5,13c0.3,1.2,3.4,1.5,4.3,1.7c8,1.4,13.5-6.9,13.8-8.1"/>
	<path fill="#FFFFFF" stroke="#000000" stroke-width="2" stroke-miterlimit="10" d="M338.7,263c-2.9,2-5.8,3.1-10.6,2.5
		c-0.9-0.1-4.4-0.5-4.6-1c-0.1-0.2,1-1.5,1.2-1.6c1.7-1.2,2.5-1.5,5.5-1.7c2.9-0.2,6.1,0.4,7.9,1.5L338.7,263z"/>
	<path d="M331.8,265.7c0.3-0.6,0-1.3,0-2.1c0-0.8,0.2-1.3-0.9-2.9c-1.1,0.7-1.2,1.5-0.7,2.8c0.1,0.4,0.1,0.4,1.2,1.8L331.8,265.7z"
		/>
</g>
</svg>
