<?xml version="1.0" encoding="utf-8"?>
<!-- Generator: Adobe Illustrator 18.1.1, SVG Export Plug-In . SVG Version: 6.00 Build 0)  -->
<svg version="1.1" xmlns="http://www.w3.org/2000/svg" xmlns:xlink="http://www.w3.org/1999/xlink" x="0px" y="0px"
	 viewBox="0 0 720 535" enable-background="new 0 0 720 535" xml:space="preserve">
<g id="Walls">
	<polygon fill="#E0E0E0" points="440,298.4 440,-197.5 724,-197.5 724,343.1 	"/>
	<polygon fill="#FFFFFF" points="0,343.1 440,298.4 440,-197.5 0,-197.5 	"/>
	<polygon fill="#575757" points="0,666.5 0,343.1 479.4,298.4 720,343.1 720,666.5 	"/>
</g>
<g id="Window">
	<path fill="#9EC9D8" stroke="#896847" stroke-width="5" stroke-miterlimit="10" d="M502.2-44.7c0.4-6.1-7.3-24.3,2.9-26.7
		c18.4-4.2,21.4-1.9,36.6-3.7c61.6-7.6,98.3-11.7,161-15.5c-1.9,122.4-7.8,223.6-6.1,336.5c-60.5-9.2-120.9-18.3-181.4-27.5
		c-2.8-0.4-5.7-0.9-7.7-2.1c-2.3-1.4-2.6-3.4-2.9-5.2c-4.8-33.4,0.7-54,0.6-97.4c-0.1-25.8-4.8-50.5-4.9-80.3
		C500.1-1.5,500.2-13.6,502.2-44.7z"/>
	<g id="Layer_19">
	</g>
	<path fill="#86A9B2" d="M532.5,208.2c-2.8-8.2-3.8-16.7-2.9-25.1c6.5,10.1,14.3,20,23.3,29.5c-6.9-1.5-13.9-3-20.8-4.5"/>
	<path fill="#86A9B2" d="M566.5,201.5c4.1,4.7,4,10.5,9.3,14.8c-10.3-2.1-15.2-8.3-19.6-13.7c-7.6-9.4-17.1-18.5-21-28.6
		c-1.6-4-2.2-8.2-2.8-12.3c5.9,8.8,12.5,17.5,19.9,25.9c2.6,2.9,5.2,5.8,8.4,8.6C562.7,198,564.9,199.7,566.5,201.5z"/>
	<path fill="none" stroke="#896847" stroke-width="5" stroke-miterlimit="10" d="M502.3,147c40.1,2.2,68.6,3.2,98.7,5.5
		c37.7,2.9,56.8,7.5,95.5,9.7"/>
	<path fill="none" stroke="#896847" stroke-width="5" stroke-miterlimit="10" d="M503.5,77.7c66,3.8,128.4,3.8,194.7,1.9"/>
	<path fill="none" stroke="#896847" stroke-width="5" stroke-miterlimit="10" d="M500.2,6.3c70.3-1.5,130.2-3.4,200.3-5.7"/>
	<path fill="none" stroke="#896847" stroke-width="5" stroke-miterlimit="10" d="M594.7-86c0.9,29.3,1.8,58.6,2.8,87.9
		c0.4,12.4,0.8,24.8,1.2,37.1c2,64.7,4.1,129.4,2.3,194.1"/>
</g>
<g id="Feet">
</g>
<g id="Tail">
</g>
<g id="Arms">
</g>
<g id="Jeans">
</g>
<g id="Head">
</g>
<g id="Couch">
	<path fill="none" stroke="#0071BC" stroke-width="3" stroke-miterlimit="10" d="M507.4,242.8c-29.8-5-59.6,5.7-89.6,8.6
		c-19,1.8-38,0.5-57.1-0.2c-96.2-3.5-192.2,9.7-287.9,22.9c-3.8,0.5-7.9,1.3-10.4,4.9c-2.6,3.7-2.6,9.1-2.4,14
		c1.5,49.9,3.1,99.7,4.6,149.6c0.1,3.8,0.3,7.9,2.2,11c1.6,2.5,4,3.9,6.4,5.1c28,14.9,56.1,29.9,84.1,44.8c-1.5,1.2-3,2.3-4.4,3.5
		c49.9-0.9,98.4-19.7,147.8-27.7c43.1-6.9,86.9-5.6,129.9-12.8c59.4-10,117.6-36.1,177.5-32.9c4.8,0.3,10.1,0.4,13.5-3.9
		c2.7-3.4,3.1-8.5,3.5-13.2c1.9-25.3,3.8-50.7,5.7-76c-31.1-20.8-66.5-31.4-101.7-30.5c-2.5-16.5-5-33-7.6-49.5
		c-0.7-4.7-1.6-9.8-4.4-13.1C514.5,244.3,510.8,243.4,507.4,242.8z"/>
	<g>
		<path fill="#0071BC" stroke="#29ABE2" stroke-width="3" stroke-miterlimit="10" d="M151.2,395.3c-0.2-2.9,0.6-6.2-1-8.4
			c-1.1-1.5-2.8-2-4.3-2.4c-27.9-7.7-58.6-30.3-83.3-48.3c-1.9,28.1-0.2,65.6-2.1,93.7c-0.3,4.6-0.6,9.3,0.5,13.6
			c2.7,10.5,12.2,15,20.5,18.7c25.1,11.2,49.9,24.9,71.3,44.7C155.5,465.1,154.4,435.9,151.2,395.3z"/>
		<path fill="#29ABE2" d="M594.4,440.3c-0.1-14,10.5-106.4,5-106.3c-38.6,1.3-58.8-22.1-98.4-17.7c-19.6,2.2-60.8,10.8-80.3,14.8
			c-51.5,10.5-76.8-0.6-128.7,4.4c-19.4,1.9-122.2,19.1-141.6,20.9c1.6,18.1,44.2,127.4,45.9,145.4c90.8-11,183.1-28.8,273.9-39.8
			c10-1.2,19.6-4.8,29.5-6.1C512.6,454.2,570.7,443,594.4,440.3z"/>
		<path fill="#0071BC" stroke="#29ABE2" stroke-width="3" stroke-miterlimit="10" d="M62.6,336.2c8.2,4.6,16.3,9.2,24.5,13.7
			c-0.5-9-1.1-18.1-1.6-27.1c-0.6-9.9-1.2-20.1-5-28.8c-3.7-8.7-11.4-15.5-19.2-13.7C63,299.6,60.9,317.1,62.6,336.2"/>
		<linearGradient id="SVGID_1_" gradientUnits="userSpaceOnUse" x1="302.7608" y1="372.0323" x2="290.6563" y2="211.5163">
			<stop  offset="0" style="stop-color:#29ABE2"/>
			<stop  offset="0.407" style="stop-color:#22A2DB"/>
			<stop  offset="0.5781" style="stop-color:#1E9CD7"/>
			<stop  offset="0.8096" style="stop-color:#2E3192"/>
			<stop  offset="1" style="stop-color:#005B97"/>
		</linearGradient>
		<path fill="url(#SVGID_1_)" d="M236.9,254.6c-59.2,3.9-113,9.2-171.5,21.6c16.9,16,20.8,22.6,21.6,77.6
			c12.3,0.5,23.6-4.1,35.7-6.6c-1.7,7,14.5,25.4,20.4,24.9c123-10.1,252.3-26.6,375.2-36.7c-0.2-3.8-4.2-16.1-4.4-19.9
			c9.6,2.5,11.3,1.7,12.6-10.6c1.3-12.3-1.4-36.6-5.3-47.9c-1.4-4-2.9-8.2-5.7-10.7c-3.3-2.9-10-4.7-14-4.7
			c-48.3,0.1-83.4-1-133,3.2c-17.7,1.5-39.6,5.3-61,6.1C285.2,251.6,259.3,253.1,236.9,254.6z"/>
		<path fill="#29ABE2" stroke="#0071BC" stroke-miterlimit="10" d="M341.3,373.7c-47.4,8.5-93.9,14.2-143.6,14.8
			c-0.3,16.6-2.5,35.1,0,51.4c47.4-14.9,99.3-25.2,148.1-27C344.3,399.8,342.8,386.8,341.3,373.7z"/>
		<path fill="#29ABE2" stroke="#0071BC" stroke-miterlimit="10" d="M302.8,361.5c11.3,4.8,26.5,12,38.5,12.2
			c-42.1,6.7-87.5,8.7-129.6,15.4c-4.3,0.7-8.8,1.4-13,0c-5.1-1.6-9.3-6-13.7-9.8c-9.2-7.9-19.7-13.5-30.6-16.1
			c32-7.6,64.5-12.4,97.1-14.5c7.6-0.5,15.2-0.8,22.6,0.8C284,351.8,293.2,357.4,302.8,361.5z"/>
		<path fill="#29ABE2" stroke="#0071BC" stroke-miterlimit="10" d="M345.8,379.9c0,4.8,4.7,33.6,4.7,33.6s13.2,2.6,18.1,1.8
			c38.2-6.1,72.4-11.6,110.6-17.7c0.4-13-1-26-4.1-38.4c-40.9,7.5-78.8,7.6-121.5,14.4c-1.7,0.3-5.8-1.1-6.8,0.7
			C345.8,376,345.8,378,345.8,379.9z"/>
		<path fill="#29ABE2" stroke="#0071BC" stroke-miterlimit="10" d="M477.5,359.8c-12.9-6.5-26.1-12.2-39.4-17.1
			c-7.7-2.9-17.3-6.6-17.3-6.6s-24.5,0.2-36.6,0.9c-32.3,1.9-64.4,8.8-96.4,15.1c17.2,6,34.5,11.9,51.7,17.9c3,1,6.1,2.1,9.3,2.2
			c3.9,0.1,7.5-1.8,11.4-2.5c23.9-4.2,41.2-4.2,63.5-7.8C441.6,358.9,458.2,363.1,477.5,359.8z"/>
		<path fill="#29ABE2" stroke="#0071BC" stroke-miterlimit="10" d="M483.5,399.4c21.6-0.3,43.2-2,64.7-5.1c14.8-2.1,29.6-5,44.3-8.2
			c0-11.4-0.9-22.9-2.8-34.1c-37-2-74.2,1.6-110.5,10.8C478.8,375.2,480.3,387.7,483.5,399.4z"/>
		<path fill="#29ABE2" stroke="#0071BC" stroke-miterlimit="10" d="M482.4,359.8c2.9,0.1,5.7-0.6,8.6-1.3c31.6-7.4,64-8.1,96.1-8.8
			c-25.6-16.4-54.4-27.1-82.9-22.7c-8.4,1.3-16.6,3.9-24.9,5.5c-16.4,3.1-33,2.5-49.6,1.9c13.2,6.9,26.5,13.9,39.7,20.8
			C473.6,357.4,477.9,359.6,482.4,359.8z"/>
		<path fill="none" stroke="#0071BC" stroke-width="3" stroke-miterlimit="10" d="M277.1,343.3c1.1-19.4,0.2-39-2.6-58.1
			c-1-7-2.4-14.2-5.5-20.2c-3.1-6-8.2-10.8-13.9-10.9"/>
		<path fill="none" stroke="#0071BC" stroke-width="3" stroke-miterlimit="10" d="M420.8,331c-0.4-14.3-0.7-28.6-1.1-42.8
			c-0.2-8-0.4-16.1-2.7-23.6c-2.2-7.5-6.9-14.3-13.1-16.1"/>
		<path fill="#29ABE2" stroke="#0071BC" stroke-miterlimit="10" d="M145.3,383.6c5.8,2,12,1.8,17.9,0.1c7.3-2.1,18.1-4.5,25.1-1.5
			c-12.8-10.1-37.4-25.5-56.5-33.9c-6.5-2.9-17-2.8-23.8-1.9c-8.2,1.1-15.9,7.4-24.1,6C100.3,365.5,120.8,375.1,145.3,383.6z"/>
		<path fill="#29ABE2" stroke="#0071BC" stroke-miterlimit="10" d="M188.3,382.3c-13.8,0.9-23.1-0.2-36.7,2.9
			c5.1,39.6,1.8,81.7,1.3,121.8c13.9-5.9,35.6-3.2,50.1-6C199.9,463.2,193.7,421.6,188.3,382.3z"/>
		<path fill="#29ABE2" stroke="#0071BC" stroke-miterlimit="10" d="M627.9,330.8c-11.3,1.9-22.7,3.4-34,4.7c0,35.6,0,71.3,0.1,106.9
			c10.4,1.7,21.2,0,30.9-5.1C625.9,401.8,626.9,366.3,627.9,330.8z"/>
		<path fill="#29ABE2" stroke="#0071BC" stroke-miterlimit="10" d="M608,324.4c-4.5-1.4-9.1-2.2-13.7-3c-7.3-1.3-14.6-3.1-22-3.9
			c-16.2-1.7-32.1-7.4-32.1-7.4s-19.6,2.8-32.6,5.3c19.3,9.1,39.7,13.9,59.9,18.6c19.6,4.6,40.4,9.1,59,0
			C620.7,329.7,614.4,326.5,608,324.4z"/>
	</g>
</g>
<g id="Karl">
	<g id="Layer_16">
		<path fill="#FFFFFF" stroke="#000000" stroke-width="2" stroke-miterlimit="10" d="M319.6,460.2c-0.6,2.4-0.4,5,0.5,7.2
			c1.4,0,2.9,0.5,3.8,1.6c0.9,1.1,0.9,2.9-0.1,3.9c-1,1-3,0.7-3.5-0.7c0.2,1.3,0.3,2.6,0.1,3.9c-1.8,0.2-3.4-1.9-2.7-3.6
			c0.4,1.8-0.9,3.9-2.7,3.9c-1.8,0-3-2.7-1.5-3.7c0,1.8-2.1,3.3-3.8,2.7c-1.7-0.6-2.4-3.1-1.2-4.5c0.4-0.4,0.8-0.7,1.2-1.1
			c1.5-1.6,1.1-4,0.7-6.1"/>
		<path fill="#FFFFFF" stroke="#000000" stroke-width="2" stroke-miterlimit="10" d="M288.4,467.9c0.3,0.2,0.3-0.5,0-0.5
			c-0.3,0-0.5,0.3-0.6,0.6c-0.7,2.6,0.1,5.5,2.1,7.2c1,0.9,2.3,1.7,2.3,3c0,1.3-1.6,2.2-2.9,1.9C288,480,287,479,286,478
			c0.7,0.9,1.4,1.9,1.6,3c0.2,1.1-0.3,2.4-1.4,2.8c-1.2,0.4-2.5-0.5-2.9-1.7c-0.4-1.2-0.2-2.5,0-3.7c-0.7,0.8-1,2-1.5,2.9
			c-0.5,1-1.5,1.9-2.6,1.6c-1-0.3-1.4-1.6-1.2-2.6c0.3-1,1-1.8,1.7-2.6c-0.5,1.2-1.1,2.5-2.1,3.3c-1,0.8-2.7,1-3.6,0
			c-0.9-1.1-0.4-2.9,0.6-3.9c1-1.1,2.3-1.9,3.1-3.1c0.8-1.2,0.6-3.3-0.8-3.7"/>
	</g>
	<g>
		<path fill="#0071BC" stroke="#2E3192" stroke-width="2" stroke-miterlimit="10" d="M324.6,458.7c-7.2,5.9-17.8,3.8-26.8,1.3
			c-1.4-23.7-2.9-47.5-4.3-71.2c-0.2-3-0.4-6.1-1.7-8.9c-3.4-7-12.3-8.9-19.9-9.9c10.3,4.1,21.8,9.5,25.2,20c1.4,4.5,1.2,9.3,0.9,14
			c-1,17.1-2,34.1-3,51.2c-0.1,2-0.2,4-0.9,5.9c-2.9,8.1-13.7,9.2-22.3,8.9c-2.2-0.1-4.6-0.2-6.2-1.8c-1.2-1.3-1.5-3.1-1.7-4.8
			c-1.9-14.5-2.6-29.1-1.9-43.7c0.3-7.2,0.2-16-6.2-19.4c-2-1.1-4.4-1.4-6.7-1.6c-4.9-0.6-9.8-1.1-14.7-1.7c-4.3-0.5-8.7-1-12.7-2.7
			c-8.4-3.6-13.8-11.7-18.6-19.4c-2.4-3.7-4.8-7.8-4.6-12.2c0.4-7.8,8.8-12.4,16.1-15.3c14.6-5.7,29.9-10.6,45.5-10.4
			c10.8,0.1,23,3.9,27.3,13.8c-2.1-0.8-3.9,2.5-2.7,4.5c1.2,2,3.7,2.6,5.9,3.1c8.5,1.8,17,3.5,25.5,5.3c4.8,1,9.9,2.2,13.4,5.7
			c4,4.1,4.6,10.4,4.9,16.1c1,18.6,1.1,37.4-1.9,55.8C331.3,447.7,329.6,454.6,324.6,458.7z"/>
		<path fill="none" stroke="#2E3192" stroke-width="2" stroke-miterlimit="10" d="M261.2,398.6c3-1.5,6.1-3,9.1-4.5
			c-3.3,1-6.2,3.6-7.6,6.8c2-3.4,5.5-5.9,9.3-6.6c0.5-0.1,1.2-0.1,1.4,0.4c0.2,0.5-1,0.5-0.7,0.1"/>
		<path fill="none" stroke="#2E3192" stroke-width="2" stroke-miterlimit="10" d="M300.7,384.1c3.1-0.1,6.1-2.1,7.6-4.9
			c-1.5,2.7-3.7,5-6.4,6.7c3.3,0,6.6,0.1,10,0.1c-1.4,1.3-3.2,2.2-5.1,2.4"/>
		<path fill="none" stroke="#2E3192" stroke-width="2" stroke-miterlimit="10" d="M237.1,370.9c-3.1-0.1-5.8,2.2-7.3,4.8
			c-1.5,2.7-1.9,5.8-2.3,8.8c6.9-10.9,19.6-18,32.5-18.1c-9.9,0.6-20.5,1.4-28.3,7.6c4.9-5.2,10.6-10.7,17.8-11.1
			c-9.8,2.4-19.6,4.7-29.4,7.1c1.6,0.4,3.3,0.2,4.7-0.7c-1,0.6-2.1,1.2-3.1,1.8"/>
		<path fill="none" stroke="#2E3192" stroke-width="2" stroke-miterlimit="10" d="M274.6,467.5c-0.6-18.5-1.2-37.1-1.8-55.6
			c-0.1-4.4-0.4-9.1-2.9-12.7c-2-2.8-5.2-4.6-8.4-5.9c-11.4-4.7-24.1-5.3-35.7-9.5c-11.6-4.2-22.8-14-22.2-26.3"/>
		<path fill="none" stroke="#2E3192" stroke-width="2" stroke-miterlimit="10" d="M305.2,459.7c0.8-8.9,1.7-17.9,2.5-26.8
			c1.3-13.4,2.5-27.2-1-40.2c-0.4-1.6-1-3.2-2-4.5c-0.9-1.2-2.3-2-3.6-2.8c-3.7-2.2-7.6-4.1-11.6-5.8"/>
		<path fill="none" stroke="#2E3192" stroke-width="2" stroke-miterlimit="10" d="M274.5,356.7c3.8-1.9,8-2.9,12.2-2.7
			c-5.3,0-10.6,1.5-15,4.3c4.8,0,9.6,0,14.4,0"/>
	</g>
	<g>
		<g>
			<defs>
				<polygon id="SVGID_2_" points="125.5,238.4 273.8,235.2 318.1,362.8 169.9,366 				"/>
			</defs>
			<clipPath id="SVGID_3_">
				<use xlink:href="#SVGID_2_"  overflow="visible"/>
			</clipPath>
			<g clip-path="url(#SVGID_3_)">
				<defs>
					<polygon id="SVGID_4_" points="90.2,171.1 250.2,167.6 373.2,521.1 213.2,524.6 					"/>
				</defs>
				<clipPath id="SVGID_5_">
					<use xlink:href="#SVGID_4_"  overflow="visible"/>
				</clipPath>
				<path clip-path="url(#SVGID_5_)" fill="#AF1E30" d="M241.6,345.2c0.7-0.2,1.3,0.4,2,0.6c4.3,1.6,8.6,2.9,13,3.6
					c0.2,0,0.5,0.1,0.7,0.1c0.4,0.1,0.8,0.1,0.9,0.5c0.1,0.5-0.4,0.4-0.8,0.4c-1.3-0.1-2.7-0.2-4-0.4c-6-0.6-12-1.5-18-3
					c-7-1.8-13.8-4.1-20.2-7.4c-1.4-0.7-2.8-1.4-4.2-2.2c-1-0.5-0.6,0.1-0.6,0.3c-2.6-1.8-4.9-3.9-7.2-5.9
					c-9.1-8.4-16.9-17.3-23.6-26.6c-2.2-3.1-4.3-6.2-6.2-9.3c-1.1-1.7-2-3.6-2.6-5.5c-0.5-1.6-1.3-3.1-2.1-4.7
					c-7.1-12.6-4-10-5.4-21.4c-2.6,1.3-1.9-2-1.3-4.5c-1.9-12.7,6.1-21,17.6-17.6c2,0,5.2,5.5,8.1,6.7c-6.2-1.8-14.1-2.5-15.1,2
					c-2.2,9.6-4.6,18.9,0.4,31.2c0.8,1.8,1.6,3.5,2.5,5.3c2.7,5.5,5.9,10.9,9.6,16.2c1.9,2.8,4,5.5,7.1,7.9c0.7,0.6,1.6,1.2,1.7,2
					c-1.4-0.9-2.1-2.2-3.9-3c0.2,0.7,0.6,1.1,1.1,1.6c2.1,2,4.2,4.1,6.4,6.1c10.3,9,21.9,16.9,34.9,23.5c2.6,1.3,5.2,2.6,8,3.6
					C240.7,345.5,241.5,346,241.6,345.2 M190.8,318.2c-0.1,0.5,0.2,0.7,0.4,0.9c2.1,2.4,4.6,4.7,7.1,6.8c3.4,2.9,6.5,6.1,10.9,8.4
					c3,1.5,6,2.7,9.3,3.4c0.4,0.1,0.9,0.2,1.1-0.1c0.2-0.3-0.2-0.6-0.5-0.9c-0.3-0.3-0.7-0.5-1.1-0.7c-3.4-2.1-7.1-3.7-10.6-5.7
					c-4.2-2.3-8-5-11.5-7.9C194.2,321.2,192.6,319.8,190.8,318.2"/>
				<path clip-path="url(#SVGID_5_)" fill="#AF1E30" d="M199.9,330.2c-1.3-0.2-1.7-1.2-2.4-1.8c-2.7-2.6-6-4.7-9.4-6.7
					c-0.7-0.4-1.5-0.6-2.1-0.3c-0.6,0.3-0.4,0.8-0.2,1.3c0.6,1.7,1.9,3.1,3.2,4.5c3.8,3.9,8,7.7,12.5,11.3c4,3.2,8.6,5.5,13.6,7.4
					c9,3.5,18.1,5.9,27.4,8.1c2.9,0.7,5.8,1.3,8.7,1.7c2.3,0.3,4.3,0,6.4-0.3c1.4-0.2,2.8-0.5,4.3-0.2c0.4,0.1,0.8-0.1,0.9,0.4
					c0.1,0.4-0.2,0.4-0.6,0.5c-1.6,0.2-3.1,0.5-4.7,0.7c-2.9,0.4-5.8,0.4-8.9,0.4c-4-0.1-8-0.3-11.9-0.5c-5.7-0.3-11.5-1-17.2-1.9
					c-5.8-0.9-11.6-2-17.3-2.9c-1.4-0.2-2.9-0.5-4.3-0.5c-0.8,0-1,0.2-0.5,0.8c1.8,2.2,3.9,4.2,6.2,6.2c0.5,0.5,1.4,0.5,1.8,1
					c-1.7,0.1-3.4,0.1-5.1,0.2c-0.9,0-1.4-0.2-1.8-0.9c-2.1-3.4-3.6-6.9-4.6-10.3c4.2-0.3,8.7,0.8,13,1.1c-4.3-1.5-8.6-2.8-12.9-4.2
					c-0.6-0.2-0.8-0.1-0.7,0.4c0.1,0.5,0.6,1,0.1,1.4c-1-1.6-1-3.3-2.4-4.9c0.3,0,0.6,0.2,0.7,0.4c0.5,0.9,1.5,1.1,2.5,1.4
					c3.4,1,6.8,1.9,10.1,2.9c6.4,1.9,12.8,3.7,19.2,5c0.3,0.1,0.7,0.2,1-0.1c-0.9-0.6-1.9-0.9-2.9-1.2c-4.6-1.2-9.2-2.5-13.7-4
					c-3.3-1.1-6.4-2.5-9.1-4.6c-4.4-3.4-8.2-7.2-11.8-11.1c-0.6-0.6-0.9-0.6-1.3-0.2c-0.6-0.9-1-1.9-0.9-2.8
					c0.3-2.7-0.3-5.5-2.1-8.3c-1.2-1.8-1.2-3.5-1.3-5.3c0-1.1,0-2.3,0-3.4c0-0.3,0-0.6,0.4-0.7c0.5,0,0.6,0.4,0.8,0.6
					c2.1,2.6,4.1,5.2,6.2,7.8c3,3.6,6.3,7.1,9.9,10.4C199.2,329.3,199.5,329.7,199.9,330.2 M193.5,344.4c0.5,0.2,0.8,0.3,1.1,0.4
					c8.2,2.8,16.5,5.2,24.8,7.3c1.2,0.3,2.3,0.4,3.5,0.6c0.3,0,0.9,0.2,0.9-0.2c0-0.4-0.6-0.5-1-0.6c-1-0.2-2-0.4-2.9-0.6
					c-8.2-1.9-16.3-4.3-24.4-6.8C194.9,344.4,194.3,344.1,193.5,344.4 M182,311c-0.1,1.1-0.5,1.9,0.4,2.7c0.7,0.6,1.7,1.1,2.6,1.6
					c0.1,0.1,0.4,0.2,0.5,0.1c0.2-0.1,0.1-0.3,0-0.4C184.3,313.8,183.5,312.5,182,311"/>
				<path clip-path="url(#SVGID_5_)" fill="#AF1E30" d="M271.4,322.6c-0.9-0.7-0.6-1.5-1.2-2.3c-1.1-1.2-2.2-2.3-3.2-3.7
					c-0.6,0.6-0.5,1.2-0.5,1.8c-0.5,4.7-0.9,9.4-1.8,14c-0.5,2.4-1,4.7-1.9,7c-0.1,0.2-0.2,0.4-0.3,0.5c-0.4,0.3-0.4,1.1-1.4,0.7
					c-0.9-0.4-0.5-1-0.3-1.4c2.2-5.6,2.6-11.7,3.4-17.7c0.1-0.7,0.1-0.7-0.4-1.5c-0.6,1.2-1,2.3-1.6,3.3c-0.7,1.2-1,2.6-2.1,3.7
					c-0.2,0.2-0.2,0.5-0.6,0.4c-0.4-0.1-0.4-0.4-0.5-0.7c-0.3-0.8-0.2-1.5-0.2-2.3c0.5-6.3,1-12.6,1.4-19c0.3-4.1,0.3-8.3-0.4-12.5
					c-0.7-3.9-1.8-7.9-3.2-11.8c-0.5-1.3-1-2.6-1.5-4c-4.2-8.3-9.9-15.8-12.7-24c4.3,5,8.2,10.6,11.2,16.3c0.3-0.6,0-2.1-0.2-2.7
					c2.8,5,5.3,10.2,6.2,15.1c0.5,1.5,0.9,3,1.4,4.5c0.9,3,1.9,6,2.7,8.9c0.8,2.8,1.8,5.7,2.1,8.5c0.3,3.6-0.3,7-0.6,10.6
					c-0.5,6.9-0.9,13.7-2.5,20.3c-0.3,1.4-0.8,2.8-1.2,4.3c-0.1,0.2-0.4,0.4,0.1,0.6c0.5,0.2,0.5-0.1,0.6-0.3
					c0.4-0.3,0.4-0.7,0.5-1.1c2-6.6,2.5-13.6,3.3-20.6c0.3-2.3,0.5-4.5,0.8-6.8c0.1-0.5,0.1-1.1,0.5-1.6c0.5,0.6,0.8,1.1,1,1.7
					c1.5,3.9,2.6,7.8,3.2,11.6C271.5,322.4,271.4,322.5,271.4,322.6"/>
				<path clip-path="url(#SVGID_5_)" fill="#C90010" d="M206.8,254.5c-1.7,0-3.5,0.1-5.1-0.1c-1.6-0.2-3.4-0.9-4.9-1.3
					c-5.9-1.5-14.1-5.7-15.4-10.8c-0.9-7,8.8,4.9,13.4,5.8c1.6,0.8,3.2,1.4,4.8,1.8c4.8,1.2,9.5,0.7,13-1.6c1.5-0.9,2.8-2,4-3.1
					c1.2-1.2,2.1-2.4,2.9-3.9c0.8-1.7,2.6-2.4,3.9,0.1c2.8,3.8-1.2,3.8-1.3,6.4c-1.1,1.5-2.5,2.7-4.2,3.7c-1.7,1-3.7,1.8-6.1,2.4
					C210.3,254.3,208.6,254.5,206.8,254.5"/>
				<path clip-path="url(#SVGID_5_)" fill="#AF1E30" d="M262,262.3c-0.9-0.5-2.5-1.4-3.4-2.7c3.6,8.8,12,15.6,13.5,25.1
					c0.5,1.6,0.9,3.1,1.3,4.7c0.4,1.6,0.8,3.1,1.4,4.7c0.1,0.3,0.1,0.5-0.2,0.6c-0.3-0.5-0.3-1-1-1.4c-0.5,0.2-0.3,0.5-0.2,0.8
					c0.3,1.2,0.6,2.4,1,3.6c0.9,2.3,0.2,3.8-2.2,4.7c-1.3,0.5-2.7,0.8-4.3,0.9c-0.9,0.1-1.4-0.2-1.4-0.9c-0.4-3.8-1.9-7.6-3.1-11.4
					c-0.5-1.4-0.9-2.9-1.4-4.3c-0.5-1.4-0.9-2.9-1.4-4.3c-0.4-3.2-4-9.5-5.1-12.6c2.6,3.1,3.3,8.2,6.7,9.4c-1-4.4-1.7-10.8-5.6-13.2
					c-1.4-1.2-1.4,3.2,0,5.7c-2.1-3.1-2-5.7-0.1-7.6c3,4.4,5.3,9.4,6,14c0.1,2.2,0.1,4.4,0.1,6.5c0,0.2,0,0.5,0.1,0.7
					c0.1,0.2,0.2,0.5,0.5,0.5c0.3,0,0.4-0.2,0.4-0.4c0-1.2,0.2-2.4,0-3.6c-0.6-6.6-2.1-12.1-6.1-17.8c0.1-2.3-2.3-5.9,0.2-6.3
					C258.9,258.7,261.2,261.5,262,262.3 M267.9,296.9c0.4,1.1,0.7,2.3,1.2,3.4c0.3,0.7,0.1,1.8,1.1,2.2c1.1,0.4,1.9-0.4,2.7-0.8
					c1-0.6,1.9-1.4,1.5-2.6c-0.5-1.8-1.2-3.5-1.6-5.3c-0.3-1.4-0.8-2.8-1.2-4.2c-0.4-1.4-0.9-2.8-1.4-4.2
					c-2.5-6.9-5.4-15.1-11.3-20.7c2.8,5,5,10.1,5.3,15.4c0.1,2.3-0.1,4.6,0.6,6.9C265.9,290.4,266.5,293.6,267.9,296.9 M273.1,291.3
					c-0.6-1.9-1.1-3.9-1.7-5.8c-1.2-5.7-4.6-12.7-8.9-17.7c4.5,5.6,6.5,11.3,8.5,17.7C271.6,287.4,272.3,289.4,273.1,291.3"/>
				<path clip-path="url(#SVGID_5_)" fill="#AF1E30" d="M185.7,240.6c2.6-0.4,6.1,1.3,8.7,1.7c1.4,0.2,2.8,0.3,4.2,0.3
					c5.7,0.3,11.3-0.3,16.7-1.3c1.1-0.2,2.2-0.4,3.3-0.7c-0.6,1.2-1.3,2.3-2.2,3.1c-0.9,0.8-2.1,1.5-3.7,1.8
					c-4.3,0.9-8.9,1.1-13.6,0.7c-1.6-0.1-3.2-0.3-4.9-0.6c-1.9-0.3-3.5-1-4.8-1.8C188,242.9,186.9,241.8,185.7,240.6"/>
				<path clip-path="url(#SVGID_5_)" fill="#AF1E30" d="M213.3,246.3c-2.5,2.8-8.5,3.7-13.5,2.7c-2.5-0.5-4.8-1.5-6.2-2.9
					c1.8,0.4,3.5,0.6,5.1,0.7c1.6,0.1,3.3,0.1,4.9,0.1C206.8,246.8,209.9,246.6,213.3,246.3"/>
				<path clip-path="url(#SVGID_5_)" fill="#C90010" d="M256.6,271.6c-1.2-2.3-1.4-6.3-0.2-6c4.9,2.4,5.6,9.8,6,13.7
					c-3.2-0.6-3.1-3.2-5.6-7.2C256.7,271.9,256.7,271.8,256.6,271.6"/>
				<path clip-path="url(#SVGID_5_)" fill="#C90010" d="M193.3,346.9c0.5-0.4,0-0.9-0.1-1.4c-0.1-0.5,0.1-0.6,0.7-0.4
					c4.3,1.4,8.6,2.7,12.9,4.2c-4.3-0.3-8.8-1.5-13-1.1C193.6,347.8,193.5,347.3,193.3,346.9"/>
				<path clip-path="url(#SVGID_5_)" fill="#AF1E30" d="M271.2,305.9c-1-0.2-2.1-0.1-3.2-0.4c-0.4-0.1-0.8-0.3-0.9-0.7
					c0-0.4,0.3-0.5,0.7-0.5c2.7,0,4.8-0.8,6.7-1.9c0.3-0.2,0.6-0.4,1.1-0.2c0.4,0.3,0.2,0.6,0.2,0.9
					C275.2,304.8,273.5,305.5,271.2,305.9"/>
				<path clip-path="url(#SVGID_5_)" fill="#AF1E30" d="M265.2,347.4c-0.8,0.1-0.8,0.1-0.7-0.5c0.1-1.4,0.8-2.5,1.4-3.7
					c2-4.7,3.8-9.4,5.1-14.3c0.3-1.1,0.7-2.1,0.4-3.3c-0.1-0.2,0.1-0.3,0.3-0.4c0.5,1.4,0.1,2.7-0.2,3.9c-1.4,5.5-3.6,10.7-5.7,15.9
					C265.4,345.8,264.9,346.5,265.2,347.4"/>
				<path clip-path="url(#SVGID_5_)" fill="#AF1E30" d="M162.8,263.7c2-1.4,1.9-4.6,3.2-6.5c0.1,3.2,0.7,6.3-1.7,7.6
					C163.7,264.5,163.1,264.3,162.8,263.7"/>
				<path clip-path="url(#SVGID_5_)" fill="#C90010" d="M254.9,263c-0.5,0.6-0.3,1.2-0.5,1.9c-2.2-1.9-3.8-3.7-3-5.7
					c0.8-0.7,1.9,1.2,3.1,2.1C254.9,262,254.5,262.2,254.9,263"/>
				<path clip-path="url(#SVGID_5_)" fill="#AF1E30" d="M218.7,252.2c0.3,0.5-0.3,0.6-0.6,0.7c-3.6,1.8-7.9,2.8-12.7,2.6
					c-1.8-0.1-3.6-0.3-5.4-0.6c-1.8-0.4-3.6-0.9-5.4-1.5c-0.4-0.1-0.8-0.2-0.8-0.6c1.7,0.5,3.3,1,4.9,1.4c1.6,0.4,3.3,0.7,4.9,0.9
					c5.4,0.5,9.9-0.5,14-2.3C217.9,252.5,218.3,252.4,218.7,252.2"/>
				<path clip-path="url(#SVGID_5_)" fill="#AF1E30" d="M164,257.7c-0.6,2.1-1.1,3.4-2,5.3c-2.2-1.9,1.1-2.6,1.2-3.5
					C163.5,258.9,163.6,258.3,164,257.7"/>
				<path clip-path="url(#SVGID_5_)" fill="#C90010" d="M165.6,255c-0.4-1.6-0.1-2.3,1.4-2.3c-0.1,1.3-0.3,1.9-1.2,2.4
					C165.7,255.1,165.7,255,165.6,255"/>
				<path clip-path="url(#SVGID_5_)" fill="#AF1E30" d="M225.6,242.2c-0.2,1.7,0.1,4.2-1.9,5C224.4,245.5,225,243.9,225.6,242.2"/>
				<path clip-path="url(#SVGID_5_)" fill="#AF1E30" d="M189.3,250.6c-1.3-0.2-3.2-1.5-3.7-2.5C186.9,249,188.1,249.8,189.3,250.6"
					/>
				<path clip-path="url(#SVGID_5_)" fill="#AF1E30" d="M220.6,250.9c0,1-0.9,1.3-2,1.4C219.3,251.8,220,251.3,220.6,250.9"/>
				<path clip-path="url(#SVGID_5_)" fill="#AF1E30" d="M223.7,247.2c0.3,0.9-0.1,1.4-1.1,1.7C222.9,248.3,223.3,247.7,223.7,247.2"
					/>
				<path clip-path="url(#SVGID_5_)" fill="#AF1E30" d="M222.1,249.5c0.2,0.8-0.2,1.2-1.2,1.2C221.2,250.2,221.6,249.8,222.1,249.5"
					/>
				<path clip-path="url(#SVGID_5_)" fill="#C90010" d="M164.7,256.1c0,3-2.8,3.7-2,7.5c2.1-1.3,2-4.5,3.2-6.6
					C165.7,256.5,165.4,255.8,164.7,256.1"/>
				<path clip-path="url(#SVGID_5_)" fill="#C90010" d="M178.9,306.8L178.9,306.8L178.9,306.8c-1.3-2.1-2.8-4.1-4.6-6.1
					c0.3,1.9,1.4,3.8,2.3,5.6c0.3,0.3,0.8,0.4,1.2,0.4C178.3,307.4,178.7,307.4,178.9,306.8C178.9,306.8,178.9,306.8,178.9,306.8"/>
				<path clip-path="url(#SVGID_5_)" fill="#AF1E30" d="M192.7,252.4c-0.4,0-0.9,0-1-0.4C192.1,252,192.4,252.1,192.7,252.4"/>
				<path clip-path="url(#SVGID_5_)" fill="#AF1E30" d="M193.7,252.8c-0.4,0.1-0.8,0.1-1-0.4C193.1,252.4,193.4,252.5,193.7,252.8"
					/>
				<path clip-path="url(#SVGID_5_)" fill="#AF1E30" d="M191.3,251.7c-0.5,0-0.9,0-1-0.5C190.7,251.3,191.1,251.5,191.3,251.7"/>
				<path clip-path="url(#SVGID_5_)" fill="#C90010" d="M172.1,303.8c-1.6-2.8-2.6-5.6-3.7-8.4c-0.8-2-1.7-4.1-2.5-6.1
					c-0.8-2-1-3.9-1.8-6.1c-1.7-6-3.3-11.9-1.3-16.3c-0.2-0.6-1.5-2.2-2-2.2c-4.8,2-2.8,8.3-5.9,10.9c-1.1,1.3-3.1,7.4,0.4,10.3
					c2.1,1.3,4.7,2.4,6.6,3.9c1.5,1.2,1.5,1.8,0.4,2.7c-0.9,0.6-2,1.2-2.6,1.9c-1.8,2.1-4.2,4.2-1.1,7.6c0.1,0.1,0.1,0.2,0.2,0.3
					c0.2,0.9,0.8,1.6,1.6,2.3c0.3,0.1,0.6,0.1,0.9,0.1c0.2,0.3,0.5,0.3,0.8,0.2c-0.1-0.1-0.2-0.2-0.3-0.2c-0.1,0-0.1,0-0.2-0.1
					c0.1,0,0.1,0,0.2,0.1c0.1,0,0.2,0.1,0.3,0.2c0.3,0,0.6,0.1,0.8,0.1c0.4,0.3,0.8,0.1,1.2,0.1c0.6,0,1.3,0.1,1.9,0.1
					c0.2,0,0.4,0,0.6,0c1.6,0,3.2-0.1,4.9-0.1C171.5,304.6,172.6,304.6,172.1,303.8"/>
				<path clip-path="url(#SVGID_5_)" fill="#C90010" d="M221.5,350.4c-4.6-1.2-9.2-2.5-13.7-4c-3.3-1.1-6.4-2.5-9.1-4.6
					c-4.4-3.4-8.2-7.2-11.8-11.1c-0.6-0.6-0.9-0.6-1.3-0.2c0.1,0.1,0.2,0.3,0.3,0.4c0.5,1.1,1.4,2,2.3,3c0.6,0.8,1.1,1.5,1.6,2.3
					c0,0.1,0.1,0.3,0.1,0.4c0.1,0.6,0.2,1.1,0.2,1.7c-0.2,0.1-0.1,0.3,0,0.4c-0.1,1.1-0.2,2.1,0.8,3.2c0.3,0,0.6,0.2,0.7,0.4
					c0.5,0.9,1.5,1.1,2.5,1.4c3.4,1,6.8,1.9,10.1,2.9c6.4,1.9,12.8,3.7,19.2,5c0.3,0.1,0.7,0.2,1-0.1
					C223.5,351.1,222.5,350.7,221.5,350.4"/>
				<path clip-path="url(#SVGID_5_)" fill="#C90010" d="M286.1,301.4c0.2,0,0.4-0.1,0.5-0.2c0.5,0,1.1-0.2,1.5-0.4
					c1.7-0.5,3.6-0.8,4.9-1.8c0.4-0.2,0-1.1-0.5-1.5c-0.1-0.1-0.2-0.3-0.2-0.4c-0.4-0.8-1-1.6-2.2-1.2c-3.8,1.1-7.8,2-11.6,3
					c-0.4,0-0.4,0-0.7,0c0.1-0.4,0.1-0.4,0.6-0.6c1.2-0.3,2.6-0.3,3.8-0.6c2.4-0.6,4.9-1.5,7.2-2.2c0.6-0.2,1.7,0,0.8-1.3
					c-1.2-1.7-2.3-3.5-3.7-5.1c-0.2-0.5-0.5-0.9-1-1.3c0-0.2-0.1-0.3-0.3-0.4c-1-1.3-1.9-2.5-2.9-3.8c-1-1.3-1.9-2.5-2.9-3.8
					c-5.9-9-13.9-15.3-21.6-21.5c6.3,14,12.8,17,14.2,26.3c0.5,1.6,0.9,3.1,1.3,4.7c0.4,1.6,0.8,3.1,1.4,4.7
					c0.1,0.3,0.1,0.5-0.2,0.6c0.3,1,0.7,2,1,3c0.3,0.2,0.6,0.3,0.9,0.3c-0.3-0.1-0.6-0.2-0.9-0.3c0.4,1.4,0.5,3.5,1,4.9
					c0.3,0.7,0.7,0.6,1.5,0.2c0.3,0,0.7,0.3,1,0.2"/>
				<path clip-path="url(#SVGID_5_)" fill="#C90010" d="M283.7,301.4c0.2,0,0.4,0,0.5-0.1"/>
				<path clip-path="url(#SVGID_5_)" fill="#99041D" d="M241.6,345.2c-0.1,0.8-0.9,0.3-1.4,0.1c-2.8-1-5.4-2.3-8-3.6
					c-13-6.6-24.5-14.5-34.9-23.5c-2.3-2-4.3-4-6.4-6.1c-0.4-0.4-0.9-0.9-1.1-1.6c1.8,0.8,2.5,2.2,3.9,3c0,0,0,0,0,0
					c0.4,0.6,0.9,1.1,1.6,1.5l0,0c0.4,0.6,0.9,1.1,1.6,1.5c0,0,0,0,0,0c0.4,0.5,0.9,1.1,1.6,1.5l0,0c0.1,0.3,0.4,0.5,0.8,0.6l0,0
					c0.1,0.3,0.4,0.5,0.8,0.6c0,0,0,0,0,0c0.2,0.3,0.4,0.5,0.8,0.6c0,0,0,0,0,0c0.8,0.8,1.7,1.6,2.8,2.3c0,0,0,0,0,0
					c0.2,0.4,0.6,0.6,1.1,0.8c0,0,0,0,0,0c0.3,0.4,0.6,0.6,1.1,0.8l0,0c0.3,0.4,0.6,0.6,1.1,0.8c0,0,0,0,0,0
					c0.2,0.3,0.4,0.5,0.8,0.6l0,0c0.3,0.4,0.6,0.6,1.1,0.8l0,0c0.3,0.5,0.9,0.8,1.5,1.1c0.1,0.1,0.2,0.1,0.3,0.2
					c0.3,0.3,0.7,0.6,1.2,0.8c0.1,0.1,0.2,0.1,0.3,0.2c0.4,0.4,0.9,0.8,1.5,1.1c0.1,0.1,0.2,0.1,0.3,0.2c0.4,0.4,0.9,0.8,1.5,1
					c0.3,0.2,0.6,0.4,0.9,0.6c0.8,0.6,1.6,1.2,2.6,1.7c0.3,0.2,0.6,0.4,1,0.6c1.2,0.9,2.5,1.7,3.9,2.3c1.1,0.7,2.2,1.4,3.5,2
					c0.5,0.4,1,0.7,1.7,0.9c0.3,0.2,0.7,0.4,1,0.5c0.4,0.3,0.8,0.5,1.3,0.7c0.3,0.2,0.7,0.4,1,0.5c0.2,0.3,0.6,0.4,1,0.5
					c0.1,0,0.2,0.1,0.3,0.1c0.3,0.2,0.6,0.4,1,0.5c0.1,0,0.2,0.1,0.3,0.1c0.3,0.2,0.6,0.4,1,0.5c0.1,0.1,0.2,0.1,0.3,0.2
					c0.3,0.2,0.6,0.4,1,0.5c0.4,0.2,0.9,0.4,1.3,0.6c0.3,0.2,0.6,0.4,1,0.5c0.1,0,0.2,0.1,0.3,0.1c0.3,0.2,0.6,0.4,1,0.5
					C241,344.8,241.3,345,241.6,345.2"/>
				<path clip-path="url(#SVGID_5_)" fill="#C90010" d="M255.3,264.4c0.5,0,1.8-2.6,1.8-2.6l-1.5-4.9c-0.2-0.3-0.2-0.6-1-1.1
					c-8.4-9.9-19.3-16.7-27.9-14c-3.1,1.3-2.8,6.9-5.9,8.8c-0.1,0.1-0.1,0.1-0.2,0.2c0,1-0.9,1.3-2,1.4c0,0,0,0,0,0
					c0.3,0.5-0.3,0.6-0.6,0.7c-3.6,1.8-7.9,2.8-12.7,2.6c-1.8-0.1-3.7-0.7-5.5-1c-1.8-0.4-3.6-1.5-5.4-2.2c-8.8-6.1-20-10-22.6-1.6
					c-2.9,7.7-3.9,19.2,1.1,31.5c0.8,1.8,1.6,3.5,2.5,5.3c2.7,5.5,5.9,10.9,9.6,16.2c1.9,2.8,4,5.5,7.1,7.9c0.7,0.6,1.6,1.2,1.7,2
					l0,0h0c0.4,0.6,0.9,1.1,1.6,1.5l0,0l0,0c0,0,0,0,0,0c0.4,0.6,0.9,1.1,1.6,1.5l0,0h0c0.4,0.5,0.9,1.1,1.6,1.5c0,0,0,0,0,0
					c0.1,0.3,0.4,0.5,0.8,0.6l0,0c0,0,0,0,0,0l0,0c0.1,0.3,0.4,0.5,0.8,0.6l0,0l0,0c0.2,0.3,0.4,0.5,0.8,0.6l0,0c0,0,0,0,0,0
					c0.8,0.8,1.7,1.6,2.7,2.3c0,0,0,0,0,0l0,0l0,0c0.2,0.4,0.6,0.6,1.1,0.8c0,0,0,0,0,0c0.3,0.4,0.6,0.6,1.1,0.8c0,0,0-0.1,0-0.1
					c0,0,0,0.1,0,0.1l0,0h0l0,0l0,0c0.3,0.4,0.6,0.6,1.1,0.8l0,0h0c0.2,0.3,0.4,0.5,0.8,0.6c0,0,0,0,0,0l0,0
					c0.3,0.4,0.6,0.6,1.1,0.8c0,0,0,0,0,0l0,0c0.3,0.5,0.9,0.8,1.5,1.1c0-0.1,0-0.2-0.1-0.2c0,0.1,0.1,0.1,0.1,0.2
					c0.1,0.1,0.2,0.1,0.3,0.2h0c0.3,0.3,0.7,0.6,1.2,0.8c0,0,0-0.1,0-0.1c0-0.1-0.1-0.2-0.1-0.3c0,0.1,0.1,0.2,0.1,0.3
					c0,0,0,0.1,0,0.1l0.3,0.2h0c0.4,0.4,0.9,0.8,1.5,1.1c0.1,0.1,0.2,0.1,0.3,0.2c0.4,0.4,0.9,0.8,1.5,1c0.3,0.2,0.6,0.4,0.9,0.6h0
					c0.8,0.6,1.6,1.2,2.6,1.7c0.3,0.2,0.6,0.4,1,0.6l0,0c1.2,0.9,2.5,1.7,3.9,2.3c1.1,0.7,2.2,1.4,3.5,2c0.5,0.4,1,0.7,1.7,0.9
					c0.3,0.2,0.7,0.4,1,0.5c0.4,0.3,0.8,0.5,1.3,0.7c0.3,0.2,0.7,0.4,1,0.5c0.2,0.3,0.6,0.4,1,0.5c0.1,0,0.2,0.1,0.3,0.1
					c0.3,0.2,0.6,0.4,1,0.5c0.1,0,0.2,0.1,0.3,0.1c0.3,0.2,0.6,0.4,1,0.5c0.1,0.1,0.2,0.1,0.3,0.2c0.3,0.2,0.6,0.4,1,0.5
					c0.4,0.2,0.9,0.4,1.3,0.6c0.3,0.2,0.6,0.4,1,0.5c0-0.1-0.1-0.2-0.1-0.3c0.1,0.1,0.1,0.2,0.1,0.3c0.1,0,0.2,0.1,0.3,0.1h0
					c0.3,0.2,0.6,0.4,1,0.5c0.3,0.2,0.6,0.4,0.9,0.5c0.7-0.2,1.3,0.4,2,0.6c4.3,1.6,8.6,2.9,13,3.6c0.2,0,0.5,0.1,0.7,0.1
					c0.4,0.1,0.8,0.1,0.9,0.5c0.1,0.5-0.4,0.4-0.8,0.4c-1.3-0.1-2.7-0.2-4-0.4c-6-0.6-12-1.5-18-3c-7-1.8-13.8-4.1-20.2-7.4
					c-1.4-0.7-2.8-1.4-4.2-2.2c-1-0.5-0.6,0.1-0.6,0.3c0.3,0.3,0.6,0.5,0.9,0.7c1.2,1,2.9,1.8,3.8,3c-1.3-0.1-2-1.1-3.1-1.5
					c-0.1-0.1-0.2-0.1-0.3-0.2c-0.4-0.4-1-0.8-1.5-1c-0.1-0.1-0.2-0.1-0.3-0.2c-0.3-0.3-0.7-0.6-1.2-0.8l0,0
					c-0.2-0.4-0.6-0.6-1.1-0.8c0,0,0,0,0,0c-0.2-0.3-0.4-0.5-0.8-0.6l0,0c-0.2-0.3-0.4-0.5-0.8-0.6l0,0c-0.2-0.3-0.4-0.5-0.8-0.6
					l0,0c-0.2-0.3-0.4-0.5-0.8-0.6l0,0c-0.2-0.3-0.4-0.5-0.8-0.7c-0.1-0.1-0.3-0.2-0.4-0.4c-0.2-0.3-0.4-0.5-0.8-0.6l0,0
					c-0.3-0.4-0.7-0.8-1.2-1.1c-0.1-0.1-0.3-0.2-0.4-0.4c-0.2-0.3-0.4-0.5-0.8-0.7c-0.1-0.1-0.3-0.2-0.4-0.4
					c-1.3-0.2-1.7-1.2-2.4-1.8c-2.7-2.6-6-4.7-9.5-6.7c-0.7-0.4-1.5-0.6-2.1-0.3c-0.6,0.3-0.4,0.8-0.2,1.3c0.6,1.7,1.9,3.1,3.2,4.5
					c3.8,3.9,8,7.7,12.5,11.3c4,3.2,8.6,5.5,13.6,7.4c9,3.5,18.1,5.9,27.4,8.1c2.9,0.7,5.8,1.3,8.7,1.7c2.3,0.3,4.3,0,6.4-0.3
					c1.4-0.2,2.8-0.5,4.3-0.2c0.4,0.1,0.8-0.1,0.9,0.4c0.1,0.4-0.2,0.4-0.6,0.5c-1.6,0.2-3.1,0.5-4.7,0.7c-2.9,0.4-5.8,0.4-8.9,0.4
					c-4-0.1-8-0.3-11.9-0.5c-5.7-0.3-11.5-1-17.2-1.9c-5.8-0.9-11.6-2-17.3-2.9c-1.4-0.2-2.9-0.5-4.3-0.5c-0.8,0-1,0.2-0.5,0.8
					c1.8,2.2,3.9,4.2,6.2,6.2c0.5,0.5,1.4,0.5,1.8,1c1,0,2,0,3,0.1c0.6,0.2,1.1,0.1,1.7,0.1c0.3,0,0.5,0,0.8,0.1
					c0.4,0.2,0.8,0.1,1.2,0.1c0.2,0,0.4,0,0.5,0.1c0.4,0.3,0.8,0.2,1.2,0.1c0.2,0,0.4,0.1,0.5,0.1c0,0,0,0,0-0.1c0,0,0,0,0,0.1
					c0.2,0.1,0.4,0.1,0.6,0.1c0.2,0,0.4,0,0.6,0.1c0.6,0.2,1.2,0.3,1.8,0.3c0.2,0,0.4,0.1,0.6,0.1c0.2,0.2,0.4,0.1,0.6,0.1
					c0.9,0.2,1.7,0.3,2.6,0.5c0.2,0.2,0.4,0.2,0.6,0.1c0.6,0.1,1.1,0.2,1.7,0.3c0.2,0.1,0.4,0.1,0.6,0.1c0.2,0,0.4,0.1,0.6,0.1
					c0.2,0.2,0.4,0.2,0.6,0.1c0.3,0,0.6,0.1,0.8,0.1c0.2,0,0.4,0,0.6,0.1c0.3,0,0.5,0.1,0.8,0.1c0.2,0.1,0.4,0.1,0.6,0.1
					c0.3,0,0.5,0.1,0.8,0.1c0.2,0.1,0.4,0.2,0.6,0.1c0.5,0,0.9,0.1,1.4,0.1c0.2,0.1,0.4,0.1,0.6,0.1c0.5,0,0.9,0,1.4,0.1
					c0.8,0.3,1.5,0.1,2.2,0.1c0.3,0,0.5,0,0.8,0.1c3.5,0.2,6.8,0,10-0.5c0.2,0,0.3,0,0.5-0.1c0.5,0,1,0.1,1.3-0.2
					c0.3,0,0.7-0.1,1-0.1c0.3,0,0.6,0.1,0.8-0.1c0.3,0,0.7-0.1,1-0.1c0.3,0,0.6,0.1,0.8-0.2c0.2,0,0.3-0.1,0.5-0.1
					c0.2,0,0.4,0,0.5-0.1c0.2,0,0.3-0.1,0.5-0.1c0.3,0,0.6,0.1,0.8-0.2c0.2,0,0.3-0.1,0.5-0.1c0.9,0,1.6-0.3,2.3-0.6
					c0.2,0,0.3-0.1,0.5-0.2c1.3-0.2,2.4-0.6,3.5-1.1h0c2.9-1.1,5.8-2.2,8.7-3.3c0.2,0,0.4,0,0.5-0.2c1.1-0.3,2.1-0.7,3.2-1
					c0.2,0,0.4,0,0.5-0.2c0.4-0.1,0.8-0.2,1.2-0.3c0.2,0,0.4,0,0.5-0.1c0.2,0,0.3-0.1,0.5-0.1c0.2,0,0.4,0,0.5-0.1
					c0.2,0,0.3-0.1,0.5-0.1c0.2,0,0.4-0.1,0.6-0.1c0.2-0.1,0.5-0.1,0.7-0.2c0-0.1,0-0.2,0.1-0.3c0,0-0.1,0.1-0.1,0.3
					c0.2,0,0.4-0.1,0.6-0.1c0.4-0.1,0.8-0.1,1.3-0.2c0.2,0,0.4,0,0.5-0.1c1.3,0.1,1.5-0.4,1.2-1.4c-0.7-2-1.3-4-2.2-5.9
					c0-0.2,0-0.5-0.3-0.7c-0.2-0.3-0.3-0.7-0.5-1c0-0.2-0.1-0.5-0.4-0.7c-0.1-0.2-0.2-0.4-0.3-0.6c0-0.2-0.1-0.3-0.3-0.4
					c-0.1-0.1-0.2-0.3-0.3-0.4c-0.1,0-0.3-0.1-0.4-0.2c0.1,0.1,0.2,0.1,0.4,0.2c-0.2-0.5-0.6-0.9-1.1-1.4c-0.4,0.1-0.5,0.4-0.5,0.7
					c0,0,0,0,0,0c-0.5,0.5-1.1,1-1.3,1.7l0,0c-1.4,1.5-2.7,3.1-4.1,4.6c-0.1,0.1-0.3,0.3-0.4,0.4c-0.4,0-0.5,0.4-1.1,0.1
					c0.2-0.6,0.7-1,1.1-1.5c0.8-1.1,2.1-1.9,2.6-3.2c0-0.1,0.1-0.1,0.1-0.2c0.5-0.4,0.8-0.8,1-1.3c0-0.1,0.1-0.1,0.1-0.2
					c0,0,0-0.1-0.1-0.1c0,0,0,0.1,0.1,0.1c0.3-0.2,0.4-0.4,0.4-0.7c0.1-0.3,0.3-0.6,0.4-0.9c0.3-0.2,0.4-0.4,0.3-0.7
					c0.8-1.8,1-3.8,1.1-5.8c0.1-0.1,0.1-0.3,0-0.5c0-0.1,0-0.3,0-0.4c0.1-0.1,0.1-0.3,0-0.5c0-0.1,0-0.3,0-0.4
					c0.2-0.2,0.1-0.4-0.1-0.7c-0.2-0.9-0.4-1.9-1.2-2.8c-0.2-0.4-0.5-0.7-1.2-1.1c-0.8,2.7-1.6,5.3-2.4,8c0,0,0,0,0,0
					c-0.6,0.8-0.8,1.8-1.2,2.8c-1,2.5-1.9,5-2.9,7.5c-0.3,0.1-0.4,0.4-0.3,0.7l0,0c-0.3,0.1-0.4,0.4-0.4,0.6
					c-0.2,0.1-0.5,0.3-0.7,0.4c-0.8,0.1-0.8,0.1-0.7-0.5c0.1-1.4,0.8-2.5,1.4-3.7c2-4.7,3.8-9.4,5.1-14.3c0.3-1.1,0.7-2.1,0.4-3.3
					c-0.1-0.2,0.1-0.3,0.3-0.4c0-0.1,0-0.3,0-0.4c0.2-0.2,0.1-0.4-0.1-0.7c0-0.1,0-0.3-0.1-0.4c0.2-0.2,0.1-0.4,0-0.7
					c0-0.1-0.1-0.3-0.1-0.4c-0.9-0.7-0.6-1.5-1.2-2.3c-1.1-1.2-2.2-2.3-3.2-3.7c-0.6,0.6-0.5,1.2-0.5,1.8c-0.5,4.7-0.9,9.4-1.8,14
					c-0.5,2.4-1,4.7-1.9,7c-0.1,0.2-0.2,0.4-0.3,0.5c-0.4,0.3-0.4,1.1-1.4,0.7c-0.9-0.4-0.5-1-0.3-1.4c2.2-5.6,2.6-11.7,3.4-17.7
					c0.1-0.7,0.1-0.7-0.4-1.5c-0.6,1.2-1,2.3-1.6,3.3c-0.7,1.2-1,2.6-2.1,3.7c-0.2,0.2-0.2,0.5-0.6,0.4c-0.4-0.1-0.4-0.4-0.5-0.7
					c-0.3-0.8-0.2-1.5-0.2-2.3c0.5-6.3,1-12.6,1.4-19c0.3-4.1,0.3-8.3-0.4-12.5c-0.7-3.9-1.8-7.9-3.2-11.8c-0.5-1.3-1-2.6-1.5-4
					c-4.2-8.3-9.9-15.8-12.7-24c4.3,5,8.2,10.6,11.2,16.3l0.8-2.4 M207.7,325.2C207.7,325.2,207.7,325.2,207.7,325.2
					C207.7,325.2,207.7,325.2,207.7,325.2 M207.7,325.2C207.7,325.2,207.7,325.2,207.7,325.2C207.7,325.2,207.7,325.2,207.7,325.2
					 M207.7,325.1C207.7,325.1,207.7,325.1,207.7,325.1C207.7,325.1,207.7,325.1,207.7,325.1 M207.6,325.1
					C207.6,325,207.6,325,207.6,325.1C207.6,325,207.6,325,207.6,325.1 M207.6,325C207.6,325,207.6,325,207.6,325
					C207.6,325,207.6,325,207.6,325 M207.6,324.9C207.6,324.9,207.6,324.9,207.6,324.9C207.6,324.9,207.6,324.9,207.6,324.9
					 M207.6,324.9C207.6,324.9,207.5,324.9,207.6,324.9C207.5,324.9,207.6,324.9,207.6,324.9 M207.5,324.8
					C207.5,324.8,207.5,324.8,207.5,324.8C207.5,324.8,207.5,324.8,207.5,324.8 M203.4,321.8C203.4,321.8,203.4,321.8,203.4,321.8
					C203.4,321.8,203.4,321.8,203.4,321.8 M203.3,321.6C203.3,321.6,203.3,321.6,203.3,321.6C203.3,321.6,203.3,321.6,203.3,321.6
					 M200.1,319C200.1,319,200,319,200.1,319C200,319,200.1,319,200.1,319 M198.6,317.9C198.6,317.9,198.6,318,198.6,317.9
					C198.6,318,198.6,317.9,198.6,317.9 M198.4,317.5C198.4,317.5,198.4,317.5,198.4,317.5C198.4,317.5,198.4,317.5,198.4,317.5
					 M198.4,317.6C198.4,317.6,198.4,317.6,198.4,317.6C198.4,317.6,198.4,317.6,198.4,317.6 M198.5,317.7
					C198.5,317.7,198.5,317.7,198.5,317.7C198.5,317.7,198.5,317.7,198.5,317.7 M198.5,317.8C198.5,317.8,198.5,317.8,198.5,317.8
					C198.5,317.8,198.5,317.8,198.5,317.8 M204.7,323C204.7,323,204.7,323,204.7,323C204.7,323,204.7,323,204.7,323 M208.8,326.1
					C208.8,326.1,208.8,326.1,208.8,326.1C208.8,326.1,208.8,326.1,208.8,326.1 M210.1,326.8C210.1,326.8,210.1,326.8,210.1,326.8
					C210.1,326.8,210.1,326.8,210.1,326.8"/>
				<path clip-path="url(#SVGID_5_)" fill="#C90010" d="M190.8,318.2c1.8,1.5,3.4,3,5.1,4.3c3.5,2.9,7.3,5.6,11.5,7.9
					c3.5,1.9,7.2,3.6,10.6,5.7c0.4,0.2,0.7,0.4,1.1,0.7c0.3,0.3,0.7,0.5,0.5,0.9c-0.2,0.3-0.6,0.2-1.1,0.1c-3.3-0.7-6.3-1.9-9.3-3.4
					c-4.4-2.2-7.4-5.5-10.9-8.4c-2.6-2.2-5-4.4-7.1-6.8C191,318.9,190.7,318.8,190.8,318.2"/>
				<path clip-path="url(#SVGID_5_)" fill="#99041D" d="M193.5,344.4c0.8-0.3,1.4,0,2,0.2c8.1,2.4,16.2,4.9,24.4,6.8
					c1,0.2,2,0.4,2.9,0.6c0.4,0.1,1,0.1,1,0.6c0,0.4-0.6,0.2-0.9,0.2c-1.2-0.2-2.3-0.3-3.5-0.6c-8.3-2.1-16.6-4.5-24.8-7.3
					C194.3,344.7,194,344.6,193.5,344.4"/>
				<path clip-path="url(#SVGID_5_)" fill="#C90010" d="M182,311c1.6,1.4,2.4,2.8,3.5,4c0.1,0.2,0.3,0.4,0,0.4c-0.1,0-0.4,0-0.5-0.1
					c-0.9-0.5-1.9-1-2.6-1.6C181.4,312.9,181.9,312.1,182,311"/>
				<path clip-path="url(#SVGID_5_)" fill="#AF1E30" d="M178.6,305.5c-4-5.1-7-10.4-9.5-15.8c-0.8-1.8-1.6-3.6-2.4-5.4
					c-2.1-5.5-3.1-11.2-2.4-16.3c0.4-3.2-4.3-3.7-5.1-7.5c-6.5,5.9-11.2,14.2-10.8,25.6c0.1,1.9,0.1,3.8,0.2,5.7
					c0.1,1.9,0.2,3.8,0.5,5.7c0.2,1.1,0.9,1.6,2.3,1.9c1.8,0.4,3.5,0.9,5.3,1.4c0.4,0.1,1.1,0.2,1,0.7c-0.1,0.5-0.7,0.2-1.1,0.1
					c-1.8-0.4-3.6-0.8-5.5-1.2c-0.5-0.1-1.3-0.4-1.3,0.2c0,0.6,0.1,1.3,1.2,1.6c3.1,0.9,6.2,1.8,9.4,2.2c-0.8-0.7-1.4-1.4-1.6-2.3
					c0-0.1-0.1-0.2-0.2-0.3c-3.1-3.4-0.7-5.5,1.1-7.6c0.7-0.8,1.7-1.3,2.6-1.9c1.2-0.9,1.1-1.5-0.4-2.7c-1.8-1.5-4.1-2.6-6.1-3.9
					c-4.1-4.8-1.2-8-0.3-10c2.4-3.2,2.6-7.1,4.5-10.3c1.1-1.3,2.5-0.1,2.4,1.2c-0.7,5.1-0.5,10.2,1.2,16.2c0.7,2.2,1.5,4.2,2.4,6.3
					c0.8,2,1.7,4.1,2.5,6.1c1.1,2.8,2.1,5.7,3.7,8.4c0.5,0.8-0.6,0.8-0.7,1.3c1.8-0.2,3.5,0.1,5.1,1.2c-0.9-1.9-2-3.7-2.3-5.6
					c1.8,1.9,3.3,4,4.6,6.1C179.7,306.4,178.8,305.9,178.6,305.5 M173.6,299.8L173.6,299.8c0,0,0,0.1,0,0.1
					C173.6,299.9,173.6,299.9,173.6,299.8"/>
				<path clip-path="url(#SVGID_5_)" fill="#C90010" d="M267.9,296.9c-1.4-3.3-2-6.5-3.1-9.8c-0.8-2.3-0.6-4.6-0.6-6.9
					c-0.3-5.4-2.6-10.4-5.3-15.4c6,5.6,8.8,13.8,11.3,20.7c0.4,1.4,0.9,2.8,1.4,4.2c0.4,1.4,0.9,2.8,1.2,4.2
					c0.4,1.8,1.1,3.5,1.6,5.3c0.3,1.2-0.5,2-1.5,2.6c-0.8,0.4-1.6,1.2-2.7,0.8c-1-0.4-0.8-1.4-1.1-2.2
					C268.6,299.2,268.3,298,267.9,296.9"/>
				<path clip-path="url(#SVGID_5_)" fill="#99041D" d="M273.1,291.3c-0.8-1.9-1.5-3.9-2.2-5.8c-2-6.4-4.6-12.2-8.5-17.7
					c4.4,3.9,7.7,11.9,8.9,17.7C271.9,287.4,272.5,289.4,273.1,291.3"/>
				<polygon clip-path="url(#SVGID_5_)" fill="#FFFFFF" points="198.8,286.7 200.8,283 202.1,282.9 200,286.7 204.7,290.4 
					203.4,290.4 				"/>
				<path clip-path="url(#SVGID_5_)" fill="#FFFFFF" d="M206.1,291.4l-3.3-9.5l1.7,0l1.1,3.2c-0.1-0.4-0.1-0.6,0-0.8
					c0.1-0.2,0.2-0.3,0.5-0.3l0.8,0c0.5,0,0.9,0.2,1.4,0.6s0.8,0.9,1,1.5l1.1,3.2c0.2,0.6,0.2,1.1,0,1.5c-0.2,0.4-0.5,0.6-1,0.7
					L206.1,291.4z M207.5,290.3l0.8,0c0.2,0,0.4-0.1,0.5-0.3c0.1-0.2,0.1-0.5,0-0.8l-1.1-3.2c-0.1-0.3-0.3-0.5-0.5-0.7
					c-0.2-0.2-0.5-0.3-0.7-0.3c-0.2,0-0.4,0.1-0.5,0.3c-0.1,0.2-0.1,0.5,0,0.7L207.5,290.3z"/>
				<path clip-path="url(#SVGID_5_)" fill="#FFFFFF" d="M212,283.8l1.7,0c0.5,0,0.9,0.2,1.4,0.6c0.5,0.4,0.8,0.9,1,1.5l1.1,3.2
					c0.2,0.6,0.2,1.1,0,1.5c-0.2,0.4-0.5,0.6-1,0.7l-1.7,0c-0.5,0-0.9-0.2-1.4-0.6c-0.5-0.4-0.8-0.9-1-1.5l-1.1-3.2
					c-0.2-0.6-0.2-1.1,0-1.5C211.2,284,211.5,283.8,212,283.8 M212.7,285.9l1.1,3.2c0.1,0.3,0.3,0.5,0.5,0.7
					c0.2,0.2,0.5,0.3,0.7,0.3c0.2,0,0.4-0.1,0.5-0.3c0.1-0.2,0.1-0.5,0-0.8l-1.1-3.2c-0.1-0.3-0.3-0.5-0.5-0.7s-0.5-0.3-0.7-0.3
					c-0.2,0-0.4,0.1-0.5,0.3C212.6,285.4,212.6,285.6,212.7,285.9"/>
				<path clip-path="url(#SVGID_5_)" fill="#FFFFFF" d="M224.6,291l-1.7,0l-0.4-1.1c0.2,0.7,0,1.1-0.5,1.1l-0.8,0
					c-0.5,0-0.9-0.2-1.4-0.6c-0.5-0.4-0.8-0.9-1-1.5l-1.1-3.2c-0.2-0.6-0.2-1.1,0-1.5c0.2-0.4,0.5-0.6,1-0.6l1.7,0l-0.7-2.1l1.7,0
					L224.6,291z M220.7,284.7l-0.8,0c-0.2,0-0.4,0.1-0.5,0.3c-0.1,0.2-0.1,0.5,0,0.7l1.1,3.2c0.1,0.3,0.3,0.5,0.5,0.7
					c0.2,0.2,0.5,0.3,0.7,0.3c0.2,0,0.4-0.1,0.5-0.3c0.1-0.2,0.1-0.5,0-0.8L220.7,284.7z"/>
				<path clip-path="url(#SVGID_5_)" fill="#FFFFFF" d="M227.5,292c0.3,0.7,0.7,1.1,1.2,1.1l0.8,0c0.2,0,0.4-0.1,0.5-0.3
					c0.1-0.2,0.1-0.5,0-0.8l-0.7-2.1c0.2,0.7,0,1.1-0.5,1.1l-0.8,0c-0.5,0-0.9-0.2-1.4-0.6c-0.5-0.4-0.8-0.9-1-1.5l-1.8-5.3l1.7,0
					l1.8,5.3c0.1,0.3,0.3,0.5,0.5,0.7c0.2,0.2,0.5,0.3,0.7,0.3c0.2,0,0.4-0.1,0.5-0.3c0.1-0.2,0.1-0.5,0-0.8l-1.8-5.3l1.7,0l2.9,8.5
					c0.2,0.6,0.2,1.1,0,1.5c-0.2,0.4-0.5,0.6-1,0.7l-1.7,0c-1,0-1.8-0.7-2.4-2.1L227.5,292z"/>
				<polygon clip-path="url(#SVGID_5_)" fill="#FFFFFF" points="235.4,286 233.3,289.7 232.1,289.8 234.1,286 229.5,282.3 
					230.7,282.3 				"/>
				<path clip-path="url(#SVGID_5_)" fill="#99041D" d="M182.9,237.2c3.5,1.7,7.2,2.3,11,2.8c1.2,0.2,2.5,0.3,3.7,0.3
					c6.4,0.3,12.5-0.2,18.2-1.6c1-0.2,2-0.6,2.9-0.9c6.4,0.9,13.2,0.2,19.5,3.8c15.5,9.8,30.7,21.6,42.8,36.6
					c1.3,1.6,2.5,3.3,3.8,4.9c3.7,4.9,7.4,9.8,10.7,14.9c0.9,1.4,0.9,1.8-0.5,2.5c-3.4,1.6-7.3,2.6-11.3,3.5c-1.5,0.3-3,0.7-4.4,1
					c-0.6,0.1-1.1,0.3-1.5,0.7c-1.5,1.5-3.7,2.1-6.4,2.2c-1.1,0-1.2,0.4-1,1.2c0.9,2.5,1.7,5.1,2.6,7.6c0.9,2.6,1.3,5.2,1.6,7.7
					c0.1,0.9,0.4,1.7,1.2,2.5c2,2.1,2.6,4.4,2.8,6.7c0.1,1.8,2.1,9.6,3,11.4c1.2,2.4,1.9,4.9,2.7,7.4c0.6,1.9,0.3,2.4-2.1,2.7
					c-6.9,0.8-12.6,3.2-18.5,5.4c-4,1.5-8.1,2.7-12.6,3.3c-4.5,0.6-9.1,0.7-13.8,0.8c-6.4,0.1-12.9-0.8-19.5-2.1
					c-5.9-1.1-11.5-1.2-17.1-0.7c-2.1,0.2-2.9-0.2-4.1-1.8c-1.6-2.3-2.9-4.6-3.8-7c-1.2-3.1-2.2-6.1-3.6-9.2c0,0,0-0.1,0-0.1
					c-1.8-2.2-2.2-4.4-1.9-6.5c0.1-0.8-0.4-1.7-1.2-2.5c-3.2-3-4.4-6.1-4.1-9.4c0.1-1.2-0.2-2.3-0.9-3.6c-1.9-3.4-2.8-6.7-2.4-10
					c0-0.4,0-0.8,0-1.1c0.1-0.8-0.5-1.3-1.6-1.8c-3.5-1.7-6.7-1.5-10-1.5c-4.6,0-9.2-0.9-13.8-2.1c-1.6-0.4-3.3-0.6-4.9-1.2
					l-2.5-7.3c1-0.3,0.1-1.1,0.1-1.6c-0.3-2.7-0.4-5.4-0.4-8c0-1.3,0-2.6,0.1-4c-0.3-4.4,0.2-8.9,2.3-11.4
					c7.2-9.7,11.4-19.3,18.3-28.4c3.5-4.5,11.1-2.8,16-6C182.4,237.2,182.7,237.2,182.9,237.2 M206.2,335.6L206.2,335.6
					c-0.1-0.3-0.4-0.5-0.8-0.6l0,0c-0.2-0.3-0.4-0.5-0.8-0.6l0,0c-0.2-0.3-0.4-0.5-0.8-0.7c-0.1-0.1-0.3-0.2-0.4-0.4
					c-0.2-0.3-0.4-0.5-0.8-0.6l0,0c-0.3-0.4-0.7-0.8-1.2-1.1c-0.1-0.1-0.3-0.2-0.4-0.4c-0.2-0.3-0.4-0.5-0.8-0.7
					c-0.1-0.1-0.3-0.2-0.4-0.4c-0.4-0.4-0.8-0.8-1.2-1.2c-3.7-3.3-6.9-6.8-9.9-10.4c-2.2-2.6-4.2-5.2-6.2-7.8
					c-0.2-0.2-0.3-0.6-0.8-0.6c-0.4,0-0.4,0.4-0.4,0.7c0,1.1,0,2.3,0,3.4c0.1,1.7,0.1,3.5,1.3,5.3c1.8,2.8,2.4,5.5,2.1,8.3
					c-0.1,0.9,0.2,1.9,0.9,2.8c0.1,0.1,0.2,0.3,0.3,0.4c0.5,1.1,1.4,2,2.3,3c0.6,0.7,1.1,1.5,1.6,2.3c0,0.1,0.1,0.3,0.1,0.4
					c0.1,0.6,0.2,1.1,0.2,1.7c-0.2,0.1-0.1,0.3,0,0.4c-0.1,1.1-0.2,2.1,0.8,3.2c1.4,1.6,1.4,3.3,2.4,4.9c0.2,0.4,0.3,0.8,0.5,1.3
					c1.1,3.5,2.5,6.9,4.6,10.3c0.4,0.7,0.9,1,1.8,0.9c1.7-0.1,3.4-0.1,5.1-0.2c1,0,2,0,3,0.1c0.6,0.2,1.1,0.1,1.7,0.1
					c0.3,0,0.5,0,0.8,0.1c0.4,0.2,0.8,0.1,1.2,0.1c0.2,0,0.4,0,0.5,0.1c0.4,0.3,0.8,0.2,1.2,0.1c0.2,0,0.4,0.1,0.5,0.1
					c0.2,0.1,0.4,0.1,0.6,0.1c0.2,0,0.4,0,0.6,0.1c0.6,0.2,1.2,0.3,1.8,0.3c0.2,0,0.4,0.1,0.6,0.1c0.2,0.2,0.4,0.1,0.6,0.1
					c0.9,0.2,1.7,0.3,2.6,0.5c0.2,0.2,0.4,0.2,0.6,0.1l1.7,0.3c0.2,0.1,0.4,0.1,0.6,0.1c0.2,0,0.4,0.1,0.6,0.1
					c0.2,0.2,0.4,0.2,0.6,0.1c0.3,0,0.6,0.1,0.8,0.1c0.2,0,0.4,0,0.6,0.1c0.3,0,0.5,0.1,0.8,0.1c0.2,0.1,0.4,0.1,0.6,0.1
					c0.3,0,0.5,0.1,0.8,0.1c0.2,0.1,0.4,0.2,0.6,0.1c0.5,0,0.9,0.1,1.4,0.1c0.2,0.1,0.4,0.1,0.6,0.1c0.5,0,0.9,0,1.4,0.1
					c0.8,0.3,1.5,0.1,2.2,0.1c0.3,0,0.5,0,0.8,0.1c3.5,0.2,6.8,0,10-0.5c0.2,0,0.3,0,0.5-0.1c0.5,0,1,0.1,1.3-0.2
					c0.3,0,0.7-0.1,1-0.1c0.3,0,0.6,0.1,0.8-0.1c0.3,0,0.7-0.1,1-0.1c0.3,0,0.6,0.1,0.8-0.2c0.2,0,0.3-0.1,0.5-0.1
					c0.2,0,0.4,0,0.5-0.1c0.2,0,0.3-0.1,0.5-0.1c0.3,0,0.6,0.1,0.8-0.2c0.2,0,0.3-0.1,0.5-0.1c0.9,0,1.6-0.3,2.3-0.6
					c0.2,0,0.3-0.1,0.5-0.2c1.3-0.2,2.4-0.6,3.5-1.1c2.9-1.1,5.8-2.2,8.7-3.3c0.2,0,0.4,0,0.5-0.2c1.1-0.3,2.1-0.7,3.2-1
					c0.2,0,0.4,0,0.5-0.2c0.4-0.1,0.8-0.2,1.2-0.3c0.2,0,0.4,0,0.5-0.1c0.2,0,0.3-0.1,0.5-0.1c0.2,0,0.4,0,0.5-0.1
					c0.2,0,0.3-0.1,0.5-0.1c0.2,0,0.4-0.1,0.6-0.1c0.2-0.1,0.5-0.1,0.7-0.2c0.2,0,0.4-0.1,0.6-0.1c0.4-0.1,0.8-0.1,1.3-0.2
					c0.2,0,0.4,0,0.5-0.1c1.3,0.1,1.5-0.4,1.2-1.4c-0.7-2-1.3-4-2.2-5.9c0-0.2,0-0.5-0.3-0.7l-0.5-1c0-0.2-0.1-0.5-0.4-0.7
					c-0.1-0.2-0.2-0.4-0.3-0.6c0-0.2-0.1-0.3-0.3-0.4c-0.1-0.1-0.2-0.3-0.3-0.4c-0.2-0.5-0.6-0.9-1.1-1.4c-0.4,0.1-0.5,0.4-0.5,0.7
					l0,0c-0.5,0.5-1.1,1-1.3,1.7l0,0c-1.4,1.5-2.7,3.1-4.1,4.6c-0.1,0.1-0.3,0.3-0.4,0.4c-0.4,0-0.5,0.4-1.1,0.1
					c0.2-0.6,0.7-1,1.1-1.5c0.8-1.1,2.1-1.9,2.6-3.2c0-0.1,0.1-0.1,0.1-0.2c0.5-0.4,0.8-0.8,1-1.3c0-0.1,0.1-0.1,0.1-0.2
					c0.3-0.2,0.4-0.4,0.4-0.7c0.1-0.3,0.3-0.6,0.4-0.9c0.3-0.2,0.4-0.4,0.3-0.7c0.8-1.8,1-3.8,1.1-5.8c0.1-0.1,0.1-0.3,0-0.5
					c0-0.1,0-0.3,0-0.4c0.1-0.1,0.1-0.3,0-0.5c0-0.1,0-0.3,0-0.4c0.2-0.2,0.1-0.4-0.1-0.7c-0.2-0.9-0.4-1.9-1.2-2.8
					c-0.2-0.4-0.5-0.7-1.2-1.1c-0.8,2.7-1.6,5.3-2.4,8l0,0c-0.6,0.8-0.8,1.8-1.2,2.8c-1,2.5-1.9,5-2.9,7.5l0,0
					c-0.3,0.1-0.4,0.4-0.3,0.7l0,0c-0.3,0.1-0.4,0.4-0.4,0.6c-0.2,0.1-0.5,0.3-0.7,0.4c-0.3-0.9,0.2-1.7,0.5-2.4
					c2.1-5.2,4.3-10.4,5.7-15.9c0.3-1.3,0.7-2.5,0.2-3.9c0-0.1,0-0.3,0-0.4c0.2-0.2,0.1-0.4-0.1-0.7c0-0.1,0-0.3-0.1-0.4
					c0.2-0.2,0.1-0.4,0-0.7c0-0.1-0.1-0.3-0.1-0.4c0-0.1,0.1-0.2,0.1-0.4c-0.6-3.9-1.7-7.7-3.2-11.6c-0.2-0.6-0.5-1.1-1-1.7
					c-0.4,0.5-0.4,1.1-0.5,1.6c-0.3,2.3-0.5,4.5-0.8,6.8c-0.8,6.9-1.4,14-3.3,20.6c-0.1,0.4-0.1,0.8-0.5,1.1
					c-0.2,0.1-0.1,0.5-0.6,0.3c-0.5-0.2-0.2-0.4-0.1-0.6c0.4-1.4,0.9-2.8,1.2-4.3c1.6-6.6,2-13.4,2.5-20.3c0.2-3.5,0.9-6.9,0.6-10.6
					c-0.3-2.8-1.2-5.7-2.1-8.5c-0.9-3-1.8-6-2.7-8.9c-0.5-1.5-0.9-3-1.4-4.5c-1.3-7.4-6.7-14.3-9.3-21.8c1.7,1.9,2,4.4,3.7,6.3
					c1.3-0.7,1.1-2.6,1.2-3.8c0.1-2.5-3.1-3.1-4.5-4.4c2,0,3.9,2.5,5.8,3.7c-0.6-8.9-12.8-16-19.4-19.1c-3.4-1.2-9.1-1.3-10-0.4
					c-2.1,2.2-2.7,6.8-6,8.6l-0.2,0.2c-0.7,0.5-1.3,0.9-2,1.4l0,0c-0.4,0.2-0.7,0.3-1.1,0.5c-4.1,1.8-8.6,2.8-14,2.3
					c-1.7-0.2-3.3-0.2-4.9-0.9c-12.3-4.7-16-7.8-19.4-11.2c-4.6-4.5-19.2,4.2-17.3,16.9c2.3-0.7,2.4-7.7,3.7-3.9
					c4.5,10.1-4.4,17.9,3.1,29.8c0.8,1.6,1.5,3.1,2.1,4.7c0.6,1.9,1.5,3.7,2.6,5.5c1.9,3.1,4,6.2,6.2,9.3
					c6.7,9.3,14.5,18.2,23.6,26.6c2.3,2.1,4.5,4.1,7.2,5.9c0.3,0.2,0.6,0.5,0.9,0.7c1.2,1,2.9,1.8,3.8,3c-1.3-0.1-2-1.1-3.1-1.5
					c-0.1-0.1-0.2-0.1-0.3-0.2c-0.4-0.4-1-0.8-1.5-1c-0.1-0.1-0.2-0.1-0.3-0.2c-0.3-0.3-0.7-0.6-1.2-0.8l0,0
					c-0.2-0.4-0.6-0.6-1.1-0.8l0,0c-0.2-0.3-0.4-0.5-0.8-0.6l0,0C206.8,336,206.5,335.7,206.2,335.6 M161.9,262.8
					c1.4,0.8,2.5,2.7,3.3,2c0.8-1.9,2.8-6.4-0.6-8.9C165.4,259.8,160.5,258.6,161.9,262.8L161.9,262.8z M178.9,306.8L178.9,306.8
					c0.9-0.4-0.1-0.9-0.3-1.2c-4-5.1-7-10.4-9.5-15.8c-0.8-1.8-1.6-3.6-2.4-5.4c-2.1-5.5-3.1-11.2-2.4-16.3c0.4-3.2-4.3-3.7-5.1-7.5
					c-6.5,5.9-11.2,14.2-10.8,25.6c0.1,1.9,0.1,3.8,0.2,5.7c0.1,1.9,0.2,3.8,0.5,5.7c0.2,1.1,0.9,1.6,2.3,1.9
					c1.8,0.4,3.5,0.9,5.3,1.4c0.4,0.1,1.1,0.2,1,0.7c-0.1,0.5-0.7,0.2-1.1,0.1c-1.8-0.4-3.6-0.8-5.5-1.2c-0.5-0.1-1.3-0.4-1.3,0.2
					c0,0.6,0.1,1.3,1.2,1.6c3.1,0.9,6.2,1.8,9.4,2.2c0.3,0.1,0.6,0.1,0.9,0.1c0.2,0.3,0.5,0.3,0.8,0.2c0.3,0,0.6,0.1,0.8,0.1
					c0.4,0.3,0.8,0.1,1.2,0.1c0.6,0,1.3,0.1,1.9,0.1c0.2,0,0.4,0,0.6,0c1.6,0,3.2-0.1,4.9-0.1c1.8-0.2,3.5,0.1,5.1,1.2
					c0.3,0.3,0.8,0.4,1.2,0.4C178.3,307.4,178.7,307.4,178.9,306.8 M282.3,302c0.2,0,0.3-0.1,0.5-0.1c0.2,0,0.4,0,0.5-0.1
					c0.2,0,0.3-0.1,0.5-0.1c0.2,0,0.4,0,0.5-0.1c0.2,0,0.3-0.1,0.5-0.1c0.5,0,0.9-0.1,1.3-0.3c0.2,0,0.3-0.1,0.5-0.1
					c0.5,0,0.9-0.1,1.3-0.3c1.7-0.5,3.5-0.9,4.8-1.9c0.4-0.2,0.5-0.5,0-0.9c-0.1-0.1-0.2-0.3-0.2-0.4c-0.4-0.8-1-1.6-2.2-1.2
					c-3.8,1.1-7.8,2-11.6,3c-0.4,0-0.7,0-1.1,0c-0.2-0.7,0.6-0.7,1.1-0.8c1.2-0.3,2.5-0.5,3.7-0.8c2.4-0.6,4.7-1.2,7-1.9
					c0.6-0.2,1.6-0.3,1-1.2c-1.2-1.7-2.3-3.5-3.7-5.1c-0.2-0.5-0.5-0.9-1-1.3c0-0.2-0.1-0.3-0.3-0.4c-1-1.3-1.9-2.5-2.9-3.8
					c-1-1.3-1.9-2.5-2.9-3.8c-2-2.3-4.3-5.9-6.2-7.9c-5-5.3-10.1-9.4-15.6-13.8c-0.5,5.7,4,11.4,5.6,17.7c0.2,1.9,0.3,3.8,0.5,5.8
					c0.1,1.2,0,2.4,0,3.6c0,0.2-0.1,0.4-0.4,0.4c-0.3,0-0.4-0.3-0.5-0.5c-0.1-0.2-0.1-0.5-0.1-0.7c0-2.1,0.1-4.3-0.1-6.5
					c-1-5.2-3-9.6-6-14c-4,4.5,3.2,12,4.1,18.4c0.5,1.4,0.9,2.9,1.4,4.3c0.5,1.4,0.9,2.9,1.4,4.3c1.2,3.8,2.7,7.6,3.1,11.4
					c0.1,0.7,0.6,1,1.4,0.9c1.6-0.1,3-0.4,4.3-0.9c2.4-0.9,3.1-2.5,2.2-4.7c-0.5-1.2-0.7-2.4-1-3.6c-0.1-0.3-0.3-0.6,0.2-0.8
					c0.7,0.4,0.7,0.9,1,1.4c0.3,1,0.7,2,1,3c0.4,1.4,0.4,2.8,1,4.3c0.3,0.7,0.7,1,1.5,0.6c0.3,0,0.5-0.1,0.8-0.1
					c0.3,0,0.6,0.1,0.8-0.1c0.7-0.1,1.4-0.2,2-0.4C282,302.1,282.2,302.1,282.3,302 M206.8,254.5c1.8,0,3.5-0.2,5.1-0.6
					c2.3-0.6,4.3-1.4,6.1-2.4c1.7-1,3.1-2.2,4.2-3.7c0.1-2.6,4.1-2.7,1.3-6.4c-1.4-2.5-3.2-1.8-3.9-0.1c-0.7,1.4-1.7,2.7-2.9,3.9
					c-1.2,1.2-2.5,2.2-4,3.1c-3.6,2.2-8.3,2.8-13,1.6c-1.6-0.4-3.2-1-4.8-1.8c-4.6-0.9-14.3-12.8-13.4-5.8c1.3,5.1,9.4,8,15.7,10.8
					c1.6,0.7,3.2,0.8,4.8,1.1C203.5,254.4,205.2,254.5,206.8,254.5 M185.7,240.6c2.7,2.8,5.9,4.6,8.5,5c1.7,0.3,3.3,0.5,4.9,0.6
					c4.8,0.4,9.3,0.2,13.6-0.7c1.6-0.3,2.7-0.9,3.7-1.8c0.9-0.8,1.6-1.9,2.2-3.1c-1.1,0.3-2.2,0.5-3.3,0.7c-5.5,1.1-11,1.6-16.7,1.3
					c-1.4-0.1-2.8-0.2-4.2-0.3c-1.4-0.2-2.9-0.4-4.4-0.6C188.6,241.3,187.2,241,185.7,240.6 M213.3,246.3c-3.4,0.3-6.5,0.5-9.7,0.6
					c-1.6,0-3.2,0-4.9-0.1c-1.6-0.1-3.3-0.3-5.1-0.7c1.4,1.4,3.7,2.4,6.2,2.9C204.8,250,210.8,249.1,213.3,246.3 M271.2,305.9
					c2.3-0.3,4-1.1,4.5-2.8c0.1-0.3,0.3-0.6-0.2-0.9c-0.5-0.3-0.8,0-1.1,0.2c-1.9,1.1-4,1.9-6.7,1.9c-0.5,0-0.8,0.1-0.7,0.5
					c0,0.4,0.5,0.5,0.9,0.7C269.1,305.8,270.2,305.6,271.2,305.9"/>
			</g>
		</g>
	</g>
	<g id="Layer_15">
		<path fill="#FFFFFF" stroke="#000000" stroke-width="2" stroke-miterlimit="10" d="M155.1,304c1,1.7,2,9.2,3,10.8
			c1.6,2.8,3.4,5.7,6.2,7.3c1.9,1.1,4.2,1.5,6.4,1.9c7.4,1.3,14.8,2.5,22.1,3.8c-0.1,1.6,0.5,3.2,1.5,4.4c1.5-0.4,2.9-1.1,4.1-2.1
			c-0.5-0.7-0.9-1.5-1.4-2.2c0.2,1,1.6,1.4,2.6,1.1s1.5-1.6,1.1-2.5c-0.7-1.5-2.8-1.4-4.4-1c2.6-0.4,5.2-1.3,7.6-2.5
			c-1.4-2.3-4.8-3-7-1.5c1.5-0.1,3-0.2,4.2-1s2-2.5,1.2-3.8c-0.8-1.2-2.6-1.3-3.9-0.8c-1.4,0.5-2.5,1.5-3.8,2.1
			c-3.5,1.5-7.4-0.2-10.6-2.1c-3.2-1.9-6.6-4.1-10.4-3.9c-1.5,0.1-3.1,0.5-4.3-0.2c-0.7-0.4-1.1-1.1-1.6-1.8
			c-1.8-2.9-0.1-2.1-1.5-5.2"/>
		<path fill="#FFFFFF" stroke="#000000" stroke-width="2" stroke-miterlimit="10" d="M277.5,302.1c0.5,1.3,0.8,2.7,0.9,4.1
			c0.1,1.7-0.1,3.6-1.3,4.9c-1.6,1.6-4.1,1.5-6.4,1.5c-7.3-0.2-14.6,0.7-21.6,2.8c-2.7,0.8-6.3,1.5-7.8-1c-0.6-1-0.6-2.3-1.3-3.3
			c-1.4-1.9-4.9-0.9-5.5,1.5c-0.6,2.3,1.4,4.7,3.7,5.2c-1.8-0.8-4.6-1.2-5.1,0.7c-0.3,1.1,0.6,2.2,1.6,2.6c1,0.4,2.2,0.3,3.3,0.2
			c-1.6-0.6-3.7,0.2-4,1.8c-0.3,1.7,2.4,3,3.2,1.5c-1.9-0.4-2.6,2.9-1.1,4c1.6,1.1,3.8,0.4,5.3-0.8c1.5-1.2,2.6-2.8,4.3-3.8
			c3.1-1.8,6.9-1,10.4-0.5c6.5,0.9,13.1,0.4,19.7-0.2c3.7-0.3,7.6-0.7,10.3-3.2c3.2-3,3.6-7.8,3.8-12.2c0.1-2.7,0.3-6.5,0.4-9.3"/>
	</g>
	<g id="Layer_14">
		<path fill="#FFFFFF" stroke="#000000" stroke-width="2" stroke-miterlimit="10" d="M236.4,245.1c8.7-8.3,8.2-22.4,4.8-33.9
			c-1.4-4.9-3.3-9.7-5.9-14.1c-6.8-11.3-19.8-19.3-32.9-17.6c-10.6,1.4-19.9,9-24.4,18.7c-4.5,9.7-4.4,21.2-0.8,31.3
			c1.8,5.3,4.6,10.4,9,13.9c5.1,4.2,11.8,5.8,18.3,6.9C215.5,252.4,228.2,252.8,236.4,245.1z"/>
		<path fill="#FFFFFF" stroke="#000000" stroke-width="2" stroke-miterlimit="10" d="M194.9,187.1c1.1-7.8,2.5-16.6,1.9-25
			c5.3,6.4,9.8,15.5,13.6,22.9"/>
		<path fill="#FFFFFF" stroke="#000000" stroke-width="2" stroke-miterlimit="10" d="M215.7,185.5c0.8-6.4,6.5-14.3,7.8-20.7
			c3.1,7.9,3.2,15.2,4.4,23.5"/>
		<path display="none" fill="#FFFFFF" stroke="#000000" stroke-width="2" stroke-miterlimit="10" d="M267.6,264.9
			c2.4,2.5,6.3,3.5,9.6,2.3c0.7-0.3,1.4-0.6,1.9-1.3c0.4-0.6,0.5-1.3,0.6-2c0.2-1.8,0.2-3.6,0.2-5.5c0-0.4,0-0.7-0.2-1
			c-0.2-0.3-0.5-0.5-0.7-0.7c-1.2-0.9-2.4-1.7-3.6-2.6c2.3-1.1,5.1-1.4,7.6-0.7c-2.9,1.9-3.3,6-2.8,9.4c0.2,1.2,0.5,2.5,1.2,3.5
			c0.8,1,2.4,1.5,3.6,1.1"/>
		<path fill="#FFFFFF" stroke="#000000" stroke-width="2" stroke-miterlimit="10" d="M226.4,203.8c-2.7,1.8-7.8,2.7-12.2,2.2
			c-0.8-0.1-1.8-0.3-1.9-0.8c-0.1-0.2,0-0.4,0.2-0.5c0.9-1.3,3.3-2.3,6-2.6s5.7,0.3,7.4,1.4L226.4,203.8z"/>
		<path d="M218.4,202.5c1.4,0.8,1.7,2.3,0.9,3.3C217.1,205.5,217.1,203.4,218.4,202.5z"/>
		<path fill="none" stroke="#000000" stroke-width="2" stroke-miterlimit="10" d="M238.3,202.4c-1.3,0.5-2.8-0.1-4-0.7
			c-0.6-0.3-1.2-0.5-1.7-0.8c0.7-1.2,2-2,3.3-2.7"/>
		<path d="M237.5,202.5c0-0.6-0.3-1.1-0.5-1.7c-0.2-0.6-0.2-1.1-1.3-2.1c-0.5,1-0.4,1.8,0.2,2.6c0.2,0.3,0.2,0.3,1.2,1L237.5,202.5z
			"/>
		<path fill="none" stroke="#000000" stroke-width="2" stroke-miterlimit="10" d="M216.4,223.7c1.6,2.7,4.3,4.7,7.3,5.8
			s6.2,1.3,9.4,1c0.7-0.1,1.5-0.2,2.1-0.6c1.1-0.8,1.2-2.3,1.2-3.6c0-2,0-4.2-1.3-5.8c-1.8-2.3-5.6-2.5-7-5
			c3.4-0.3,6.8-0.9,10.1-1.8c-1.3,1.9-2.6,3.8-3.9,5.6c1.3,2.9,2.8,5.8,4.5,8.5c0.5,0.8,1,1.6,1.8,1.9s2,0.1,2.3-0.7"/>
	</g>
	<g id="Layer_17">
	</g>
</g>
<g id="Tom">
	<path stroke="#2B2B2B" stroke-width="0.5" stroke-miterlimit="10" d="M548.2,438.6c-0.6,2.4-0.4,5,0.5,7.2c1.4,0,2.9,0.5,3.8,1.6
		s0.9,2.9-0.1,3.9c-1,1-3,0.7-3.5-0.7c0.2,1.3,0.3,2.6,0.1,3.9c-1.8,0.2-3.4-1.9-2.7-3.6c0.4,1.8-0.9,3.9-2.7,3.9
		c-1.8,0-3-2.7-1.5-3.7c0,1.8-2.1,3.3-3.8,2.7c-1.7-0.6-2.4-3.1-1.2-4.5c0.4-0.4,0.8-0.7,1.2-1.1c1.5-1.6,1.1-4,0.7-6.1"/>
	<path stroke="#2B2B2B" stroke-width="0.5" stroke-miterlimit="10" d="M517,441.7c0.3,0.2,0.3-0.5,0-0.5c-0.3,0-0.5,0.3-0.6,0.6
		c-0.7,2.6,0.1,5.5,2.1,7.2c1,0.9,2.3,1.7,2.3,3c0,1.3-1.6,2.2-2.9,1.9s-2.3-1.3-3.3-2.2c0.7,0.9,1.4,1.9,1.6,3
		c0.2,1.1-0.3,2.4-1.4,2.8c-1.2,0.4-2.5-0.5-2.9-1.7s-0.2-2.5,0-3.7c-0.7,0.8-1,2-1.5,2.9c-0.5,1-1.5,1.9-2.6,1.6
		c-1-0.3-1.4-1.6-1.2-2.6s1-1.8,1.7-2.6c-0.5,1.2-1.1,2.5-2.1,3.3c-1,0.8-2.7,1-3.6,0c-0.9-1.1-0.4-2.9,0.6-3.9s2.3-1.9,3.1-3.1
		c0.8-1.2,0.6-3.3-0.8-3.7"/>
	<path stroke="#2B2B2B" stroke-width="0.5" stroke-miterlimit="10" d="M518.8,284.4c1,0.9,2.5,1.2,3.8,1.8c1.6,0.7,1.1,1.3,2.7,0.6
		c2-0.9,2.7-2.3,3.4-4.4c2.3-6.9,5.6-13.5,10-19.4c1.7-2.3,3.5-5.4,1.7-7.6c-0.7-0.9-2-1.4-2.6-2.3c-1.3-2,0.9-4.9,3.2-4.7
		c2.4,0.3,3.9,2.9,3.6,5.2c-0.1-2,0.5-4.8,2.5-4.6c1.1,0.1,1.9,1.3,1.9,2.4c0,1.1-0.5,2.2-1,3.2c0-1.7,1.4-3.4,3.1-3.2
		s2,3.2,0.3,3.5c0.3-1.9,3.6-1.5,4.1,0.3c0.5,1.8-0.9,3.7-2.6,4.7c-1.6,1-3.6,1.5-5,2.7c-2.8,2.2-3.3,6.2-4,9.7
		c-1.3,6.4-4.1,12.5-6.9,18.5c-1.5,3.3-3.3,6.9-6.5,8.6c-3.9,2-7.9-0.9-12.1-2.2c-2.6-0.8-10.2-8.5-12.8-9.4"/>
	<path stroke="#2B2B2B" stroke-width="0.5" stroke-miterlimit="10" d="M420.9,301.2c0.2,2,0.3,3.9,0.5,5.9c0.2,3.2,0.5,6.6-0.9,9.5
		c-1,2-2.6,3.6-4.2,5.2c-5.4,5.2-10.7,10.5-16.1,15.7c1,1.3,1.4,2.9,1.3,4.5c-1.4,0.5-3,0.7-4.5,0.6c0-0.9-0.1-1.7-0.1-2.6
		c0.4,1-0.5,2.1-1.5,2.4c-1,0.3-2.1-0.5-2.3-1.5c-0.3-1.6,1.5-2.7,3-3.3c-2.4,1.2-5,1.9-7.7,2.3c-0.1-2.7,2.3-5.2,4.9-5.2
		c-1.2,0.8-2.6,1.6-4,1.6c-1.5,0.1-3.1-0.9-3.1-2.4c-0.1-1.4,1.4-2.6,2.8-2.9c1.4-0.3,2.9-0.2,4.3-0.5c3.7-0.8,6-4.4,7.6-7.8
		c1.6-3.4,3.1-7.2,6.3-9.1c1.3-0.8,2.8-1.3,3.4-2.6c0.3-0.7,0.3-1.6,0.3-2.3c-0.2-3.4-0.6-6.8-1.1-10.1"/>
	<g id="Layer_13">
		<g>
			<path fill="#0071BC" stroke="#2E3192" stroke-width="2" stroke-miterlimit="10" d="M556,437.1c-7.2,5.9-17.8,3.8-26.8,1.3
				c-1.4-23.7-2.9-47.5-4.3-71.2c-0.2-3-0.4-6.1-1.7-8.9c-3.4-7-12.3-8.9-19.9-9.9c10.3,4.1,21.8,9.5,25.2,20
				c1.4,4.5,1.2,9.3,0.9,14c-1,17.1-2,34.1-3,51.2c-0.1,2-0.2,4-0.9,5.9c-2.9,8.1-13.7,9.2-22.3,8.9c-2.2-0.1-4.6-0.2-6.2-1.8
				c-1.2-1.3-1.5-3.1-1.7-4.8c-1.9-14.5-2.6-29.1-1.9-43.7c0.3-7.2,0.2-16-6.2-19.4c-2-1.1-4.4-1.4-6.7-1.6
				c-4.9-0.6-9.8-1.1-14.7-1.7c-4.3-0.5-8.7-1-12.7-2.7c-8.4-3.6-13.8-11.7-18.6-19.4c-2.4-3.7-4.8-7.8-4.6-12.2
				c0.4-7.8,8.8-12.4,16.1-15.3c14.6-5.7,29.9-10.6,45.5-10.4c10.8,0.1,23,3.9,27.3,13.8c-2.1-0.8-3.9,2.5-2.7,4.5
				c1.2,2,3.7,2.6,5.9,3.1c8.5,1.8,17,3.5,25.5,5.3c4.8,1,9.9,2.2,13.4,5.7c4,4.1,4.6,10.4,4.9,16.1c1,18.6,1.1,37.4-1.9,55.8
				C562.8,426.1,561.1,432.9,556,437.1z"/>
			<path fill="none" stroke="#2E3192" stroke-width="2" stroke-miterlimit="10" d="M492.6,377c3-1.5,6.1-3,9.1-4.5
				c-3.3,1-6.2,3.6-7.6,6.8c2-3.4,5.5-5.9,9.3-6.6c0.5-0.1,1.2-0.1,1.4,0.4c0.2,0.5-1,0.5-0.7,0.1"/>
			<path fill="none" stroke="#2E3192" stroke-width="2" stroke-miterlimit="10" d="M532.2,362.5c3.1-0.1,6.1-2.1,7.6-4.9
				c-1.5,2.7-3.7,5-6.4,6.7c3.3,0,6.6,0.1,10,0.1c-1.4,1.3-3.2,2.2-5.1,2.4"/>
			<path fill="none" stroke="#2E3192" stroke-width="2" stroke-miterlimit="10" d="M468.6,349.3c-3.1-0.1-5.8,2.2-7.3,4.8
				c-1.5,2.7-1.9,5.8-2.3,8.8c6.9-10.9,19.6-18,32.5-18.1c-9.9,0.6-20.5,1.4-28.3,7.6c4.9-5.2,10.6-10.7,17.8-11.1
				c-9.8,2.4-19.6,4.7-29.4,7.1c1.6,0.4,3.3,0.2,4.7-0.7c-1,0.6-2.1,1.2-3.1,1.8"/>
			<path fill="none" stroke="#2E3192" stroke-width="2" stroke-miterlimit="10" d="M506,445.9c-0.6-18.5-1.2-37.1-1.8-55.6
				c-0.1-4.4-0.4-9.1-2.9-12.7c-2-2.8-5.2-4.6-8.4-5.9c-11.4-4.7-24.1-5.3-35.7-9.5c-11.6-4.2-22.8-14-22.2-26.3"/>
			<path fill="none" stroke="#2E3192" stroke-width="2" stroke-miterlimit="10" d="M536.7,438c0.8-8.9,1.7-17.9,2.5-26.8
				c1.3-13.4,2.5-27.2-1-40.2c-0.4-1.6-1-3.2-2-4.5c-0.9-1.2-2.3-2-3.6-2.8c-3.7-2.2-7.6-4.1-11.6-5.8"/>
			<path fill="none" stroke="#2E3192" stroke-width="2" stroke-miterlimit="10" d="M506,335.1c3.8-1.9,8-2.9,12.2-2.7
				c-5.3,0-10.6,1.5-15,4.3c4.8,0,9.6,0,14.4,0"/>
		</g>
	</g>
	<g>
		<path fill="#2C1BCC" d="M464.6,328.8c2-1.1,3.8-2.5,5.5-3.9c8.6-6.9,15.4-14.7,20.7-23.2c1.2-1.9,2.1-3.8,3.1-5.7
			c0.2-0.4,0.4-0.8,0.3-1.4c-1.2,0.9-1.3,2-2.2,2.9c-0.2-0.7,0.3-1.3,0.7-1.8c1.7-2.3,2.4-4.7,2.9-7.2c1-4.7,1.6-9.4,1.7-14.1
			c0-1.5,0-3,0-4.5c-0.7-10.4-6.5-17.3-12.3-24.6c-2.7-3.4-9.3-1.8-13.9,0.4c2.1-1.3,2.5-6.1,4.3-6.4c8.5-4.3,18.9,1.2,22.4,11.5
			c1.6,1.9,3.5,4.4,0.7,3.7c3.4,9.2,5.1,6.7,4,17.6c0,1.3-0.1,2.7,0.1,4c0.2,1.6,0.2,3.1-0.1,4.7c-0.4,2.7-1,5.5-1.6,8.2
			c-2,8.3-5.1,16.3-9.7,24.1c-1.1,1.9-2.3,3.9-3.8,5.6c-0.1-0.2,0-0.7-0.6-0.2c-0.9,0.8-1.8,1.5-2.7,2.3c-4.2,3.5-9.2,6.2-14.5,8.6
			c-4.6,2.1-9.4,3.6-14.4,4.8c-1.1,0.3-2.2,0.6-3.3,0.8c-0.3,0.1-0.7,0.2-0.9-0.2c-0.1-0.3,0.2-0.4,0.5-0.5c0.2-0.1,0.4-0.1,0.6-0.2
			c3.6-1.1,6.8-2.7,9.8-4.6c0.5-0.3,0.8-0.8,1.5-0.7C463.8,329.5,464.2,328.9,464.6,328.8z M493.7,304.8c-1.9,2.8-4.1,5.4-6.8,7.8
			c-2.3,2-4.8,3.8-6.9,5.9c-0.2,0.2-0.5,0.4-0.6,0.7c-0.2,0.2-0.4,0.5-0.1,0.8c0.3,0.2,0.6,0.1,1,0c2.5-1,4.7-2.4,6.7-4
			c2.9-2.4,4.2-5.3,6-8.1c1.3-2.1,2.5-4.2,3.4-6.3c0.1-0.2,0.3-0.4,0-0.8C495.5,302.2,494.6,303.5,493.7,304.8z"/>
		<path fill="#2C1BCC" d="M493.9,310.2c1.8-3.1,3.2-6.3,4.4-9.6c0.8-2.3,1.5-4.6,2.2-7c0.1-0.2,0-0.6,0.4-0.6c0.4,0,0.5,0.3,0.6,0.5
			c0.5,0.9,1,1.8,1.4,2.7c0.7,1.4,1.3,2.8,1,4.3c-0.4,2.5,0.1,4.7,1.5,6.8c0.5,0.7,0.6,1.5,0.4,2.4c-0.5-0.3-0.8-0.3-1,0.3
			c-1.5,3.6-3.2,7-5.7,10.3c-1.5,2-3.6,3.5-6,4.9c-3.3,1.8-6.8,3.4-10.3,5c-0.8,0.3-1.5,0.8-2,1.3c0.4,0.2,0.6,0,0.9-0.1
			c5.1-1.9,9.9-4.1,14.6-6.5c2.5-1.2,5-2.5,7.6-3.7c0.7-0.4,1.5-0.7,1.5-1.5c0-0.2,0.2-0.3,0.5-0.4c-0.5,1.4,0.1,2.8-0.1,4.2
			c-0.6-0.2-0.3-0.7-0.4-1.1c-0.1-0.4-0.3-0.5-0.8-0.3c-3.2,1.7-6.4,3.3-9.5,5.1c3.6-0.8,7-2.3,10.8-2.6c0.5,2.9,0.7,5.8,0.2,8.8
			c-0.1,0.6-0.4,0.9-1.2,1c-1.5,0.2-3,0.4-4.5,0.6c0.2-0.5,0.9-0.6,1.2-1c1.2-1.9,2.2-3.7,2.9-5.7c0.2-0.6-0.1-0.7-0.8-0.6
			c-1.2,0.2-2.4,0.6-3.5,0.9c-4.6,1.5-9.2,3.2-13.9,4.6c-4.6,1.5-9.3,2.8-14.2,3.8c-3.4,0.7-6.7,1.4-10.1,2
			c-2.6,0.5-5.2,0.8-7.8,0.9c-1.5,0-2.9,0-4.4,0.1c-0.3,0-0.7,0-0.7-0.3c-0.1-0.4,0.4-0.3,0.6-0.4c1.3-0.4,2.6-0.4,3.9-0.4
			c1.9,0,3.8-0.1,5.7-0.7c2.4-0.6,4.6-1.6,6.8-2.5c7.1-3,14.1-6.1,20.5-10.1c3.5-2.2,6.6-4.6,8.7-7.7c2.4-3.4,4.5-7,6.3-10.6
			c0.6-1.3,1.2-2.6,1-4c-0.1-0.4-0.1-0.9-0.7-1c-0.7-0.1-1.3,0.1-1.7,0.6c-2.2,2-4.2,4.1-5.5,6.5c-0.3,0.6-0.3,1.4-1.4,1.8
			C493.5,311,493.7,310.6,493.9,310.2z M503,322.2c-6,3-12,6-18.4,8.6c-0.8,0.3-1.5,0.6-2.3,0.9c-0.3,0.1-0.8,0.2-0.6,0.6
			c0.1,0.3,0.6,0.1,0.8,0c0.9-0.3,1.9-0.5,2.8-0.9c6.4-2.8,12.6-5.8,18.6-9.1c0.2-0.1,0.4-0.3,0.8-0.5
			C503.9,321.6,503.5,321.9,503,322.2z M499.7,297.5c-0.1,0.1-0.1,0.3,0.2,0.4c0.1,0,0.3-0.1,0.4-0.2c0.6-0.5,1.3-1,1.6-1.6
			c0.5-0.8-0.3-1.4-0.8-2.2C500.4,295.2,500.2,296.4,499.7,297.5z"/>
		<path fill="#2C1BCC" d="M428.3,315.1c0.5-0.7-0.1-1.3,0.2-1.9c0.4-1.1,1-2.1,1.2-3.4c0.7,0.4,0.9,0.9,1.2,1.4
			c2.4,3.6,4.6,7.3,7.2,10.8c1.4,1.8,2.8,3.6,4.5,5.2c0.1,0.1,0.3,0.3,0.5,0.4c0.5,0.2,0.8,0.8,1.5,0.3c0.6-0.4,0-0.9-0.3-1.2
			c-4.2-4.1-7-8.9-10.1-13.5c-0.3-0.5-0.3-0.5-0.3-1.2c1,0.9,1.8,1.6,2.7,2.4c1.1,0.9,1.9,1.9,3.3,2.6c0.2,0.1,0.4,0.3,0.7,0.2
			c0.3-0.1,0.2-0.4,0.1-0.6c0-0.7-0.4-1.3-0.8-1.8c-3-4.9-6-9.8-8.9-14.7c-1.9-3.2-3.6-6.5-4.7-9.9c-1-3.2-1.6-6.4-2-9.7
			c-0.1-1.1-0.2-2.2-0.3-3.3c0.3-7.1,2.1-13.8,1.3-20.7c-1.7,4.5-2.8,9.5-3.1,14.4c-0.5-0.5-0.9-1.6-0.9-2.2
			c-0.3,4.3-0.4,8.8,0.7,12.7c0.2,1.2,0.4,2.5,0.6,3.7c0.4,2.5,0.8,4.9,1.2,7.4c0.4,2.3,0.7,4.7,1.7,7c1.2,2.9,3.1,5.5,4.8,8.2
			c3.2,5.3,6.3,10.7,10.4,15.7c0.9,1.1,1.9,2.1,2.8,3.2c0.1,0.2,0.5,0.3,0.2,0.5c-0.3,0.3-0.5-0.1-0.7-0.1c-0.4-0.2-0.6-0.5-0.9-0.8
			c-4.4-5-7.8-10.4-11.3-15.8c-1.1-1.7-2.3-3.5-3.4-5.2c-0.3-0.4-0.5-0.8-1.1-1.2c-0.2,0.5-0.3,1-0.2,1.4c0.3,3.3,0.9,6.5,2,9.6
			C428.1,314.9,428.3,315,428.3,315.1z"/>
		<path fill="#3F36F2" d="M456.6,252.7c1.4-0.2,3-0.4,4.3-0.8c1.3-0.4,2.5-1.1,3.7-1.7c4.5-2,9.9-6.4,8.9-10.6c-2-5.6-5.6,5-9.3,6.4
			c-1.1,0.8-2.2,1.5-3.4,2c-3.6,1.6-7.9,1.8-11.9,0.5c-1.7-0.5-3.3-1.2-4.7-1.9s-2.8-1.6-4.1-2.7c-1.4-1.3-3.2-1.6-3.4,0.6
			c-0.9,3.3,2.6,2.9,3.8,4.9c1.5,1,3.3,1.8,5.2,2.4s4,0.9,6.2,1.1C453.5,253,455,252.9,456.6,252.7z"/>
		<path fill="#2C1BCC" d="M413.7,262.2c2.3,0,1.7,3.2,2.7,4.9c-1.2,5-0.2,9.5,1.9,14.8c0.4,1,1,1.9,1.5,2.9c0.1,0.2,0.2,0.3,0.5,0.3
			c0.3-0.1,0.3-0.3,0.2-0.5c0-0.2-0.1-0.4-0.2-0.6c-0.9-1.7-1.8-3.4-2.6-5.1c-1.2-3.7-1.3-8-0.5-11.9c2.4,1.3,3.5,3.3,3,6
			c0.2-2.2-1.6-5.7-2.3-4.5c-2.4,2.5-0.4,7.6,0.5,11.2c2.5-1.4,1-5.5,2-8.3c0.3,2.6-0.3,8.1,0.7,10.6c0.2,1.2,0.4,2.4,0.6,3.6
			c0.2,1.2,0.4,2.4,0.6,3.6c0.5,3.2,0.7,6.3,1.9,9.4c0.2,0.6-0.1,0.9-0.9,0.9c-1.4,0.1-2.8,0.1-4.1-0.1c-2.4-0.4-3.7-1.5-3.8-3.4
			c-0.1-1-0.4-2-0.6-3c-0.1-0.2,0-0.5-0.5-0.6c-0.4,0.4-0.2,0.8-0.3,1.2c-0.4,0-0.4-0.2-0.4-0.4c-0.1-1.3-0.4-2.6-0.7-3.9
			s-0.6-2.6-0.7-3.9c-2.5-7.7,2-14.2,1.5-21.6c-0.3,1.1-1.3,2.1-1.9,2.6C412.3,265.5,413.2,263,413.7,262.2z M419.6,286.2
			c-0.3-1.9-1.4-3.7-2.3-5.5c-1.9-4.3-2-8.5-1.6-12.9c-2.9,5.2-2,12.1-1.4,17.8c0.2,1.2,0.3,2.3,0.5,3.5c0.2,1.2,0.4,2.3,0.6,3.5
			c0.3,1.5,0.5,2.9,0.8,4.4c0.2,1,1.2,1.5,2.4,1.8c0.8,0.2,1.9,0.7,2.7,0.3c0.7-0.4,0.1-1.2,0.1-1.9c0-1-0.2-1.9-0.3-2.9
			C420.8,291.6,420,288.9,419.6,286.2z M413.6,285.8c-0.8-5.3-1.4-10,0.2-15.1c-1.7,4.5-1.8,10.4-0.5,15.1c0.3,1.6,0.6,3.2,0.9,4.8
			C414,289,413.8,287.4,413.6,285.8z"/>
		<path fill="#2C1BCC" d="M469.2,238.9c-2.4,0-4.7,1.9-6.9,2.5c-1.2,0.3-2.3,0.6-3.5,0.8c-4.9,1-9.9,1.3-15,1.2
			c-1,0-2.1-0.1-3.1-0.1c1,0.9,2.1,1.6,3.2,2.2c1.1,0.5,2.4,0.9,3.9,0.9c4.1,0.1,8.1-0.3,12.1-1.3c1.3-0.3,2.6-0.7,4-1.2
			c1.5-0.5,2.6-1.2,3.5-2.1C468.1,241,468.7,240,469.2,238.9z"/>
		<path fill="#2C1BCC" d="M447.6,247.1c3.3,1.9,8.9,1.8,12.8,0.3c2-0.7,3.5-1.8,4.2-3.1c-1.4,0.5-2.8,0.9-4.2,1.2s-2.8,0.5-4.2,0.7
			C453.5,246.6,450.7,246.9,447.6,247.1z"/>
		<path fill="#3F36F2" d="M420.4,272.9c0.1-2-1.3-5.1-2.3-4.7c-3.2,2.6-0.9,8.5,0.4,11.6c2.6-0.9,1.3-2.9,1.9-6.4
			C420.4,273.2,420.4,273,420.4,272.9z"/>
		<path fill="#3F36F2" d="M505.9,323.7c-0.6-0.2-0.3-0.7-0.4-1.1c-0.1-0.4-0.3-0.5-0.8-0.3c-3.2,1.7-6.4,3.3-9.5,5.1
			c3.6-0.8,7-2.3,10.8-2.6C505.9,324.4,505.9,324,505.9,323.7z"/>
		<path fill="#2C1BCC" d="M421.7,301.9c0.8-0.3,1.8-0.3,2.6-0.8c0.3-0.2,0.6-0.3,0.5-0.7c-0.1-0.3-0.4-0.4-0.8-0.3
			c-2.3,0.4-4.5,0-6.5-0.6c-0.3-0.1-0.7-0.3-1,0c-0.3,0.3,0,0.5,0.2,0.7C417.8,301.6,419.5,301.9,421.7,301.9z"/>
		<path fill="#2C1BCC" d="M443.8,333.8c0.7,0,0.7,0,0.4-0.5c-0.7-1.1-1.8-1.9-2.7-2.8c-3.7-3.4-7.1-6.9-10.2-10.6
			c-0.7-0.8-1.5-1.6-1.7-2.6c0-0.2-0.2-0.2-0.4-0.2c0.1,1.2,1,2.1,1.8,3.1c3.5,4.1,7.5,7.9,11.4,11.7
			C442.9,332.5,443.6,333,443.8,333.8z"/>
		<path fill="#2C1BCC" d="M498.5,254c-2.3-0.8-3.5-3.4-5.5-4.7c1.2,2.5,2,5.1,4.6,5.8C498,254.8,498.5,254.5,498.5,254z"/>
		<path fill="#C90010" d="M418.4,265.8c0.7,0.4,0.7,0.9,1.2,1.4c1.1-1.8,1.8-3.5,0.3-4.9c-0.9-0.4-1.2,1.2-1.8,2
			C417.9,265.1,418.5,265.2,418.4,265.8z"/>
		<path fill="#3F36F2" d="M445.4,252.5c0,0.4,0.5,0.4,0.8,0.5c3.9,1,7.9,1.1,12.1,0.3c1.5-0.3,3-0.7,4.4-1.2
			c1.4-0.5,2.8-1.2,4.1-1.9c0.3-0.2,0.6-0.3,0.5-0.6c-1.2,0.6-2.4,1.2-3.7,1.8c-1.3,0.5-2.5,1-3.9,1.3c-4.5,1.2-8.8,0.9-13.1,0.1
			C446.2,252.7,445.8,252.6,445.4,252.5z"/>
		<path fill="#3F36F2" d="M495,249.4c1.4,1.6,2.4,2.5,3.9,3.9c1.1-1.8-2-1.9-2.4-2.6C496,250.3,495.6,249.8,495,249.4z"/>
		<path fill="#3F36F2" d="M492.5,247.5c-0.3-1.3-0.8-1.8-2.1-1.6c0.6,1,1.1,1.5,2,1.7C492.5,247.6,492.5,247.6,492.5,247.5z"/>
		<path fill="#AF1E30" d="M435.3,245.5c0.9,1.3,1.6,3.3,3.7,3.7C437.7,248,436.5,246.8,435.3,245.5z"/>
		<path fill="#AF1E30" d="M470.2,247.3c1.1-0.3,2.2-1.6,2.1-2.5C471.6,245.6,470.9,246.5,470.2,247.3z"/>
		<path fill="#3F36F2" d="M443.1,251.7c0.4,0.8,1.3,0.9,2.3,0.8C444.6,252.2,443.9,252,443.1,251.7z"/>
		<path fill="#AF1E30" d="M439,249.2c0.1,0.8,0.7,1.1,1.6,1.2C440.1,249.9,439.6,249.6,439,249.2z"/>
		<path fill="#AF1E30" d="M441.3,250.8c0.2,0.6,0.7,0.9,1.6,0.8C442.4,251.3,441.9,251,441.3,250.8z"/>
		<path fill="#3F36F2" d="M493.7,248.3c1.3,2.4,4,2.5,4.8,5.6c-2.3-0.8-3.5-3.3-5.4-4.7C493.1,248.7,493,248.1,493.7,248.3z"/>
		<path fill="#3F36F2" d="M502,290.1L502,290.1L502,290.1c0.3-1.8,0.7-3.6,1.6-5.4c0.6,1.6,0.3,3.2,0.3,4.7
			c-0.2,0.3-0.5,0.4-0.9,0.5C502.8,290.5,502.5,290.6,502,290.1C502,290.1,502,290.1,502,290.1z"/>
		<path fill="#AF1E30" d="M468,249.1c0.4,0,0.8-0.1,0.7-0.5C468.3,248.7,468.1,248.9,468,249.1z"/>
		<path fill="#AF1E30" d="M467.2,249.6c0.4,0,0.8,0,0.7-0.5C467.6,249.2,467.4,249.3,467.2,249.6z"/>
		<path fill="#AF1E30" d="M468.9,248.4c0.4-0.1,0.8-0.2,0.6-0.6C469.2,248,469,248.2,468.9,248.4z"/>
		<path fill="#3F36F2" d="M506.7,286.9c0.3-2.4-0.1-4.8-0.2-7.1c-0.1-1.7-0.2-3.4-0.3-5.1s-0.7-3.3-1-5.1c-1-5-2-9.8-5.5-13.1
			c-0.1-0.5,0.3-2,0.8-2c5,0.9,5.8,6.1,9.6,7.8c1.4,0.9,5.7,5.4,3.9,8.2c-1.3,1.3-3.1,2.6-4.1,4c-0.8,1.1-0.6,1.7,0.8,2.2
			c1,0.4,2.2,0.7,3.1,1.2c2.5,1.4,5.3,2.7,4.1,5.9c0,0.1,0,0.2,0,0.3c0.2,0.7,0,1.4-0.5,2c-0.2,0.1-0.5,0.2-0.8,0.2
			c-0.1,0.2-0.3,0.3-0.6,0.3c0-0.1,0.1-0.2,0.1-0.2c0,0,0.1-0.1,0.2-0.1c-0.1,0-0.1,0-0.2,0.1c-0.1,0-0.1,0.1-0.1,0.2
			c-0.2,0.1-0.5,0.1-0.7,0.2c-0.3,0.3-0.6,0.2-1,0.2c-0.5,0.1-1.1,0.2-1.6,0.3c-0.2,0-0.3,0.1-0.5,0.1c-1.4,0.2-2.8,0.4-4.3,0.6
			C507.6,287.4,506.7,287.6,506.7,286.9z"/>
		<path fill="#3F36F2" d="M482.9,330.3c3.5-1.6,7-3.2,10.3-5c2.4-1.4,4.6-2.8,6-4.9c2.4-3.3,4.2-6.8,5.7-10.3c0.2-0.6,0.5-0.6,1-0.3
			c0,0.1,0,0.2-0.1,0.3c0,0.9-0.4,1.8-0.8,2.7c-0.2,0.7-0.4,1.3-0.4,2c0,0.1,0.1,0.2,0.1,0.4c0.2,0.5,0.3,0.9,0.5,1.4
			c0.2,0.1,0.2,0.2,0.2,0.3c0.6,0.8,1,1.6,0.6,2.6c-0.3,0.1-0.4,0.2-0.5,0.4c-0.1,0.7-0.8,1.1-1.5,1.5c-2.5,1.2-5.1,2.4-7.6,3.7
			c-4.7,2.4-9.6,4.6-14.6,6.5c-0.3,0.1-0.5,0.3-0.9,0.1C481.4,331,482.1,330.6,482.9,330.3z"/>
		<path fill="#3F36F2" d="M407,300.3c-0.2,0-0.4,0-0.5-0.1c-0.4,0.1-1.1,0-1.5-0.1c-1.7-0.2-3.5-0.2-5-0.7c-0.4-0.1-0.4-0.8-0.1-1.2
			c0-0.1,0-0.2,0-0.4c0-0.7,0.2-1.4,1.4-1.2c3.7,0.4,7.5,0.5,11.3,0.8c0.3,0,0.3,0,0.6-0.1c-0.3-0.3-0.3-0.3-0.8-0.4
			c-1.2-0.1-2.4,0.1-3.6,0c-2.3-0.2-4.9-0.6-7.1-0.8c-0.6-0.1-1.5,0.2-1.2-0.9c0.4-1.5,0.6-3,1.1-4.6c0-0.4,0.1-0.8,0.3-1.1
			c0-0.1-0.1-0.3,0.1-0.4c0.3-1.1,0.6-2.3,1-3.4c0.3-1.1,0.6-2.3,1-3.4c1.4-7.9,5.8-14,9.9-19.9c0.2,11.9-4.1,15.1-1.6,22.6
			c0.2,1.3,0.5,2.6,0.7,3.9s0.6,2.6,0.7,3.9c0,0.2,0.1,0.4,0.4,0.4c0.1,0.8,0.2,1.7,0.3,2.5c-0.2,0.2-0.5,0.3-0.7,0.4
			c0.2-0.1,0.5-0.2,0.7-0.4c0.2,1.2,1,2.8,1.1,4c0,0.6-0.4,0.6-1.2,0.4c-0.2,0-0.5,0.3-0.8,0.3"/>
		<path fill="#C90010" d="M408.7,299.8"/>
		<path fill="#C90010" d="M409,300c-0.2,0.1-0.4,0.1-0.5,0"/>
		<path fill="#1B02AA" d="M463.3,328.9c0.4,0.6,0.9,0.1,1.2-0.1c2-1.1,3.8-2.5,5.5-3.9c8.6-6.9,15.4-14.7,20.7-23.2
			c1.2-1.9,2.1-3.8,3.1-5.7c0.2-0.4,0.4-0.8,0.3-1.4c-1.2,0.9-1.3,2-2.2,2.9l0,0c-0.1,0.5-0.4,1-0.8,1.4l0,0c-0.1,0.5-0.4,1-0.8,1.4
			l0,0c-0.2,0.5-0.4,1-0.8,1.4l0,0c0,0.2-0.1,0.4-0.4,0.6l0,0c0,0.2-0.1,0.4-0.4,0.6l0,0c0,0.2-0.1,0.4-0.4,0.6l0,0
			c-0.3,0.8-0.8,1.5-1.5,2.2l0,0c-0.1,0.3-0.3,0.6-0.6,0.8l0,0c-0.1,0.3-0.3,0.6-0.6,0.8l0,0c-0.1,0.3-0.3,0.6-0.6,0.8l0,0
			c0,0.2-0.2,0.4-0.4,0.6l0,0c-0.1,0.3-0.3,0.6-0.6,0.8l0,0c-0.1,0.4-0.5,0.7-0.8,1c0,0.1-0.1,0.1-0.1,0.2c-0.1,0.3-0.4,0.6-0.7,0.8
			c-0.1,0.1-0.1,0.1-0.2,0.2c-0.2,0.4-0.5,0.7-0.9,1c-0.1,0.1-0.1,0.1-0.2,0.2c-0.2,0.4-0.5,0.7-0.9,1c-0.2,0.2-0.4,0.4-0.6,0.6
			c-0.4,0.6-0.9,1.2-1.6,1.7c-0.2,0.2-0.4,0.4-0.6,0.6c-0.6,0.9-1.5,1.6-2.4,2.4c-0.7,0.7-1.3,1.4-2.2,2c-0.3,0.4-0.6,0.7-1.1,0.9
			c-0.2,0.2-0.5,0.4-0.7,0.6c-0.2,0.3-0.5,0.5-0.8,0.7c-0.2,0.2-0.5,0.4-0.7,0.6c-0.1,0.2-0.4,0.4-0.6,0.5c-0.1,0.1-0.2,0.1-0.2,0.2
			c-0.1,0.2-0.4,0.4-0.7,0.5c-0.1,0.1-0.2,0.1-0.2,0.2c-0.1,0.2-0.4,0.4-0.7,0.5c-0.1,0.1-0.2,0.1-0.2,0.2c-0.1,0.2-0.4,0.4-0.7,0.5
			c-0.3,0.2-0.6,0.4-0.9,0.6c-0.1,0.2-0.4,0.4-0.7,0.5c-0.1,0.1-0.2,0.1-0.2,0.2c-0.1,0.2-0.4,0.4-0.6,0.5
			C463.7,328.5,463.5,328.7,463.3,328.9z"/>
		<g>
			<path fill="#3F36F2" d="M468,249.1"/>
			<path fill="#3F36F2" d="M420.6,268.9l1.7,1.8c0.3-4.9,1.4-9.8,3.1-14.4c0.9,6.9-1,13.5-1.3,20.7c0.1,1.1,0.2,2.2,0.3,3.3
				c0.4,3.3,1,6.5,2,9.7c1.1,3.5,2.8,6.7,4.7,9.9c3,4.9,6,9.8,8.9,14.7c0.3,0.6,0.7,1.2,0.8,1.8c0,0.2,0.2,0.4-0.1,0.6
				c-0.3,0.1-0.5-0.1-0.7-0.2c-1.4-0.7-2.2-1.7-3.3-2.6c-0.9-0.8-1.8-1.5-2.7-2.4c-0.1,0.7-0.1,0.7,0.3,1.2
				c3.1,4.6,5.9,9.4,10.1,13.5c0.3,0.3,0.9,0.7,0.3,1.2c-0.6,0.5-1-0.1-1.5-0.3c-0.2-0.1-0.4-0.2-0.5-0.4c-1.7-1.6-3.1-3.4-4.5-5.2
				c-2.6-3.5-4.9-7.2-7.2-10.8c-0.3-0.4-0.5-1-1.2-1.4c-0.3,1.2-0.8,2.3-1.2,3.4c-0.3,0.7,0.3,1.3-0.2,1.9c0,0.1,0.1,0.2,0.1,0.3
				c0,0.2,0,0.4,0.2,0.5c0,0.1,0.1,0.2,0.1,0.3c0,0.2,0,0.4,0.2,0.5c0,0.1,0.1,0.2,0.1,0.3c0.2,0,0.4,0.1,0.4,0.2
				c0.2,1,1,1.8,1.7,2.6c3.1,3.7,6.6,7.2,10.2,10.6c1,0.9,2.1,1.7,2.7,2.8c0.3,0.5,0.3,0.5-0.4,0.5c-0.3-0.1-0.5-0.1-0.8-0.2
				c-0.1-0.2-0.3-0.4-0.6-0.5l0,0c-0.1-0.2-0.2-0.4-0.5-0.5c-1.9-1.8-3.7-3.7-5.6-5.5c-0.7-0.7-1.3-1.4-2.1-2l0,0
				c-1.8-2-3.5-4-5.3-6c-0.5,0.4-0.6,0.7-0.6,1c-0.3,0.8-0.1,1.6,0.1,2.3c0,0.2-0.1,0.4,0.2,0.5c0,0.1,0.1,0.2,0.1,0.3
				c0,0.1,0,0.3,0.1,0.4c0.1,0.1,0.1,0.2,0.2,0.3c0,0.1,0,0.3,0.2,0.4c0.8,1.6,1.8,3.1,3.3,4.4c0.1,0.2,0.3,0.4,0.5,0.5
				c0.2,0.2,0.5,0.4,0.7,0.6c0.1,0.2,0.3,0.4,0.6,0.5c0,0,0-0.1,0-0.1c0,0,0,0.1,0,0.1c0.1,0.1,0.1,0.1,0.2,0.2l0,0
				c0.4,0.4,0.8,0.7,1.4,0.9c0.1,0,0.1,0.1,0.2,0.1c1,0.9,2.4,1.4,3.6,2.1c0.5,0.3,1.1,0.6,1.5,1c-0.4,0.3-0.7,0-1,0
				c-0.2-0.1-0.4-0.2-0.5-0.2c-1.8-1-3.6-2.1-5.4-3.1l0,0c-0.5-0.5-1.2-0.9-1.9-1.2l0,0c-0.1-0.2-0.4-0.4-0.7-0.5
				c-0.2,0.4-0.4,0.8-0.4,1.2c0.1,0,0.2-0.1,0.3-0.2c-0.1,0.1-0.2,0.1-0.3,0.2c0,0.1-0.1,0.2-0.1,0.4c-0.2,0.1-0.1,0.3-0.1,0.4
				c0,0.2,0,0.4,0,0.5c-0.2,0.2-0.1,0.4-0.1,0.6c0,0.3,0,0.6,0,0.9c-0.2,0.2-0.1,0.4,0,0.6c0,1.7,0.4,3.3,0.5,5
				c0.1,0.8,0.5,1.2,1.6,0.9c0.1,0.1,0.3,0.1,0.5,0v0c0.4,0,0.8,0,1.2,0c0.2,0,0.3,0,0.5,0c-0.1-0.1-0.1-0.2-0.2-0.2
				c0.1,0,0.1,0.1,0.2,0.2c0.2,0,0.5,0,0.7,0c0.2,0,0.3,0,0.5,0c0.2,0,0.3,0,0.5,0c0.1,0.1,0.3,0.1,0.5,0c0.2,0,0.3,0,0.5,0
				c0.1,0.1,0.3,0.1,0.5,0c0.4,0,0.8,0.1,1.2,0.1c0.1,0.1,0.3,0.1,0.5,0.1c1.1,0.1,2.1,0.2,3.2,0.4c0.1,0.1,0.3,0.1,0.5,0.1
				c3,0.5,5.9,0.9,8.9,1.4h0c1.1,0.3,2.3,0.4,3.4,0.4c0.2,0,0.3,0,0.5,0.1c0.7,0.1,1.5,0.2,2.2,0.1c0.2,0,0.3,0,0.5,0
				c0.2,0.1,0.5,0.1,0.7,0l0,0c0.2,0,0.3,0,0.5,0c0.2,0.1,0.3,0.1,0.5,0l0,0c0.2,0,0.3,0,0.5,0v0c0.2,0.2,0.5,0.1,0.7,0
				c0.3,0,0.6,0,0.9,0c0.2,0.1,0.5,0.1,0.8,0l0,0c0.3,0,0.6,0,0.9,0h0c0.4,0.1,0.8,0,1.2,0c0.2,0,0.3,0,0.5,0c3-0.1,5.9-0.3,8.9-1
				c0.2-0.1,0.5-0.1,0.7-0.2c0.6-0.1,1.3,0,1.9-0.4c0.4-0.1,0.8-0.2,1.2-0.2c0.2,0,0.4,0,0.5-0.1c0.4-0.1,0.8-0.2,1.1-0.3
				c0.2,0,0.4,0,0.5-0.2c0.2-0.1,0.5-0.1,0.7-0.2c0.2,0,0.4,0,0.5-0.1c0.2-0.1,0.4-0.1,0.7-0.2c0.2,0,0.3-0.1,0.5-0.1
				c0.2-0.1,0.4-0.1,0.7-0.2c0.2,0,0.4,0,0.5-0.2c0.1,0,0.3-0.1,0.4-0.1c0.2,0,0.4,0,0.5-0.1c0.5-0.2,0.9-0.3,1.4-0.5
				c0.2,0,0.4,0,0.5-0.2c0.7-0.2,1.4-0.5,2.1-0.7c0.2,0,0.4,0,0.5-0.2c0.1,0,0.3-0.1,0.4-0.1c0.5-0.1,1-0.2,1.4-0.5
				c0.2,0,0.3-0.1,0.5-0.1v0c0.2,0,0.4,0,0.5-0.1c0,0,0,0-0.1,0c0,0,0,0,0.1,0c0.1,0,0.3-0.1,0.4-0.1c0.3,0,0.7,0,0.9-0.3
				c0.2,0,0.3-0.1,0.5-0.1c0.3,0,0.7,0,1-0.2c0.2-0.1,0.5-0.1,0.7-0.2c0.5,0,1-0.1,1.4-0.3c0.9-0.2,1.7-0.3,2.6-0.5
				c0.2-0.5,0.9-0.6,1.2-1c1.2-1.9,2.2-3.7,2.9-5.7c0.2-0.6-0.1-0.7-0.8-0.6c-1.2,0.2-2.4,0.6-3.5,0.9c-4.6,1.5-9.2,3.2-13.9,4.6
				c-4.6,1.5-9.3,2.8-14.2,3.8c-3.4,0.7-6.7,1.4-10.1,2c-2.6,0.5-5.2,0.8-7.8,0.9c-1.5,0-2.9,0-4.4,0.1c-0.3,0-0.7,0-0.7-0.3
				c-0.1-0.4,0.4-0.3,0.6-0.4c1.3-0.4,2.6-0.4,3.9-0.4c1.9,0,3.8-0.1,5.7-0.7c2.4-0.6,4.6-1.6,6.8-2.5c7.1-3,14.1-6.1,20.5-10.1
				c3.5-2.2,6.6-4.6,8.7-7.7c2.4-3.4,4.5-7,6.3-10.6c0.6-1.3,1.2-2.6,1-4c-0.1-0.4-0.1-0.9-0.7-1c-0.7-0.1-1.3,0.1-1.7,0.6
				c-2.2,2-4.2,4.1-5.5,6.5c-0.3,0.6-0.3,1.4-1.4,1.8c-0.1,0.1-0.1,0.2-0.2,0.3c-0.2,0.2-0.4,0.4-0.4,0.7c-0.1,0.1-0.1,0.2-0.2,0.3
				c-0.3,0.3-0.5,0.6-0.6,1l0,0c-0.3,0.2-0.4,0.4-0.4,0.6c-0.1,0.1-0.1,0.2-0.2,0.3c-0.2,0.2-0.4,0.4-0.4,0.6l0,0
				c-0.3,0.2-0.4,0.4-0.4,0.6l0,0c-0.3,0.2-0.4,0.4-0.4,0.6l0,0c-0.3,0.2-0.4,0.4-0.4,0.6l0,0c-0.3,0.2-0.4,0.4-0.4,0.6l0,0
				c-0.3,0.2-0.6,0.5-0.6,0.8l0,0c-0.4,0.2-0.5,0.5-0.7,0.8c0,0.1-0.1,0.1-0.1,0.2c-0.4,0.3-0.7,0.6-0.9,1c-0.1,0.1-0.1,0.1-0.2,0.2
				c-0.7,0.5-1,1.3-2.1,1.6c0.4-1.1,1.5-1.9,2.1-2.9c0.2-0.2,0.3-0.5,0.5-0.7c-0.1-0.2,0-0.7-0.6-0.2c-0.9,0.8-1.8,1.5-2.7,2.3
				c-4.2,3.5-9.2,6.2-14.5,8.6c-4.6,2.1-9.4,3.6-14.4,4.8c-1.1,0.3-2.2,0.6-3.3,0.8c-0.3,0.1-0.7,0.2-0.9-0.2
				c-0.1-0.3,0.2-0.4,0.5-0.5c0.2-0.1,0.4-0.1,0.6-0.2c3.6-1.1,6.8-2.7,9.8-4.6c0.5-0.3,0.8-0.8,1.5-0.7c0.2-0.2,0.4-0.4,0.6-0.6
				c0.3-0.1,0.5-0.3,0.6-0.5h0c0.1-0.1,0.2-0.1,0.2-0.2c0-0.1,0-0.2,0-0.2c0,0.1,0,0.1,0,0.2c0.3-0.1,0.5-0.3,0.7-0.5l0,0
				c0.3-0.2,0.6-0.4,0.9-0.6c0.3-0.1,0.5-0.3,0.7-0.5h0c0.1-0.1,0.2-0.1,0.2-0.2c0.3-0.1,0.5-0.3,0.7-0.5h0c0.1-0.1,0.2-0.1,0.2-0.2
				c0.3-0.1,0.5-0.3,0.7-0.5h0c0.1-0.1,0.2-0.1,0.2-0.2c0.3-0.1,0.5-0.3,0.6-0.5l0,0c0.2-0.2,0.5-0.4,0.7-0.6
				c0.4-0.2,0.7-0.4,0.8-0.7l0,0c0.2-0.2,0.5-0.4,0.7-0.6c0.4-0.3,0.8-0.6,1.1-0.9h0c0.8-0.6,1.5-1.3,2.2-2c0.9-0.7,1.8-1.5,2.4-2.4
				l0,0c0.2-0.2,0.4-0.4,0.6-0.6c0.6-0.5,1.2-1,1.6-1.7l0,0c0.2-0.2,0.4-0.4,0.6-0.6c0.4-0.3,0.7-0.6,0.9-1l0,0
				c0.1-0.1,0.1-0.1,0.2-0.2c0.4-0.3,0.7-0.6,0.9-1l0,0c0.1-0.1,0.1-0.1,0.2-0.2c0,0,0-0.1,0-0.1c0-0.1,0-0.2,0-0.2
				c0,0.1,0,0.1,0,0.2c0,0,0,0.1,0,0.1c0.3-0.2,0.6-0.5,0.7-0.8l0,0c0-0.1,0.1-0.1,0.1-0.2c0-0.1,0-0.1,0-0.2c0,0.1,0,0.1,0,0.2
				c0.4-0.3,0.7-0.6,0.8-1l0,0l0,0l0,0c0,0,0,0,0,0c0.3-0.2,0.6-0.5,0.6-0.8l0,0l0,0v0c0,0,0,0,0,0c0.3-0.1,0.4-0.3,0.4-0.6l0,0l0,0
				c0.3-0.2,0.5-0.5,0.6-0.8l0,0l0,0l0,0l0,0l0,0c0,0,0-0.1,0-0.1c0,0,0,0,0,0.1c0.3-0.2,0.6-0.5,0.6-0.8l0,0l0,0l0,0c0,0,0,0,0,0
				c0.3-0.2,0.6-0.5,0.6-0.8l0,0h0l0,0c0,0,0,0,0,0c0.6-0.7,1.1-1.4,1.5-2.2l0,0l0,0c0.3-0.2,0.4-0.4,0.4-0.6l0,0l0,0
				c0.3-0.2,0.4-0.4,0.4-0.6l0,0l0,0l0,0l0,0l0,0c0.3-0.2,0.4-0.4,0.4-0.6l0,0l0,0l0,0c0,0,0,0,0,0c0.5-0.4,0.7-0.9,0.8-1.4l0,0l0,0
				c0.4-0.4,0.7-0.9,0.8-1.4l0,0l0,0v0l0,0l0,0c0.4-0.4,0.7-0.9,0.8-1.4l0,0l0,0c-0.2-0.7,0.3-1.3,0.7-1.8c1.7-2.3,2.4-4.7,2.9-7.2
				c1-4.7,1.6-9.4,1.7-14.1c0-1.5,0-3,0-4.5c-0.7-10.4-6.3-19.3-11.9-24.9c-5.7-6.2-13.8-1.7-18.9,4.3c-1.3,0.8-2.4,1.9-3.8,2.5
				c-1.4,0.5-2.8,1.3-4.4,1.6c-4.1,0.8-8.2,0.6-12.1-0.3c-0.3-0.1-0.8-0.1-0.8-0.5l0,0c-1,0.1-1.9,0-2.3-0.8c-0.1,0-0.2-0.1-0.3-0.1
				c-3.4-1.1-5.5-5.5-8.7-6.2c-8.6-1-15.3,5.8-18.5,14.8c-0.5,0.5-0.4,0.7-0.4,1l0.7,4c0,0,2.1,1.9,2.6,1.8 M484.6,308.5
				C484.6,308.5,484.6,308.5,484.6,308.5C484.6,308.5,484.6,308.5,484.6,308.5z M484.6,308.5C484.6,308.5,484.6,308.5,484.6,308.5
				C484.6,308.5,484.6,308.5,484.6,308.5z M484.6,308.4C484.6,308.4,484.6,308.4,484.6,308.4C484.6,308.4,484.6,308.4,484.6,308.4z
				 M484.6,308.4C484.6,308.4,484.6,308.4,484.6,308.4C484.6,308.4,484.6,308.4,484.6,308.4z M484.6,308.3
				C484.6,308.3,484.6,308.3,484.6,308.3C484.6,308.3,484.6,308.3,484.6,308.3z M484.6,308.3C484.6,308.3,484.6,308.3,484.6,308.3
				C484.6,308.3,484.6,308.3,484.6,308.3z M484.6,308.2C484.6,308.2,484.6,308.3,484.6,308.2C484.6,308.3,484.6,308.2,484.6,308.2z
				 M484.6,308.2C484.6,308.2,484.6,308.2,484.6,308.2C484.6,308.2,484.6,308.2,484.6,308.2z M486.9,305.2
				C486.9,305.2,486.9,305.2,486.9,305.2C486.9,305.2,486.9,305.2,486.9,305.2z M486.9,305.1C486.9,305.1,486.9,305.1,486.9,305.1
				C486.9,305.1,486.9,305.1,486.9,305.1z M488.7,302.6C488.7,302.6,488.7,302.6,488.7,302.6C488.7,302.6,488.7,302.6,488.7,302.6z
				 M489.5,301.6L489.5,301.6C489.5,301.6,489.5,301.6,489.5,301.6C489.5,301.6,489.5,301.6,489.5,301.6z M489.5,301.2
				C489.5,301.2,489.5,301.2,489.5,301.2C489.5,301.2,489.5,301.2,489.5,301.2z M489.5,301.3C489.5,301.3,489.5,301.3,489.5,301.3
				C489.5,301.3,489.5,301.3,489.5,301.3z M489.5,301.4C489.5,301.4,489.5,301.4,489.5,301.4C489.5,301.4,489.5,301.4,489.5,301.4z
				 M489.5,301.5C489.5,301.5,489.5,301.5,489.5,301.5C489.5,301.5,489.5,301.5,489.5,301.5z M486.3,306.4L486.3,306.4
				C486.3,306.4,486.3,306.4,486.3,306.4C486.3,306.4,486.3,306.4,486.3,306.4z M484,309.4L484,309.4C484,309.4,484,309.4,484,309.4
				C484,309.4,484,309.4,484,309.4z M483.1,310.1C483.1,310.1,483.1,310.1,483.1,310.1C483.1,310.1,483.1,310.1,483.1,310.1z"/>
		</g>
		<path fill="#3F36F2" d="M496.4,300.7c-0.9,1.4-1.8,2.8-2.7,4.1c-1.9,2.8-4.1,5.4-6.8,7.8c-2.3,2-4.8,3.8-6.9,5.9
			c-0.2,0.2-0.5,0.4-0.6,0.7c-0.2,0.2-0.4,0.5-0.1,0.8c0.3,0.2,0.6,0.1,1,0c2.5-1,4.7-2.4,6.7-4c2.9-2.4,4.2-5.3,6-8.1
			c1.3-2.1,2.5-4.2,3.4-6.3C496.5,301.3,496.7,301.1,496.4,300.7z"/>
		<path fill="#1B02AA" d="M504.7,321.7c-0.8-0.1-1.2,0.2-1.7,0.4c-6,3-12,6-18.4,8.6c-0.8,0.3-1.5,0.6-2.3,0.9
			c-0.3,0.1-0.8,0.2-0.6,0.6c0.1,0.3,0.6,0.1,0.8,0c0.9-0.3,1.9-0.5,2.8-0.9c6.4-2.8,12.6-5.8,18.6-9.1
			C504.1,322.1,504.3,322,504.7,321.7z"/>
		<path fill="#3F36F2" d="M501.1,293.9c-0.8,1.3-0.9,2.5-1.4,3.7c-0.1,0.1-0.1,0.3,0.2,0.4c0.1,0,0.3-0.1,0.4-0.2
			c0.6-0.5,1.3-1,1.6-1.6C502.4,295.3,501.6,294.7,501.1,293.9z"/>
		<path fill="#2C1BCC" d="M502,290.1c0.3-1.8,0.7-3.6,1.6-5.4c0.6,1.6,0.3,3.2,0.3,4.7c0.9-1.1,2.3-1.6,3.9-1.7
			c-0.3-0.4-1.2-0.2-1.1-0.9c0.3-2.4-0.1-4.8-0.2-7.1c-0.1-1.7-0.2-3.4-0.3-5.1s-0.2-3.5-0.5-5.3c-1-5-2.8-9-5.5-12.9
			c-0.6-1,0.2-2.2,1.6-1.3c3,2.3,4.7,5.3,8.1,7.5c1.5,1.4,5.3,3.6,3.8,7.9c-1.3,1.3-2.7,2.5-3.7,3.9c-0.8,1.1-0.6,1.7,0.8,2.2
			c1,0.4,2.2,0.7,3.1,1.2c2.5,1.4,5.3,2.7,4.1,5.9c0,0.1,0,0.2,0,0.3c0.2,0.7,0,1.4-0.5,2c2.6-0.7,4.9-1.8,7.3-3
			c0.8-0.4,0.6-0.9,0.4-1.4c-0.3-0.5-0.8-0.1-1.2,0c-1.4,0.5-2.8,1.1-4.3,1.6c-0.3,0.1-0.8,0.4-1,0c-0.2-0.4,0.3-0.5,0.6-0.7
			c1.3-0.6,2.7-1.3,4-1.8c1.1-0.4,1.5-0.9,1.2-1.8c-0.5-1.6-1.2-3.1-1.9-4.6c-0.7-1.5-1.4-3-2.1-4.5c-4.3-9-11.7-15-19.8-18.7
			c0.8,3.1-3,4.2-1.4,6.6c2.7,3.9,4.2,8.5,4.6,13.2c0.1,1.5,0.1,3.1,0.1,4.6c0,4.6-0.4,9.1-1.8,13.7
			C501.7,289.4,501.2,289.9,502,290.1z M503.9,284c0,0-0.1-0.1-0.1-0.1l0,0C503.8,284,503.9,284,503.9,284z"/>
		<path fill="#3F36F2" d="M420.9,294.3c-0.1-2.8-0.9-5.4-1.3-8.1c-0.3-1.9-1.4-3.7-2.3-5.5c-1.9-4.3-2-8.5-1.6-12.9
			c-2.9,5.2-2,12.1-1.4,17.8c0.2,1.2,0.3,2.3,0.5,3.5c0.2,1.2,0.4,2.3,0.6,3.5c0.3,1.5,0.5,2.9,0.8,4.4c0.2,1,1.2,1.5,2.4,1.8
			c0.8,0.2,1.9,0.7,2.7,0.3c0.7-0.4,0.1-1.2,0.1-1.9C421.2,296.2,421,295.3,420.9,294.3z"/>
		<path fill="#1B02AA" d="M414.1,290.6c-0.1-1.6-0.3-3.2-0.5-4.9c-0.8-5.3-0.9-10.2,0.2-15.1c-2.2,3.7-1.8,10.4-0.5,15.1
			C413.5,287.4,413.8,289,414.1,290.6z"/>
		<path fill="#1B02AA" d="M470.9,235.7c5.5,1.9,11.4-0.5,16.3,2.6c9.7,6.2,17.2,13.2,27.4,19.9c2.9,1.8,5.1,5.2,6.7,8.7
			c0.6,1.1,1.2,2.1,1.7,3.1c1.1,2.1,2.1,4.2,2.9,6.4c0.2,0.4-0.3,1.1,0.7,1.3c0.3,2,0.5,4,0.8,6.1c-1.1,0.7-2.5,1.1-3.7,1.6
			c-3.5,1.6-7.2,2.9-11.1,3.5c-2.9,0.4-5.8,0.7-8.1,2.5c-0.7,0.6-1,1-0.6,1.7c0.2,0.3,0.3,0.6,0.5,0.9c1.7,2.5,2.3,5.3,2,8.2
			c-0.1,1.1,0.1,2,0.7,2.9c1.6,2.5,1.8,5.2,0.3,7.9c-0.4,0.7-0.5,1.5-0.1,2.1c1.1,1.7,1.7,3.4,1,5.4c0,0,0,0.1,0,0.1
			c0,2.6,0.4,5.1,0.6,7.7c0.2,2,0.1,4-0.4,6c-0.4,1.4-0.9,1.8-2.8,2c-5,0.4-9.8,1.2-14.5,2.9c-5.2,1.8-10.5,3.5-16.1,4.3
			c-4.1,0.6-8.2,1-12.3,1.2c-4.2,0.2-8.3-0.3-12.3-0.9c-6-0.9-11.9-2-18.3-1.7c-2.2,0.1-2.6-0.2-2.9-1.8c-0.3-2-0.7-4.1-0.6-6.2
			c0.1-1.5-1.5-8-2.1-9.4c-0.8-1.8-1.2-3.7-0.3-5.6c0.3-0.7,0.3-1.4,0-2.1c-0.9-2-1.5-4.1-1.8-6.3c-0.3-2.1-0.6-4.2-0.9-6.3
			c-0.1-0.7-0.4-0.9-1.3-0.8c-2.3,0.3-4.5,0.1-6.4-0.9c-0.4-0.2-1-0.3-1.6-0.3c-1.4-0.1-2.8-0.1-4.3-0.2c-3.8-0.1-7.6-0.4-11.2-1.2
			c-1.5-0.3-1.7-0.7-1.5-1.9c0.8-4.4,2-8.8,3.2-13.2c0.4-1.5,0.8-2.9,1.3-4.4c4.4-13.5,12.7-24.8,22.2-34.6c4-3.8,10.2-4.1,15.4-5.7
			c1,0.2,1.9,0.3,2.9,0.4c5.5,0.3,10.9-0.1,16.4-1.2c1-0.2,2.1-0.5,3.1-0.7c3.1-0.9,6.1-1.9,8.4-3.7
			C470.5,235.8,470.7,235.8,470.9,235.7z M489.7,317.1L489.7,317.1c-0.2,0.2-0.4,0.4-0.4,0.6l0,0c-0.3,0.2-0.6,0.5-0.6,0.8l0,0
			c-0.3,0.2-0.5,0.5-0.7,0.8c0,0.1-0.1,0.1-0.1,0.2c-0.4,0.3-0.7,0.6-0.9,1c-0.1,0.1-0.1,0.1-0.2,0.2c-0.7,0.5-1,1.3-2.1,1.6
			c0.4-1.1,1.5-1.9,2.1-2.9c0.2-0.2,0.3-0.5,0.5-0.7c1.6-1.8,2.7-3.7,3.8-5.6c4.5-7.8,7.7-15.9,9.7-24.1c0.7-2.7,1.2-5.5,1.6-8.2
			c0.2-1.5,0.3-3.1,0.1-4.7c-0.2-1.3-0.2-2.7-0.1-4c1.6-10.4-9.3-15.4-9.5-23.9c-0.4-3.2,2.5,2.3,4.8,2.6
			c-3.5-10.2-19.7-15.2-21.9-11c-1.6,3.2-3.6,6.1-12.3,11.5c-1.2,0.7-2.5,1-3.9,1.3c-4.5,1.2-8.8,0.9-13.1,0.1
			c-0.4-0.1-0.7-0.1-1.1-0.2l0,0c-0.8-0.3-1.5-0.5-2.3-0.8c-0.1,0-0.2-0.1-0.3-0.1c-3.5-0.9-6-4.5-8.7-5.9c-1.1-0.6-6,0.2-8.5,1.6
			c-4.5,3.3-12.2,10.6-9.1,17.6c1.2-1.2,1.8-3.5,3.5-3.7c-0.7,1.2-3.3,2.1-2.2,4c0.6,1,1.2,2.5,2.6,2.9c0.7-1.7,0-3.7,0.7-5.4
			c0.8,6.3-1.1,12.5,0.8,18.5c0.2,1.2,0.4,2.5,0.6,3.7c0.4,2.5,0.8,4.9,1.2,7.4c0.4,2.3,0.7,4.7,1.7,7c1.2,2.9,3.1,5.5,4.8,8.2
			c3.2,5.3,6.3,10.7,10.4,15.7c0.9,1.1,1.9,2.1,2.8,3.2c0.1,0.2,0.5,0.3,0.2,0.5c-0.3,0.3-0.5-0.1-0.7-0.1c-0.4-0.2-0.6-0.5-0.9-0.8
			c-4.4-5-7.8-10.4-11.3-15.8c-1.1-1.7-2.3-3.5-3.4-5.2c-0.3-0.4-0.5-0.8-1.1-1.2c-0.2,0.5-0.3,1-0.2,1.4c0.3,3.3,0.9,6.5,2,9.6
			c0,0.1,0.2,0.2,0.2,0.3c0,0.1,0.1,0.2,0.1,0.3c0,0.2,0,0.4,0.2,0.5c0,0.1,0.1,0.2,0.1,0.3c0,0.2,0,0.4,0.2,0.5
			c0,0.1,0.1,0.2,0.1,0.3c0.1,1.2,1,2.1,1.8,3.1c3.5,4.1,7.5,7.9,11.4,11.7c0.6,0.6,1.3,1.1,1.4,1.8c-0.3-0.1-0.5-0.1-0.8-0.2
			c-0.1-0.2-0.3-0.4-0.6-0.5l0,0c-0.1-0.2-0.2-0.4-0.5-0.5l0,0c-1.9-1.8-3.7-3.7-5.6-5.5c-0.7-0.7-1.3-1.4-2.1-2l0,0
			c-1.8-2-3.5-4-5.3-6c-0.5,0.4-0.6,0.7-0.6,1c-0.3,0.8-0.1,1.6,0.1,2.3c0,0.2-0.1,0.4,0.2,0.5c0,0.1,0.1,0.2,0.1,0.3
			c0,0.1,0,0.3,0.1,0.4c0.1,0.1,0.1,0.2,0.2,0.3c0,0.1,0,0.3,0.2,0.4c0.8,1.6,1.8,3.1,3.3,4.4c0.1,0.2,0.3,0.4,0.5,0.5
			c0.2,0.2,0.5,0.4,0.7,0.6c0.1,0.2,0.3,0.4,0.6,0.5c0.1,0.1,0.1,0.1,0.2,0.2c0.4,0.4,0.8,0.7,1.4,0.9c0.1,0,0.1,0.1,0.2,0.1
			c1,0.9,2.4,1.4,3.6,2.1c0.5,0.3,1.1,0.6,1.5,1c-0.4,0.3-0.7,0-1,0c-0.2-0.1-0.4-0.2-0.5-0.2c-1.8-1-3.6-2.1-5.4-3.1l0,0
			c-0.5-0.5-1.2-0.9-1.9-1.2l0,0c-0.1-0.2-0.4-0.4-0.7-0.5c-0.2,0.4-0.4,0.8-0.4,1.2c0,0.1-0.1,0.2-0.1,0.4
			c-0.2,0.1-0.1,0.3-0.1,0.4c0,0.2,0,0.4,0,0.5c-0.2,0.2-0.1,0.4-0.1,0.6c0,0.3,0,0.6,0,0.9c-0.2,0.2-0.1,0.4,0,0.6
			c0,1.7,0.4,3.3,0.5,5c0.1,0.8,0.5,1.2,1.6,0.9c0.1,0.1,0.3,0.1,0.5,0c0.4,0,0.8,0,1.2,0c0.2,0,0.3,0,0.5,0c0.2,0,0.5,0,0.7,0
			c0.2,0,0.3,0,0.5,0c0.2,0,0.3,0,0.5,0c0.1,0.1,0.3,0.1,0.5,0c0.2,0,0.3,0,0.5,0c0.1,0.1,0.3,0.1,0.5,0c0.4,0,0.8,0.1,1.2,0.1
			c0.1,0.1,0.3,0.1,0.5,0.1c1.1,0.1,2.1,0.2,3.2,0.4c0.1,0.1,0.3,0.1,0.5,0.1c3,0.5,5.9,0.9,8.9,1.4c1.1,0.3,2.3,0.4,3.5,0.4
			c0.2,0,0.3,0,0.5,0.1c0.7,0.1,1.5,0.2,2.2,0.1c0.2,0,0.3,0,0.5,0c0.2,0.1,0.5,0.1,0.7,0c0.2,0,0.3,0,0.5,0c0.2,0.1,0.3,0.1,0.5,0
			c0.2,0,0.3,0,0.5,0c0.2,0.2,0.5,0.1,0.7,0c0.3,0,0.6,0,0.9,0c0.2,0.1,0.5,0.1,0.8,0c0.3,0,0.6,0,0.9,0c0.4,0.1,0.8,0,1.2,0
			c0.2,0,0.3,0,0.5,0c3-0.1,5.9-0.3,8.9-1c0.2-0.1,0.5-0.1,0.7-0.2c0.6-0.1,1.3,0,1.9-0.4c0.4-0.1,0.8-0.2,1.2-0.2
			c0.2,0,0.4,0,0.5-0.1c0.4-0.1,0.8-0.2,1.1-0.3c0.2,0,0.4,0,0.5-0.2c0.2-0.1,0.5-0.1,0.7-0.2c0.2,0,0.4,0,0.5-0.1
			c0.2-0.1,0.4-0.1,0.7-0.2c0.2,0,0.3-0.1,0.5-0.1c0.2-0.1,0.4-0.1,0.7-0.2c0.2,0,0.4,0,0.5-0.2c0.1,0,0.3-0.1,0.4-0.1
			c0.2,0,0.4,0,0.5-0.1c0.5-0.2,0.9-0.3,1.4-0.5c0.2,0,0.4,0,0.5-0.2c0.7-0.2,1.4-0.5,2.1-0.7c0.2,0,0.4,0,0.5-0.2
			c0.1,0,0.3-0.1,0.4-0.1c0.5-0.1,1-0.2,1.4-0.5c0.2,0,0.3-0.1,0.5-0.1c0.2,0,0.4,0,0.5-0.1c0.1,0,0.3-0.1,0.4-0.1
			c0.3,0,0.7,0,0.9-0.3c0.2,0,0.3-0.1,0.5-0.1c0.3,0,0.7,0,1-0.2c0.2-0.1,0.5-0.1,0.7-0.2c0.5,0,1-0.1,1.4-0.3
			c0.9-0.2,1.7-0.3,2.6-0.5c1.5-0.2,3-0.4,4.5-0.6c0.8-0.1,1.1-0.4,1.2-1c0.5-3,0.3-5.9-0.2-8.8c0-0.4,0-0.7-0.1-1.1
			c0.2-1.4-0.5-2.8,0.1-4.2c0.5-1,0-1.8-0.6-2.6c0-0.1,0-0.3-0.2-0.3c-0.2-0.5-0.3-0.9-0.5-1.4c0-0.1-0.1-0.2-0.1-0.4
			c0-0.7,0.2-1.4,0.4-2c0.4-0.9,0.8-1.7,0.8-2.7c0-0.1,0-0.2,0.1-0.3c0.2-0.8,0.1-1.6-0.4-2.4c-1.4-2.1-2-4.3-1.5-6.8
			c0.3-1.6-0.4-2.9-1-4.3c-0.4-0.9-0.9-1.8-1.4-2.7c-0.1-0.2-0.2-0.5-0.6-0.5c-0.4,0-0.4,0.4-0.4,0.6c-0.8,2.3-1.4,4.7-2.2,7
			c-1.2,3.2-2.5,6.5-4.4,9.6c-0.2,0.4-0.4,0.8-0.5,1.1c-0.1,0.1-0.1,0.2-0.2,0.3c-0.2,0.2-0.4,0.4-0.4,0.7c-0.1,0.1-0.1,0.2-0.2,0.3
			c-0.3,0.3-0.5,0.6-0.6,1l0,0c-0.3,0.2-0.4,0.4-0.4,0.6c-0.1,0.1-0.1,0.2-0.2,0.3c-0.2,0.2-0.4,0.4-0.4,0.6l0,0
			c-0.3,0.2-0.4,0.4-0.4,0.6l0,0c-0.3,0.2-0.4,0.4-0.4,0.6h0C489.9,316.7,489.7,316.9,489.7,317.1z M498.9,253.2
			c-0.5-3.5-4.3-2-5.2-5.1c-1.9,2.4,1.6,5.7,3.1,7.1C497.8,255.6,498.1,254,498.9,253.2L498.9,253.2z M503.1,290
			c0.4-0.1,0.7-0.2,0.9-0.5c0.9-1.1,2.3-1.6,3.9-1.7c1.4-0.2,2.8-0.4,4.3-0.6c0.2,0,0.3-0.1,0.5-0.1c0.5-0.1,1.1-0.2,1.6-0.3
			c0.3,0,0.7,0,1-0.2c0.2-0.1,0.5-0.1,0.7-0.2c0.3,0,0.5-0.1,0.6-0.3c0.3,0,0.5,0,0.8-0.2c2.6-0.7,4.9-1.8,7.3-3
			c0.8-0.4,0.6-0.9,0.4-1.4c-0.3-0.5-0.8-0.1-1.2,0c-1.4,0.5-2.8,1.1-4.3,1.6c-0.3,0.1-0.8,0.4-1,0c-0.2-0.4,0.3-0.5,0.6-0.7
			c1.3-0.6,2.7-1.3,4-1.8c1.1-0.4,1.5-0.9,1.2-1.8c-0.5-1.6-1.2-3.1-1.9-4.6c-0.7-1.5-1.4-3-2.1-4.5c-4.3-9-11.7-15-19.8-18.7
			c0.8,3.1-3,4.2-1.4,6.6c2.7,3.9,4.2,8.5,4.6,13.2c0.1,1.5,0.1,3.1,0.1,4.6c0,4.6-0.4,9.1-1.8,13.7c-0.1,0.3-0.7,0.8,0.2,1l0,0
			C502.5,290.6,502.8,290.5,503.1,290z M411,300.3c0.6,0,1.3,0,1.9,0c0.2,0.1,0.5,0.1,0.8,0c0.2,0,0.5,0,0.7,0
			c0.8,0.2,1.1-0.1,1-0.7c-0.1-1.2-0.7-2.3-0.9-3.5c-0.1-0.8-0.2-1.7-0.3-2.5c0.1-0.4-0.1-0.8,0.3-1.2c0.5,0.1,0.4,0.4,0.5,0.6
			c0.2,1,0.5,2,0.6,3c0.1,1.9,1.4,3,3.8,3.4c1.3,0.2,2.7,0.3,4.1,0.1c0.8-0.1,1.1-0.4,0.9-0.9c-1.2-3-1.4-6.2-1.9-9.4
			c-0.2-1.2-0.4-2.4-0.6-3.6c-0.2-1.2-0.4-2.4-0.6-3.6c-1.8-5.1,1.4-12-3.9-15c-0.8,3.9-0.8,7.6,0.5,11.9c0.8,1.8,1.7,3.5,2.6,5.1
			c0.1,0.2,0.2,0.4,0.2,0.6c0,0.2,0.1,0.4-0.2,0.5c-0.3,0.1-0.4-0.1-0.5-0.3c-0.5-0.9-1.1-1.9-1.5-2.9c-0.7-1.6-1.3-3.1-2-4.6
			c-1.1-5.2,0.5-10.2-2.3-14.7c-3,4.2-5.7,8.1-7.9,12.9c-0.8,1.8-1.4,4.9-2.2,7.1c-0.3,1.1-0.6,2.3-1,3.4s-0.6,2.3-1,3.4
			c-0.2,0.1-0.2,0.3-0.1,0.4c-0.2,0.4-0.3,0.7-0.3,1.1c-0.6,1.5-0.8,3-1.1,4.6c-0.2,0.8,0.8,0.7,1.3,0.8c2.3,0.2,4.6,0.4,6.9,0.6
			c1.2,0.1,2.4,0.1,3.5,0.2c0.5,0,1.2-0.1,1.3,0.5c-0.3,0-0.6,0.1-1,0.1c-3.8-0.3-7.6-0.4-11.3-0.8c-1.2-0.1-1.4,0.5-1.4,1.2
			c0,0.1,0,0.2,0,0.4c-0.3,0.4-0.1,0.6,0.3,0.7c1.5,0.6,3.3,0.6,4.9,0.8c0.4,0.1,0.8,0.2,1.2,0.1c0.2,0,0.3,0,0.5,0
			c0.4,0.1,0.8,0.2,1.2,0.1c0.2,0,0.3,0,0.5,0c0.1,0.1,0.3,0.1,0.5,0c0.2,0,0.3,0,0.5,0c0.2,0.1,0.3,0.1,0.5,0c0.2,0,0.3,0,0.5,0
			C410.6,300.4,410.8,300.4,411,300.3z M460.7,251.7c1.3-0.4,2.6-0.7,3.7-1.5c4.3-3.1,10.1-6.5,9.2-10.7c-2-5.6-5.6,5-9.3,6.4
			c-1.1,0.8-2.2,1.5-3.4,2c-3.6,1.6-7.9,1.8-11.9,0.5c-1.7-0.5-3.3-1.2-4.7-1.9s-2.8-1.6-4.1-2.7c-1.4-1.3-3.2-1.6-3.4,0.6
			c-0.9,3.3,2.6,2.9,3.8,4.9c1.5,1,3.3,1.8,5.2,2.4s4,0.9,6.2,1.1c1.5,0.1,3.1,0,4.6-0.2C458,252.5,459.4,252.1,460.7,251.7z
			 M465.8,240.3c-1.2,0.4-2.4,0.8-3.5,1.1c-1.2,0.3-2.3,0.6-3.5,0.8c-4.9,1-9.9,1.3-15,1.2c-1,0-2.1-0.1-3.1-0.1
			c1,0.9,2.1,1.6,3.2,2.2c1.1,0.5,2.4,0.9,3.9,0.9c4.1,0.1,8.1-0.3,12.1-1.3c1.3-0.3,2.6-0.7,4-1.2c2.2-0.6,4.2-2.5,5.4-5
			C468.1,239.4,467,239.9,465.8,240.3z M460.4,247.4c2-0.7,3.5-1.8,4.2-3.1c-1.4,0.5-2.8,0.9-4.2,1.2s-2.8,0.5-4.2,0.7
			c-2.8,0.4-5.6,0.6-8.7,0.9C450.9,249,456.5,248.9,460.4,247.4z M424.3,301.1c0.3-0.2,0.6-0.3,0.5-0.7c-0.1-0.3-0.4-0.4-0.8-0.3
			c-2.3,0.4-4.5,0-6.5-0.6c-0.3-0.1-0.7-0.3-1,0c-0.3,0.3,0,0.5,0.2,0.7c1.1,1.3,2.9,1.6,5,1.6C422.5,301.5,423.4,301.5,424.3,301.1
			z"/>
	</g>
	<g>
		<path stroke="#2B2B2B" stroke-width="0.5" stroke-miterlimit="10" d="M421.5,241c-8.4-8.6-7.4-22.7-3.6-34.1
			c1.6-4.8,3.6-9.6,6.4-13.8c7.2-11,20.5-18.5,33.5-16.4c10.6,1.8,19.6,9.7,23.7,19.6c4.1,9.9,3.6,21.3-0.3,31.3
			c-2,5.2-5,10.2-9.4,13.5c-5.3,4-12,5.4-18.6,6.3C442.1,249,429.3,249.1,421.5,241z"/>
		<path stroke="#2B2B2B" stroke-width="0.5" stroke-miterlimit="10" d="M463.9,184c-1.1-7.8-2.5-16.6-1.9-25
			c-5.3,6.4-9.8,15.5-13.6,22.9"/>
		<path stroke="#2B2B2B" stroke-width="0.5" stroke-miterlimit="10" d="M443.1,182.4c-0.8-6.4-6.5-14.3-7.8-20.7
			c-3.1,7.9-3.2,15.2-4.4,23.5"/>
		<path fill="none" stroke="#6B6B6B" stroke-width="0.5" stroke-miterlimit="10" d="M443.1,228.1c-3.6,3.9-9.7,5.4-14.8,3.6
			c-1.1-0.4-2.2-1-2.9-2c-0.6-0.9-0.8-2.1-0.9-3.2c-0.3-2.8-0.4-5.6-0.2-8.4c0-0.6,0.1-1.1,0.3-1.6c0.3-0.5,0.7-0.8,1.1-1.1
			c1.9-1.3,3.8-2.6,5.6-4c-3.6-1.7-7.8-2.1-11.7-1.1c4.5,2.9,5.1,9.3,4.3,14.5c-0.3,1.9-0.7,3.8-1.9,5.4c-1.2,1.5-3.7,2.3-5.5,1.7"
			/>
		<path fill="#FFFFFF" stroke="#6B6B6B" stroke-width="0.5" stroke-miterlimit="10" d="M432.4,198.4c2.7,3.7,7.8,5.5,12.2,4.3
			c0.8-0.2,1.8-0.7,1.9-1.5c0.1-0.4,0-0.7-0.2-1.1c-0.9-2.6-3.3-4.6-6-5.1c-2.7-0.5-5.7,0.7-7.4,2.8L432.4,198.4z"/>
		<path d="M440.4,195.7c-1.4,1.6-1.7,4.6-0.9,6.6C441.8,201.8,441.8,197.5,440.4,195.7z"/>
		<path fill="#FFFFFF" stroke="#6B6B6B" stroke-width="0.5" stroke-miterlimit="10" d="M420.6,199.2c1.3,0.6,2.8-0.1,4-0.9
			c0.6-0.4,1.2-0.7,1.7-1.1c-0.7-1.6-1.4-2.2-2.7-3.2"/>
		<path d="M421.6,199.5c0-0.9,0.6-1.5,0.9-2.3c0.2-0.8,0.4-1.1,1.5-2.2c0.4,1.5-0.1,2.4-0.8,3.5c-0.2,0.3,0.1,0.9-1.4,1.3"/>
	</g>
</g>
</svg>
