<?xml version="1.0" encoding="utf-8"?>
<!-- Generator: Adobe Illustrator 18.1.1, SVG Export Plug-In . SVG Version: 6.00 Build 0)  -->
<svg version="1.1" xmlns="http://www.w3.org/2000/svg" xmlns:xlink="http://www.w3.org/1999/xlink" x="0px" y="0px"
	 viewBox="0 0 620 494" enable-background="new 0 0 620 494" xml:space="preserve">
<g id="Walls">
	<polygon fill="#E0E0E0" points="413,339.9 413,-174 620,-174 620,386.4 	"/>
	<polygon fill="#FFFFFF" points="2,386.4 413,339.9 413,-174 2,-174 	"/>
	<g id="Doorway">
		<path fill="#9EC9D8" stroke="#896847" stroke-width="5" stroke-miterlimit="10" d="M270,355.3l-1.5-122.7
			c0.1-30.7,1.6-73.4,1.7-108.9c0.1-41.6,0-72.1-1.5-109.2c-0.3-7.2,1.6-40.6,1.6-40.6s-50.5,1.9-72.3,1.8
			c-52.2,0-54.7-1.8-107.1-1.8c0,141.8,2.3,165.8,13.7,402.9"/>
		<path fill="#9EC9D8" stroke="#896847" stroke-width="5" stroke-miterlimit="10" d="M270,355.3"/>
		<path fill="#9EC9D8" stroke="#896847" stroke-width="5" stroke-miterlimit="10" d="M104.4,376.8"/>
		<g id="Layer_19">
		</g>
	</g>
	<polygon fill="#575757" points="0,723 0,386.4 412.6,339.9 620,386.4 620,723 	"/>
	<path id="Door_2_" fill="#8C6239" stroke="#896847" stroke-width="5" stroke-miterlimit="10" d="M449.4,369.3l-1.7-136.8
		c0.1-30.7,1.6-73.4,1.7-108.9c0.1-41.6,0-72-1.5-109.1c-0.3-7.2,1.6-50.4,1.6-50.4s-53.6,3.8-78.8,5.9
		c-48.2,3.9-48.2,3.9-100.6,3.9c0,141.8-11.6,139.4-0.2,376.5L449.4,369.3z"/>
	<g id="Door">
	</g>
	<path fill="none" stroke="#896847" stroke-width="5" stroke-miterlimit="10" d="M348.9,17.2c-1.6,11.6-1.9,23.4-0.8,35.1
		c-17.1,1.2-34.2,2.4-51.3,3.6c0-16.4,0.6-32.8,1.8-49.2C315.2,6,331.7,5,348.3,3.8C350.3,8,349.5,12.7,348.9,17.2z"/>
	<path fill="none" stroke="#896847" stroke-width="5" stroke-miterlimit="10" d="M422.2,49c1.5-10.2,1.8-20.5,0.9-30.7
		c-0.7-7.9-2.1-15.8-1-23.6c-13.9,3.3-28.4,4.8-42.8,4.5c1.3,16.9,1.5,33.8,0.8,50.6C394.2,50.4,408.2,50.1,422.2,49z"/>
	<path fill="none" stroke="#896847" stroke-width="5" stroke-miterlimit="10" d="M296.8,136.5c18,1.8,36.5,0.9,54.1-2.7
		c2-16.2,1.7-32.6-0.9-48.8c-16.9,2.7-34.1,4.1-51.3,4.3C298,105.1,297.4,120.8,296.8,136.5z"/>
	<path fill="none" stroke="#896847" stroke-width="5" stroke-miterlimit="10" d="M378.8,130.7c0.7,0.8,2.1,0.6,3.2,0.3
		c12.7-3.5,26.1-5,39.5-4.5c0.8-16.7,1.6-33.3,2.3-50c-15.1,2.1-30.2,4.3-45.3,6.4c0,15.5,0,31.1,0,46.6
		C378.4,129.8,378.4,130.3,378.8,130.7z"/>
	<path fill="none" stroke="#896847" stroke-width="5" stroke-miterlimit="10" d="M350.4,334.6c-7.7-39.6-6-80.1-4.3-120.2
		c0.7-16.9,1.5-33.9,2.2-50.8c-16.3,1.2-32.5,2.5-48.8,3.7c2.5,55.7,3,111.4,1.4,167.1C317.2,337,334.1,337,350.4,334.6z"/>
	<path fill="none" stroke="#896847" stroke-width="5" stroke-miterlimit="10" d="M381.4,164.2c-1,0.9-1.3,2.2-1.4,3.4
		c-2.6,19.6,1.3,39.5-2.1,59c-1.2,7.1,0.1,43.4,1.5,53.3c2.9,19.9,1.7,37.5,4.6,57.4c0.1,0.8,0.3,1.6,0.9,2.2
		c0.8,0.7,2.2,0.8,3.4,0.9c13.5,0.6,27,1.1,40.5,1.7c0.8-30.6,1.6-61.3-2.2-91.8c-1.6-12.7-2.7-29-2.7-41.8c0-18.6,4.6-30-0.1-48.2
		c-12.6,2.2-26.2,0.5-38.8,2.6C383.6,163.2,382.3,163.5,381.4,164.2z"/>
	<ellipse fill="none" stroke="#896847" stroke-width="5" stroke-miterlimit="10" cx="430.9" cy="145.7" rx="7.2" ry="8.4"/>
</g>
<g id="Balloon">
	<radialGradient id="SVGID_1_" cx="251.3017" cy="63.572" r="42.6127" gradientUnits="userSpaceOnUse">
		<stop  offset="0.2696" style="stop-color:#FFFFFF"/>
		<stop  offset="0.4292" style="stop-color:#FCFCFC"/>
		<stop  offset="0.5474" style="stop-color:#F3F3F3"/>
		<stop  offset="0.6522" style="stop-color:#E3E3E3"/>
		<stop  offset="0.7493" style="stop-color:#CCCCCC"/>
		<stop  offset="0.841" style="stop-color:#AFAFAF"/>
		<stop  offset="0.9276" style="stop-color:#8B8B8B"/>
		<stop  offset="0.9517" style="stop-color:#808080"/>
	</radialGradient>
	
		<ellipse fill="url(#SVGID_1_)" stroke="#000000" stroke-width="0.5" stroke-miterlimit="10" cx="251.3" cy="63.6" rx="40.2" ry="44.9"/>
	<g opacity="0.74">
		<path fill="#FF0000" d="M248.9,51.3c0,0.8,0,1.7-0.1,2.6c-0.1,0.9-0.2,1.8-0.4,2.7c-0.2,0.9-0.4,1.7-0.7,2.5s-0.6,1.5-1,2.1
			c-0.4,0.6-0.9,1.1-1.4,1.4c-0.5,0.3-1.1,0.5-1.8,0.5c-0.1,0-0.3,0-0.5,0c-0.2,0-0.4-0.1-0.6-0.1s-0.4-0.1-0.6-0.2
			c-0.2-0.1-0.4-0.2-0.5-0.3s-0.3-0.3-0.4-0.4c-0.1-0.2-0.1-0.4-0.1-0.6c0-0.1,0-0.3,0.1-0.4c0-0.2,0.1-0.4,0.2-0.5
			c0.1-0.2,0.2-0.3,0.3-0.4s0.2-0.2,0.4-0.2c0.2,0,0.4,0,0.5,0.1c0.2,0.1,0.3,0.2,0.5,0.3c0.2,0.1,0.4,0.2,0.6,0.3
			c0.2,0.1,0.4,0.1,0.6,0.1c0.3,0,0.5-0.2,0.8-0.5c0.3-0.4,0.5-0.8,0.7-1.4c0.2-0.6,0.4-1.2,0.6-1.9s0.3-1.4,0.5-2.1
			c-0.3,0.3-0.5,0.6-0.8,0.9c-0.3,0.3-0.6,0.5-1,0.8c-0.4,0.2-0.8,0.4-1.3,0.5c-0.5,0.1-1,0.2-1.7,0.2c-0.7,0-1.4-0.2-2-0.6
			c-0.6-0.4-1.1-0.9-1.5-1.6c-0.4-0.7-0.7-1.5-1-2.4c-0.2-0.9-0.3-1.8-0.3-2.8c0-1.3,0.1-2.5,0.4-3.7c0.2-1.2,0.6-2.3,1-3.3
			c0.4-1,0.9-1.9,1.5-2.7s1.2-1.5,1.8-2.1c0.6-0.6,1.3-1,2-1.3c0.7-0.3,1.4-0.5,2.1-0.5c0.4,0,0.8,0.1,1.2,0.3
			c0.4,0.2,0.7,0.4,1,0.8c0.3,0.4,0.5,0.8,0.7,1.4s0.2,1.2,0.2,2c0,0.3,0,0.6-0.1,0.9s-0.1,0.6-0.3,0.9c-0.2,0.3-0.3,0.6-0.5,0.7
			s-0.3,0.2-0.5,0.2c-0.1,0-0.2,0-0.3-0.1c-0.1-0.1-0.2-0.2-0.3-0.3c-0.1-0.1-0.1-0.3-0.2-0.4c0-0.2-0.1-0.3-0.1-0.5
			c0-0.1,0-0.3,0-0.4c0-0.1,0.1-0.3,0.1-0.4c0-0.1,0.1-0.3,0.1-0.4c0-0.1,0-0.3,0-0.4c0-0.7-0.1-1.3-0.4-1.6s-0.5-0.5-0.9-0.5
			c-0.4,0-0.9,0.1-1.4,0.4c-0.5,0.2-1,0.6-1.4,1.1s-0.9,1-1.3,1.7c-0.4,0.7-0.8,1.4-1.1,2.3c-0.3,0.9-0.6,1.8-0.8,2.9
			c-0.2,1-0.3,2.2-0.3,3.4c0,0.8,0.1,1.4,0.2,2s0.3,1,0.6,1.4c0.3,0.4,0.6,0.6,0.9,0.8c0.4,0.2,0.8,0.3,1.3,0.3
			c0.9,0,1.7-0.2,2.4-0.5c0.7-0.3,1.4-0.7,2.1-1.3c0-0.2,0.1-0.4,0.1-0.6c0-0.2,0-0.4,0-0.6c0-0.2,0-0.4-0.1-0.5
			c0-0.1-0.1-0.2-0.2-0.3c-0.1-0.1-0.2-0.1-0.3-0.1c-0.1,0-0.2,0-0.3,0c-0.2,0-0.4,0-0.5-0.1c-0.2-0.1-0.3-0.2-0.4-0.3
			c-0.1-0.1-0.2-0.3-0.2-0.4c-0.1-0.2-0.1-0.3-0.1-0.5s0-0.3,0.1-0.4s0.1-0.3,0.2-0.4c0.1-0.1,0.2-0.2,0.4-0.3s0.4-0.1,0.6-0.1
			c0.5,0,1,0.1,1.3,0.2c0.3,0.1,0.6,0.4,0.8,0.6c0.2,0.3,0.3,0.6,0.4,1C248.9,50.3,248.9,50.8,248.9,51.3z"/>
		<path fill="#FF0000" d="M252.8,55c-0.5,0-1-0.1-1.4-0.4c-0.4-0.2-0.7-0.6-1-1c-0.3-0.4-0.5-0.9-0.6-1.5s-0.2-1.1-0.2-1.7
			c0-0.4,0-0.8,0.1-1.3c0.1-0.5,0.2-0.9,0.3-1.3c0.1-0.4,0.3-0.9,0.5-1.3s0.4-0.7,0.7-1.1c0.3-0.3,0.5-0.5,0.8-0.7
			c0.3-0.2,0.7-0.3,1-0.3c0.3,0,0.6,0.1,0.9,0.2c0.3,0.1,0.5,0.3,0.7,0.6c0.2,0.2,0.3,0.5,0.5,0.9c0.1,0.3,0.2,0.7,0.2,1.1
			c0,0.5-0.1,0.9-0.3,1.4s-0.4,0.9-0.7,1.3c-0.3,0.4-0.7,0.8-1.1,1.1s-0.9,0.6-1.3,0.7c0.1,0.2,0.2,0.4,0.2,0.5
			c0.1,0.1,0.2,0.2,0.2,0.3c0.1,0.1,0.2,0.1,0.3,0.2s0.2,0,0.3,0c0.3,0,0.7-0.1,1-0.3c0.4-0.2,0.7-0.4,1.1-0.7s0.7-0.5,1-0.9
			c0.3-0.3,0.6-0.6,0.8-0.9l1.1,1.5c-0.5,0.7-1,1.3-1.5,1.8c-0.2,0.2-0.5,0.4-0.8,0.6c-0.3,0.2-0.6,0.4-0.9,0.6
			c-0.3,0.2-0.6,0.3-0.9,0.4C253.4,55,253.1,55,252.8,55z M251.7,49.9c0.2,0,0.4-0.1,0.6-0.2c0.2-0.1,0.5-0.3,0.7-0.5
			c0.2-0.2,0.4-0.4,0.5-0.7c0.1-0.2,0.2-0.5,0.2-0.7c0-0.3,0-0.6-0.1-0.8s-0.2-0.3-0.3-0.3c-0.2,0-0.4,0.1-0.6,0.2
			c-0.2,0.1-0.3,0.3-0.4,0.5s-0.2,0.4-0.3,0.6c-0.1,0.2-0.1,0.5-0.2,0.7c0,0.2-0.1,0.5-0.1,0.7S251.7,49.7,251.7,49.9z"/>
		<path fill="#FF0000" d="M263.3,52.6c-0.5,0.4-1,0.8-1.4,1.1c-0.4,0.3-0.8,0.6-1.1,0.8c-0.3,0.2-0.6,0.4-0.9,0.5
			c-0.3,0.1-0.5,0.2-0.7,0.2c-0.4,0-0.8-0.2-1.1-0.5c-0.3-0.3-0.6-0.8-0.8-1.5c-0.2-0.6-0.4-1.4-0.5-2.3s-0.2-1.9-0.2-3
			c0-0.4,0-0.9,0-1.4s0.1-1,0.1-1.5c-0.2,0-0.3-0.1-0.4-0.1c-0.1,0-0.2-0.1-0.3-0.1c-0.1,0-0.2-0.1-0.4-0.1s-0.4-0.1-0.7-0.1
			c-0.1,0-0.2-0.1-0.3-0.1c-0.1-0.1-0.1-0.1-0.2-0.2c0-0.1-0.1-0.2-0.1-0.3s0-0.2,0-0.2c0-0.1,0.1-0.3,0.2-0.3
			c0.1-0.1,0.2-0.1,0.4-0.2s0.4-0.1,0.6-0.1c0.2,0,0.4,0,0.6,0c0.2,0,0.3,0,0.5,0c0.1,0,0.2,0,0.3,0c0.1-1,0.3-1.9,0.6-2.9
			s0.5-1.7,0.8-2.5s0.6-1.3,0.9-1.7c0.3-0.4,0.7-0.7,1.1-0.7c0.2,0,0.5,0.1,0.6,0.3s0.4,0.4,0.5,0.7c0.1,0.3,0.2,0.6,0.3,1
			c0.1,0.4,0.1,0.8,0.1,1.2c0,0.4,0,0.7-0.1,1.1s-0.2,0.8-0.3,1.2s-0.3,0.8-0.5,1.3s-0.4,0.8-0.6,1.3c0,0,0.1,0,0.2,0
			c0.1,0,0.2,0,0.4,0c0.2,0,0.3,0,0.5,0s0.3,0,0.5,0c0.2,0,0.3,0,0.5,0s0.3,0,0.4,0c0.1,0,0.2,0.1,0.2,0.2s0.1,0.3,0.1,0.5
			c0,0.3-0.1,0.5-0.2,0.6c-0.1,0.2-0.2,0.2-0.4,0.2h-3.2c-0.2,0.3-0.3,0.6-0.5,0.9c-0.2,0.3-0.3,0.5-0.4,0.8c0,0.5,0,0.9-0.1,1.3
			c0,0.2,0,0.4,0,0.6s0,0.4,0,0.6c0,0.2,0,0.4,0,0.6c0,0.2,0,0.4,0,0.5c0,0.4,0,0.7,0.1,1c0.1,0.3,0.1,0.5,0.2,0.7s0.2,0.3,0.4,0.4
			s0.3,0.1,0.5,0.1c0.1,0,0.3,0,0.4-0.1c0.2-0.1,0.4-0.2,0.6-0.3c0.2-0.1,0.4-0.3,0.7-0.5s0.5-0.4,0.7-0.6c0.2-0.2,0.4-0.4,0.6-0.7
			s0.4-0.5,0.6-0.7V52.6z M260.7,38.7c0-0.1,0-0.2,0-0.3c0-0.1,0-0.2-0.1-0.3c0-0.1-0.1-0.2-0.1-0.2s-0.1-0.1-0.2-0.1
			c-0.1,0-0.3,0.2-0.4,0.5c-0.1,0.3-0.3,0.8-0.4,1.3c-0.1,0.5-0.3,1.1-0.4,1.7c-0.1,0.6-0.2,1.2-0.3,1.8c0.1,0,0.2,0,0.2,0
			s0.2,0,0.3,0c0.2-0.4,0.3-0.8,0.5-1.2s0.3-0.9,0.5-1.3c0.1-0.4,0.3-0.8,0.4-1.2C260.6,39.3,260.7,39,260.7,38.7z"/>
		<path fill="#FF0000" d="M233.5,71.8c0,0.2,0,0.6-0.1,1.1s-0.2,1-0.3,1.7c-0.1,0.6-0.3,1.3-0.4,2.1c-0.2,0.7-0.3,1.5-0.4,2.3
			c-0.1,0.8-0.3,1.5-0.3,2.3s-0.1,1.4-0.1,2.1c0,0.5,0,1,0.1,1.5c0.1,0.4,0.1,0.8,0.2,1.2c0.1,0.3,0.2,0.6,0.4,0.8
			c0.2,0.2,0.4,0.3,0.6,0.3s0.4-0.1,0.7-0.3c0.2-0.2,0.4-0.4,0.6-0.7c0.2-0.3,0.4-0.7,0.6-1.1c0.2-0.4,0.4-0.9,0.5-1.4
			c0.2-0.5,0.3-1,0.5-1.6c0.1-0.5,0.3-1.1,0.4-1.6c0.5-2,0.9-4.2,1.2-6.7c0.1-0.4,0.1-0.7,0.2-1c0.1-0.3,0.2-0.5,0.3-0.6
			s0.3-0.3,0.4-0.3c0.2-0.1,0.4-0.1,0.6-0.1c0.2,0,0.4,0,0.5,0.1c0.1,0.1,0.2,0.1,0.3,0.2c0.1,0.1,0.1,0.2,0.2,0.3
			c0,0.1,0,0.3,0,0.4c0,0.1,0,0.3-0.1,0.6c0,0.4-0.1,0.9-0.2,1.4c-0.1,0.6-0.1,1.3-0.2,2s-0.2,1.5-0.2,2.3c-0.1,0.8-0.1,1.6-0.2,2.3
			c0,0.8-0.1,1.5-0.1,2.1c0,0.7,0,1.2,0.1,1.8c0,0.5,0.1,1,0.2,1.4c0.1,0.4,0.2,0.7,0.3,0.9c0.1,0.2,0.3,0.3,0.5,0.3
			c0.4,0,0.7-0.2,1-0.5c0.3-0.4,0.6-0.9,0.8-1.5c0.2-0.6,0.5-1.3,0.6-2.1s0.4-1.6,0.5-2.5c0.1-0.9,0.3-1.8,0.4-2.6
			c0.1-0.9,0.2-1.7,0.3-2.5c0.1-0.8,0.1-1.5,0.2-2.1c0-0.6,0.1-1.1,0.1-1.5c0-0.4,0.1-0.7,0.2-0.9c0.1-0.2,0.2-0.4,0.3-0.5
			c0.1-0.1,0.3-0.2,0.4-0.2s0.3-0.1,0.5-0.1c0.1,0,0.3,0,0.4,0.1s0.2,0.1,0.3,0.2c0.1,0.1,0.1,0.2,0.2,0.4c0,0.2,0.1,0.4,0.1,0.6
			c0,0.7,0,1.5-0.1,2.3c-0.1,0.8-0.2,1.6-0.3,2.5s-0.2,1.6-0.3,2.4c-0.1,0.8-0.2,1.5-0.3,2.1s-0.2,1.2-0.3,1.6
			c-0.1,0.4-0.1,0.7-0.1,0.8c0,0.3,0,0.5,0.1,0.7s0.1,0.4,0.2,0.5c0.1,0.1,0.2,0.2,0.4,0.3s0.3,0.1,0.4,0.1c0.2,0,0.3,0,0.5-0.1
			s0.3-0.2,0.5-0.4c0.2-0.2,0.3-0.4,0.4-0.6c0.1-0.2,0.2-0.5,0.3-0.8l0.1,2.3c-0.4,0.6-0.8,1.1-1.3,1.5c-0.4,0.4-0.8,0.5-1.2,0.5
			c-0.2,0-0.4,0-0.5-0.1c-0.2-0.1-0.3-0.2-0.4-0.4c-0.1-0.2-0.2-0.4-0.3-0.6c-0.1-0.3-0.1-0.6-0.2-0.9c-0.3,0.7-0.6,1.3-0.9,1.8
			s-0.7,1-1,1.4c-0.4,0.4-0.7,0.7-1.1,0.9c-0.4,0.2-0.8,0.3-1.2,0.3c-0.5,0-1-0.2-1.3-0.5c-0.4-0.4-0.7-0.9-0.9-1.5
			s-0.4-1.4-0.5-2.2s-0.2-1.7-0.2-2.7c0-0.4,0-0.7,0-1c0-0.3,0-0.6,0.1-0.8c-0.2,1.7-0.4,3.1-0.7,4.2c-0.3,1.1-0.7,2-1.1,2.7
			c-0.4,0.7-0.9,1.2-1.4,1.5c-0.5,0.3-1.1,0.4-1.7,0.4c-0.4,0-0.7-0.2-1-0.5c-0.3-0.3-0.6-0.8-0.9-1.4s-0.5-1.4-0.6-2.4
			c-0.2-0.9-0.2-2-0.2-3.3c0-0.8,0-1.6,0.1-2.4c0.1-0.8,0.2-1.6,0.3-2.4c0.1-0.8,0.3-1.6,0.5-2.4c0.2-0.8,0.4-1.6,0.6-2.3
			c0.1-0.4,0.3-0.8,0.4-1c0.1-0.2,0.3-0.4,0.4-0.5c0.1-0.1,0.3-0.2,0.4-0.2c0.1,0,0.3,0,0.4,0c0.1,0,0.2,0,0.3,0s0.2,0.1,0.3,0.1
			c0.1,0.1,0.1,0.2,0.2,0.3S233.5,71.6,233.5,71.8z"/>
		<path fill="#FF0000" d="M250,88.7c-0.5,0-1-0.1-1.4-0.4c-0.4-0.2-0.7-0.6-1-1c-0.3-0.4-0.5-0.9-0.6-1.5s-0.2-1.1-0.2-1.7
			c0-0.4,0-0.8,0.1-1.3c0.1-0.5,0.2-0.9,0.3-1.3c0.1-0.4,0.3-0.9,0.5-1.3s0.4-0.7,0.7-1.1c0.3-0.3,0.5-0.5,0.8-0.7
			c0.3-0.2,0.7-0.3,1-0.3c0.3,0,0.6,0.1,0.9,0.2c0.3,0.1,0.5,0.3,0.7,0.6s0.3,0.5,0.5,0.9c0.1,0.3,0.2,0.7,0.2,1.1
			c0,0.5-0.1,0.9-0.3,1.4c-0.2,0.5-0.4,0.9-0.7,1.3c-0.3,0.4-0.7,0.8-1.1,1.1c-0.4,0.3-0.9,0.6-1.3,0.7c0.1,0.2,0.2,0.4,0.2,0.5
			c0.1,0.1,0.2,0.2,0.2,0.3c0.1,0.1,0.2,0.1,0.3,0.2c0.1,0,0.2,0,0.3,0c0.3,0,0.7-0.1,1-0.3c0.4-0.2,0.7-0.4,1.1-0.7s0.7-0.5,1-0.9
			c0.3-0.3,0.6-0.6,0.8-0.9l1.1,1.5c-0.5,0.7-1,1.3-1.5,1.8c-0.2,0.2-0.5,0.4-0.8,0.6c-0.3,0.2-0.6,0.4-0.9,0.6
			c-0.3,0.2-0.6,0.3-0.9,0.4C250.7,88.6,250.3,88.7,250,88.7z M248.9,83.5c0.2,0,0.4-0.1,0.6-0.2c0.2-0.1,0.5-0.3,0.7-0.5
			c0.2-0.2,0.4-0.4,0.5-0.7c0.1-0.2,0.2-0.5,0.2-0.7c0-0.3,0-0.6-0.1-0.8c-0.1-0.2-0.2-0.3-0.3-0.3c-0.2,0-0.4,0.1-0.6,0.2
			c-0.2,0.1-0.3,0.3-0.4,0.5c-0.1,0.2-0.2,0.4-0.3,0.6S249,82,249,82.2s-0.1,0.5-0.1,0.7S248.9,83.4,248.9,83.5z"/>
		<path fill="#FF0000" d="M255.5,88.7c-0.3,0-0.6-0.2-0.8-0.5s-0.5-0.8-0.7-1.4c-0.2-0.6-0.3-1.3-0.4-2c-0.1-0.8-0.2-1.6-0.2-2.4
			c0-0.6,0-1.4,0.1-2.1c0.1-0.8,0.2-1.5,0.3-2.4s0.3-1.6,0.5-2.4c0.2-0.8,0.4-1.6,0.6-2.4s0.5-1.5,0.8-2.1s0.6-1.2,0.9-1.7
			c0.3-0.5,0.6-0.9,1-1.1c0.3-0.3,0.7-0.4,1-0.4c0.2,0,0.4,0.1,0.6,0.2c0.2,0.1,0.3,0.3,0.4,0.6c0.1,0.2,0.1,0.5,0.2,0.8
			s0.1,0.6,0.1,0.9c0,0.7-0.1,1.4-0.2,2.1c-0.1,0.7-0.3,1.4-0.5,2.1c-0.2,0.7-0.4,1.4-0.7,2.2s-0.5,1.4-0.8,2.2s-0.6,1.4-0.9,2.1
			s-0.6,1.4-0.8,2c0,0.1-0.1,0.2-0.1,0.3c0,0.1-0.1,0.2-0.1,0.4c0,0.1-0.1,0.3-0.1,0.4s0,0.3-0.1,0.4v0.2c0,0.2,0,0.4,0,0.6
			c0,0.2,0.1,0.3,0.1,0.5c0,0.1,0.1,0.3,0.1,0.3c0,0.1,0.1,0.1,0.1,0.1c0.1,0,0.2,0,0.4-0.1c0.1-0.1,0.3-0.1,0.4-0.2
			c0.2-0.1,0.3-0.2,0.5-0.3c0.2-0.1,0.3-0.3,0.5-0.4c0.3-0.3,0.7-0.7,1.1-1.1l0.7,2.3c-0.5,0.5-1,0.9-1.5,1.2
			c-0.2,0.2-0.4,0.3-0.6,0.5c-0.2,0.1-0.4,0.3-0.7,0.4c-0.2,0.1-0.4,0.2-0.7,0.3C255.9,88.6,255.7,88.7,255.5,88.7z M255.6,79.9
			c0.2-0.6,0.5-1.2,0.8-2s0.5-1.5,0.8-2.3c0.2-0.8,0.5-1.5,0.6-2.3s0.3-1.5,0.3-2.2c0-0.2,0-0.4,0-0.5c0-0.1,0-0.2-0.1-0.2
			c-0.2,0-0.3,0.1-0.5,0.4c-0.2,0.3-0.4,0.6-0.6,1.1c-0.2,0.5-0.4,1-0.5,1.6c-0.2,0.6-0.3,1.3-0.4,2c-0.1,0.7-0.2,1.4-0.3,2.2
			C255.6,78.5,255.6,79.2,255.6,79.9z"/>
		<path fill="#FF0000" d="M260.3,88.7c-0.3,0-0.6-0.2-0.8-0.5s-0.5-0.8-0.7-1.4c-0.2-0.6-0.3-1.3-0.4-2s-0.2-1.6-0.2-2.4
			c0-0.6,0-1.4,0.1-2.1c0.1-0.8,0.2-1.5,0.3-2.4s0.3-1.6,0.5-2.4c0.2-0.8,0.4-1.6,0.6-2.4c0.2-0.8,0.5-1.5,0.8-2.1s0.6-1.2,0.9-1.7
			s0.6-0.9,1-1.1c0.3-0.3,0.7-0.4,1-0.4c0.2,0,0.4,0.1,0.6,0.2c0.2,0.1,0.3,0.3,0.4,0.6c0.1,0.2,0.1,0.5,0.2,0.8s0.1,0.6,0.1,0.9
			c0,0.7-0.1,1.4-0.2,2.1c-0.1,0.7-0.3,1.4-0.5,2.1c-0.2,0.7-0.4,1.4-0.7,2.2s-0.5,1.4-0.8,2.2s-0.6,1.4-0.9,2.1s-0.6,1.4-0.8,2
			c0,0.1-0.1,0.2-0.1,0.3c0,0.1-0.1,0.2-0.1,0.4c0,0.1-0.1,0.3-0.1,0.4s0,0.3-0.1,0.4v0.2c0,0.2,0,0.4,0,0.6s0.1,0.3,0.1,0.5
			c0,0.1,0.1,0.3,0.1,0.3c0,0.1,0.1,0.1,0.1,0.1c0.1,0,0.2,0,0.4-0.1c0.1-0.1,0.3-0.1,0.4-0.2c0.2-0.1,0.3-0.2,0.5-0.3
			c0.2-0.1,0.3-0.3,0.5-0.4c0.3-0.3,0.7-0.7,1.1-1.1l0.7,2.3c-0.5,0.5-1,0.9-1.5,1.2c-0.2,0.2-0.4,0.3-0.6,0.5
			c-0.2,0.1-0.4,0.3-0.7,0.4c-0.2,0.1-0.4,0.2-0.7,0.3C260.7,88.6,260.5,88.7,260.3,88.7z M260.3,79.9c0.2-0.6,0.5-1.2,0.8-2
			s0.5-1.5,0.8-2.3c0.2-0.8,0.5-1.5,0.6-2.3s0.3-1.5,0.3-2.2c0-0.2,0-0.4,0-0.5c0-0.1,0-0.2-0.1-0.2c-0.2,0-0.3,0.1-0.5,0.4
			c-0.2,0.3-0.4,0.6-0.6,1.1c-0.2,0.5-0.4,1-0.5,1.6c-0.2,0.6-0.3,1.3-0.4,2c-0.1,0.7-0.2,1.4-0.3,2.2
			C260.3,78.5,260.3,79.2,260.3,79.9z"/>
		<path fill="#FF0000" d="M267,86.6c0,0,0,0.1,0,0.2s0,0.2-0.1,0.4c0,0.2-0.1,0.3-0.1,0.5c-0.1,0.2-0.1,0.3-0.2,0.5
			s-0.2,0.3-0.4,0.4c-0.2,0.1-0.4,0.1-0.6,0.1c-0.2,0-0.4,0-0.6-0.1c-0.2-0.1-0.3-0.2-0.4-0.3c-0.1-0.1-0.2-0.3-0.3-0.6
			c-0.1-0.2-0.1-0.5-0.1-0.8c0-0.3,0-0.5,0.1-0.8c0.1-0.3,0.1-0.5,0.3-0.7s0.3-0.4,0.5-0.5c0.2-0.1,0.4-0.2,0.7-0.2
			c0.4,0,0.8,0.2,1,0.5C266.9,85.6,267,86,267,86.6C267,86.6,267,86.6,267,86.6z M265.6,83.1c0.1-0.8,0.1-1.5,0.2-2.3
			c0.1-0.8,0.2-1.6,0.4-2.4c0.1-0.8,0.3-1.6,0.5-2.4c0.2-0.8,0.3-1.5,0.5-2.2c0.2-0.7,0.3-1.4,0.5-2c0.1-0.6,0.3-1.2,0.4-1.7
			c0.1-0.4,0.2-0.6,0.3-0.8c0.1-0.2,0.3-0.4,0.4-0.5c0.2-0.1,0.3-0.2,0.5-0.2c0.2,0,0.4-0.1,0.5-0.1c0.1,0,0.2,0,0.2,0
			c0.1,0,0.1,0.1,0.2,0.2s0.1,0.2,0.1,0.3c0,0.1,0,0.3,0,0.5c0,0.1,0,0.3,0,0.5c0,0.2,0,0.4-0.1,0.6c-0.1,0.9-0.3,1.7-0.5,2.6
			c-0.2,0.9-0.5,1.8-0.8,2.8c-0.3,1-0.7,2.1-1.1,3.2c-0.4,1.2-0.8,2.5-1.3,4c0,0.1,0,0.2-0.1,0.2s-0.1,0.1-0.2,0.2
			c-0.1,0-0.1,0.1-0.2,0.1s-0.2,0-0.2,0c-0.1,0-0.2,0-0.3-0.1c-0.1-0.1-0.1-0.2-0.1-0.3C265.6,83.2,265.6,83.1,265.6,83.1z"/>
	</g>
	<g id="Layer_12">
		<path fill="none" stroke="#000000" stroke-miterlimit="10" d="M251.9,107.7c0.3,5.5,0.5,10.9,0.8,16.4c0.4,7.3,0.7,14.8-0.9,22
			c-0.9,4.1-2.5,8.1-3.5,12.2c-1.6,6.7-1.8,13.7-0.4,20.4c0.3,1.7,0.8,3.4,0.6,5.1c-0.2,2-1.3,3.8-2.2,5.5
			c-5.2,10.2-5.5,22.8-0.8,33.2"/>
	</g>
</g>
<g id="Tom">
</g>
<g id="Karl">
	<g id="Feet">
		<path fill="#FFFFFF" stroke="#000000" stroke-width="2" stroke-miterlimit="10" d="M318.9,368.6c0.6,2.5,0.5,5.1-0.5,7.5
			c-1.5,0-3,0.5-3.9,1.7c-0.9,1.2-1,3,0.1,4c1,1,3.2,0.7,3.6-0.7c-0.2,1.3-0.3,2.7-0.2,4c1.9,0.2,3.5-2,2.8-3.7
			c-0.4,1.8,0.9,4,2.8,4c1.9,0,3.1-2.8,1.5-3.9c0,1.9,2.1,3.5,3.9,2.8s2.5-3.2,1.2-4.7c-0.4-0.4-0.9-0.8-1.2-1.2
			c-1.5-1.6-1.2-4.2-0.7-6.4"/>
		<path fill="#FFFFFF" stroke="#000000" stroke-width="2" stroke-miterlimit="10" d="M351.4,371.7c-0.3,0.2-0.3-0.5,0-0.5
			s0.5,0.4,0.6,0.7c0.8,2.7-0.1,5.7-2.2,7.5c-1,0.9-2.4,1.7-2.4,3.1c0,1.4,1.7,2.3,3.1,2c1.4-0.3,2.4-1.3,3.4-2.3
			c-0.7,0.9-1.4,1.9-1.6,3.1c-0.2,1.2,0.3,2.5,1.4,2.9c1.2,0.4,2.6-0.6,3-1.8c0.5-1.2,0.3-2.6,0-3.9c0.8,0.8,1,2,1.6,3.1
			s1.6,2,2.7,1.7c1-0.3,1.5-1.6,1.2-2.7s-1-1.9-1.8-2.7c0.5,1.3,1.1,2.6,2.2,3.5c1.1,0.9,2.8,1,3.7,0c1-1.2,0.4-3-0.6-4.1
			c-1-1.1-2.4-1.9-3.2-3.2c-0.8-1.3-0.6-3.4,0.8-3.9"/>
	</g>
	<g id="Jeans">
		<g id="Layer_22">
		</g>
		<g id="Layer_23">
			
				<path fill="#0071BC" stroke="#2E3192" stroke-width="2" stroke-linecap="round" stroke-linejoin="round" stroke-miterlimit="10" d="
				M374.1,273.6c5.1,11.7,0.2,25-3.2,37.3c-4.3,15.4-4.8,17.6-4.2,33.6c0.1,3.7,0,10.1,0,13.9c0,4.5-0.3,12.3-4.2,12.9
				c-8.3,1.3-33.4-1.6-33.4-1.6s-5-13.2-4.6-20.3c0.6-13.7,1.3-27.4,1.9-41.1c-4.3,12.9-3.6,27-2.3,40.5c0.7,7.1,0.2,20.5,0.2,20.5
				l-21.8,3.7c0,0-5.3-30.8-3.7-39.6c3.6-20.7,3.8-41.8,4-62.8"/>
		</g>
		<g id="Layer_24">
			<path fill="none" stroke="#2E3192" stroke-miterlimit="10" d="M364.5,293.7c-5.6-2-9.8-7.6-10.1-13.6"/>
			<path fill="none" stroke="#2E3192" stroke-miterlimit="10" d="M302.4,283.4c2.9-0.4,5.5-2.6,6.3-5.4"/>
			<path fill="none" stroke="#2E3192" stroke-miterlimit="10" d="M326.3,280.4c0.3,6.4,0.1,12.8-0.8,19.2c0,0.3,0,0.7,0.3,0.8
				c0.1,0,0.2,0,0.3-0.1c1.8-0.7,2.8-2.7,3.5-4.5c1.8-4.7,2.6-9.8,2.4-14.9"/>
			<path fill="none" stroke="#2E3192" stroke-miterlimit="10" d="M350.5,367.8c-5.1-14.8-1.6-31.1,3.6-45.8s11.9-29.3,13.1-44.9"/>
			<path fill="none" stroke="#2E3192" stroke-miterlimit="10" d="M319.2,367.1c-0.6-5.7-0.3-11.5,0.9-17.1c0.4-1.9,1-3.8,1-5.8
				c0-1.4-0.1-2.8,0.1-4.1c0.4-2.1,1.8-4.1,1.3-6.1"/>
		</g>
	</g>
	<g id="Tshirt">
		<g>
			<path fill="#AF1E30" d="M346.9,261.1c0.8-0.1,1.1,0.5,1.7,0.8c3.4,2,7,3.6,11.1,4.6c0.2,0.1,0.4,0.1,0.6,0.2
				c0.3,0.1,0.7,0.2,0.6,0.6c-0.1,0.5-0.6,0.4-1,0.3c-1.3-0.2-2.5-0.4-3.8-0.7c-5.6-1-11-2.4-16.2-4.4c-5.9-2.4-11.5-5.1-16.3-8.9
				c-1-0.8-2.1-1.6-3.1-2.5c-0.7-0.6-0.6,0-0.7,0.3c-1.7-2-3-4.2-4.3-6.4c-5.1-9-8.7-18.5-10.9-28.3c-0.7-3.2-1.4-6.5-1.8-9.7
				c-0.3-1.8-0.3-3.7-0.1-5.6c0.2-1.6,0.2-3.2,0.1-4.8c-1.2-13,0.7-10.2,4.5-21.7c-3.1,1.1-1-2.1,0.8-4.6
				c3.9-12.8,15.6-20.5,25.2-16.1c2,0.1,2.5,5.9,4.8,7.3c-5.2-2.2-12.6-3.5-15.6,0.9c-6.5,9.4-13.1,18.4-13.9,31.1
				c-0.1,1.8-0.1,3.6,0,5.4c0.1,5.7,0.8,11.3,1.9,16.9c0.6,2.9,1.4,5.8,3.3,8.4c0.5,0.6,1,1.3,0.8,2.1c-1-1-1.1-2.4-2.4-3.3
				c-0.2,0.7,0.1,1.2,0.3,1.6c1.1,2.2,2.2,4.4,3.5,6.5c6,9.8,13.6,18.5,23.3,26c1.9,1.5,3.9,3,6.2,4.2
				C345.9,261.3,346.4,261.8,346.9,261.1z M309.6,230.4c-0.3,0.5-0.1,0.7,0,0.9c1,2.6,2.3,5,3.8,7.3c2,3.2,3.5,6.6,6.8,9.2
				c2.2,1.7,4.6,3.2,7.5,4.1c0.4,0.1,0.8,0.3,1.1-0.1c0.3-0.3,0.1-0.6-0.1-0.9c-0.2-0.3-0.5-0.5-0.7-0.8c-2.4-2.3-5.2-4.2-7.8-6.4
				c-3.1-2.6-5.5-5.6-7.6-8.7C311.6,233.6,310.7,232,309.6,230.4z"/>
			<path fill="#AF1E30" d="M313.1,242.9c-1.1-0.3-1.2-1.3-1.5-2c-1.5-2.8-3.7-5.1-6.2-7.3c-0.5-0.4-1.1-0.7-1.9-0.5
				c-0.7,0.2-0.7,0.8-0.8,1.3c-0.2,1.7,0.4,3.2,1.1,4.8c1.9,4.2,4.3,8.3,7.1,12.2c2.4,3.5,5.9,6.1,9.9,8.4c7.1,4.2,15,7.2,23,10.1
				c2.5,0.9,5,1.8,7.7,2.3c2.1,0.4,4.2,0.4,6.4,0.2c1.4-0.1,2.9-0.3,4.3,0.1c0.3,0.1,0.8,0,0.7,0.4c-0.1,0.4-0.4,0.4-0.8,0.4
				c-1.6,0.1-3.3,0.3-4.9,0.4c-3,0.2-5.9,0-8.8-0.3c-3.8-0.4-7.6-0.9-11.4-1.4c-5.4-0.7-10.7-1.9-15.9-3.2
				c-5.2-1.3-10.4-2.8-15.6-4.2c-1.3-0.3-2.6-0.7-4-0.8c-0.8,0-1.1,0.1-0.9,0.8c0.8,2.3,1.9,4.5,3.2,6.6c0.3,0.5,1.1,0.6,1.3,1.1
				c-1.7-0.1-3.4-0.2-5.1-0.2c-0.9,0-1.2-0.3-1.3-1c-0.5-3.5-0.3-7.1,0.2-10.6c4.3,0,8.1,1.5,12.2,2.1c-3.5-1.8-7.1-3.5-10.7-5.2
				c-0.5-0.3-0.8-0.1-0.9,0.4c-0.1,0.5,0.2,1-0.5,1.4c-0.2-1.7,0.5-3.4-0.1-5.1c0.3,0,0.5,0.2,0.5,0.4c0.1,0.9,0.9,1.3,1.7,1.6
				c2.8,1.2,5.7,2.4,8.5,3.7c5.3,2.4,10.8,4.6,16.5,6.4c0.3,0.1,0.6,0.3,1,0c-0.6-0.6-1.4-1.1-2.3-1.4c-3.9-1.5-7.8-3.1-11.6-5
				c-2.7-1.4-5.1-3-6.8-5.3c-2.7-3.8-4.7-7.8-6.4-11.9c-0.3-0.7-0.6-0.7-1.2-0.3c-0.2-1-0.1-2,0.5-2.9c1.6-2.7,2.2-5.5,1.7-8.4
				c-0.3-1.9,0.4-3.6,1.1-5.3c0.5-1.1,1-2.3,1.6-3.4c0.1-0.3,0.2-0.6,0.7-0.6c0.4,0,0.4,0.4,0.5,0.7c0.8,2.7,1.6,5.5,2.5,8.2
				c1.3,3.8,2.9,7.6,4.9,11.1C312.8,242,312.9,242.5,313.1,242.9z M300.4,256.6c0.4,0.2,0.7,0.4,0.9,0.5c6.7,3.4,13.7,6.4,20.9,9.1
				c1,0.4,2.1,0.6,3.1,0.8c0.3,0.1,0.8,0.2,1-0.1c0.2-0.4-0.4-0.5-0.7-0.6c-0.9-0.3-1.7-0.5-2.6-0.8c-7.1-2.5-13.9-5.5-20.7-8.6
				C301.7,256.7,301.2,256.4,300.4,256.6z M304.3,222.5c-0.6,1.1-1.4,1.9-0.9,2.8c0.4,0.7,1.2,1.2,1.8,1.8c0.1,0.1,0.3,0.2,0.4,0.2
				c0.3-0.1,0.3-0.3,0.2-0.4C305.4,225.5,305.2,224.1,304.3,222.5z"/>
			<path fill="#AF1E30" d="M386.3,240.8c-0.5-0.7,0.1-1.6-0.2-2.3c-0.5-1.3-1.1-2.5-1.4-4c-0.8,0.5-1,1.2-1.4,1.8
				c-2.7,4.6-5.2,9.3-8.1,13.8c-1.5,2.3-3.1,4.7-5.1,6.8c-0.2,0.2-0.3,0.4-0.6,0.5c-0.5,0.3-0.9,1.1-1.7,0.5c-0.6-0.5,0-1.1,0.4-1.5
				c4.7-5.4,7.9-11.5,11.4-17.4c0.4-0.7,0.4-0.7,0.3-1.5c-1.1,1.1-2.1,2.2-3.1,3.2c-1.2,1.2-2.2,2.5-3.7,3.5
				c-0.2,0.2-0.5,0.4-0.8,0.3c-0.4-0.1-0.2-0.4-0.2-0.7c0-0.8,0.5-1.6,0.9-2.3c3.3-6.3,6.7-12.5,10-18.8c2.2-4.1,4.1-8.2,5.3-12.5
				c1.1-4,1.8-8,2.3-12c0.1-1.3,0.3-2.7,0.3-4.1c-0.3-8.6-2.4-16.5-1.4-24.9c1.9,5.3,3.2,11.2,3.5,17.1c0.6-0.6,1-2.1,1.1-2.7
				c0.4,5.2,0.5,10.6-0.8,15.5c-0.2,1.5-0.4,3-0.7,4.6c-0.4,3-0.9,6.1-1.4,9.1c-0.5,2.9-0.8,5.8-1.9,8.6c-1.3,3.6-3.5,7-5.4,10.5
				c-3.6,6.8-7.1,13.6-11.7,20c-1,1.4-2.1,2.8-3.1,4.1c-0.1,0.2-0.5,0.4-0.2,0.7c0.4,0.3,0.5-0.1,0.8-0.2c0.5-0.2,0.7-0.7,1-1
				c5-6.5,8.7-13.4,12.7-20.2c1.3-2.2,2.5-4.5,3.8-6.7c0.3-0.5,0.6-1.1,1.2-1.6c0.2,0.6,0.3,1.2,0.2,1.7c-0.3,4-1,7.9-2.2,11.8
				C386.5,240.6,386.4,240.7,386.3,240.8z"/>
			<path fill="#C90010" d="M354.4,168.1c-1.6-0.1-3.4-0.2-4.9-0.5s-2.9-1.1-4.2-1.7c-5-1.9-11.2-6.7-10.1-11.9
				c2.3-7,6.3,5.5,10.4,6.8c1.2,0.9,2.5,1.6,3.9,2.1c4.1,1.6,8.9,1.4,13.4-0.6c1.9-0.8,3.7-1.8,5.3-2.8c1.7-1.1,3.2-2.3,4.6-3.6
				c1.5-1.7,3.6-2.2,3.8,0.4c1,4-2.9,3.7-4.2,6.3c-1.7,1.4-3.7,2.5-5.8,3.4c-2.1,0.9-4.5,1.5-7,1.9
				C357.9,168.2,356.2,168.2,354.4,168.1z"/>
			<path fill="#AF1E30" d="M404.7,180.1c-0.7-0.5-1.8-1.6-2.1-2.9c-0.5,9.1,4.6,16.5,1.7,26.1c-0.2,1.6-0.5,3.2-0.8,4.8
				c-0.3,1.6-0.6,3.2-0.8,4.8c0,0.3-0.1,0.5-0.5,0.6c-0.1-0.5,0.1-1-0.3-1.5c-0.5,0.1-0.5,0.5-0.5,0.8c-0.2,1.2-0.6,2.5-0.6,3.7
				c-0.2,2.3-1.6,3.8-4.3,4.5c-1.5,0.4-3,0.6-4.6,0.6c-0.9,0-1.2-0.3-1-1c1.4-3.8,1.6-7.7,2.1-11.5c0.2-1.5,0.4-2.9,0.6-4.4
				c0.2-1.5,0.4-2.9,0.6-4.4c1.1-3.2,0.4-9.7,0.8-13c1.1,3.3-0.5,8.4,2.3,9.9c1-4.5,3.2-10.9,0.6-13.6c-0.8-1.3-2.8,3.1-2.6,5.7
				c-0.6-3.3,0.7-5.8,3.3-7.6c1,4.6,0.9,9.8-0.5,14.4c-0.9,2.2-1.9,4.4-2.9,6.5c-0.1,0.2-0.2,0.5-0.2,0.7c0,0.2-0.1,0.5,0.3,0.6
				c0.3,0.1,0.5-0.2,0.6-0.4c0.6-1.2,1.2-2.4,1.7-3.6c2.4-6.6,3.4-12.2,2.1-18.1c1.1-2.3,0.4-6.1,3.1-6.3
				C403.2,176.3,404.2,179.2,404.7,180.1z M394.6,215c-0.1,1.2-0.3,2.3-0.4,3.5c0,0.8-0.8,1.8,0.1,2.2c0.9,0.5,2-0.2,3-0.6
				c1.3-0.5,2.4-1.2,2.6-2.5c0.3-1.8,0.5-3.6,0.9-5.4c0.3-1.4,0.5-2.8,0.7-4.3s0.4-2.8,0.6-4.3c0.7-7,1.6-15.4-1.6-21.4
				c0.4,5.2,0.3,10.4-1.8,15.8c-1,2.3-2.2,4.6-2.5,6.9C395.6,208.3,394.7,211.6,394.6,215z M402.2,209.8c0.3-2,0.6-3.9,1-5.9
				c1.4-5.8,1.2-13-0.6-18.3c1.8,5.9,1.1,11.7,0.2,18.2C402.5,205.8,402.4,207.8,402.2,209.8z"/>
			<path fill="#AF1E30" d="M340.1,152.7c2.7-0.2,5.3,1.8,7.7,2.3c1.3,0.3,2.6,0.5,3.9,0.6c5.5,0.7,11.1,0.6,16.9-0.1
				c1.2-0.1,2.3-0.3,3.5-0.5c-1.2,1.2-2.3,2.2-3.6,2.9c-1.3,0.8-2.7,1.3-4.4,1.5c-4.6,0.6-9.2,0.4-13.6-0.3c-1.5-0.3-3-0.6-4.5-1
				c-1.7-0.5-2.9-1.2-3.9-2.2C341.4,155.1,340.7,154,340.1,152.7z"/>
			<path fill="#AF1E30" d="M364.4,160.5c-3.7,2.6-10,3-14.4,1.7c-2.2-0.7-4-1.8-4.7-3.4c1.6,0.5,3.1,0.8,4.7,1.1
				c1.6,0.2,3.1,0.4,4.7,0.4C357.9,160.4,361,160.5,364.4,160.5z"/>
			<path fill="#C90010" d="M395.1,188.9c-0.1-2.4,1.4-6.3,2.6-6c3.6,2.8,1,10.2-0.4,14c-2.9-0.8-1.5-3.4-2.2-7.6
				C395.1,189.3,395.1,189.1,395.1,188.9z"/>
			<path fill="#C90010" d="M299,259.1c0.7-0.4,0.4-0.9,0.5-1.4c0.1-0.5,0.4-0.6,0.9-0.4c3.6,1.7,7.2,3.4,10.7,5.2
				c-4.1-0.6-7.9-2.1-12.2-2.1C298.9,260,299,259.5,299,259.1z"/>
			<path fill="#AF1E30" d="M393.8,224.1c-0.9-0.3-2-0.2-3-0.7c-0.3-0.2-0.7-0.3-0.6-0.7c0.1-0.4,0.5-0.5,0.9-0.4
				c2.6,0.2,5-0.4,7.4-1.4c0.3-0.1,0.8-0.4,1.1-0.1c0.3,0.3,0,0.6-0.2,0.9C398.1,223.4,396.1,224,393.8,224.1z"/>
			<path fill="#AF1E30" d="M368.9,265.1c-0.8,0.1-0.8,0-0.5-0.6c0.7-1.4,2-2.4,3.1-3.6c4.1-4.5,8-9.1,11.5-13.9c0.8-1,1.6-2,1.9-3.3
				c0-0.2,0.2-0.3,0.5-0.3c-0.2,1.5-1.1,2.7-2,3.9c-3.9,5.3-8.4,10.4-12.8,15.4C369.9,263.4,369.1,264.1,368.9,265.1z"/>
			<path fill="#AF1E30" d="M307.2,174c2.6-1.3,4-4.4,6.1-6.2c-1.4,3.2-2.2,6.4-5.2,7.4C307.7,174.9,307.2,174.6,307.2,174z"/>
			<path fill="#C90010" d="M397.4,180.2c-0.7,0.6-0.8,1.2-1.4,1.8c-1.3-2-2-4-0.3-5.9c1.1-0.6,1.3,1.4,2.1,2.3
				C397.9,179.2,397.3,179.4,397.4,180.2z"/>
			<path fill="#AF1E30" d="M366.9,166.8c0,0.5-0.5,0.5-0.9,0.7c-4.4,1.5-8.9,2.1-13.6,1.6c-1.7-0.2-3.4-0.5-5-1
				c-1.6-0.5-3.1-1.2-4.6-1.9c-0.3-0.2-0.7-0.3-0.5-0.7c1.4,0.6,2.8,1.2,4.2,1.8c1.4,0.5,2.9,0.9,4.4,1.2c5.1,0.9,9.9,0.2,14.7-1.2
				C366.1,167,366.5,166.9,366.9,166.8z"/>
			<path fill="#AF1E30" d="M311.1,168.1c-1.5,2.1-2.7,3.3-4.4,5.2c-1.3-2,2.3-2.5,2.7-3.4C310.1,169.2,310.5,168.6,311.1,168.1z"/>
			<path fill="#C90010" d="M313.9,165.5c0.3-1.6,0.9-2.3,2.4-2.2c-0.6,1.3-1.2,1.9-2.3,2.3C314,165.6,314,165.6,313.9,165.5z"/>
			<path fill="#AF1E30" d="M378.3,157.3c-1,1.6-1.8,4.2-4.1,4.9C375.6,160.5,377,158.9,378.3,157.3z"/>
			<path fill="#AF1E30" d="M339.1,163c-1.2-0.3-2.5-1.8-2.4-2.8C337.4,161.1,338.2,162.1,339.1,163z"/>
			<path fill="#AF1E30" d="M369.5,165.6c-0.4,1-1.4,1.2-2.6,1.2C367.8,166.4,368.7,166,369.5,165.6z"/>
			<path fill="#AF1E30" d="M374.2,162.1c-0.1,0.9-0.8,1.4-1.8,1.6C372.9,163.1,373.5,162.6,374.2,162.1z"/>
			<path fill="#AF1E30" d="M371.5,164.3c-0.2,0.8-0.8,1.2-1.7,1.1C370.3,165,370.9,164.6,371.5,164.3z"/>
			<path fill="#C90010" d="M312.6,166.6c-1.4,3-4.5,3.5-5.4,7.3c2.6-1.2,4-4.3,6.1-6.3C313.3,167,313.4,166.3,312.6,166.6z"/>
			<path fill="#C90010" d="M303.3,218.1L303.3,218.1L303.3,218.1c-0.4-2.2-0.8-4.3-1.8-6.4c-0.6,1.9-0.4,3.9-0.4,5.8
				c0.2,0.3,0.6,0.4,1,0.5C302.4,218.6,302.8,218.7,303.3,218.1C303.3,218.1,303.3,218.1,303.3,218.1z"/>
			<path fill="#AF1E30" d="M341.6,164.9c-0.4,0-0.9,0-0.8-0.5C341.1,164.5,341.4,164.7,341.6,164.9z"/>
			<path fill="#AF1E30" d="M342.4,165.4c-0.5,0-0.9,0-0.8-0.5C341.9,165,342.2,165.2,342.4,165.4z"/>
			<path fill="#AF1E30" d="M340.5,164.2c-0.5,0-0.8-0.1-0.7-0.6C340.1,163.8,340.4,163.9,340.5,164.2z"/>
			<path fill="#C90010" d="M298,214.6c-0.3-2.9,0.1-5.8,0.3-8.7c0.1-2.1,0.2-4.2,0.3-6.3s0.8-4,1.1-6.2c1.1-6.1,2.2-12,6.2-16.4
				c0.1-0.6-0.4-2.3-0.9-2.4c-5.6,1.6-6.5,8-10.7,10.4c-1.6,1.2-6.4,7.2-4.4,10.3c1.5,1.4,3.5,2.8,4.6,4.4c0.9,1.3,0.6,2-0.9,2.7
				c-1.2,0.6-2.4,1-3.4,1.7c-2.8,2-6,3.9-4.6,7.5c0,0.1,0,0.2,0,0.3c-0.2,0.9,0.1,1.6,0.5,2.4c0.3,0.1,0.6,0.2,0.9,0.1
				c0.1,0.3,0.3,0.4,0.7,0.3c0-0.1-0.1-0.2-0.2-0.3c-0.1,0-0.1-0.1-0.2-0.1c0.1,0,0.1,0,0.2,0.1c0.1,0.1,0.1,0.1,0.2,0.3
				c0.3,0.1,0.5,0.1,0.8,0.2c0.3,0.3,0.7,0.2,1.1,0.2c0.6,0.1,1.2,0.2,1.8,0.2c0.2,0,0.4,0,0.6,0.1c1.6,0.1,3.2,0.2,4.8,0.3
				C297,215.4,298.1,215.4,298,214.6z"/>
			<path fill="#C90010" d="M324.9,264.7c-3.9-1.5-7.8-3.1-11.6-5c-2.7-1.4-5.1-3-6.8-5.3c-2.7-3.8-4.7-7.8-6.4-11.9
				c-0.3-0.7-0.6-0.7-1.2-0.3c0,0.1,0.1,0.3,0.1,0.4c0,1.1,0.4,2.1,0.9,3.1c0.2,0.8,0.4,1.6,0.5,2.4c0,0.2-0.1,0.3-0.1,0.5
				c-0.2,0.6-0.4,1.1-0.6,1.7c-0.2,0.1-0.3,0.3-0.2,0.4c-0.6,1-1.2,2.1-0.6,3.2c0.3,0,0.5,0.2,0.5,0.4c0.1,0.9,0.9,1.3,1.7,1.6
				c2.8,1.2,5.7,2.4,8.5,3.7c5.3,2.4,10.8,4.6,16.5,6.4c0.3,0.1,0.6,0.3,1,0C326.6,265.5,325.8,265.1,324.9,264.7z"/>
			<path fill="#C90010" d="M410.3,220.8c0.2,0,0.4-0.1,0.6-0.1c0.5,0,1.2-0.1,1.6-0.3c1.9-0.4,3.9-0.5,5.6-1.4
				c0.5-0.2,0.5-1.1,0.2-1.5c0-0.1,0-0.3,0-0.4c0-0.8-0.2-1.6-1.6-1.4c-4.2,0.9-8.5,1.4-12.7,2.1c-0.4,0-0.4,0-0.7,0
				c0.3-0.4,0.3-0.4,0.9-0.5c1.3-0.2,2.7-0.1,4-0.3c2.6-0.4,5.5-1.2,8-1.7c0.6-0.1,1.7,0.1,1.4-1.3c-0.4-1.8-0.7-3.6-1.3-5.4
				c0-0.5-0.1-0.9-0.4-1.3c0.1-0.2,0.1-0.3-0.1-0.5c-0.4-1.3-0.7-2.7-1.1-4s-0.7-2.7-1.1-4c-1.6-9.5-6.5-16.3-11.2-23.1
				c-0.2,14.4,4.7,17.9,1.9,27.3c-0.2,1.6-0.5,3.2-0.8,4.8c-0.3,1.6-0.6,3.2-0.8,4.8c0,0.3-0.1,0.5-0.5,0.6c-0.1,1-0.3,2-0.4,3
				c0.2,0.2,0.5,0.3,0.8,0.4c-0.3-0.1-0.5-0.2-0.8-0.4c-0.3,1.5-1.1,3.5-1.2,5c0,0.7,0.5,0.6,1.4,0.3c0.3,0,0.6,0.3,0.9,0.3"/>
			<path fill="#C90010" d="M408.3,220.3"/>
			<path fill="#C90010" d="M408,220.7c0.2,0,0.4,0.1,0.6-0.1"/>
			<path fill="#99041D" d="M346.9,261.1c-0.5,0.8-1,0.2-1.4,0c-2.3-1.2-4.3-2.7-6.2-4.2c-9.7-7.5-17.3-16.3-23.3-26
				c-1.3-2.1-2.3-4.4-3.5-6.5c-0.2-0.4-0.5-0.9-0.3-1.6c1.4,0.9,1.5,2.3,2.4,3.3l0,0c0.2,0.6,0.4,1.1,0.9,1.6l0,0
				c0.2,0.6,0.4,1.1,0.9,1.6l0,0c0.2,0.6,0.4,1.1,0.9,1.6c0,0,0,0,0,0c0,0.3,0.2,0.5,0.5,0.7l0,0c0,0.3,0.2,0.5,0.5,0.7c0,0,0,0,0,0
				c0,0.3,0.2,0.5,0.5,0.7c0,0,0,0,0,0c0.4,0.9,0.9,1.7,1.6,2.5l0,0c0.1,0.4,0.3,0.7,0.7,0.9c0,0,0,0,0,0c0.1,0.4,0.3,0.7,0.7,0.9
				l0,0c0.1,0.4,0.3,0.7,0.7,0.9l0,0c0,0.3,0.2,0.5,0.5,0.7l0,0c0.1,0.4,0.3,0.7,0.7,0.9l0,0c0.1,0.5,0.5,0.8,1,1.2
				c0.1,0.1,0.1,0.1,0.2,0.2c0.2,0.4,0.4,0.7,0.8,0.9c0.1,0.1,0.1,0.2,0.2,0.2c0.2,0.5,0.6,0.8,1,1.2c0.1,0.1,0.1,0.1,0.2,0.2
				c0.2,0.5,0.5,0.8,1,1.2c0.2,0.2,0.4,0.5,0.6,0.7c0.5,0.7,1.1,1.3,1.8,1.8c0.2,0.2,0.4,0.5,0.6,0.7c0.7,1,1.7,1.8,2.7,2.6
				c0.8,0.8,1.5,1.6,2.5,2.2c0.3,0.4,0.7,0.8,1.2,1c0.3,0.2,0.5,0.4,0.8,0.6c0.2,0.4,0.5,0.6,0.9,0.8c0.3,0.2,0.5,0.4,0.8,0.6
				c0.1,0.3,0.4,0.4,0.7,0.6c0.1,0.1,0.2,0.1,0.3,0.2c0.1,0.3,0.4,0.4,0.7,0.5c0.1,0.1,0.2,0.1,0.3,0.2c0.1,0.3,0.4,0.4,0.7,0.5
				c0.1,0.1,0.2,0.1,0.3,0.2c0.1,0.3,0.4,0.4,0.7,0.5c0.3,0.2,0.7,0.5,1,0.7c0.2,0.3,0.4,0.4,0.7,0.5c0.1,0.1,0.2,0.1,0.3,0.2
				c0.1,0.3,0.4,0.4,0.7,0.5C346.5,260.6,346.7,260.8,346.9,261.1z"/>
			<g>
				<path fill="#C90010" d="M341.6,164.9"/>
				<path fill="#C90010" d="M397.2,181.7c0.5,0,2.9-2.4,2.9-2.4l0.7-4.9c0-0.3,0.1-0.7-0.4-1.2c-3.6-10.5-11.2-18.1-20.8-16
					c-3.6,1.1-5.8,6.7-9.7,8.3c-0.1,0-0.2,0.1-0.3,0.1c-0.4,1-1.4,1.2-2.6,1.2l0,0c0,0.5-0.5,0.5-0.9,0.7c-4.4,1.5-8.9,2.1-13.6,1.6
					c-1.7-0.2-3.3-0.9-4.9-1.4c-1.6-0.5-2.8-1.8-4.3-2.6c-5.8-6.8-14.9-11.4-21.3-3.3c-6.3,7.4-12.6,18.8-13.3,31.4
					c-0.1,1.8-0.1,3.6,0,5.4c0.1,5.7,0.8,11.3,1.9,16.9c0.6,2.9,1.4,5.8,3.3,8.4c0.5,0.6,1,1.3,0.8,2.1l0,0l0,0
					c0.2,0.6,0.4,1.1,0.9,1.6l0,0l0,0v0l0,0l0,0c0.2,0.6,0.4,1.1,0.9,1.6l0,0l0,0c0.2,0.6,0.4,1.1,0.9,1.6c0,0,0,0,0,0l0,0l0,0l0,0
					c0,0.3,0.2,0.5,0.5,0.7l0,0c0,0,0,0,0,0l0,0l0,0l0,0c0,0.3,0.2,0.5,0.5,0.7l0,0l0,0c0,0.3,0.2,0.5,0.5,0.7l0,0l0,0
					c0.4,0.9,0.9,1.7,1.6,2.5c0,0,0,0,0,0v0l0,0l0,0c0.1,0.4,0.3,0.7,0.7,0.9c0,0,0,0,0,0l0,0l0,0l0,0c0.1,0.4,0.3,0.7,0.7,0.9
					c0,0,0-0.1,0-0.1c0,0,0,0.1,0,0.1l0,0l0,0l0,0l0,0l0,0c0.1,0.4,0.3,0.7,0.7,0.9l0,0l0,0c0,0.3,0.2,0.5,0.5,0.7c0,0,0,0,0,0l0,0
					l0,0l0,0c0.1,0.4,0.3,0.7,0.7,0.9c0,0,0,0,0,0l0,0l0,0l0,0c0.1,0.5,0.5,0.8,1,1.2c0-0.1,0-0.2,0-0.2c0,0.1,0,0.2,0,0.2
					c0.1,0.1,0.1,0.1,0.2,0.2h0c0.2,0.4,0.4,0.7,0.8,0.9c0,0,0-0.1,0-0.1c0-0.1,0-0.2,0-0.3c0,0.1,0,0.2,0,0.3c0,0,0,0.1,0,0.1
					c0.1,0.1,0.1,0.2,0.2,0.2l0,0c0.2,0.5,0.6,0.8,1,1.2c0.1,0.1,0.1,0.1,0.2,0.2l0,0c0.2,0.5,0.5,0.8,1,1.2
					c0.2,0.2,0.4,0.5,0.6,0.7l0,0c0.5,0.7,1.1,1.3,1.8,1.8c0.2,0.2,0.4,0.5,0.6,0.7l0,0c0.7,1,1.7,1.8,2.7,2.6
					c0.8,0.8,1.5,1.6,2.5,2.2l0,0c0.3,0.4,0.7,0.8,1.2,1c0.3,0.2,0.5,0.4,0.8,0.6h0c0.2,0.4,0.5,0.6,0.9,0.8
					c0.3,0.2,0.5,0.4,0.8,0.6l0,0c0.1,0.3,0.4,0.4,0.7,0.6c0.1,0.1,0.2,0.1,0.3,0.2h0c0.1,0.3,0.4,0.4,0.7,0.5
					c0.1,0.1,0.2,0.1,0.3,0.2h0c0.1,0.3,0.4,0.4,0.7,0.5c0.1,0.1,0.2,0.1,0.3,0.2h0c0.1,0.3,0.4,0.4,0.7,0.5c0.3,0.2,0.7,0.5,1,0.7
					h0c0.2,0.3,0.4,0.4,0.7,0.5c0-0.1,0-0.2,0-0.3c0,0.1,0,0.2,0,0.3c0.1,0.1,0.2,0.1,0.3,0.2h0c0.1,0.3,0.4,0.4,0.7,0.5
					c0.2,0.2,0.4,0.4,0.6,0.6c0.8-0.1,1.1,0.5,1.7,0.8c3.4,2,7,3.6,11.1,4.6c0.2,0.1,0.4,0.1,0.6,0.2c0.3,0.1,0.7,0.2,0.6,0.6
					c-0.1,0.5-0.6,0.4-1,0.3c-1.3-0.2-2.5-0.4-3.8-0.7c-5.6-1-11-2.4-16.2-4.4c-5.9-2.4-11.5-5.1-16.3-8.9c-1-0.8-2.1-1.6-3.1-2.5
					c-0.7-0.6-0.6,0-0.7,0.3c0.2,0.3,0.4,0.5,0.6,0.8c0.8,1.1,2,2,2.4,3.2c-1.2-0.2-1.5-1.2-2.3-1.7c-0.1-0.1-0.1-0.1-0.2-0.2
					c-0.2-0.4-0.6-0.8-1-1.1c-0.1-0.1-0.1-0.2-0.2-0.2c-0.1-0.4-0.4-0.7-0.8-0.9l0,0c-0.1-0.4-0.3-0.7-0.7-0.9l0,0
					c0-0.3-0.2-0.5-0.5-0.7l0,0c0-0.3-0.2-0.5-0.5-0.7l0,0c0-0.3-0.2-0.5-0.5-0.7l0,0c0-0.3-0.2-0.5-0.5-0.7l0,0
					c0-0.3-0.2-0.5-0.5-0.7c-0.1-0.1-0.2-0.3-0.2-0.4c0-0.3-0.2-0.5-0.5-0.7l0,0c-0.1-0.4-0.3-0.8-0.7-1.2c-0.1-0.1-0.2-0.3-0.2-0.4
					c0-0.3-0.2-0.5-0.4-0.8c-0.1-0.1-0.1-0.3-0.2-0.4c-1.1-0.3-1.2-1.3-1.5-2c-1.5-2.8-3.7-5.1-6.2-7.3c-0.5-0.4-1.1-0.7-1.9-0.5
					c-0.7,0.2-0.7,0.8-0.8,1.3c-0.2,1.7,0.4,3.2,1.1,4.8c1.9,4.2,4.3,8.3,7.1,12.2c2.4,3.5,5.9,6.1,9.9,8.4c7.1,4.2,15,7.2,23,10.1
					c2.5,0.9,5,1.8,7.7,2.3c2.1,0.4,4.2,0.4,6.4,0.2c1.4-0.1,2.9-0.3,4.3,0.1c0.3,0.1,0.8,0,0.7,0.4c-0.1,0.4-0.4,0.4-0.8,0.4
					c-1.6,0.1-3.3,0.3-4.9,0.4c-3,0.2-5.9,0-8.8-0.3c-3.8-0.4-7.6-0.9-11.4-1.4c-5.4-0.7-10.7-1.9-15.9-3.2
					c-5.2-1.3-10.4-2.8-15.6-4.2c-1.3-0.3-2.6-0.7-4-0.8c-0.8,0-1.1,0.1-0.9,0.8c0.8,2.3,1.9,4.5,3.2,6.6c0.3,0.5,1.1,0.6,1.3,1.1
					c1,0.1,1.9,0.2,2.9,0.3c0.5,0.2,1.1,0.2,1.6,0.2c0.3,0,0.5,0.1,0.8,0.1c0.3,0.2,0.7,0.2,1.1,0.2c0.2,0,0.3,0.1,0.5,0.1
					c0.3,0.3,0.7,0.2,1.1,0.2c0.2,0,0.3,0.1,0.5,0.1c0,0,0,0,0.1-0.1c0,0,0,0-0.1,0.1c0.1,0.1,0.3,0.2,0.6,0.1l0,0
					c0.2,0,0.3,0.1,0.5,0.1c0.5,0.3,1,0.4,1.6,0.4c0.2,0,0.3,0.1,0.5,0.1c0.1,0.2,0.3,0.2,0.5,0.2c0.8,0.2,1.6,0.4,2.3,0.6
					c0.1,0.2,0.3,0.2,0.5,0.2c0.5,0.1,1,0.3,1.5,0.4c0.1,0.2,0.3,0.2,0.6,0.1c0.2,0,0.3,0.1,0.5,0.1c0.1,0.2,0.3,0.2,0.5,0.2
					c0.2,0.1,0.5,0.1,0.7,0.2c0.2,0,0.4,0.1,0.6,0.1c0.3,0.1,0.5,0.1,0.8,0.2c0.2,0.1,0.4,0.1,0.6,0.1c0.3,0,0.5,0.1,0.8,0.1
					c0.1,0.2,0.3,0.2,0.5,0.1c0.4,0.1,0.9,0.1,1.3,0.2c0.2,0.1,0.4,0.1,0.6,0.1c0.4,0.1,0.9,0.1,1.3,0.2c0.6,0.4,1.4,0.2,2.1,0.3
					c0.3,0,0.5,0.1,0.8,0.1c3.3,0.5,6.6,0.5,10,0.3c0.2,0,0.3,0,0.5,0c0.5,0,0.9,0.2,1.4-0.1v0c0.4,0,0.7,0,1.1,0l0,0
					c0.3,0.1,0.6,0.1,0.8-0.1c0.4,0,0.7,0,1.1-0.1c0.3,0.1,0.6,0.1,0.8-0.1l0,0c0.2,0,0.4,0,0.5,0l0,0c0.2,0,0.4,0.1,0.6-0.1
					c0.2,0,0.3-0.1,0.5-0.1l0,0c0.3,0,0.6,0.1,0.8-0.1c0.2,0,0.3,0,0.5-0.1c0.9,0,1.7-0.1,2.5-0.4c0.2,0,0.3-0.1,0.5-0.1
					c1.3-0.1,2.6-0.4,3.9-0.8l0,0c3.3-0.9,6.6-1.7,10-2.6c0.2,0,0.4,0,0.6-0.1c1.2-0.2,2.4-0.5,3.6-0.7c0.2,0,0.4,0,0.6-0.1
					c0.5-0.1,0.9-0.1,1.4-0.2c0.2,0,0.4,0,0.6-0.1c0.2,0,0.4,0,0.5-0.1c0.2,0.1,0.4,0.1,0.6-0.1c0.2,0,0.3,0,0.5-0.1
					c0.2,0,0.4,0,0.6,0c0.3,0,0.5-0.1,0.8-0.1c0.1-0.1,0.1-0.2,0.2-0.3c-0.1,0-0.1,0.1-0.2,0.3c0.2,0,0.4,0,0.6,0
					c0.4,0,0.9-0.1,1.3-0.1l0,0c0.2,0.1,0.4,0.1,0.6-0.1c1.3,0.2,1.7-0.3,1.8-1.3c0.2-2,0.5-4,0.6-6.1c0.1-0.2,0.2-0.5,0-0.7
					c0-0.4,0-0.7,0-1.1c0.1-0.2,0.2-0.5-0.1-0.7c0-0.2,0-0.4-0.1-0.6c0.1-0.2,0.1-0.3-0.1-0.5c0-0.1-0.1-0.3-0.1-0.4
					c-0.1,0-0.2-0.1-0.3-0.2c0.1,0.1,0.2,0.2,0.3,0.2c0.1-0.5-0.2-1-0.4-1.4c-0.4,0.1-0.7,0.4-0.8,0.7l0,0c-0.8,0.5-1.5,1-2.1,1.6
					l0,0c-2,1.4-4.1,2.9-6.1,4.3c-0.2,0.1-0.4,0.2-0.6,0.4c-0.4,0-0.7,0.4-1.1,0.1c0.5-0.6,1.1-0.9,1.7-1.4c1.3-1,2.9-1.8,4-2.9
					c0.1-0.1,0.2-0.1,0.2-0.2c0.6-0.3,1.2-0.7,1.6-1.2l0,0c0.1-0.1,0.1-0.1,0.2-0.2c0,0,0-0.1,0-0.1c0,0,0,0.1,0,0.1
					c0.3-0.1,0.5-0.4,0.7-0.6c0.3-0.3,0.6-0.6,0.8-0.8c0.3-0.1,0.5-0.4,0.6-0.7c1.6-1.7,2.7-3.7,3.7-5.7c0.2-0.1,0.2-0.3,0.2-0.5
					c0.1-0.1,0.1-0.3,0.2-0.4c0.2-0.1,0.2-0.3,0.2-0.5c0.1-0.1,0.1-0.3,0.2-0.4c0.3-0.2,0.3-0.4,0.2-0.7c0.2-0.9,0.5-1.9,0.1-2.8
					c0-0.4-0.1-0.8-0.7-1.1c-2,2.6-4,5.2-6,7.8c0,0,0,0,0,0c-1,0.8-1.6,1.8-2.4,2.7c-2.1,2.4-4.2,4.8-6.2,7.2
					c-0.3,0.1-0.5,0.3-0.6,0.6l0,0c-0.3,0.1-0.5,0.3-0.6,0.6c-0.3,0.1-0.6,0.2-0.8,0.3c-0.8,0.1-0.8,0-0.5-0.6
					c0.7-1.4,2-2.4,3.1-3.6c4.1-4.5,8-9.1,11.5-13.9c0.8-1,1.6-2,1.9-3.3c0-0.2,0.2-0.3,0.5-0.3c0-0.1,0.1-0.3,0.1-0.4
					c0.3-0.2,0.3-0.4,0.2-0.7c0-0.1,0.1-0.3,0.1-0.4c0.3-0.2,0.3-0.4,0.3-0.7c0-0.1,0.1-0.3,0.1-0.4c-0.5-0.7,0.1-1.6-0.2-2.3
					c-0.5-1.3-1.1-2.5-1.4-4c-0.8,0.5-1,1.2-1.4,1.8c-2.7,4.6-5.2,9.3-8.1,13.8c-1.5,2.3-3.1,4.7-5.1,6.8c-0.2,0.2-0.3,0.4-0.6,0.5
					c-0.5,0.3-0.9,1.1-1.7,0.5c-0.6-0.5,0-1.1,0.4-1.5c4.7-5.4,7.9-11.5,11.4-17.4c0.4-0.7,0.4-0.7,0.3-1.5
					c-1.1,1.1-2.1,2.2-3.1,3.2c-1.2,1.2-2.2,2.5-3.7,3.5c-0.2,0.2-0.5,0.4-0.8,0.3c-0.4-0.1-0.2-0.4-0.2-0.7c0-0.8,0.5-1.6,0.9-2.3
					c3.3-6.3,6.7-12.5,10-18.8c2.2-4.1,4.1-8.2,5.3-12.5c1.1-4,1.8-8,2.3-12c0.1-1.3,0.3-2.7,0.3-4.1c-0.3-8.6-2.4-16.5-1.4-24.9
					c1.9,5.3,3.2,11.2,3.5,17.1l1.9-2.3 M322.9,238.6C322.9,238.6,322.9,238.6,322.9,238.6C322.9,238.6,322.9,238.6,322.9,238.6z
					 M323,238.6C323,238.5,323,238.5,323,238.6C323,238.5,323,238.5,323,238.6z M323,238.5C323,238.5,323,238.5,323,238.5
					C323,238.5,323,238.5,323,238.5z M323,238.4C323,238.4,323,238.4,323,238.4C323,238.4,323,238.4,323,238.4z M323,238.4
					C323,238.4,323,238.4,323,238.4C323,238.4,323,238.4,323,238.4z M323,238.3C323,238.3,323,238.3,323,238.3
					C323,238.3,323,238.3,323,238.3z M323,238.3C323,238.3,323,238.3,323,238.3C323,238.3,323,238.3,323,238.3z M322.9,238.2
					C322.9,238.2,322.9,238.2,322.9,238.2C322.9,238.2,322.9,238.2,322.9,238.2z M320.3,234.9C320.3,234.9,320.3,234.9,320.3,234.9
					C320.3,234.9,320.3,234.9,320.3,234.9z M320.3,234.7C320.3,234.7,320.3,234.7,320.3,234.7C320.3,234.7,320.3,234.7,320.3,234.7z
					 M318.3,231.8C318.3,231.8,318.3,231.8,318.3,231.8C318.3,231.8,318.3,231.8,318.3,231.8z M317.4,230.7
					C317.4,230.7,317.4,230.7,317.4,230.7L317.4,230.7C317.4,230.7,317.4,230.7,317.4,230.7z M317.4,230.2
					C317.4,230.2,317.4,230.2,317.4,230.2C317.4,230.2,317.4,230.2,317.4,230.2z M317.4,230.3C317.4,230.3,317.4,230.3,317.4,230.3
					C317.4,230.3,317.4,230.3,317.4,230.3z M317.4,230.4C317.4,230.4,317.4,230.4,317.4,230.4C317.4,230.4,317.4,230.4,317.4,230.4z
					 M317.4,230.5C317.4,230.5,317.4,230.6,317.4,230.5C317.4,230.6,317.4,230.5,317.4,230.5z M321.1,236.1
					C321.1,236.1,321.1,236.2,321.1,236.1L321.1,236.1C321.1,236.2,321.1,236.1,321.1,236.1z M323.6,239.6
					C323.6,239.6,323.6,239.6,323.6,239.6L323.6,239.6C323.6,239.6,323.6,239.6,323.6,239.6z M324.6,240.3
					C324.6,240.3,324.6,240.4,324.6,240.3C324.6,240.4,324.6,240.3,324.6,240.3z"/>
			</g>
			<path fill="#C90010" d="M309.6,230.4c1.1,1.7,2,3.2,3,4.7c2.1,3.1,4.6,6.1,7.6,8.7c2.5,2.2,5.4,4.1,7.8,6.4
				c0.3,0.2,0.5,0.5,0.7,0.8c0.2,0.3,0.4,0.6,0.1,0.9c-0.3,0.3-0.7,0.2-1.1,0.1c-2.9-0.9-5.3-2.4-7.5-4.1c-3.3-2.6-4.8-6-6.8-9.2
				c-1.5-2.4-2.9-4.8-3.8-7.3C309.6,231.1,309.3,230.9,309.6,230.4z"/>
			<path fill="#99041D" d="M300.4,256.6c0.9-0.3,1.4,0.1,1.9,0.3c6.8,3,13.5,6.1,20.7,8.6c0.9,0.3,1.7,0.5,2.6,0.8
				c0.3,0.1,0.9,0.2,0.7,0.6c-0.2,0.4-0.7,0.2-1,0.1c-1.1-0.2-2.2-0.5-3.1-0.8c-7.2-2.7-14.2-5.8-20.9-9.1
				C301,257,300.8,256.9,300.4,256.6z"/>
			<path fill="#C90010" d="M304.3,222.5c0.9,1.5,1,3,1.6,4.3c0.1,0.2,0.1,0.4-0.2,0.4c-0.1,0-0.3-0.1-0.4-0.2
				c-0.6-0.6-1.4-1.1-1.8-1.8C302.9,224.4,303.8,223.6,304.3,222.5z"/>
			<path fill="#AF1E30" d="M303.5,216.8c-1.6-5.4-2-10.9-2.1-16.4c0-1.8,0-3.7,0.1-5.6c0.4-5.6,2.1-11.4,5.1-16.4
				c1.8-3.1-2.5-4-1.6-7.9c-9,5.3-17.4,13.3-22.2,24.7c-0.8,1.9-1.6,3.8-2.4,5.7s-1.5,3.8-2.1,5.8c-0.3,1.1,0.1,1.7,1.3,2.1
				c1.5,0.5,3,1.2,4.5,1.8c0.3,0.1,0.9,0.3,0.7,0.8c-0.3,0.5-0.8,0.2-1.2,0c-1.6-0.5-3.2-1.1-4.8-1.6c-0.4-0.1-1.1-0.5-1.4,0.1
				c-0.3,0.6-0.4,1.3,0.4,1.6c2.6,1.1,5.3,2.3,8.2,2.9c-0.5-0.7-0.8-1.5-0.5-2.4c0-0.1,0-0.2,0-0.3c-1.5-3.6,1.8-5.5,4.6-7.5
				c1-0.7,2.3-1.2,3.4-1.7c1.5-0.8,1.8-1.4,0.9-2.7c-1.1-1.6-2.8-2.9-4.2-4.3c-1.8-5.1,2.5-8.1,4.2-9.9c3.8-3,5.7-6.8,9.1-9.9
				c1.6-1.2,2.5,0.1,1.8,1.4c-3.1,5-5.1,10.1-6.2,16.2c-0.3,2.2-0.4,4.3-0.5,6.4s-0.2,4.2-0.3,6.3c-0.2,2.9-0.6,5.8-0.3,8.7
				c0.1,0.8-1,0.8-1.2,1.2c1.8,0,3.4,0.3,4.4,1.6c0-1.9-0.3-3.8,0.4-5.8c0.9,2.1,1.4,4.2,1.8,6.4
				C304.3,217.7,303.6,217.2,303.5,216.8z M301.3,210.8L301.3,210.8c0,0-0.1,0.1-0.1,0.1C301.2,210.9,301.3,210.8,301.3,210.8z"/>
			<path fill="#C90010" d="M394.6,215c0.1-3.4,1-6.7,1.5-10c0.3-2.4,1.6-4.6,2.5-6.9c2.1-5.4,2.2-10.6,1.8-15.8
				c3.3,6,2.3,14.4,1.6,21.4c-0.2,1.4-0.4,2.8-0.6,4.3s-0.4,2.8-0.7,4.3c-0.4,1.8-0.5,3.6-0.9,5.4c-0.2,1.2-1.4,1.9-2.6,2.5
				c-0.9,0.4-2.1,1.1-3,0.6c-0.8-0.4-0.1-1.5-0.1-2.2C394.3,217.3,394.5,216.1,394.6,215z"/>
			<path fill="#99041D" d="M402.2,209.8c0.1-2,0.3-4,0.5-5.9c0.9-6.5,1-12.5-0.2-18.2c2.5,4.2,2,12.4,0.6,18.3
				C402.9,205.8,402.5,207.8,402.2,209.8z"/>
			<g>
				<path fill="#FFFFFF" d="M331.8,199.6l3.7-3.6l1.2,0.1l-3.7,3.6l2.9,4l-1.2-0.1L331.8,199.6z"/>
				<path fill="#FFFFFF" d="M336.9,204.8l1.1-9.7l1.7,0.1l-0.4,3.2c0.1-0.4,0.2-0.6,0.4-0.8c0.2-0.2,0.4-0.2,0.6-0.2l0.8,0
					c0.4,0,0.8,0.3,1.1,0.7c0.3,0.4,0.4,1,0.3,1.5l-0.4,3.2c-0.1,0.6-0.3,1.1-0.7,1.5c-0.4,0.4-0.8,0.6-1.2,0.6L336.9,204.8z
					 M338.7,203.8l0.8,0c0.2,0,0.4-0.1,0.6-0.3c0.2-0.2,0.3-0.5,0.3-0.8l0.4-3.2c0-0.3,0-0.6-0.2-0.8c-0.1-0.2-0.3-0.3-0.6-0.4
					c-0.2,0-0.4,0.1-0.6,0.3c-0.2,0.2-0.3,0.5-0.3,0.7L338.7,203.8z"/>
				<path fill="#FFFFFF" d="M346,197.7l1.7,0.1c0.5,0,0.8,0.3,1.1,0.7c0.3,0.4,0.4,1,0.3,1.5l-0.4,3.2c-0.1,0.6-0.3,1.1-0.7,1.5
					c-0.4,0.4-0.8,0.6-1.2,0.6l-1.7-0.1c-0.5,0-0.8-0.3-1.1-0.7c-0.3-0.4-0.4-1-0.3-1.6l0.4-3.2c0.1-0.6,0.3-1.1,0.7-1.5
					C345.2,197.9,345.6,197.7,346,197.7z M345.8,199.8l-0.4,3.2c0,0.3,0,0.6,0.2,0.8c0.1,0.2,0.3,0.3,0.5,0.4c0.2,0,0.4-0.1,0.6-0.3
					c0.2-0.2,0.3-0.5,0.3-0.8l0.4-3.2c0-0.3,0-0.6-0.2-0.8c-0.1-0.2-0.3-0.3-0.6-0.4c-0.2,0-0.4,0.1-0.6,0.3
					C345.9,199.3,345.8,199.6,345.8,199.8z"/>
				<path fill="#FFFFFF" d="M355.1,205.8l-1.6-0.1l0.1-1.1c-0.1,0.7-0.5,1.1-1,1l-0.8,0c-0.5,0-0.8-0.3-1.1-0.7
					c-0.3-0.4-0.4-1-0.3-1.6l0.4-3.2c0.1-0.6,0.3-1.1,0.7-1.5c0.4-0.4,0.8-0.6,1.2-0.6l1.7,0.1l0.2-2.2l1.6,0.1L355.1,205.8z
					 M354.2,199.2l-0.8,0c-0.2,0-0.4,0.1-0.6,0.3c-0.2,0.2-0.3,0.5-0.3,0.7l-0.4,3.2c0,0.3,0,0.6,0.2,0.8c0.1,0.2,0.3,0.3,0.5,0.4
					c0.2,0,0.4-0.1,0.6-0.3c0.2-0.2,0.3-0.5,0.3-0.8L354.2,199.2z"/>
				<path fill="#FFFFFF" d="M357.4,207c0,0.7,0.2,1.1,0.7,1.1l0.8,0c0.2,0,0.4-0.1,0.6-0.3c0.2-0.2,0.3-0.5,0.3-0.8l0.2-2.2
					c-0.1,0.7-0.5,1.1-1,1l-0.8,0c-0.5,0-0.8-0.3-1.1-0.7c-0.3-0.4-0.4-1-0.3-1.6l0.6-5.4l1.7,0.1l-0.6,5.4c0,0.3,0,0.6,0.2,0.8
					c0.1,0.2,0.3,0.3,0.5,0.4c0.2,0,0.4-0.1,0.6-0.3c0.2-0.2,0.3-0.5,0.3-0.8l0.6-5.4l1.6,0.1l-1,8.7c-0.1,0.6-0.3,1.1-0.7,1.5
					c-0.4,0.4-0.8,0.6-1.2,0.6l-1.7-0.1c-1-0.1-1.4-0.8-1.4-2.3L357.4,207z"/>
				<path fill="#FFFFFF" d="M367.9,201.6l-3.7,3.6l-1.2-0.1l3.7-3.6l-2.9-4l1.2,0.1L367.9,201.6z"/>
			</g>
			<path fill="#99041D" d="M338.9,149.1c2.6,2,6,2.8,9.5,3.6c1.1,0.3,2.3,0.5,3.5,0.6c6.1,0.7,12.3,0.7,18.4-0.2
				c1.1-0.2,2.2-0.4,3.3-0.7c5.8,1.4,12.8,1.2,17.3,5.3c10.6,11,20.1,23.8,25,39.7c0.5,1.7,1,3.4,1.4,5.2c1.4,5.2,2.7,10.4,3.6,15.6
				c0.3,1.4,0,1.9-1.7,2.5c-4.1,1.4-8.3,2.1-12.7,2.6c-1.6,0.2-3.2,0.4-4.8,0.6c-0.6,0.1-1.3,0.2-1.7,0.6c-2.1,1.4-4.6,1.8-7.2,1.7
				c-1-0.1-1.4,0.3-1.5,1.1c-0.3,2.6-0.7,5.2-1,7.7c-0.3,2.7-1.1,5.3-2,7.8c-0.3,0.9-0.3,1.7,0,2.6c1,2.3,0.6,4.6-0.3,6.9
				c-0.7,1.8-2.4,9.7-2.3,11.6c0.1,2.5-0.3,5-0.7,7.5c-0.3,2-0.8,2.4-3.2,2.5c-7.1,0.3-13.8,2.2-20.5,3.9c-4.5,1.1-9.1,2.1-13.8,2.3
				c-4.6,0.2-9.2,0-13.8-0.2c-6.3-0.4-12.2-1.8-18.1-3.5c-5.3-1.5-10.7-2.1-16.3-2c-2.2,0-2.8-0.4-3.2-2.1c-0.6-2.4-0.7-4.8-0.5-7.3
				c0.3-3.1,0.6-6.3,0.7-9.4c0,0,0-0.1,0-0.1c-0.8-2.3-0.1-4.5,1.1-6.7c0.5-0.8,0.4-1.7-0.1-2.5c-1.7-3.2-1.5-6.4,0.3-9.6
				c0.7-1.2,0.9-2.4,0.8-3.6c-0.3-3.5,0.3-6.9,2.2-10.1c0.2-0.4,0.3-0.8,0.5-1.1c0.5-0.8,0.1-1.3-0.7-1.9c-2.6-2-5.9-2-9.1-2.2
				c-4.5-0.3-8.6-1.6-12.5-3.1c-1.4-0.5-2.9-0.9-4.2-1.6c0.3-2.5,0.6-4.9,0.8-7.4c1.1-0.3,0.6-1.1,0.8-1.6c0.9-2.7,2.1-5.4,3.3-8
				c0.6-1.3,1.2-2.6,1.9-4c1.7-4.4,4.2-8.8,7.5-11.2c11.5-9.1,20-18.4,30.8-26.9c5.4-4.2,12.1-1.9,18.3-4.8
				C338.4,149.1,338.7,149.1,338.9,149.1z M316.7,248.8L316.7,248.8c0-0.3-0.2-0.5-0.5-0.7l0,0c0-0.3-0.2-0.5-0.5-0.7l0,0
				c0-0.3-0.2-0.5-0.5-0.7c-0.1-0.1-0.2-0.3-0.2-0.4c0-0.3-0.2-0.5-0.5-0.7l0,0c-0.1-0.4-0.3-0.8-0.7-1.2c-0.1-0.1-0.2-0.3-0.2-0.4
				c0-0.3-0.2-0.5-0.4-0.8c-0.1-0.1-0.1-0.3-0.2-0.4c-0.2-0.4-0.4-0.9-0.6-1.3c-2.1-3.6-3.6-7.3-4.9-11.1c-0.9-2.7-1.7-5.5-2.5-8.2
				c-0.1-0.3,0-0.7-0.5-0.7c-0.4,0-0.5,0.4-0.7,0.6c-0.5,1.1-1.1,2.3-1.6,3.4c-0.7,1.7-1.5,3.5-1.1,5.3c0.5,2.9-0.1,5.7-1.7,8.4
				c-0.5,0.9-0.6,1.9-0.5,2.9c0,0.1,0.1,0.3,0.1,0.4c0,1.1,0.4,2.1,0.9,3.1c0.2,0.8,0.4,1.6,0.5,2.4c0,0.2-0.1,0.3-0.1,0.5
				c-0.2,0.6-0.4,1.1-0.6,1.7c-0.2,0.1-0.3,0.3-0.2,0.4c-0.6,1-1.2,2.1-0.6,3.2c0.6,1.7-0.1,3.4,0.1,5.1c0,0.4,0,0.9-0.1,1.3
				c-0.5,3.6-0.7,7.1-0.2,10.6c0.1,0.7,0.4,1,1.3,1c1.7,0,3.4,0.1,5.1,0.2c1,0.1,1.9,0.2,2.9,0.3c0.5,0.2,1.1,0.2,1.6,0.2
				c0.3,0,0.5,0.1,0.8,0.1c0.3,0.2,0.7,0.2,1.1,0.2c0.2,0,0.3,0.1,0.5,0.1c0.3,0.3,0.7,0.2,1.1,0.2c0.2,0,0.3,0.1,0.5,0.1
				c0.1,0.1,0.3,0.2,0.6,0.1c0.2,0,0.3,0.1,0.5,0.1c0.5,0.3,1,0.4,1.6,0.4c0.2,0,0.3,0.1,0.5,0.1c0.1,0.2,0.3,0.2,0.5,0.2
				c0.8,0.2,1.6,0.4,2.3,0.6c0.1,0.2,0.3,0.2,0.5,0.2c0.5,0.1,1,0.3,1.5,0.4c0.1,0.2,0.3,0.2,0.6,0.1c0.2,0,0.3,0.1,0.5,0.1
				c0.1,0.2,0.3,0.2,0.5,0.2c0.2,0.1,0.5,0.1,0.7,0.2c0.2,0,0.4,0.1,0.6,0.1c0.3,0.1,0.5,0.1,0.8,0.2c0.2,0.1,0.4,0.1,0.6,0.1
				c0.3,0,0.5,0.1,0.8,0.1c0.1,0.2,0.3,0.2,0.5,0.1c0.4,0.1,0.9,0.1,1.3,0.2c0.2,0.1,0.4,0.1,0.6,0.1c0.4,0.1,0.9,0.1,1.3,0.2
				c0.6,0.4,1.4,0.2,2.1,0.3c0.3,0,0.5,0.1,0.8,0.1c3.3,0.5,6.6,0.5,10,0.3c0.2,0,0.3,0,0.5,0c0.5,0,0.9,0.2,1.4-0.1
				c0.4,0,0.7,0,1.1,0c0.3,0.1,0.6,0.1,0.8-0.1c0.4,0,0.7,0,1.1-0.1c0.3,0.1,0.6,0.1,0.8-0.1c0.2,0,0.4,0,0.5,0
				c0.2,0,0.4,0.1,0.6-0.1c0.2,0,0.3-0.1,0.5-0.1c0.3,0,0.6,0.1,0.8-0.1c0.2,0,0.3,0,0.5-0.1c0.9,0,1.7-0.1,2.5-0.4
				c0.2,0,0.3-0.1,0.5-0.1c1.3-0.1,2.6-0.4,3.9-0.8c3.3-0.9,6.6-1.7,10-2.6c0.2,0,0.4,0,0.6-0.1c1.2-0.2,2.4-0.5,3.6-0.7
				c0.2,0,0.4,0,0.6-0.1c0.5-0.1,0.9-0.1,1.4-0.2c0.2,0,0.4,0,0.6-0.1c0.2,0,0.4,0,0.5-0.1c0.2,0.1,0.4,0.1,0.6-0.1
				c0.2,0,0.3,0,0.5-0.1c0.2,0,0.4,0,0.6,0c0.3,0,0.5-0.1,0.8-0.1c0.2,0,0.4,0,0.6,0c0.4,0,0.9-0.1,1.3-0.1c0.2,0.1,0.4,0.1,0.6-0.1
				c1.3,0.2,1.7-0.3,1.8-1.3c0.2-2,0.5-4,0.6-6.1c0.1-0.2,0.2-0.5,0-0.7c0-0.4,0-0.7,0-1.1c0.1-0.2,0.2-0.5-0.1-0.7
				c0-0.2,0-0.4-0.1-0.6c0.1-0.2,0.1-0.3-0.1-0.5c0-0.1-0.1-0.3-0.1-0.4c0.1-0.5-0.2-1-0.4-1.4c-0.4,0.1-0.7,0.4-0.8,0.7l0,0
				c-0.8,0.5-1.5,1-2.1,1.6l0,0c-2,1.4-4.1,2.9-6.1,4.3c-0.2,0.1-0.4,0.2-0.6,0.4c-0.4,0-0.7,0.4-1.1,0.1c0.5-0.6,1.1-0.9,1.7-1.4
				c1.3-1,2.9-1.8,4-2.9c0.1-0.1,0.2-0.1,0.2-0.2c0.6-0.3,1.2-0.7,1.6-1.2c0.1-0.1,0.1-0.1,0.2-0.2c0.3-0.1,0.5-0.4,0.7-0.6
				c0.3-0.3,0.6-0.6,0.8-0.8c0.3-0.1,0.5-0.4,0.6-0.7c1.6-1.7,2.7-3.7,3.7-5.7c0.2-0.1,0.2-0.3,0.2-0.5c0.1-0.1,0.1-0.3,0.2-0.4
				c0.2-0.1,0.2-0.3,0.2-0.5c0.1-0.1,0.1-0.3,0.2-0.4c0.3-0.2,0.3-0.4,0.2-0.7c0.2-0.9,0.5-1.9,0.1-2.8c0-0.4-0.1-0.8-0.7-1.1
				c-2,2.6-4,5.2-6,7.8l0,0c-1,0.8-1.6,1.8-2.4,2.7c-2.1,2.4-4.2,4.8-6.2,7.2l0,0c-0.3,0.1-0.5,0.3-0.6,0.6l0,0
				c-0.3,0.1-0.5,0.3-0.6,0.6c-0.3,0.1-0.6,0.2-0.8,0.3c0.1-1,1-1.6,1.6-2.4c4.5-5,9-10.1,12.8-15.4c0.9-1.2,1.8-2.4,2-3.9
				c0-0.1,0.1-0.3,0.1-0.4c0.3-0.2,0.3-0.4,0.2-0.7c0-0.1,0.1-0.3,0.1-0.4c0.3-0.2,0.3-0.4,0.3-0.7c0-0.1,0.1-0.3,0.1-0.4
				c0.1-0.1,0.2-0.2,0.3-0.4c1.1-3.9,1.8-7.8,2.2-11.8c0-0.6,0-1.1-0.2-1.7c-0.6,0.5-0.9,1-1.2,1.6c-1.3,2.2-2.5,4.5-3.8,6.7
				c-4,6.9-7.7,13.8-12.7,20.2c-0.3,0.4-0.5,0.8-1,1c-0.2,0.1-0.4,0.5-0.8,0.2c-0.4-0.3,0-0.5,0.2-0.7c1-1.4,2.1-2.7,3.1-4.1
				c4.5-6.4,8.1-13.2,11.7-20c1.8-3.5,4-6.8,5.4-10.5c1-2.8,1.4-5.7,1.9-8.6c0.5-3,1-6.1,1.4-9.1c0.2-1.5,0.4-3,0.7-4.6
				c2.1-7.4,0-14.7,0.8-22.4c0.8,2,0,4.5,0.7,6.5c1.6-0.6,2.3-2.5,2.9-3.7c1.3-2.5-1.6-3.3-2.4-4.7c2,0.1,2.7,2.7,4,4.1
				c3.5-8.9-5.2-16.9-10.3-20.5c-2.8-1.5-8.3-2-9.5-1.1c-3,2-5.8,6.6-9.7,8.1c-0.1,0-0.2,0.1-0.3,0.1c-0.9,0.4-1.7,0.8-2.6,1.2l0,0
				c-0.4,0.1-0.8,0.3-1.3,0.4c-4.8,1.5-9.7,2.2-14.7,1.2c-1.5-0.3-3.1-0.5-4.4-1.2c-9.8-5.7-12-9-13.8-12.6
				c-2.4-4.9-20.6,2.8-24.6,15.5c2.5-0.5,5.8-7.5,5.4-3.6c-0.2,10.4-12.4,17.5-10.6,29.9c0,1.6,0.1,3.2-0.1,4.8
				c-0.2,1.9-0.2,3.8,0.1,5.6c0.5,3.3,1.1,6.5,1.8,9.7c2.3,9.8,5.8,19.2,10.9,28.3c1.3,2.2,2.5,4.4,4.3,6.4c0.2,0.3,0.4,0.5,0.6,0.8
				c0.8,1.1,2,2,2.4,3.2c-1.2-0.2-1.5-1.2-2.3-1.7c-0.1-0.1-0.1-0.1-0.2-0.2c-0.2-0.4-0.6-0.8-1-1.1c-0.1-0.1-0.1-0.2-0.2-0.2
				c-0.1-0.4-0.4-0.7-0.8-0.9l0,0c-0.1-0.4-0.3-0.7-0.7-0.9l0,0c0-0.3-0.2-0.5-0.5-0.7l0,0C317.2,249.2,317,249,316.7,248.8z
				 M306.7,173c1,0.9,1.2,2.8,2.3,2.2c1.7-1.9,5.7-6.2,3.5-8.9C311.6,170.2,307.3,168.7,306.7,173L306.7,173z M303.3,218.1
				L303.3,218.1c1-0.3,0.3-0.9,0.2-1.3c-1.6-5.4-2-10.9-2.1-16.4c0-1.8,0-3.7,0.1-5.6c0.4-5.6,2.1-11.4,5.1-16.4
				c1.8-3.1-2.5-4-1.6-7.9c-9,5.3-17.4,13.3-22.2,24.7c-0.8,1.9-1.6,3.8-2.4,5.7s-1.5,3.8-2.1,5.8c-0.3,1.1,0.1,1.7,1.3,2.1
				c1.5,0.5,3,1.2,4.5,1.8c0.3,0.1,0.9,0.3,0.7,0.8c-0.3,0.5-0.8,0.2-1.2,0c-1.6-0.5-3.2-1.1-4.8-1.6c-0.4-0.1-1.1-0.5-1.4,0.1
				c-0.3,0.6-0.4,1.3,0.4,1.6c2.6,1.1,5.3,2.3,8.2,2.9c0.3,0.1,0.6,0.2,0.9,0.1c0.1,0.3,0.3,0.4,0.7,0.3c0.3,0.1,0.5,0.1,0.8,0.2
				c0.3,0.3,0.7,0.2,1.1,0.2c0.6,0.1,1.2,0.2,1.8,0.2c0.2,0,0.4,0,0.6,0.1c1.6,0.1,3.2,0.2,4.8,0.3c1.8,0,3.4,0.3,4.4,1.6
				c0.2,0.3,0.6,0.4,1,0.5C302.4,218.6,302.8,218.7,303.3,218.1z M406.3,221.1c0.2,0,0.3,0,0.5-0.1c0.2,0.1,0.4,0.1,0.6-0.1
				c0.2,0,0.3-0.1,0.5-0.1c0.2,0,0.4,0.1,0.6-0.1c0.2,0,0.3,0,0.5-0.1c0.5,0,1-0.1,1.4-0.3c0.2,0,0.3-0.1,0.5-0.1
				c0.5,0,1-0.1,1.4-0.3c1.9-0.4,3.8-0.6,5.6-1.5c0.5-0.2,0.7-0.5,0.4-0.9c0-0.1,0-0.3,0-0.4c0-0.8-0.2-1.6-1.6-1.4
				c-4.2,0.9-8.5,1.4-12.7,2.1c-0.4,0-0.7,0-1.1-0.1c0.1-0.7,0.9-0.7,1.4-0.8c1.3-0.2,2.6-0.3,4-0.6c2.6-0.4,5.2-0.9,7.7-1.4
				c0.6-0.1,1.7-0.2,1.5-1.1c-0.3-1.8-0.7-3.6-1.3-5.4c0-0.5-0.1-0.9-0.4-1.3c0.1-0.2,0.1-0.3-0.1-0.5c-0.4-1.3-0.7-2.7-1.1-4
				c-0.4-1.3-0.7-2.7-1.1-4c-0.9-2.5-1.5-6.2-2.5-8.3c-2.5-5.7-5.5-10.1-9-14.9c-3.1,5.7-1.3,11.6-2.6,18c-0.7,1.9-1.4,3.8-2.2,5.8
				c-0.5,1.2-1.1,2.4-1.7,3.6c-0.1,0.2-0.3,0.4-0.6,0.4c-0.3-0.1-0.3-0.3-0.3-0.6c0-0.2,0.1-0.5,0.2-0.7c1-2.1,2-4.3,2.9-6.5
				c1.4-5.3,1.5-9.8,0.5-14.4c-5.9,4.2-2.4,12.2-4.4,18.6c-0.2,1.5-0.4,2.9-0.6,4.4c-0.2,1.5-0.4,2.9-0.6,4.4
				c-0.5,3.9-0.8,7.8-2.1,11.5c-0.2,0.7,0.1,1,1,1c1.6,0,3.1-0.2,4.6-0.6c2.7-0.7,4.1-2.2,4.3-4.5c0.1-1.2,0.4-2.5,0.6-3.7
				c0.1-0.3,0-0.7,0.5-0.8c0.5,0.4,0.2,1,0.3,1.5c-0.1,1-0.3,2-0.4,3c-0.3,1.5-0.9,2.9-1,4.3c0,0.7,0.3,1,1.2,0.7c0.3,0,0.5,0,0.8,0
				c0.3,0.1,0.6,0.1,0.8-0.1c0.7-0.1,1.4-0.1,2.1-0.2C405.9,221.2,406.1,221.2,406.3,221.1z M354.4,168.1c1.8,0.1,3.5,0.1,5.2-0.2
				c2.5-0.4,4.9-1,7-1.9c2.1-0.9,4.1-2,5.8-3.4c1.3-2.5,5.3-2.3,4.2-6.3c-0.2-2.6-2.2-2.1-3.8-0.4c-1.4,1.4-2.9,2.6-4.6,3.6
				c-1.7,1.1-3.4,2-5.3,2.8c-4.5,2-9.3,2.1-13.4,0.6c-1.4-0.5-2.7-1.2-3.9-2.1c-4.1-1.3-8.1-13.8-10.4-6.8c-1.1,5.1,5.5,8.6,10.3,12
				c1.2,0.8,2.7,1.1,4.2,1.4C351.2,167.8,352.8,168,354.4,168.1z M340.1,152.7c1.4,3,3.6,5,6,5.6c1.5,0.4,3,0.7,4.5,1
				c4.5,0.8,9,0.9,13.6,0.3c1.7-0.2,3.1-0.7,4.4-1.5c1.3-0.8,2.4-1.8,3.6-2.9c-1.2,0.2-2.3,0.3-3.5,0.5c-5.8,0.6-11.4,0.8-16.9,0.1
				c-1.3-0.2-2.6-0.4-3.9-0.6s-2.6-0.6-4-1C342.6,153.6,341.4,153.2,340.1,152.7z M364.4,160.5c-3.4,0-6.6,0-9.8-0.2
				c-1.6-0.1-3.2-0.2-4.7-0.4c-1.6-0.2-3.1-0.6-4.7-1.1c0.8,1.5,2.5,2.7,4.7,3.4C354.4,163.5,360.7,163.1,364.4,160.5z M393.8,224.1
				c2.4-0.2,4.4-0.8,5.6-2.4c0.2-0.3,0.5-0.6,0.2-0.9c-0.3-0.3-0.7-0.1-1.1,0.1c-2.3,1-4.7,1.6-7.4,1.4c-0.4,0-0.8,0-0.9,0.4
				c-0.2,0.4,0.2,0.6,0.6,0.7C391.7,223.9,392.9,223.8,393.8,224.1z"/>
		</g>
	</g>
	<g id="Head">
		<path fill="#FFFFFF" stroke="#000000" stroke-width="2" stroke-miterlimit="10" d="M333.8,153.3c-9.1-8.6-8.5-23.2-5-35.2
			c1.5-5.1,3.4-10.1,6.1-14.6c7.1-11.7,20.6-20,34.1-18.2c11,1.4,20.7,9.4,25.3,19.5c4.6,10.1,4.5,22,0.9,32.5
			c-1.9,5.5-4.8,10.7-9.3,14.4c-5.3,4.3-12.3,6-19,7.2C355.5,160.9,342.2,161.3,333.8,153.3z"/>
		<path fill="#FFFFFF" stroke="#000000" stroke-width="2" stroke-miterlimit="10" d="M376.8,93.1c-1.2-8.1-2.6-17.2-2-25.9
			c-5.4,6.7-10.2,16.1-14.1,23.7"/>
		<path fill="#FFFFFF" stroke="#000000" stroke-width="2" stroke-miterlimit="10" d="M355.2,91.4c-0.8-6.7-6.7-14.9-8.1-21.5
			c-3.2,8.2-3.3,15.7-4.5,24.4"/>
		<path fill="#FFFFFF" stroke="#000000" stroke-width="2" stroke-miterlimit="10" d="M355.2,138.8c-3.8,4.1-10.1,5.6-15.3,3.7
			c-1.2-0.4-2.3-1-3-2c-0.6-0.9-0.8-2.1-0.9-3.3c-0.3-2.9-0.4-5.8-0.2-8.8c0-0.6,0.1-1.2,0.4-1.7c0.3-0.5,0.7-0.8,1.2-1.1
			c1.9-1.4,3.9-2.7,5.8-4.1c-3.8-1.8-8.1-2.2-12.1-1.2c4.6,3,5.3,9.6,4.4,15.1c-0.3,2-0.8,4-2,5.6c-1.2,1.6-3.9,2.4-5.8,1.7"/>
		<path fill="#FFFFFF" stroke="#000000" stroke-width="2" stroke-miterlimit="10" d="M344.1,108.1c2.8,3.8,8.1,5.7,12.7,4.5
			c0.9-0.2,1.8-0.7,2-1.6c0.1-0.4,0-0.8-0.2-1.1c-1-2.7-3.5-4.8-6.3-5.3c-2.8-0.5-5.9,0.7-7.6,2.9L344.1,108.1z"/>
		<path d="M352.4,105.2c-1.4,1.7-1.8,4.7-0.9,6.9C353.8,111.6,353.8,107.1,352.4,105.2z"/>
		<path fill="none" stroke="#000000" stroke-width="2" stroke-miterlimit="10" d="M331.8,108.8c1.3,0.7,2.9-0.1,4.2-0.9
			c0.6-0.4,1.2-0.7,1.8-1.1c-0.7-1.7-1.4-2.3-2.8-3.3"/>
		<path d="M332.8,109.2c0-0.9,0.7-1.5,0.9-2.4s0.4-1.2,1.5-2.3c0.4,1.6-0.1,2.5-0.8,3.7c-0.2,0.4,0.1,0.9-1.4,1.3"/>
	</g>
	<g id="Tail">
	</g>
	<g id="Arms">
		<path fill="#FFFFFF" stroke="#000000" stroke-width="2" stroke-miterlimit="10" d="M283.9,213.6c0,1.5-0.2,2.9-0.6,4.3
			c-0.5,1.7-1.4,3.5-3.1,4.2c-2.1,1-4.6,0-6.7-0.9c-7-2.9-14.5-4.6-22-5.1c-2.9-0.2-6.7-0.9-7.2-3.8c-0.2-1.2,0.2-2.5-0.1-3.6
			c-0.7-2.4-4.5-2.6-5.9-0.6c-1.4,2-0.4,5.1,1.7,6.4c-1.5-1.4-4.1-2.8-5.3-1.1c-0.7,0.9-0.2,2.3,0.6,3.1s2,1.1,3.1,1.4
			c-1.3-1.1-3.7-1.2-4.6,0.3s1.2,3.8,2.6,2.6c-1.7-1-3.6,1.8-2.5,3.5s3.5,1.7,5.4,1.1c1.9-0.6,3.6-1.8,5.5-2.2
			c3.6-0.7,7.1,1.6,10.3,3.3c6,3.3,12.6,5.1,19.2,7c3.7,1,7.7,2.1,11.2,0.6c4.2-1.7,6.4-6.3,8.2-10.4c1.1-2.6,2.2-5.3,3.4-7.9"/>
		<path fill="#FFFFFF" stroke="#000000" stroke-width="2" stroke-miterlimit="10" d="M401.4,222.7c-0.2,2-0.3,4.1-0.5,6.1
			c-0.3,3.3-0.5,6.9,0.9,9.9c1,2.1,2.7,3.8,4.3,5.4c5.6,5.4,11.1,10.9,16.7,16.3c-1,1.3-1.5,3-1.3,4.7c1.5,0.5,3.1,0.7,4.7,0.6
			c0-0.9,0.1-1.8,0.1-2.7c-0.4,1,0.6,2.2,1.6,2.5s2.2-0.5,2.4-1.5c0.3-1.7-1.6-2.8-3.1-3.5c2.5,1.2,5.2,2,7.9,2.4
			c0.1-2.8-2.4-5.4-5.1-5.4c1.3,0.8,2.7,1.6,4.2,1.7c1.5,0.1,3.2-1,3.3-2.5c0.1-1.5-1.4-2.7-2.9-3c-1.5-0.3-3-0.2-4.5-0.5
			c-3.8-0.8-6.2-4.5-7.9-8.1c-1.6-3.5-3.2-7.4-6.5-9.5c-1.3-0.8-2.9-1.4-3.6-2.7c-0.3-0.8-0.3-1.6-0.3-2.4c0.2-3.5,0.6-7,1.1-10.5"
			/>
	</g>
</g>
<g id="Tom_1_">
	<g id="Feet_copy">
		<path stroke="#2B2B2B" stroke-width="0.5" stroke-miterlimit="10" d="M192.1,352.6c-0.6,2.5-0.5,5.1,0.5,7.5c1.5,0,3,0.5,3.9,1.7
			s1,3-0.1,4c-1,1-3.2,0.7-3.6-0.7c0.2,1.3,0.3,2.7,0.2,4c-1.9,0.2-3.5-2-2.8-3.7c0.4,1.8-0.9,4-2.8,4s-3.1-2.8-1.5-3.9
			c0,1.9-2.1,3.5-3.9,2.8c-1.8-0.6-2.5-3.2-1.2-4.7c0.4-0.4,0.9-0.8,1.2-1.2c1.5-1.6,1.2-4.2,0.7-6.4"/>
		<path stroke="#2B2B2B" stroke-width="0.5" stroke-miterlimit="10" d="M159.7,355.7c0.3,0.2,0.3-0.5,0-0.5s-0.5,0.4-0.6,0.7
			c-0.8,2.7,0.1,5.7,2.2,7.5c1,0.9,2.4,1.7,2.4,3.1c0,1.4-1.7,2.3-3.1,2s-2.4-1.3-3.4-2.3c0.7,0.9,1.4,1.9,1.6,3.1
			c0.2,1.2-0.3,2.5-1.4,2.9c-1.2,0.4-2.6-0.6-3-1.8c-0.5-1.2-0.3-2.6,0-3.9c-0.8,0.8-1,2-1.6,3.1c-0.5,1-1.6,2-2.7,1.7
			c-1-0.3-1.5-1.6-1.2-2.7s1-1.9,1.8-2.7c-0.5,1.3-1.1,2.6-2.2,3.5c-1.1,0.9-2.8,1-3.7,0c-1-1.2-0.4-3,0.6-4.1
			c1-1.1,2.4-1.9,3.2-3.2s0.6-3.4-0.8-3.9"/>
	</g>
	<g id="Jeans_copy">
		
			<path fill="#0071BC" stroke="#2E3192" stroke-width="2" stroke-linecap="round" stroke-linejoin="round" stroke-miterlimit="10" d="
			M132.6,259.2c-5.1,11.7-0.2,25,3.2,37.3c4.3,15.4,4.8,17.6,4.2,33.6c-0.1,3.7,0,10.1,0,13.9c0,4.5,0.3,12.3,4.2,12.9
			c8.3,1.3,33.4-1.6,33.4-1.6s5-13.2,4.6-20.3c-0.6-13.7-1.3-27.4-1.9-41.1c4.3,12.9,3.6,27,2.3,40.5c-0.7,7.1-0.2,20.5-0.2,20.5
			l21.8,3.7c0,0,5.3-30.8,3.7-39.6c-3.6-20.7-3.8-41.8-4-62.8"/>
		<path fill="none" stroke="#2E3192" stroke-miterlimit="10" d="M142.2,279.3c5.6-2,9.8-7.6,10.1-13.6"/>
		<path fill="none" stroke="#2E3192" stroke-miterlimit="10" d="M204.3,269c-2.9-0.4-5.5-2.6-6.3-5.4"/>
		<path fill="none" stroke="#2E3192" stroke-miterlimit="10" d="M180.3,266c-0.3,6.4-0.1,12.8,0.8,19.2c0,0.3,0,0.7-0.3,0.8
			c-0.1,0-0.2,0-0.3-0.1c-1.8-0.7-2.8-2.7-3.5-4.5c-1.8-4.7-2.6-9.8-2.4-14.9"/>
		<path fill="none" stroke="#2E3192" stroke-miterlimit="10" d="M156.2,353.4c5.1-14.8,1.6-31.1-3.6-45.8s-11.9-29.3-13.1-44.9"/>
		<path fill="none" stroke="#2E3192" stroke-miterlimit="10" d="M187.5,352.7c0.6-5.7,0.3-11.5-0.9-17.1c-0.4-1.9-1-3.8-1-5.8
			c0-1.4,0.1-2.8-0.1-4.1c-0.4-2.1-1.8-4.1-1.3-6.1"/>
	</g>
	<g id="Tshirt_copy">
		<g id="Arms_copy">
			<path stroke="#2B2B2B" stroke-width="0.5" stroke-miterlimit="10" d="M222.5,197.3c1.1,1,2.6,1.3,3.9,1.9
				c1.6,0.7,1.1,1.4,2.8,0.6c2.1-1,2.8-2.4,3.5-4.6c2.4-7.2,5.9-14,10.3-20.1c1.7-2.4,3.6-5.6,1.8-7.9c-0.8-1-2-1.4-2.7-2.4
				c-1.4-2,0.9-5.1,3.4-4.8c2.4,0.3,4.1,3,3.8,5.4c-0.1-2.1,0.5-4.9,2.5-4.8c1.2,0.1,1.9,1.3,2,2.5c0,1.2-0.5,2.2-1,3.3
				c0-1.7,1.5-3.6,3.2-3.3c1.7,0.3,2.1,3.4,0.4,3.7c0.3-2,3.7-1.6,4.2,0.3c0.5,1.9-1,3.8-2.7,4.8c-1.7,1-3.7,1.6-5.2,2.8
				c-2.9,2.3-3.4,6.4-4.1,10c-1.4,6.7-4.3,13-7.1,19.2c-1.6,3.5-3.4,7.2-6.8,8.9c-4,2.1-8.2-0.9-12.6-2.3
				c-2.7-0.8-10.6-8.9-13.3-9.7"/>
			<path stroke="#2B2B2B" stroke-width="0.5" stroke-miterlimit="10" d="M116.1,206.7c0.2,2,0.3,4.1,0.5,6.1
				c0.3,3.3,0.5,6.9-0.9,9.9c-1,2.1-2.7,3.8-4.3,5.4c-5.6,5.4-11.1,10.9-16.7,16.3c1,1.3,1.5,3,1.3,4.7c-1.5,0.5-3.1,0.7-4.7,0.6
				c0-0.9-0.1-1.8-0.1-2.7c0.4,1-0.6,2.2-1.6,2.5c-1,0.3-2.2-0.5-2.4-1.5c-0.3-1.7,1.6-2.8,3.1-3.5c-2.5,1.2-5.2,2-7.9,2.4
				c-0.1-2.8,2.4-5.4,5.1-5.4c-1.3,0.8-2.7,1.6-4.2,1.7s-3.2-1-3.3-2.5c-0.1-1.5,1.4-2.7,2.9-3s3-0.2,4.5-0.5
				c3.8-0.8,6.2-4.5,7.9-8.1c1.6-3.5,3.2-7.4,6.5-9.5c1.3-0.8,2.9-1.4,3.6-2.7c0.3-0.8,0.3-1.6,0.3-2.4c-0.2-3.5-0.6-7-1.1-10.5"/>
		</g>
		<g>
			<path fill="#2C1BCC" d="M164.3,246c2-1.2,3.7-2.7,5.4-4.2c8.5-7.5,15.2-16.3,20.4-26c1.1-2.1,2.1-4.4,3.1-6.5
				c0.2-0.4,0.4-0.9,0.3-1.6c-1.2,0.9-1.3,2.3-2.1,3.3c-0.2-0.8,0.3-1.5,0.7-2.1c1.7-2.6,2.4-5.4,2.9-8.4c1-5.6,1.6-11.2,1.7-16.9
				c0-1.8,0-3.6,0-5.4c-0.7-12.6-6.4-21.7-12.1-31.1c-2.6-4.4-9.1-3.1-13.7-0.9c2-1.4,2.5-7.2,4.2-7.3c8.4-4.3,18.6,3.4,22.1,16.1
				c1.6,2.5,3.4,5.7,0.7,4.6c3.3,11.5,5,8.7,3.9,21.7c0,1.6-0.1,3.2,0.1,4.8c0.2,1.9,0.2,3.8-0.1,5.6c-0.4,3.3-1,6.5-1.6,9.7
				c-2,9.8-5.1,19.2-9.6,28.3c-1.1,2.2-2.2,4.4-3.8,6.4c-0.1-0.3,0-0.9-0.6-0.3c-0.9,0.9-1.8,1.7-2.7,2.5c-4.2,3.8-9.1,6.6-14.3,8.9
				c-4.5,2-9.3,3.4-14.2,4.4c-1.1,0.2-2.2,0.5-3.3,0.7c-0.3,0.1-0.7,0.2-0.9-0.3c-0.1-0.4,0.2-0.5,0.5-0.6c0.2-0.1,0.4-0.1,0.5-0.2
				c3.5-1,6.7-2.6,9.7-4.6c0.5-0.3,0.8-0.8,1.5-0.8C163.5,246.8,164,246.2,164.3,246z M193.2,220c-1.9,3.1-4,6.1-6.7,8.7
				c-2.2,2.2-4.7,4.1-6.8,6.4c-0.2,0.2-0.5,0.5-0.6,0.8c-0.2,0.3-0.4,0.6-0.1,0.9c0.3,0.3,0.6,0.2,1,0.1c2.5-0.9,4.6-2.4,6.6-4.1
				c2.9-2.6,4.2-6,5.9-9.2c1.3-2.4,2.5-4.8,3.4-7.3c0.1-0.2,0.3-0.4,0-0.9C194.9,217,194.1,218.5,193.2,220z"/>
			<path fill="#2C1BCC" d="M193.3,226.5c1.8-3.6,3.2-7.3,4.3-11.1c0.8-2.7,1.5-5.5,2.2-8.2c0.1-0.3,0-0.7,0.4-0.7
				c0.4,0,0.5,0.4,0.6,0.6c0.5,1.1,0.9,2.3,1.4,3.4c0.6,1.7,1.3,3.5,1,5.3c-0.4,2.9,0.1,5.7,1.5,8.4c0.5,0.9,0.6,1.9,0.4,2.9
				c-0.5-0.4-0.8-0.4-1,0.3c-1.5,4.2-3.2,8.2-5.6,11.9c-1.5,2.3-3.6,3.9-6,5.3c-3.2,1.9-6.7,3.5-10.1,5c-0.8,0.3-1.5,0.8-2,1.4
				c0.4,0.3,0.6,0.1,0.9,0c5-1.7,9.8-4,14.5-6.4c2.5-1.3,5-2.5,7.5-3.7c0.7-0.4,1.4-0.7,1.5-1.6c0-0.2,0.2-0.4,0.5-0.4
				c-0.5,1.7,0.1,3.4-0.1,5.1c-0.6-0.4-0.3-0.9-0.4-1.4c-0.1-0.5-0.3-0.6-0.8-0.4c-3.1,1.7-6.3,3.4-9.4,5.2
				c3.6-0.6,6.9-2.1,10.7-2.1c0.5,3.6,0.6,7.1,0.2,10.6c-0.1,0.7-0.4,1-1.2,1c-1.5,0-3,0.1-4.4,0.2c0.2-0.5,0.9-0.6,1.2-1.1
				c1.2-2.1,2.2-4.3,2.8-6.6c0.2-0.7-0.1-0.8-0.7-0.8c-1.2,0.1-2.4,0.4-3.5,0.8c-4.6,1.4-9.1,2.9-13.7,4.2c-4.6,1.3-9.2,2.5-14,3.2
				c-3.3,0.5-6.7,1.1-10,1.4c-2.6,0.3-5.1,0.4-7.7,0.3c-1.4-0.1-2.9-0.3-4.3-0.4c-0.3,0-0.7-0.1-0.7-0.4c-0.1-0.4,0.4-0.4,0.6-0.4
				c1.3-0.4,2.5-0.2,3.8-0.1c1.9,0.1,3.7,0.2,5.6-0.2c2.4-0.5,4.6-1.4,6.7-2.3c7-2.9,13.9-6,20.2-10.1c3.5-2.3,6.5-4.9,8.6-8.4
				c2.4-3.9,4.5-8,6.2-12.2c0.6-1.5,1.1-3.1,1-4.8c-0.1-0.5-0.1-1.1-0.7-1.3c-0.7-0.2-1.2,0-1.7,0.5c-2.1,2.2-4.1,4.6-5.4,7.3
				c-0.3,0.7-0.3,1.7-1.3,2C192.9,227.4,193.1,227,193.3,226.5z M202.3,241.9c-5.9,3-11.9,6.1-18.1,8.6c-0.7,0.3-1.5,0.5-2.3,0.8
				c-0.3,0.1-0.8,0.2-0.6,0.6c0.1,0.4,0.6,0.2,0.8,0.1c0.9-0.2,1.9-0.5,2.8-0.8c6.3-2.7,12.4-5.8,18.3-9.1c0.2-0.1,0.4-0.3,0.8-0.5
				C203.1,241.3,202.7,241.7,202.3,241.9z M199.1,211.7c-0.1,0.2-0.1,0.4,0.2,0.4c0.1,0,0.3-0.1,0.4-0.2c0.6-0.6,1.3-1.1,1.6-1.8
				c0.5-0.9-0.3-1.7-0.8-2.8C199.7,209,199.5,210.4,199.1,211.7z"/>
			<path fill="#2C1BCC" d="M128.6,225.7c0.5-0.7-0.1-1.6,0.2-2.3c0.4-1.3,1-2.5,1.2-4c0.7,0.5,0.9,1.2,1.2,1.8
				c2.3,4.6,4.5,9.3,7.1,13.8c1.3,2.3,2.7,4.7,4.4,6.8c0.1,0.2,0.3,0.4,0.5,0.5c0.5,0.3,0.8,1.1,1.5,0.5c0.6-0.5,0-1.1-0.3-1.5
				c-4.1-5.4-6.9-11.5-10-17.4c-0.3-0.7-0.3-0.7-0.2-1.5c1,1.1,1.8,2.2,2.7,3.2c1.1,1.2,1.9,2.5,3.3,3.5c0.2,0.2,0.4,0.4,0.7,0.3
				c0.3-0.1,0.1-0.4,0.1-0.7c0-0.8-0.4-1.6-0.8-2.3c-2.9-6.3-5.9-12.5-8.8-18.8c-1.9-4.1-3.6-8.2-4.6-12.5c-1-4-1.6-8-2-12
				c-0.1-1.3-0.2-2.7-0.3-4.1c0.3-8.6,2.1-16.5,1.3-24.9c-1.6,5.3-2.8,11.2-3.1,17.1c-0.5-0.6-0.9-2.1-0.9-2.7
				c-0.3,5.2-0.5,10.6,0.7,15.5c0.2,1.5,0.4,3,0.6,4.6c0.4,3,0.8,6.1,1.2,9.1c0.4,2.9,0.7,5.8,1.6,8.6c1.2,3.6,3.1,7,4.7,10.5
				c3.1,6.8,6.2,13.6,10.2,20c0.9,1.4,1.8,2.8,2.7,4.1c0.1,0.2,0.5,0.4,0.2,0.7c-0.3,0.3-0.5-0.1-0.7-0.2c-0.4-0.2-0.6-0.7-0.9-1
				c-4.4-6.5-7.6-13.4-11.1-20.2c-1.1-2.2-2.2-4.5-3.4-6.7c-0.3-0.5-0.5-1.1-1.1-1.6c-0.2,0.6-0.3,1.2-0.2,1.7
				c0.3,4,0.9,7.9,1.9,11.8C128.4,225.5,128.5,225.6,128.6,225.7z"/>
			<path fill="#3F36F2" d="M156.6,153c1.4-0.1,3-0.2,4.3-0.5c1.3-0.4,2.5-1.1,3.7-1.7c4.4-1.9,9.8-6.7,8.8-11.9
				c-2-7-5.5,5.5-9.1,6.8c-1,0.9-2.2,1.6-3.4,2.1c-3.6,1.6-7.8,1.4-11.8-0.6c-1.7-0.8-3.2-1.8-4.7-2.8s-2.8-2.3-4-3.6
				c-1.4-1.7-3.1-2.2-3.3,0.4c-0.9,4,2.5,3.7,3.7,6.3c1.5,1.4,3.2,2.5,5.1,3.4c1.9,0.9,3.9,1.5,6.1,1.9
				C153.5,153.1,155,153.2,156.6,153z"/>
			<path fill="#2C1BCC" d="M114.3,160.2c2.3,0.2,1.7,4,2.7,6.3c-1.1,5.9-0.2,11.5,1.9,18.1c0.4,1.2,1,2.4,1.5,3.6
				c0.1,0.2,0.2,0.4,0.5,0.4c0.3-0.1,0.3-0.3,0.2-0.6c0-0.2-0.1-0.5-0.2-0.7c-0.9-2.1-1.8-4.3-2.5-6.5c-1.2-4.6-1.3-9.8-0.4-14.4
				c2.4,1.8,3.5,4.3,2.9,7.6c0.2-2.6-1.6-7-2.3-5.7c-2.3,2.7-0.4,9.1,0.5,13.6c2.5-1.5,1-6.6,2-9.9c0.3,3.2-0.3,9.8,0.7,13
				c0.2,1.5,0.4,2.9,0.6,4.4c0.2,1.5,0.4,2.9,0.5,4.4c0.5,3.9,0.7,7.8,1.9,11.5c0.2,0.7-0.1,1-0.8,1c-1.4,0-2.7-0.2-4-0.6
				c-2.4-0.7-3.6-2.2-3.8-4.5c-0.1-1.2-0.4-2.5-0.6-3.7c0-0.3,0-0.7-0.5-0.8c-0.4,0.4-0.2,1-0.3,1.5c-0.4-0.1-0.4-0.3-0.4-0.6
				c-0.1-1.6-0.4-3.2-0.7-4.8c-0.3-1.6-0.6-3.2-0.7-4.8c-2.5-9.6,2-17,1.5-26.1c-0.3,1.3-1.3,2.4-1.9,2.9
				C112.9,164.1,113.7,161.2,114.3,160.2z M120,189.9c-0.3-2.4-1.4-4.6-2.2-6.9c-1.9-5.4-1.9-10.6-1.6-15.8c-2.9,6-2,14.4-1.4,21.4
				c0.2,1.4,0.3,2.8,0.5,4.3c0.2,1.4,0.4,2.8,0.6,4.3c0.3,1.8,0.5,3.6,0.8,5.4c0.2,1.2,1.2,1.9,2.3,2.5c0.8,0.4,1.9,1.1,2.6,0.6
				c0.7-0.4,0.1-1.5,0.1-2.2c0-1.2-0.2-2.3-0.3-3.5C121.2,196.5,120.4,193.2,120,189.9z M114.2,188.8c-0.8-6.5-1.4-12.3,0.2-18.2
				c-1.6,5.3-1.8,12.4-0.6,18.3c0.3,2,0.5,3.9,0.8,5.9C114.5,192.7,114.3,190.8,114.2,188.8z"/>
			<path fill="#2C1BCC" d="M169,137.6c-2.4-0.2-4.6,1.8-6.8,2.3c-1.1,0.3-2.3,0.5-3.5,0.6c-4.8,0.7-9.8,0.6-14.8-0.1
				c-1-0.1-2-0.3-3.1-0.5c1,1.2,2,2.2,3.1,2.9c1.1,0.8,2.4,1.3,3.9,1.5c4.1,0.6,8,0.4,11.9-0.3c1.3-0.3,2.6-0.6,3.9-1
				c1.5-0.5,2.6-1.2,3.4-2.2C168,140,168.6,138.9,169,137.6z"/>
			<path fill="#2C1BCC" d="M147.7,145.4c3.3,2.6,8.8,3,12.6,1.7c1.9-0.7,3.5-1.8,4.1-3.4c-1.4,0.5-2.7,0.8-4.1,1.1
				c-1.4,0.2-2.7,0.4-4.1,0.4C153.5,145.4,150.7,145.4,147.7,145.4z"/>
			<path fill="#3F36F2" d="M120.9,173.8c0.1-2.4-1.3-6.3-2.3-6c-3.2,2.8-0.9,10.2,0.4,14c2.5-0.8,1.3-3.4,1.9-7.6
				C120.9,174.2,120.9,174,120.9,173.8z"/>
			<path fill="#3F36F2" d="M205.1,244c-0.6-0.4-0.3-0.9-0.4-1.4c-0.1-0.5-0.3-0.6-0.8-0.4c-3.1,1.7-6.3,3.4-9.4,5.2
				c3.6-0.6,6.9-2.1,10.7-2.1C205.2,244.9,205.1,244.5,205.1,244z"/>
			<path fill="#2C1BCC" d="M122,209.1c0.8-0.3,1.8-0.2,2.6-0.7c0.3-0.2,0.6-0.3,0.5-0.7c-0.1-0.4-0.4-0.5-0.8-0.4
				c-2.3,0.2-4.4-0.4-6.5-1.4c-0.3-0.1-0.7-0.4-1-0.1c-0.3,0.3,0,0.6,0.2,0.9C118.2,208.3,120,208.9,122,209.1z"/>
			<path fill="#2C1BCC" d="M143.8,250c0.7,0.1,0.7,0,0.4-0.6c-0.7-1.4-1.7-2.4-2.7-3.6c-3.6-4.5-7-9.1-10.1-13.9
				c-0.7-1-1.4-2-1.7-3.3c0-0.2-0.2-0.3-0.4-0.3c0.1,1.5,0.9,2.7,1.7,3.9c3.4,5.3,7.4,10.4,11.3,15.4C143,248.3,143.7,249,143.8,250
				z"/>
			<path fill="#2C1BCC" d="M197.9,158.9c-2.3-1.3-3.5-4.4-5.4-6.2c1.2,3.2,1.9,6.4,4.5,7.4C197.5,159.8,197.9,159.5,197.9,158.9z"/>
			<path fill="#C90010" d="M118.9,165.1c0.7,0.6,0.7,1.2,1.2,1.8c1.1-2,1.8-4,0.3-5.9c-0.9-0.6-1.2,1.4-1.8,2.3
				C118.4,164.1,118.9,164.4,118.9,165.1z"/>
			<path fill="#3F36F2" d="M145.5,151.7c0,0.5,0.4,0.5,0.8,0.7c3.8,1.5,7.8,2.1,11.9,1.6c1.5-0.2,3-0.5,4.4-1c1.4-0.5,2.7-1.2,4-1.9
				c0.3-0.2,0.6-0.3,0.4-0.7c-1.2,0.6-2.4,1.2-3.7,1.8c-1.2,0.5-2.5,0.9-3.9,1.2c-4.4,0.9-8.7,0.2-12.9-1.2
				C146.3,152,145.9,151.8,145.5,151.7z"/>
			<path fill="#3F36F2" d="M194.5,153c1.3,2.1,2.3,3.3,3.8,5.2c1.1-2-2-2.5-2.4-3.4C195.4,154.1,195.1,153.5,194.5,153z"/>
			<path fill="#3F36F2" d="M192,150.5c-0.3-1.6-0.8-2.3-2.1-2.2c0.6,1.3,1.1,1.9,2,2.3C192,150.5,192,150.5,192,150.5z"/>
			<path fill="#AF1E30" d="M135.6,142.2c0.9,1.6,1.6,4.2,3.6,4.9C138,145.5,136.8,143.8,135.6,142.2z"/>
			<path fill="#AF1E30" d="M170,147.9c1.1-0.3,2.2-1.8,2.1-2.8C171.4,146,170.7,147,170,147.9z"/>
			<path fill="#3F36F2" d="M143.3,150.5c0.4,1,1.2,1.2,2.2,1.2C144.8,151.3,144.1,150.9,143.3,150.5z"/>
			<path fill="#AF1E30" d="M139.2,147.1c0.1,0.9,0.7,1.4,1.6,1.6C140.3,148.1,139.8,147.5,139.2,147.1z"/>
			<path fill="#AF1E30" d="M141.5,149.3c0.2,0.8,0.7,1.2,1.5,1.1C142.6,149.9,142.1,149.5,141.5,149.3z"/>
			<path fill="#3F36F2" d="M193.2,151.5c1.2,3,3.9,3.5,4.7,7.3c-2.3-1.2-3.5-4.3-5.4-6.3C192.6,152,192.5,151.2,193.2,151.5z"/>
			<path fill="#3F36F2" d="M201.4,203L201.4,203L201.4,203c0.3-2.2,0.7-4.3,1.5-6.4c0.5,1.9,0.3,3.9,0.3,5.8
				c-0.2,0.3-0.5,0.4-0.8,0.5C202.1,203.5,201.8,203.6,201.4,203C201.4,203,201.4,203,201.4,203z"/>
			<path fill="#AF1E30" d="M167.8,149.9c0.4,0,0.7,0,0.7-0.5C168.2,149.4,167.9,149.6,167.8,149.9z"/>
			<path fill="#AF1E30" d="M167.1,150.3c0.4,0,0.8,0,0.7-0.5C167.5,149.9,167.2,150.1,167.1,150.3z"/>
			<path fill="#AF1E30" d="M168.7,149.1c0.4,0,0.7-0.1,0.6-0.6C169.1,148.7,168.8,148.9,168.7,149.1z"/>
			<path fill="#3F36F2" d="M206,199.5c0.3-2.9-0.1-5.8-0.2-8.7c-0.1-2.1-0.2-4.2-0.3-6.3c-0.1-2.1-0.7-4-0.9-6.2
				c-1-6.1-1.9-12-5.4-16.4c-0.1-0.6,0.3-2.3,0.8-2.4c4.9,1.6,5.7,8,9.4,10.4c1.4,1.2,5.6,7.2,3.8,10.3c-1.3,1.4-3.1,2.8-4,4.4
				c-0.8,1.3-0.6,2,0.8,2.7c1,0.6,2.1,1,3,1.7c2.4,2,5.3,3.9,4,7.5c0,0.1,0,0.2,0,0.3c0.2,0.9,0,1.6-0.5,2.4
				c-0.2,0.1-0.5,0.2-0.8,0.1c-0.1,0.3-0.3,0.4-0.6,0.3c0-0.1,0.1-0.2,0.1-0.3c0,0,0.1-0.1,0.2-0.1c-0.1,0-0.1,0-0.2,0.1
				c-0.1,0.1-0.1,0.1-0.1,0.3c-0.2,0.1-0.4,0.1-0.7,0.2c-0.3,0.3-0.6,0.2-0.9,0.2c-0.5,0.1-1.1,0.2-1.6,0.2c-0.2,0-0.3,0-0.5,0.1
				c-1.4,0.1-2.8,0.2-4.2,0.3C206.8,200.3,205.9,200.4,206,199.5z"/>
			<path fill="#3F36F2" d="M182.4,249.7c3.5-1.5,6.9-3.1,10.1-5c2.4-1.4,4.5-3,6-5.3c2.4-3.8,4.2-7.8,5.6-11.9
				c0.2-0.7,0.5-0.7,1-0.3c0,0.1,0,0.3-0.1,0.4c0,1.1-0.4,2.1-0.8,3.1c-0.2,0.8-0.4,1.6-0.4,2.4c0,0.2,0.1,0.3,0.1,0.5
				c0.2,0.6,0.3,1.1,0.5,1.7c0.2,0.1,0.2,0.3,0.2,0.4c0.5,1,1,2.1,0.6,3.2c-0.3,0-0.4,0.2-0.5,0.4c-0.1,0.9-0.8,1.3-1.5,1.6
				c-2.5,1.2-5,2.4-7.5,3.7c-4.7,2.4-9.4,4.6-14.5,6.4c-0.3,0.1-0.5,0.3-0.9,0C180.9,250.4,181.6,250,182.4,249.7z"/>
			<path fill="#3F36F2" d="M107.5,205.7c-0.2,0-0.4-0.1-0.5-0.1c-0.4,0-1-0.1-1.4-0.3c-1.7-0.4-3.4-0.5-4.9-1.4
				c-0.4-0.2-0.4-1.1-0.1-1.5c0-0.1,0-0.3,0-0.4c0-0.8,0.2-1.6,1.4-1.4c3.7,0.9,7.4,1.4,11.2,2.1c0.3,0,0.3,0,0.6,0
				c-0.3-0.4-0.3-0.4-0.7-0.5c-1.1-0.2-2.4-0.1-3.5-0.3c-2.3-0.4-4.8-1.2-7-1.7c-0.6-0.1-1.5,0.1-1.2-1.3c0.4-1.8,0.6-3.6,1.1-5.4
				c0-0.5,0.1-0.9,0.3-1.3c0-0.2-0.1-0.3,0.1-0.5c0.3-1.3,0.6-2.7,0.9-4c0.3-1.3,0.6-2.7,0.9-4c1.4-9.5,5.7-16.3,9.8-23.1
				c0.2,14.4-4.1,17.9-1.7,27.3c0.2,1.6,0.5,3.2,0.7,4.8c0.3,1.6,0.5,3.2,0.7,4.8c0,0.3,0.1,0.5,0.4,0.6c0.1,1,0.2,2,0.3,3
				c-0.2,0.2-0.4,0.3-0.7,0.4c0.2-0.1,0.5-0.2,0.7-0.4c0.2,1.5,1,3.5,1.1,5c0,0.7-0.4,0.6-1.2,0.3c-0.2,0-0.5,0.3-0.8,0.3"/>
			<path fill="#C90010" d="M109.3,205.3"/>
			<path fill="#C90010" d="M109.6,205.6c-0.2,0-0.4,0.1-0.5-0.1"/>
			<path fill="#1B02AA" d="M163.1,246c0.4,0.8,0.9,0.2,1.2,0c2-1.2,3.7-2.7,5.4-4.2c8.5-7.5,15.2-16.3,20.4-26
				c1.1-2.1,2.1-4.4,3.1-6.5c0.2-0.4,0.4-0.9,0.3-1.6c-1.2,0.9-1.3,2.3-2.1,3.3l0,0c-0.1,0.6-0.4,1.1-0.8,1.6l0,0
				c-0.1,0.6-0.4,1.1-0.8,1.6l0,0c-0.2,0.6-0.3,1.1-0.8,1.6l0,0c0,0.3-0.1,0.5-0.4,0.7l0,0c0,0.3-0.1,0.5-0.4,0.7l0,0
				c0,0.3-0.1,0.5-0.4,0.7l0,0c-0.3,0.9-0.8,1.7-1.4,2.5l0,0c-0.1,0.4-0.3,0.7-0.6,0.9l0,0c-0.1,0.4-0.3,0.7-0.6,0.9l0,0
				c-0.1,0.4-0.3,0.7-0.6,0.9l0,0c0,0.3-0.2,0.5-0.4,0.7l0,0c-0.1,0.4-0.3,0.7-0.6,0.9l0,0c-0.1,0.5-0.5,0.8-0.8,1.2
				c0,0.1-0.1,0.1-0.1,0.2c-0.1,0.4-0.4,0.7-0.7,0.9c-0.1,0.1-0.1,0.2-0.2,0.2c-0.2,0.5-0.5,0.8-0.9,1.2c-0.1,0.1-0.1,0.1-0.2,0.2
				c-0.2,0.5-0.5,0.8-0.9,1.2c-0.2,0.2-0.4,0.5-0.6,0.7c-0.4,0.7-0.9,1.3-1.5,1.8c-0.2,0.2-0.4,0.5-0.6,0.7c-0.6,1-1.5,1.8-2.4,2.6
				c-0.7,0.8-1.3,1.6-2.2,2.2c-0.3,0.4-0.6,0.8-1.1,1c-0.2,0.2-0.4,0.4-0.7,0.6c-0.2,0.4-0.5,0.6-0.8,0.8c-0.2,0.2-0.5,0.4-0.7,0.6
				c-0.1,0.3-0.4,0.4-0.6,0.6c-0.1,0.1-0.2,0.1-0.2,0.2c-0.1,0.3-0.4,0.4-0.6,0.5c-0.1,0.1-0.2,0.1-0.2,0.2
				c-0.1,0.3-0.4,0.4-0.6,0.5c-0.1,0.1-0.2,0.1-0.2,0.2c-0.1,0.3-0.4,0.4-0.6,0.5c-0.3,0.2-0.6,0.5-0.9,0.7
				c-0.1,0.3-0.4,0.4-0.7,0.5c-0.1,0.1-0.2,0.1-0.2,0.2c-0.1,0.3-0.4,0.4-0.6,0.5C163.5,245.6,163.3,245.8,163.1,246z"/>
			<g>
				<path fill="#3F36F2" d="M167.8,149.9"/>
				<path fill="#3F36F2" d="M121,169l1.7,2.3c0.3-5.9,1.4-11.8,3.1-17.1c0.8,8.4-1,16.3-1.3,24.9c0.1,1.4,0.2,2.7,0.3,4.1
					c0.4,4,1,8,2,12c1.1,4.3,2.7,8.5,4.6,12.5c2.9,6.3,5.9,12.5,8.8,18.8c0.3,0.7,0.7,1.5,0.8,2.3c0,0.2,0.2,0.6-0.1,0.7
					c-0.3,0.1-0.5-0.2-0.7-0.3c-1.3-1-2.2-2.3-3.3-3.5c-0.9-1-1.7-2-2.7-3.2c-0.1,0.8-0.1,0.8,0.2,1.5c3,5.9,5.8,12,10,17.4
					c0.3,0.4,0.9,1,0.3,1.5c-0.6,0.5-1-0.3-1.5-0.5c-0.2-0.1-0.3-0.3-0.5-0.5c-1.7-2.1-3.1-4.5-4.4-6.8c-2.6-4.5-4.8-9.2-7.1-13.8
					c-0.3-0.6-0.5-1.2-1.2-1.8c-0.2,1.5-0.8,2.7-1.2,4c-0.3,0.8,0.3,1.6-0.2,2.3c0,0.1,0.1,0.3,0.1,0.4c0,0.2,0,0.5,0.2,0.7
					c0,0.1,0.1,0.3,0.1,0.4c0,0.2,0,0.5,0.2,0.7c0,0.1,0.1,0.3,0.1,0.4c0.2,0,0.4,0.1,0.4,0.3c0.2,1.2,1,2.2,1.7,3.3
					c3.1,4.8,6.5,9.4,10.1,13.9c0.9,1.2,2,2.3,2.7,3.6c0.3,0.6,0.3,0.6-0.4,0.6c-0.2-0.1-0.5-0.2-0.7-0.3c-0.1-0.3-0.3-0.5-0.6-0.6
					l0,0c-0.1-0.3-0.2-0.5-0.5-0.6c-1.8-2.4-3.6-4.8-5.5-7.2c-0.7-0.9-1.3-1.9-2.1-2.7l0,0c-1.7-2.6-3.5-5.2-5.2-7.8
					c-0.5,0.4-0.6,0.7-0.6,1.1c-0.3,0.9-0.1,1.9,0.1,2.8c0,0.2-0.1,0.5,0.2,0.7c0,0.1,0.1,0.3,0.1,0.4c0,0.2,0,0.3,0.1,0.5
					c0.1,0.1,0.1,0.3,0.2,0.4c0,0.2,0,0.3,0.2,0.5c0.8,2,1.8,4,3.2,5.7c0.1,0.3,0.3,0.5,0.5,0.7c0.2,0.3,0.5,0.6,0.7,0.8
					c0.1,0.3,0.3,0.5,0.6,0.6c0,0,0-0.1,0-0.1c0,0,0,0.1,0,0.1c0.1,0.1,0.1,0.1,0.2,0.2h0c0.4,0.5,0.8,0.9,1.4,1.2
					c0.1,0.1,0.1,0.1,0.2,0.2c1,1.2,2.4,1.9,3.5,2.9c0.5,0.4,1.1,0.8,1.5,1.4c-0.4,0.4-0.7-0.1-1-0.1c-0.2-0.1-0.4-0.2-0.5-0.4
					c-1.8-1.4-3.6-2.9-5.3-4.3l0,0c-0.5-0.7-1.2-1.2-1.8-1.6l0,0c-0.1-0.3-0.4-0.6-0.7-0.7c-0.2,0.5-0.4,0.9-0.4,1.4
					c0.1,0,0.2-0.1,0.3-0.2c-0.1,0.1-0.2,0.2-0.3,0.2c0,0.1-0.1,0.3-0.1,0.4c-0.2,0.1-0.1,0.3-0.1,0.5c0,0.2,0,0.4,0,0.6
					c-0.2,0.2-0.1,0.4-0.1,0.7c0,0.4,0,0.7,0,1.1c-0.2,0.2-0.1,0.5,0,0.7c0,2,0.4,4,0.5,6.1c0.1,1,0.5,1.5,1.6,1.3
					c0.1,0.1,0.3,0.1,0.5,0.1l0,0c0.4,0,0.8,0.1,1.2,0.1c0.2,0,0.3,0,0.5,0c-0.1-0.1-0.1-0.2-0.2-0.3c0.1,0,0.1,0.1,0.2,0.3
					c0.2,0,0.5,0.1,0.7,0.1c0.2,0,0.3,0,0.5,0c0.2,0,0.3,0,0.5,0.1c0.1,0.2,0.3,0.1,0.5,0.1c0.2,0,0.3,0,0.5,0.1
					c0.1,0.2,0.3,0.2,0.5,0.1c0.4,0.1,0.8,0.1,1.2,0.2c0.1,0.2,0.3,0.2,0.5,0.1c1,0.2,2.1,0.5,3.1,0.7c0.1,0.2,0.3,0.2,0.5,0.1
					c2.9,0.9,5.8,1.7,8.7,2.6h0c1.1,0.4,2.2,0.7,3.4,0.8c0.1,0,0.3,0.1,0.4,0.1c0.7,0.2,1.4,0.4,2.2,0.4c0.2,0,0.3,0,0.5,0.1
					c0.2,0.2,0.5,0.2,0.7,0.1l0,0c0.2,0,0.3,0.1,0.5,0.1c0.2,0.1,0.3,0.1,0.5,0.1l0,0c0.2,0,0.3,0,0.5,0v0c0.2,0.2,0.5,0.2,0.7,0.1
					c0.3,0,0.6,0,0.9,0.1c0.2,0.2,0.5,0.1,0.7,0.1l0,0c0.3,0,0.6,0,0.9,0l0,0c0.4,0.2,0.8,0.1,1.2,0.1c0.2,0,0.3,0,0.5,0
					c2.9,0.2,5.9,0.2,8.7-0.3c0.2,0,0.4-0.1,0.7-0.1c0.6-0.1,1.3,0.1,1.9-0.3c0.4-0.1,0.8-0.1,1.1-0.2c0.2,0,0.4,0,0.5-0.1
					c0.4-0.1,0.8-0.1,1.1-0.2c0.2,0,0.4,0,0.5-0.1c0.2,0,0.4-0.1,0.7-0.1c0.2,0,0.4,0,0.5-0.1c0.2-0.1,0.4-0.1,0.7-0.2
					c0.2,0,0.3-0.1,0.5-0.1c0.2-0.1,0.4-0.1,0.7-0.2c0.2,0,0.4,0,0.5-0.2c0.1,0,0.3-0.1,0.4-0.1c0.2,0,0.4,0,0.5-0.1
					c0.4-0.1,0.9-0.3,1.3-0.4c0.2,0,0.4,0,0.5-0.2c0.7-0.2,1.4-0.4,2-0.6c0.2,0,0.4,0,0.5-0.2c0.1,0,0.3-0.1,0.4-0.1
					c0.5,0,1-0.2,1.4-0.4c0.1,0,0.3-0.1,0.4-0.1h0c0.2,0,0.4,0,0.5-0.1c0,0,0,0-0.1-0.1c0,0,0,0,0.1,0.1c0.1,0,0.3-0.1,0.4-0.1
					c0.3,0,0.7,0.1,0.9-0.2c0.1,0,0.3-0.1,0.4-0.1c0.3,0,0.7,0,0.9-0.2c0.2,0,0.5-0.1,0.7-0.1c0.5,0,1,0,1.4-0.2
					c0.8-0.1,1.7-0.2,2.5-0.3c0.2-0.5,0.9-0.6,1.2-1.1c1.2-2.1,2.2-4.3,2.8-6.6c0.2-0.7-0.1-0.8-0.7-0.8c-1.2,0.1-2.4,0.4-3.5,0.8
					c-4.6,1.4-9.1,2.9-13.7,4.2c-4.6,1.3-9.2,2.5-14,3.2c-3.3,0.5-6.7,1.1-10,1.4c-2.6,0.3-5.1,0.4-7.7,0.3
					c-1.4-0.1-2.9-0.3-4.3-0.4c-0.3,0-0.7-0.1-0.7-0.4c-0.1-0.4,0.4-0.4,0.6-0.4c1.3-0.4,2.5-0.2,3.8-0.1c1.9,0.1,3.7,0.2,5.6-0.2
					c2.4-0.5,4.6-1.4,6.7-2.3c7-2.9,13.9-6,20.2-10.1c3.5-2.3,6.5-4.9,8.6-8.4c2.4-3.9,4.5-8,6.2-12.2c0.6-1.5,1.1-3.1,1-4.8
					c-0.1-0.5-0.1-1.1-0.7-1.3c-0.7-0.2-1.2,0-1.7,0.5c-2.1,2.2-4.1,4.6-5.4,7.3c-0.3,0.7-0.3,1.7-1.3,2c-0.1,0.1-0.1,0.3-0.2,0.4
					c-0.2,0.2-0.4,0.5-0.4,0.8c-0.1,0.1-0.1,0.3-0.2,0.4c-0.3,0.3-0.5,0.7-0.6,1.2c0,0,0,0,0,0c-0.3,0.2-0.4,0.4-0.4,0.7
					c-0.1,0.1-0.1,0.3-0.2,0.4c-0.2,0.2-0.4,0.4-0.4,0.7l0,0c-0.3,0.2-0.4,0.4-0.4,0.7l0,0c-0.3,0.2-0.4,0.4-0.4,0.7l0,0
					c-0.3,0.2-0.4,0.4-0.4,0.7l0,0c-0.3,0.2-0.4,0.4-0.4,0.7l0,0c-0.3,0.2-0.6,0.5-0.6,0.9l0,0c-0.3,0.2-0.5,0.5-0.7,0.9
					c0,0.1-0.1,0.2-0.1,0.2c-0.4,0.3-0.7,0.7-0.9,1.1c-0.1,0.1-0.1,0.1-0.2,0.2c-0.7,0.5-1,1.5-2.1,1.7c0.4-1.3,1.4-2.1,2.1-3.2
					c0.2-0.3,0.3-0.5,0.5-0.8c-0.1-0.3,0-0.9-0.6-0.3c-0.9,0.9-1.8,1.7-2.7,2.5c-4.2,3.8-9.1,6.6-14.3,8.9c-4.5,2-9.3,3.4-14.2,4.4
					c-1.1,0.2-2.2,0.5-3.3,0.7c-0.3,0.1-0.7,0.2-0.9-0.3c-0.1-0.4,0.2-0.5,0.5-0.6c0.2-0.1,0.4-0.1,0.5-0.2c3.5-1,6.7-2.6,9.7-4.6
					c0.5-0.3,0.8-0.8,1.5-0.8c0.2-0.2,0.4-0.4,0.6-0.6c0.3-0.1,0.5-0.3,0.6-0.5h0c0.1-0.1,0.2-0.1,0.2-0.2c0-0.1,0-0.2,0-0.3
					c0,0.1,0,0.2,0,0.3c0.3-0.1,0.5-0.3,0.7-0.5h0c0.3-0.2,0.6-0.5,0.9-0.7c0.3-0.1,0.5-0.3,0.6-0.5h0c0.1-0.1,0.2-0.1,0.2-0.2
					c0.3-0.1,0.5-0.3,0.6-0.5h0c0.1-0.1,0.2-0.1,0.2-0.2c0.3-0.1,0.5-0.3,0.6-0.5h0c0.1-0.1,0.2-0.1,0.2-0.2
					c0.3-0.1,0.5-0.3,0.6-0.6h0c0.2-0.2,0.5-0.4,0.7-0.6c0.4-0.2,0.7-0.4,0.8-0.8h0c0.2-0.2,0.4-0.4,0.7-0.6c0.4-0.3,0.8-0.6,1.1-1
					h0c0.8-0.7,1.5-1.5,2.2-2.2c0.9-0.8,1.7-1.6,2.4-2.6l0,0c0.2-0.2,0.4-0.5,0.6-0.7c0.6-0.5,1.1-1.2,1.5-1.8l0,0
					c0.2-0.2,0.4-0.5,0.6-0.7c0.4-0.3,0.7-0.7,0.9-1.2l0,0c0.1-0.1,0.1-0.1,0.2-0.2c0.4-0.3,0.7-0.7,0.9-1.2l0,0
					c0.1-0.1,0.1-0.2,0.2-0.2c0,0,0-0.1,0-0.1c0-0.1,0-0.2,0-0.3c0,0.1,0,0.2,0,0.3c0,0,0,0.1,0,0.1c0.3-0.2,0.6-0.6,0.7-0.9h0
					c0-0.1,0.1-0.1,0.1-0.2c0-0.1,0-0.2,0-0.2c0,0.1,0,0.2,0,0.2c0.4-0.3,0.7-0.7,0.8-1.2l0,0l0,0l0,0c0,0,0,0,0,0
					c0.3-0.2,0.6-0.5,0.6-0.9l0,0l0,0l0,0c0,0,0,0,0,0c0.3-0.2,0.4-0.4,0.4-0.7l0,0l0,0c0.3-0.2,0.5-0.5,0.6-0.9l0,0l0,0l0,0l0,0
					l0,0c0,0,0-0.1,0-0.1c0,0,0,0.1,0,0.1c0.3-0.2,0.5-0.5,0.6-0.9l0,0l0,0l0,0c0,0,0,0,0,0c0.3-0.2,0.6-0.5,0.6-0.9l0,0l0,0l0,0
					c0,0,0,0,0,0c0.6-0.7,1.1-1.6,1.4-2.5l0,0l0,0c0.3-0.2,0.4-0.4,0.4-0.7l0,0l0,0c0.3-0.2,0.4-0.4,0.4-0.7l0,0l0,0l0,0
					c0,0,0,0,0,0l0,0c0.3-0.2,0.4-0.4,0.4-0.7l0,0l0,0l0,0c0,0,0,0,0,0c0.5-0.4,0.7-1,0.8-1.6l0,0l0,0c0.4-0.5,0.6-1,0.8-1.6l0,0
					l0,0l0,0l0,0l0,0c0.4-0.5,0.6-1,0.8-1.6l0,0l0,0c-0.2-0.8,0.3-1.5,0.7-2.1c1.7-2.6,2.4-5.4,2.9-8.4c1-5.6,1.6-11.2,1.7-16.9
					c0-1.8,0-3.6,0-5.4c-0.7-12.6-6.1-23.9-11.7-31.4c-5.6-8.1-13.6-3.5-18.7,3.3c-1.3,0.8-2.4,2.1-3.8,2.6
					c-1.4,0.5-2.8,1.2-4.3,1.4c-4.1,0.5-8.1-0.1-11.9-1.6c-0.3-0.1-0.8-0.2-0.8-0.7l0,0c-1,0-1.9-0.2-2.2-1.2
					c-0.1,0-0.2-0.1-0.3-0.1c-3.4-1.6-5.4-7.2-8.5-8.3c-8.5-2.1-15.1,5.5-18.3,16c-0.5,0.6-0.4,0.9-0.4,1.2l0.6,4.9
					c0,0,2.1,2.5,2.5,2.4 M184.1,223.5C184.1,223.5,184.1,223.5,184.1,223.5C184.1,223.5,184.1,223.5,184.1,223.5z M184.1,223.5
					C184.1,223.5,184.1,223.5,184.1,223.5C184.1,223.5,184.1,223.5,184.1,223.5z M184.1,223.4C184.1,223.4,184.1,223.4,184.1,223.4
					C184.1,223.4,184.1,223.4,184.1,223.4z M184.1,223.3C184.1,223.3,184.1,223.3,184.1,223.3C184.1,223.3,184.1,223.3,184.1,223.3z
					 M184.1,223.3C184.1,223.3,184.1,223.3,184.1,223.3C184.1,223.3,184.1,223.3,184.1,223.3z M184.1,223.2
					C184.1,223.2,184.1,223.2,184.1,223.2C184.1,223.2,184.1,223.2,184.1,223.2z M184.1,223.2C184.1,223.2,184.1,223.2,184.1,223.2
					C184.1,223.2,184.1,223.2,184.1,223.2z M184.1,223.1C184.1,223.1,184.1,223.1,184.1,223.1C184.1,223.1,184.1,223.1,184.1,223.1z
					 M186.4,219.8C186.4,219.8,186.4,219.8,186.4,219.8C186.4,219.8,186.4,219.8,186.4,219.8z M186.5,219.6
					C186.5,219.6,186.5,219.6,186.5,219.6C186.5,219.6,186.5,219.6,186.5,219.6z M188.2,216.7C188.2,216.7,188.2,216.7,188.2,216.7
					C188.2,216.7,188.2,216.7,188.2,216.7z M189,215.6L189,215.6C189,215.6,189,215.6,189,215.6C189,215.6,189,215.6,189,215.6z
					 M189,215.1C189,215.1,189,215.1,189,215.1C189,215.1,189,215.1,189,215.1z M189,215.2C189,215.2,189,215.2,189,215.2
					C189,215.2,189,215.2,189,215.2z M189,215.4C189,215.4,189,215.3,189,215.4C189,215.3,189,215.4,189,215.4z M189,215.5
					C189,215.5,189,215.5,189,215.5C189,215.5,189,215.5,189,215.5z M185.8,221.1L185.8,221.1C185.8,221.1,185.8,221.1,185.8,221.1
					C185.8,221.1,185.8,221.1,185.8,221.1z M183.5,224.5L183.5,224.5C183.5,224.5,183.5,224.5,183.5,224.5
					C183.5,224.5,183.5,224.5,183.5,224.5z M182.7,225.3C182.7,225.3,182.7,225.3,182.7,225.3C182.7,225.3,182.7,225.3,182.7,225.3z
					"/>
			</g>
			<path fill="#3F36F2" d="M195.8,215.3c-0.9,1.7-1.7,3.2-2.6,4.7c-1.9,3.1-4,6.1-6.7,8.7c-2.2,2.2-4.7,4.1-6.8,6.4
				c-0.2,0.2-0.5,0.5-0.6,0.8c-0.2,0.3-0.4,0.6-0.1,0.9c0.3,0.3,0.6,0.2,1,0.1c2.5-0.9,4.6-2.4,6.6-4.1c2.9-2.6,4.2-6,5.9-9.2
				c1.3-2.4,2.5-4.8,3.4-7.3C195.9,216,196.1,215.8,195.8,215.3z"/>
			<path fill="#1B02AA" d="M203.9,241.6c-0.8-0.3-1.2,0.1-1.7,0.3c-5.9,3-11.9,6.1-18.1,8.6c-0.7,0.3-1.5,0.5-2.3,0.8
				c-0.3,0.1-0.8,0.2-0.6,0.6c0.1,0.4,0.6,0.2,0.8,0.1c0.9-0.2,1.9-0.5,2.8-0.8c6.3-2.7,12.4-5.8,18.3-9.1
				C203.4,241.9,203.6,241.8,203.9,241.6z"/>
			<path fill="#3F36F2" d="M200.5,207.5c-0.8,1.5-0.9,3-1.4,4.3c-0.1,0.2-0.1,0.4,0.2,0.4c0.1,0,0.3-0.1,0.4-0.2
				c0.6-0.6,1.3-1.1,1.6-1.8C201.7,209.3,200.9,208.5,200.5,207.5z"/>
			<path fill="#2C1BCC" d="M201.4,203c0.3-2.2,0.7-4.3,1.5-6.4c0.5,1.9,0.3,3.9,0.3,5.8c0.9-1.3,2.3-1.7,3.9-1.6
				c-0.2-0.5-1.2-0.4-1.1-1.2c0.3-2.9-0.1-5.8-0.2-8.7c-0.1-2.1-0.2-4.2-0.3-6.3c-0.1-2.1-0.2-4.2-0.5-6.4c-1-6.1-2.8-11.2-5.4-16.2
				c-0.6-1.3,0.2-2.6,1.6-1.4c2.9,3.1,4.6,6.9,7.9,9.9c1.5,1.9,5.3,4.9,3.7,9.9c-1.3,1.4-2.7,2.7-3.7,4.3c-0.8,1.3-0.6,2,0.8,2.7
				c1,0.6,2.1,1,3,1.7c2.4,2,5.3,3.9,4,7.5c0,0.1,0,0.2,0,0.3c0.2,0.9,0,1.6-0.5,2.4c2.6-0.6,4.9-1.7,7.2-2.9
				c0.8-0.4,0.6-1.1,0.4-1.6c-0.3-0.6-0.8-0.2-1.2-0.1c-1.4,0.5-2.8,1.1-4.2,1.6c-0.3,0.1-0.7,0.5-1,0c-0.2-0.5,0.3-0.6,0.6-0.8
				c1.3-0.6,2.6-1.3,4-1.8c1.1-0.4,1.5-1,1.2-2.1c-0.5-1.9-1.2-3.9-1.9-5.8c-0.7-1.9-1.4-3.8-2.1-5.7c-4.2-11.4-11.6-19.4-19.5-24.7
				c0.8,3.8-3,4.7-1.4,7.9c2.7,5,4.1,10.8,4.5,16.4c0.1,1.9,0.1,3.7,0.1,5.6c0,5.5-0.4,11-1.8,16.4
				C201.1,202.1,200.5,202.7,201.4,203z M203.2,195.8c0,0-0.1-0.1-0.1-0.1l0,0C203.1,195.7,203.2,195.8,203.2,195.8z"/>
			<path fill="#3F36F2" d="M121.3,199.9c-0.1-3.4-0.9-6.7-1.3-10c-0.3-2.4-1.4-4.6-2.2-6.9c-1.9-5.4-1.9-10.6-1.6-15.8
				c-2.9,6-2,14.4-1.4,21.4c0.2,1.4,0.3,2.8,0.5,4.3c0.2,1.4,0.4,2.8,0.6,4.3c0.3,1.8,0.5,3.6,0.8,5.4c0.2,1.2,1.2,1.9,2.3,2.5
				c0.8,0.4,1.9,1.1,2.6,0.6c0.7-0.4,0.1-1.5,0.1-2.2C121.6,202.2,121.4,201,121.3,199.9z"/>
			<path fill="#1B02AA" d="M114.6,194.7c-0.1-2-0.3-4-0.5-5.9c-0.8-6.5-0.9-12.5,0.2-18.2c-2.2,4.2-1.8,12.4-0.6,18.3
				C114.1,190.8,114.3,192.7,114.6,194.7z"/>
			<path fill="#1B02AA" d="M170.8,134c5.4,2.8,11.3,0.5,16,4.8c9.5,8.5,17,17.8,27,26.9c2.9,2.4,5,6.8,6.6,11.2
				c0.6,1.3,1.1,2.7,1.7,4c1.1,2.6,2,5.3,2.9,8c0.2,0.5-0.3,1.4,0.7,1.6c0.2,2.5,0.5,4.9,0.7,7.4c-1.1,0.7-2.5,1-3.7,1.6
				c-3.5,1.5-7.1,2.8-11,3.1c-2.8,0.2-5.7,0.3-8,2.2c-0.7,0.6-1,1.1-0.6,1.9c0.2,0.4,0.3,0.8,0.5,1.1c1.7,3.2,2.3,6.6,2,10.1
				c-0.1,1.3,0.1,2.5,0.7,3.6c1.6,3.2,1.8,6.4,0.3,9.6c-0.4,0.8-0.5,1.7-0.1,2.5c1.1,2.2,1.7,4.3,1,6.7c0,0,0,0.1,0,0.1
				c0,3.1,0.3,6.3,0.6,9.4c0.2,2.5,0.1,4.9-0.4,7.3c-0.4,1.7-0.9,2.1-2.8,2.1c-4.9,0-9.7,0.5-14.3,2c-5.1,1.7-10.3,3.2-15.9,3.5
				c-4,0.3-8.1,0.4-12.1,0.2c-4.1-0.2-8.1-1.2-12.1-2.3c-5.9-1.7-11.8-3.7-18-3.9c-2.1-0.1-2.6-0.5-2.8-2.5c-0.3-2.5-0.7-5-0.6-7.5
				c0.1-1.9-1.4-9.8-2-11.6c-0.7-2.3-1.1-4.6-0.3-6.9c0.3-0.9,0.3-1.7,0-2.6c-0.8-2.6-1.5-5.2-1.8-7.8c-0.3-2.6-0.6-5.2-0.8-7.7
				c-0.1-0.8-0.4-1.2-1.3-1.1c-2.3,0.1-4.5-0.3-6.3-1.7c-0.4-0.3-1-0.5-1.5-0.6c-1.4-0.2-2.8-0.4-4.2-0.6c-3.8-0.6-7.5-1.3-11.1-2.6
				c-1.5-0.6-1.7-1-1.5-2.5c0.8-5.3,1.9-10.4,3.2-15.6c0.4-1.7,0.8-3.4,1.3-5.2c4.3-15.8,12.6-28.7,21.9-39.7
				c3.9-4.1,10-3.9,15.2-5.3c0.9,0.3,1.9,0.6,2.9,0.7c5.4,0.9,10.8,0.9,16.2,0.2c1-0.1,2-0.3,3-0.6c3.1-0.8,6-1.6,8.3-3.6
				C170.3,134,170.6,134,170.8,134z M189.2,234.4L189.2,234.4c-0.2,0.2-0.4,0.4-0.4,0.7l0,0c-0.3,0.2-0.5,0.5-0.6,0.9l0,0
				c-0.3,0.2-0.5,0.5-0.7,0.9c0,0.1-0.1,0.2-0.1,0.2c-0.4,0.3-0.7,0.7-0.9,1.1c-0.1,0.1-0.1,0.1-0.2,0.2c-0.7,0.5-1,1.5-2.1,1.7
				c0.4-1.3,1.4-2.1,2.1-3.2c0.2-0.3,0.3-0.5,0.5-0.8c1.5-2,2.7-4.2,3.8-6.4c4.5-9,7.6-18.5,9.6-28.3c0.7-3.2,1.2-6.5,1.6-9.7
				c0.2-1.8,0.3-3.7,0.1-5.6c-0.2-1.6-0.2-3.2-0.1-4.8c1.6-12.4-9.1-19.5-9.3-29.9c-0.4-3.9,2.5,3.1,4.7,3.6
				c-3.5-12.8-19.4-20.4-21.6-15.5c-1.6,3.7-3.5,7-12.1,12.6c-1.2,0.8-2.5,0.9-3.9,1.2c-4.4,0.9-8.7,0.2-12.9-1.2
				c-0.4-0.1-0.7-0.3-1.1-0.4l0,0c-0.7-0.4-1.5-0.8-2.2-1.2c-0.1,0-0.2-0.1-0.2-0.1c-3.5-1.5-5.9-6-8.5-8.1
				c-1.1-0.9-5.9-0.3-8.4,1.1c-4.4,3.5-12.1,11.6-9,20.5c1.2-1.4,1.8-4,3.5-4.1c-0.7,1.3-3.3,2.2-2.1,4.7c0.6,1.3,1.2,3.2,2.5,3.7
				c0.7-2,0-4.5,0.6-6.5c0.8,7.7-1.1,15,0.7,22.4c0.2,1.5,0.4,3,0.6,4.6c0.4,3,0.8,6.1,1.2,9.1c0.4,2.9,0.7,5.8,1.6,8.6
				c1.2,3.6,3.1,7,4.7,10.5c3.1,6.8,6.2,13.6,10.2,20c0.9,1.4,1.8,2.8,2.7,4.1c0.1,0.2,0.5,0.4,0.2,0.7c-0.3,0.3-0.5-0.1-0.7-0.2
				c-0.4-0.2-0.6-0.7-0.9-1c-4.4-6.5-7.6-13.4-11.1-20.2c-1.1-2.2-2.2-4.5-3.4-6.7c-0.3-0.5-0.5-1.1-1.1-1.6
				c-0.2,0.6-0.3,1.2-0.2,1.7c0.3,4,0.9,7.9,1.9,11.8c0,0.1,0.2,0.2,0.2,0.4c0,0.1,0.1,0.3,0.1,0.4c0,0.2,0,0.5,0.2,0.7
				c0,0.1,0.1,0.3,0.1,0.4c0,0.2,0,0.5,0.2,0.7c0,0.1,0.1,0.3,0.1,0.4c0.1,1.5,0.9,2.7,1.7,3.9c3.4,5.3,7.4,10.4,11.3,15.4
				c0.6,0.7,1.3,1.4,1.4,2.4c-0.2-0.1-0.5-0.2-0.7-0.3c-0.1-0.3-0.3-0.5-0.6-0.6l0,0c-0.1-0.3-0.2-0.5-0.5-0.6l0,0
				c-1.8-2.4-3.6-4.8-5.5-7.2c-0.7-0.9-1.3-1.9-2.1-2.7l0,0c-1.7-2.6-3.5-5.2-5.2-7.8c-0.5,0.4-0.6,0.7-0.6,1.1
				c-0.3,0.9-0.1,1.9,0.1,2.8c0,0.2-0.1,0.5,0.2,0.7c0,0.1,0.1,0.3,0.1,0.4c0,0.2,0,0.3,0.1,0.5c0.1,0.1,0.1,0.3,0.2,0.4
				c0,0.2,0,0.3,0.2,0.5c0.8,2,1.8,4,3.2,5.7c0.1,0.3,0.3,0.5,0.5,0.7c0.2,0.3,0.5,0.6,0.7,0.8c0.1,0.3,0.3,0.5,0.6,0.6
				c0.1,0.1,0.1,0.1,0.2,0.2c0.4,0.5,0.8,0.9,1.4,1.2c0.1,0.1,0.1,0.1,0.2,0.2c1,1.2,2.4,1.9,3.5,2.9c0.5,0.4,1.1,0.8,1.5,1.4
				c-0.4,0.4-0.7-0.1-1-0.1c-0.2-0.1-0.4-0.2-0.5-0.4c-1.8-1.4-3.6-2.9-5.3-4.3l0,0c-0.5-0.7-1.2-1.2-1.8-1.6l0,0
				c-0.1-0.3-0.4-0.6-0.7-0.7c-0.2,0.5-0.4,0.9-0.4,1.4c0,0.1-0.1,0.3-0.1,0.4c-0.2,0.1-0.1,0.3-0.1,0.5c0,0.2,0,0.4,0,0.6
				c-0.2,0.2-0.1,0.4-0.1,0.7c0,0.4,0,0.7,0,1.1c-0.2,0.2-0.1,0.5,0,0.7c0,2,0.4,4,0.5,6.1c0.1,1,0.5,1.5,1.6,1.3
				c0.1,0.1,0.3,0.1,0.5,0.1c0.4,0,0.8,0.1,1.2,0.1c0.2,0,0.3,0,0.5,0c0.2,0,0.5,0.1,0.7,0.1c0.2,0,0.3,0,0.5,0c0.2,0,0.3,0,0.5,0.1
				c0.1,0.2,0.3,0.1,0.5,0.1c0.2,0,0.3,0,0.5,0.1c0.1,0.2,0.3,0.2,0.5,0.1c0.4,0.1,0.8,0.1,1.2,0.2c0.1,0.2,0.3,0.2,0.5,0.1
				c1,0.2,2.1,0.5,3.1,0.7c0.1,0.2,0.3,0.2,0.5,0.1c2.9,0.9,5.8,1.7,8.7,2.6c1.1,0.4,2.2,0.7,3.4,0.8c0.1,0,0.3,0.1,0.4,0.1
				c0.7,0.2,1.4,0.4,2.2,0.4c0.2,0,0.3,0,0.5,0.1c0.2,0.2,0.5,0.2,0.7,0.1c0.2,0,0.3,0.1,0.5,0.1c0.2,0.1,0.3,0.1,0.5,0.1
				c0.2,0,0.3,0,0.5,0c0.2,0.2,0.5,0.2,0.7,0.1c0.3,0,0.6,0,0.9,0.1c0.2,0.2,0.5,0.1,0.7,0.1c0.3,0,0.6,0,0.9,0
				c0.4,0.2,0.8,0.1,1.2,0.1c0.2,0,0.3,0,0.5,0c2.9,0.2,5.9,0.2,8.7-0.3c0.2,0,0.4-0.1,0.7-0.1c0.6-0.1,1.3,0.1,1.9-0.3
				c0.4-0.1,0.8-0.1,1.1-0.2c0.2,0,0.4,0,0.5-0.1c0.4-0.1,0.8-0.1,1.1-0.2c0.2,0,0.4,0,0.5-0.1c0.2,0,0.4-0.1,0.7-0.1
				c0.2,0,0.4,0,0.5-0.1c0.2-0.1,0.4-0.1,0.7-0.2c0.2,0,0.3-0.1,0.5-0.1c0.2-0.1,0.4-0.1,0.7-0.2c0.2,0,0.4,0,0.5-0.2
				c0.1,0,0.3-0.1,0.4-0.1c0.2,0,0.4,0,0.5-0.1c0.4-0.1,0.9-0.3,1.3-0.4c0.2,0,0.4,0,0.5-0.2c0.7-0.2,1.4-0.4,2-0.6
				c0.2,0,0.4,0,0.5-0.2c0.1,0,0.3-0.1,0.4-0.1c0.5,0,1-0.2,1.4-0.4c0.1,0,0.3-0.1,0.4-0.1c0.2,0,0.4,0,0.5-0.1
				c0.1,0,0.3-0.1,0.4-0.1c0.3,0,0.7,0.1,0.9-0.2c0.1,0,0.3-0.1,0.4-0.1c0.3,0,0.7,0,0.9-0.2c0.2,0,0.5-0.1,0.7-0.1
				c0.5,0,1,0,1.4-0.2c0.8-0.1,1.7-0.2,2.5-0.3c1.5-0.1,3-0.2,4.4-0.2c0.8,0,1.1-0.3,1.2-1c0.5-3.5,0.3-7.1-0.2-10.6
				c0-0.4,0-0.9-0.1-1.3c0.2-1.7-0.4-3.4,0.1-5.1c0.5-1.2,0-2.2-0.6-3.2c0-0.2,0-0.3-0.2-0.4c-0.2-0.6-0.3-1.1-0.5-1.7
				c0-0.2-0.1-0.3-0.1-0.5c0-0.8,0.2-1.6,0.4-2.4c0.4-1,0.8-2,0.8-3.1c0-0.1,0-0.3,0.1-0.4c0.2-1,0.1-2-0.4-2.9
				c-1.4-2.7-2-5.5-1.5-8.4c0.3-1.9-0.4-3.6-1-5.3c-0.4-1.1-0.9-2.3-1.4-3.4c-0.1-0.3-0.2-0.6-0.6-0.6c-0.4,0-0.4,0.4-0.4,0.7
				c-0.7,2.7-1.4,5.5-2.2,8.2c-1.2,3.8-2.5,7.6-4.3,11.1c-0.2,0.4-0.4,0.9-0.5,1.3c-0.1,0.1-0.1,0.3-0.2,0.4
				c-0.2,0.2-0.4,0.5-0.4,0.8c-0.1,0.1-0.1,0.3-0.2,0.4c-0.3,0.3-0.5,0.7-0.6,1.2l0,0c-0.3,0.2-0.4,0.4-0.4,0.7
				c-0.1,0.1-0.1,0.3-0.2,0.4c-0.2,0.2-0.4,0.4-0.4,0.7l0,0c-0.3,0.2-0.4,0.4-0.4,0.7l0,0c-0.3,0.2-0.4,0.4-0.4,0.7l0,0
				C189.3,233.9,189.2,234.1,189.2,234.4z M198.4,158c-0.5-4.3-4.3-2.8-5.1-6.6c-1.9,2.7,1.6,7,3.1,8.9
				C197.3,160.8,197.5,158.8,198.4,158L198.4,158z M202.4,202.9c0.4-0.1,0.7-0.2,0.8-0.5c0.9-1.3,2.3-1.7,3.9-1.6
				c1.4-0.1,2.8-0.2,4.2-0.3c0.2,0,0.3,0,0.5-0.1c0.5-0.1,1.1-0.2,1.6-0.2c0.3,0,0.7,0.1,0.9-0.2c0.2-0.1,0.4-0.1,0.7-0.2
				c0.3,0.1,0.5,0,0.6-0.3c0.3,0,0.5,0,0.8-0.1c2.6-0.6,4.9-1.7,7.2-2.9c0.8-0.4,0.6-1.1,0.4-1.6c-0.3-0.6-0.8-0.2-1.2-0.1
				c-1.4,0.5-2.8,1.1-4.2,1.6c-0.3,0.1-0.7,0.5-1,0c-0.2-0.5,0.3-0.6,0.6-0.8c1.3-0.6,2.6-1.3,4-1.8c1.1-0.4,1.5-1,1.2-2.1
				c-0.5-1.9-1.2-3.9-1.9-5.8s-1.4-3.8-2.1-5.7c-4.2-11.4-11.6-19.4-19.5-24.7c0.8,3.8-3,4.7-1.4,7.9c2.7,5,4.1,10.8,4.5,16.4
				c0.1,1.9,0.1,3.7,0.1,5.6c0,5.5-0.4,11-1.8,16.4c-0.1,0.4-0.7,1,0.2,1.3l0,0C201.8,203.6,202.1,203.5,202.4,202.9z M111.5,206.1
				c0.6,0.1,1.3,0.1,1.9,0.2c0.2,0.2,0.5,0.1,0.7,0.1c0.2,0,0.5,0,0.7,0c0.8,0.3,1.1-0.1,1-0.7c-0.1-1.5-0.7-2.9-0.9-4.3
				c-0.1-1-0.2-2-0.3-3c0.1-0.5-0.1-1,0.3-1.5c0.4,0.1,0.4,0.5,0.5,0.8c0.2,1.2,0.5,2.5,0.6,3.7c0.1,2.3,1.4,3.8,3.8,4.5
				c1.3,0.4,2.7,0.6,4,0.6c0.8,0,1.1-0.3,0.8-1c-1.2-3.8-1.4-7.7-1.9-11.5c-0.2-1.5-0.4-2.9-0.5-4.4c-0.2-1.5-0.4-2.9-0.6-4.4
				c-1.7-6.4,1.4-14.4-3.8-18.6c-0.8,4.6-0.8,9.1,0.4,14.4c0.8,2.2,1.7,4.4,2.5,6.5c0.1,0.2,0.2,0.5,0.2,0.7c0,0.2,0.1,0.5-0.2,0.6
				c-0.3,0.1-0.4-0.2-0.5-0.4c-0.5-1.2-1-2.4-1.5-3.6c-0.7-2-1.3-3.9-1.9-5.8c-1.1-6.4,0.5-12.4-2.2-18c-3,4.7-5.7,9.2-7.8,14.9
				c-0.8,2.1-1.4,5.8-2.2,8.3c-0.3,1.3-0.6,2.7-0.9,4s-0.6,2.7-0.9,4c-0.2,0.1-0.2,0.3-0.1,0.5c-0.2,0.4-0.3,0.9-0.3,1.3
				c-0.5,1.8-0.8,3.6-1.1,5.4c-0.2,0.9,0.8,1,1.3,1.1c2.2,0.5,4.5,1,6.8,1.4c1.2,0.2,2.3,0.3,3.5,0.6c0.5,0.1,1.2,0,1.3,0.8
				c-0.3,0-0.6,0-0.9,0.1c-3.7-0.7-7.5-1.3-11.2-2.1c-1.2-0.3-1.4,0.5-1.4,1.4c0,0.1,0,0.3,0,0.4c-0.3,0.4-0.1,0.7,0.3,0.9
				c1.5,0.9,3.2,1.1,4.9,1.5c0.4,0.2,0.8,0.3,1.2,0.3c0.2,0,0.3,0.1,0.5,0.1c0.4,0.2,0.8,0.3,1.2,0.3c0.2,0,0.3,0,0.5,0.1
				c0.1,0.2,0.3,0.2,0.5,0.1c0.2,0,0.3,0.1,0.5,0.1c0.2,0.1,0.3,0.1,0.5,0.1c0.2,0,0.3,0,0.5,0.1
				C111.2,206.2,111.4,206.2,111.5,206.1z M160.6,152.3c1.3-0.4,2.6-0.6,3.7-1.4c4.2-3.3,10-6.8,9.1-12c-2-7-5.5,5.5-9.1,6.8
				c-1,0.9-2.2,1.6-3.4,2.1c-3.6,1.6-7.8,1.4-11.8-0.6c-1.7-0.8-3.2-1.8-4.7-2.8s-2.8-2.3-4-3.6c-1.4-1.7-3.1-2.2-3.3,0.4
				c-0.9,4,2.5,3.7,3.7,6.3c1.5,1.4,3.2,2.5,5.1,3.4c1.9,0.9,3.9,1.5,6.1,1.9c1.5,0.3,3,0.3,4.6,0.2
				C158,152.9,159.3,152.7,160.6,152.3z M165.7,139c-1.2,0.4-2.3,0.7-3.5,1c-1.1,0.3-2.3,0.5-3.5,0.6c-4.8,0.7-9.8,0.6-14.8-0.1
				c-1-0.1-2-0.3-3.1-0.5c1,1.2,2,2.2,3.1,2.9c1.1,0.8,2.4,1.3,3.9,1.5c4.1,0.6,8,0.4,11.9-0.3c1.3-0.3,2.6-0.6,3.9-1
				c2.1-0.5,4.1-2.6,5.3-5.6C168,138.1,166.9,138.6,165.7,139z M160.4,147.1c1.9-0.7,3.5-1.8,4.1-3.4c-1.4,0.5-2.7,0.8-4.1,1.1
				c-1.4,0.2-2.7,0.4-4.1,0.4c-2.8,0.1-5.6,0.2-8.6,0.2C151,148,156.5,148.4,160.4,147.1z M124.6,208.4c0.3-0.2,0.6-0.3,0.5-0.7
				c-0.1-0.4-0.4-0.5-0.8-0.4c-2.3,0.2-4.4-0.4-6.5-1.4c-0.3-0.1-0.7-0.4-1-0.1c-0.3,0.3,0,0.6,0.2,0.9c1.1,1.7,2.9,2.3,4.9,2.4
				C122.8,208.8,123.8,208.8,124.6,208.4z"/>
		</g>
	</g>
	<g id="Head_copy">
		<path stroke="#2B2B2B" stroke-width="0.5" stroke-miterlimit="10" d="M178.4,136.3c8.7-8.9,7.7-23.5,3.7-35.4
			c-1.7-5-3.8-9.9-6.6-14.4c-7.5-11.4-21.3-19.2-34.8-17c-11,1.8-20.3,10.1-24.6,20.3c-4.3,10.3-3.7,22.1,0.3,32.5
			c2.1,5.4,5.2,10.6,9.8,14.1c5.5,4.1,12.5,5.6,19.3,6.5C157,144.6,170.2,144.6,178.4,136.3z"/>
		<path stroke="#2B2B2B" stroke-width="0.5" stroke-miterlimit="10" d="M134.3,77.1c1.2-8.1,2.6-17.2,2-25.9
			c5.4,6.7,10.2,16.1,14.1,23.7"/>
		<path stroke="#2B2B2B" stroke-width="0.5" stroke-miterlimit="10" d="M155.9,75.4c0.8-6.7,6.7-14.9,8.1-21.5
			c3.2,8.2,3.3,15.7,4.5,24.4"/>
		<path fill="none" stroke="#6B6B6B" stroke-width="0.5" stroke-miterlimit="10" d="M155.9,122.8c3.8,4.1,10.1,5.6,15.3,3.7
			c1.2-0.4,2.3-1,3-2c0.6-0.9,0.8-2.1,0.9-3.3c0.3-2.9,0.4-5.8,0.2-8.8c0-0.6-0.1-1.2-0.4-1.7c-0.3-0.5-0.7-0.8-1.2-1.1
			c-1.9-1.4-3.9-2.7-5.8-4.1c3.8-1.8,8.1-2.2,12.1-1.2c-4.6,3-5.3,9.6-4.4,15.1c0.3,2,0.8,4,2,5.6c1.2,1.6,3.9,2.4,5.8,1.7"/>
		<path fill="#FFFFFF" stroke="#6B6B6B" stroke-width="0.5" stroke-miterlimit="10" d="M167,92c-2.8,3.8-8.1,5.7-12.7,4.5
			c-0.9-0.2-1.8-0.7-2-1.6c-0.1-0.4,0-0.8,0.2-1.1c1-2.7,3.5-4.8,6.3-5.3s5.9,0.7,7.6,2.9L167,92z"/>
		<path d="M158.7,89.2c1.4,1.7,1.8,4.7,0.9,6.9C157.3,95.6,157.3,91.1,158.7,89.2z"/>
		<path fill="#FFFFFF" stroke="#6B6B6B" stroke-width="0.5" stroke-miterlimit="10" d="M179.3,92.8c-1.3,0.7-2.9-0.1-4.2-0.9
			c-0.6-0.4-1.2-0.7-1.8-1.1c0.7-1.7,1.4-2.3,2.8-3.3"/>
		<path d="M178.2,93.2c0-0.9-0.7-1.5-0.9-2.4s-0.4-1.2-1.5-2.3c-0.4,1.6,0.1,2.5,0.8,3.7c0.2,0.4-0.1,0.9,1.4,1.3"/>
	</g>
	<g id="Tail_copy">
	</g>
</g>
</svg>
