<?xml version="1.0" encoding="utf-8"?>
<!-- Generator: Adobe Illustrator 18.1.1, SVG Export Plug-In . SVG Version: 6.00 Build 0)  -->
<svg version="1.1" xmlns="http://www.w3.org/2000/svg" xmlns:xlink="http://www.w3.org/1999/xlink" x="0px" y="0px"
	 viewBox="0 0 920 617" enable-background="new 0 0 920 617" xml:space="preserve">
<g id="Walls">
	<polygon fill="#E0E0E0" points="566,362.4 566,-172.5 920,-172.5 920,469.7 	"/>
	<polygon fill="#FFFFFF" points="0,447.8 566,362.4 566,-172.5 0,-164.6 	"/>
	<polygon fill="#575757" points="0,761.5 0,447.8 565.9,362.4 920,469.7 920,761.5 	"/>
</g>
<g id="Window">
	<path fill="#9EC9D8" stroke="#896847" stroke-width="5" stroke-miterlimit="10" d="M666.6-55c0.3-7.5-5-30.2,2-33.1
		c12.5-5.2,14.6-2.3,24.9-4.6c41.9-9.4,84.4-16.5,127.1-21.3C805,25.3,797.8,165.5,798.9,305.7c-41.2-11.4-82.3-22.7-123.5-34.1
		c-1.9-0.5-3.9-1.1-5.2-2.6c-1.5-1.7-1.8-4.2-2-6.5c-3.2-41.4,0.5-67.1,0.4-120.9c-0.1-32-3.3-62.7-3.3-99.7
		C665.2-1.4,665.3-16.4,666.6-55z"/>
	<g id="Layer_19">
	</g>
	<path fill="#86A9B2" d="M687.3,258.9c-1.9-10.2-2.6-20.7-2-31.1c4.5,12.5,9.8,24.8,15.8,36.6c-4.7-1.8-9.5-3.7-14.2-5.5"/>
	<path fill="#86A9B2" d="M710.4,250.6c2.8,5.9,2.7,13,6.3,18.4c-7-2.6-10.3-10.3-13.3-17.1c-5.2-11.7-11.6-23-14.3-35.4
		c-1.1-5-1.5-10.2-1.9-15.3c4,10.9,8.5,21.7,13.6,32.2c1.7,3.6,3.6,7.3,5.7,10.7C707.8,246.2,709.3,248.3,710.4,250.6z"/>
	<path fill="none" stroke="#896847" stroke-width="5" stroke-miterlimit="10" d="M666.7,182.8c27.3,2.7,46.7,3.9,67.2,6.8
		c25.7,3.6,41.5,11.6,67.9,14.3"/>
	<path fill="none" stroke="#896847" stroke-width="5" stroke-miterlimit="10" d="M667.5,96.9c44.9,4.7,90.4,5.9,135.5,3.5"/>
	<path fill="none" stroke="#896847" stroke-width="5" stroke-miterlimit="10" d="M665.3,8.3c47.9-1.8,95.7-4.2,143.4-7.1"/>
	<path fill="none" stroke="#896847" stroke-width="5" stroke-miterlimit="10" d="M741.2-102.5c0.6,36.4,1.2,72.7,1.9,109.1
		c0.3,15.4,0.5,30.7,0.8,46.1c1.4,80.3,2.8,160.6,1.5,240.9"/>
</g>
<g id="Feet">
</g>
<g id="Tail">
</g>
<g id="Arms">
</g>
<g id="Jeans">
</g>
<g id="Head">
</g>
<g id="Couch">
	<path fill="none" stroke="#0071BC" stroke-width="3" stroke-miterlimit="10" d="M637.9,302.3c-32.2-5.4-64.5,6.2-96.9,9.3
		c-20.5,2-41.1,0.5-61.7-0.3c-104-3.8-207.9,10.5-311.3,24.8c-4.1,0.6-8.6,1.4-11.3,5.3c-2.8,4-2.8,9.8-2.6,15.1
		c1.7,53.9,3.3,107.9,5,161.8c0.1,4.1,0.3,8.6,2.3,11.9c1.7,2.7,4.3,4.2,6.9,5.6c30.3,16.1,60.6,32.3,91,48.4
		c-1.6,1.3-3.2,2.5-4.8,3.8c53.9-1,106.4-21.3,159.9-29.9c46.6-7.5,93.9-6.1,140.5-13.9c64.2-10.8,127.1-39,191.9-35.6
		c5.1,0.3,11,0.4,14.6-4.2c2.9-3.6,3.4-9.2,3.8-14.3c2-27.4,4.1-54.8,6.1-82.2c-33.6-22.5-71.9-33.9-110-33
		c-2.7-17.8-5.5-35.7-8.2-53.5c-0.8-5.1-1.7-10.6-4.7-14.1C645.6,304,641.7,303,637.9,302.3z"/>
	<g>
		<path fill="#0071BC" stroke="#29ABE2" stroke-width="3" stroke-miterlimit="10" d="M252.8,467.2c-0.2-3.2,0.6-6.7-1.1-9.1
			c-1.2-1.6-3-2.1-4.7-2.6c-30.2-8.3-63.3-32.8-90.1-52.2c-2.1,30.3-0.2,71-2.3,101.3c-0.3,4.9-0.7,10,0.6,14.7
			c2.9,11.3,13.2,16.3,22.2,20.3c27.1,12.2,54,26.9,77.1,48.3C257.4,542.7,256.2,511.1,252.8,467.2z"/>
		<path fill="#29ABE2" d="M732,515.8c-0.2-15.2,11.4-115.1,5.5-114.9c-41.8,1.4-63.6-23.9-106.4-19.2c-21.2,2.3-65.8,11.7-86.8,16
			c-55.6,11.3-83-0.7-139.2,4.7c-20.9,2-132.2,20.6-153.1,22.6c1.8,19.5,47.8,137.7,49.6,157.2c98.2-11.9,198-31.2,296.2-43.1
			c10.8-1.3,21.2-5.2,32-6.6C643.6,530.9,706.4,518.8,732,515.8z"/>
		<path fill="#0071BC" stroke="#29ABE2" stroke-width="3" stroke-miterlimit="10" d="M157,403.3c8.8,5,17.6,9.9,26.5,14.9
			c-0.6-9.8-1.1-19.5-1.7-29.3c-0.6-10.7-1.3-21.7-5.4-31.1c-4-9.4-12.4-16.8-20.7-14.8C157.4,363.7,155.2,382.6,157,403.3"/>
		<linearGradient id="SVGID_1_" gradientUnits="userSpaceOnUse" x1="416.6872" y1="442.042" x2="403.5982" y2="268.4715">
			<stop  offset="0" style="stop-color:#29ABE2"/>
			<stop  offset="0.407" style="stop-color:#22A2DB"/>
			<stop  offset="0.5781" style="stop-color:#1E9CD7"/>
			<stop  offset="0.8096" style="stop-color:#2E3192"/>
			<stop  offset="1" style="stop-color:#005B97"/>
		</linearGradient>
		<path fill="url(#SVGID_1_)" d="M345.5,315c-64.1,4.2-122.2,10-185.5,23.4c18.3,17.3,22.5,24.4,23.4,83.9
			c13.3,0.5,25.5-4.4,38.6-7.1c-1.9,7.6,15.7,27.4,22,26.9c133-11,272.8-28.7,405.7-39.7c-0.3-4.1-4.5-17.4-4.8-21.5
			c10.4,2.7,12.2,1.8,13.6-11.4c1.4-13.3-1.5-39.6-5.8-51.8c-1.5-4.3-3.1-8.9-6.2-11.6c-3.5-3.2-10.8-5.1-15.1-5.1
			c-52.2,0.2-90.1-1.1-143.8,3.5c-19.1,1.6-42.8,5.8-66,6.6C397.7,311.8,369.7,313.4,345.5,315z"/>
		<path fill="#29ABE2" stroke="#0071BC" stroke-miterlimit="10" d="M458.3,443.8c-51.3,9.2-101.5,15.4-155.2,16
			c-0.3,17.9-2.7,37.9-0.1,55.5c51.2-16.1,107.4-27.3,160.1-29.2C461.6,472.1,459.9,458,458.3,443.8z"/>
		<path fill="#29ABE2" stroke="#0071BC" stroke-miterlimit="10" d="M416.7,430.7c12.3,5.2,28.7,13,41.6,13.2
			c-45.6,7.2-94.6,9.5-140.1,16.7c-4.7,0.7-9.5,1.5-14.1,0c-5.5-1.8-10.1-6.5-14.8-10.6c-9.9-8.6-21.3-14.6-33.1-17.4
			c34.6-8.2,69.7-13.4,104.9-15.7c8.2-0.5,16.4-0.9,24.5,0.9C396.4,420.1,406.4,426.3,416.7,430.7z"/>
		<path fill="#29ABE2" stroke="#0071BC" stroke-miterlimit="10" d="M463.2,450.6c0,5.1,5,36.3,5,36.3s14.3,2.8,19.6,2
			c41.3-6.6,78.3-12.5,119.6-19.1c0.4-14-1.1-28.1-4.4-41.5c-44.2,8.1-85.2,8.2-131.4,15.6c-1.9,0.3-6.3-1.2-7.4,0.8
			C463.2,446.3,463.2,448.5,463.2,450.6z"/>
		<path fill="#29ABE2" stroke="#0071BC" stroke-miterlimit="10" d="M605.6,428.8c-14-7-28.2-13.2-42.6-18.5
			c-8.4-3.1-18.7-7.1-18.7-7.1s-26.4,0.2-39.6,1c-35,2.1-69.6,9.6-104.2,16.3c18.6,6.4,37.3,12.9,55.9,19.3c3.3,1.1,6.6,2.3,10,2.4
			c4.2,0.1,8.2-2,12.3-2.7c25.9-4.5,44.6-4.5,68.7-8.4C566.8,427.8,584.8,432.3,605.6,428.8z"/>
		<path fill="#29ABE2" stroke="#0071BC" stroke-miterlimit="10" d="M612.1,471.7c23.4-0.3,46.7-2.2,70-5.6c16-2.3,32-5.4,47.9-8.9
			c0.1-12.4-1-24.7-3-36.8c-40-2.1-80.2,1.8-119.5,11.7C607.1,445.5,608.7,459,612.1,471.7z"/>
		<path fill="#29ABE2" stroke="#0071BC" stroke-miterlimit="10" d="M611,428.8c3.1,0.1,6.2-0.7,9.3-1.4c34.2-8,69.2-8.8,103.9-9.6
			c-27.7-17.7-58.9-29.3-89.7-24.5c-9.1,1.4-17.9,4.2-26.9,5.9c-17.7,3.4-35.7,2.7-53.6,2c14.3,7.5,28.6,15,42.9,22.5
			C601.4,426.2,606.1,428.6,611,428.8z"/>
		<path fill="none" stroke="#0071BC" stroke-width="3" stroke-miterlimit="10" d="M389,411c1.2-21,0.2-42.1-2.8-62.8
			c-1.1-7.6-2.6-15.3-5.9-21.8c-3.3-6.5-8.9-11.7-15.1-11.8"/>
		<path fill="none" stroke="#0071BC" stroke-width="3" stroke-miterlimit="10" d="M544.3,397.7c-0.4-15.4-0.8-30.9-1.2-46.3
			c-0.2-8.6-0.5-17.5-2.9-25.6c-2.4-8.1-7.5-15.5-14.2-17.4"/>
		<path fill="#29ABE2" stroke="#0071BC" stroke-miterlimit="10" d="M246.4,454.5c6.3,2.2,13,2,19.3,0.2c7.8-2.3,19.5-4.8,27.2-1.6
			c-13.8-11-40.4-27.5-61.1-36.7c-7-3.1-18.4-3-25.7-2.1c-8.9,1.1-17.2,8-26.1,6.5C197.8,435,220,445.4,246.4,454.5z"/>
		<path fill="#29ABE2" stroke="#0071BC" stroke-miterlimit="10" d="M292.9,453.1c-15,1-25-0.2-39.7,3.1c5.5,42.8,2,88.4,1.4,131.7
			c15-6.3,38.5-3.5,54.2-6.4C305.4,540.6,298.7,495.6,292.9,453.1z"/>
		<path fill="#29ABE2" stroke="#0071BC" stroke-miterlimit="10" d="M768.3,397.4c-12.2,2-24.5,3.7-36.8,5.1c0,38.5,0,77.1,0.1,115.6
			c11.3,1.9,22.9-0.1,33.5-5.5C766.1,474.2,767.2,435.8,768.3,397.4z"/>
		<path fill="#29ABE2" stroke="#0071BC" stroke-miterlimit="10" d="M746.7,390.6c-4.9-1.5-9.8-2.4-14.8-3.3
			c-7.9-1.4-15.8-3.4-23.7-4.2c-17.5-1.9-34.7-8-34.7-8s-21.2,3-35.3,5.8c20.9,9.8,42.9,15,64.8,20.2c21.2,5,43.7,9.9,63.8,0
			C760.5,396.3,753.7,392.8,746.7,390.6z"/>
	</g>
</g>
<g id="Layer_10">
	
		<path fill="#FFFFFF" stroke="#000000" stroke-width="2" stroke-linecap="round" stroke-linejoin="round" stroke-miterlimit="10" d="
		M672.9,563.9c-0.5,6.7-6.5,16.3-1,20.1c1.8,1.2,3.3-3,3.3-5.2c-0.2,2.5,0,5,0.8,7.4c0.2,0.7,0.5,1.4,1.1,1.8
		c1.5,0.9,3.3-1.1,3.4-2.9s-0.5-3.8,0.4-5.3c0.3,1.8,0.6,3.6,1.6,5.1c1,1.5,3,2.5,4.7,1.8c2.6-1.1,2.3-4.9,1.6-7.6
		c2.3,2.2,7.2,5.7,8.7,2.9c2.8-5.4-4.7-11.2-5.4-17.3"/>
	
		<path fill="#FFFFFF" stroke="#000000" stroke-width="2" stroke-linecap="round" stroke-linejoin="round" stroke-miterlimit="10" d="
		M721.8,563.6c2.6,2.6,4.3,6.2,4.7,9.9c0.3,2.2,0.1,4.4,0.8,6.5c0.7,2.1,2.8,3.9,4.9,3.4c2.8-0.7,1.9-3.6,3.1-7.2
		c0.4,3.3,0.9,7.8,4.4,7.2c3.6-0.6,3.3-0.9,2.8-6c1.6,4.2,3,4.9,6.2,3.4c0.7-2.1-1-0.6-1.5-4.9c1.4,4.3,1.2,2.8,3.1,3.2
		c2,0.4,4.1-1.2,4.1-3.2c0.1-3.3-4.2-4.7-6.6-7c-1.8-1.7-2.8-4.2-2.5-6.7"/>
	<path fill="#FFFFFF" stroke="#000000" stroke-width="2" stroke-miterlimit="10" d="M750.4,449.4c9.9-2.9,19.7-5.9,29.6-8.8
		c8.7-2.6,17.6-5.3,25.4-9.9c7.8-4.6,14.7-11.5,17.5-20.2c1.7-5.3,1.8-11.3,5-15.9c1.5-2.3,3.7-4,5.2-6.3c1.5-2.3,2.2-5.5,0.5-7.7
		c-1.6-2.1-4.7-2.3-7.4-1.9c-7,1.1-13.4,5.5-17,11.7c-1.9,3.3-3,7.1-4.8,10.5c-3.6,7-10,12.2-16.4,16.8c-5.3,3.9-10.8,7.6-17,9.7
		s-13.2,2.5-19.2-0.2"/>
	<path fill="#FFFFFF" stroke="#000000" stroke-width="2" stroke-miterlimit="10" d="M609,387.5c3.4,9.7-1,20.6,0.6,30.8
		c0.9,5.6,3.7,11.3,2.1,16.8c-0.8,2.9-2.7,5.3-4.1,7.9c-1.4,2.6-2.4,5.8-1.2,8.5c1.8,1.7,5.6-1.9,5.6-1.9s1,5.8,3.7,5.9
		c2.7,0.2,5.1-2.8,4.5-5.4c0.3,3.3,6.6,8.2,7.3,4.9c0.2-0.9-2.6-5.7-2.6-5.7s1.5,2.3,3.1,3.2c1.5,0.9,3.7,1,5-0.3
		c2.1-2.1,0.2-5.5-1.3-8.1c-4.3-7.8-3.5-17.3-2.1-26.1s3.4-17.9,1.1-26.5"/>
	<path fill="#FFFFFF" stroke="#000000" stroke-width="2" stroke-miterlimit="10" d="M787.9,384.4c0.5,13.5,1,27,1.4,40.5
		c0.1,1.7,0.1,3.4-0.4,5c-0.7,2.4-2.6,4.3-4,6.3s-2.4,4.8-1.2,7c2.2,1.3,5.4,0.2,6.2-2.2c0.9,2,3.9,3.9,5.5,2.4
		c1.1-1,1.9-3.5,1.9-3.5s1.2,2.7,2.9,4c1.7,1.4,4.5,1.4,5.9-0.3c1.4-1.7-0.5-5.8-0.5-5.8s6.7,4.7,8.9,1.7c2.1-2.9-0.6-6.7-2.6-9.6
		c-6.2-8.9-6.4-20.5-6.5-31.3c0-5,0-10.1-0.1-15.1"/>
	<g>
		<path fill="#0071BC" stroke="#2E3192" stroke-width="2" stroke-miterlimit="10" d="M705.9,556.7c-0.1,2.6-0.1,5.4,1.4,7.5
			c2.2,3.1,6.5,3.3,10.3,3.3c10.8-0.1,21.6-0.2,32.4-0.2c2.1,0,4.4-0.1,5.8-1.6c1-1.1,1.3-2.7,1.6-4.1c5.9-36.7,8.2-74.1,6.8-111.3
			c-37.9,12.6-79.9,12.6-117.8,0c1.8,39.8-3,82,15.6,117.2c15.2-0.4,30.3-0.7,45.5-1.1c-1.6-29.8-2.5-59.6-2.9-89.4
			C706.4,503.5,706.9,530.1,705.9,556.7z"/>
		<path fill="none" stroke="#2E3192" stroke-width="2" stroke-miterlimit="10" d="M649.9,468.1c8-2.5,13.2-11.8,11.3-19.9"/>
		<path fill="none" stroke="#2E3192" stroke-width="2" stroke-miterlimit="10" d="M760.4,468.4c-2.6-2.1-5.1-4.2-7.7-6.3
			c-2.6-2.1-5.3-4.3-7-7.2c-1.8-2.9-2.5-6.6-1.1-9.6"/>
		<path fill="none" stroke="#2E3192" stroke-width="2" stroke-miterlimit="10" d="M708.6,458.2c1.9,2.6,1.9,6.2,0.8,9.2
			c-1.1,3-3.2,5.6-5.2,8.1c-0.3-5.9-3-12.9-3.3-18.9"/>
	</g>
	<g>
		<g>
			<defs>
				<rect id="SVGID_2_" x="594.9" y="309.8" width="226.2" height="158.7"/>
			</defs>
			<clipPath id="SVGID_3_">
				<use xlink:href="#SVGID_2_"  overflow="visible"/>
			</clipPath>
			<g clip-path="url(#SVGID_3_)">
				<defs>
					<rect id="SVGID_4_" x="576.9" y="225.6" width="244.2" height="440.1"/>
				</defs>
				<clipPath id="SVGID_5_">
					<use xlink:href="#SVGID_4_"  overflow="visible"/>
				</clipPath>
				<path clip-path="url(#SVGID_5_)" fill="#AF1E30" d="M714.4,444.8c1.2-0.2,1.8,0.5,2.7,0.8c5.6,2.1,11.5,3.9,17.8,4.8
					c0.3,0,0.7,0.1,1,0.2c0.5,0.1,1.1,0.2,1,0.7c-0.1,0.6-0.9,0.5-1.5,0.5c-2-0.2-3.9-0.4-5.9-0.6c-8.8-0.8-17.4-2.1-25.7-4.2
					c-9.6-2.5-18.7-5.4-26.6-9.7c-1.7-0.9-3.5-1.8-5.2-2.8c-1.2-0.7-0.9,0.1-1,0.4c-3-2.3-5.4-4.9-7.7-7.5
					c-9.4-10.6-16.6-21.8-21.8-33.5c-1.7-3.9-3.3-7.8-4.5-11.7c-0.7-2.2-1.1-4.5-1.1-6.8c0-2-0.3-3.9-0.6-5.9
					c-4.2-15.7-0.8-12.4,3-26.6c-4.6,1.6-1.9-2.5,0.4-5.6c3.8-15.7,20.4-25.8,35.9-21.2c3.1,0,4.9,6.9,8.7,8.5
					c-8.4-2.4-20.1-3.4-23.9,2.1c-8.4,11.8-16.9,23.2-15.8,38.5c0.2,2.2,0.6,4.4,0.9,6.6c1.2,6.9,3.2,13.7,5.9,20.3
					c1.4,3.5,3.1,6.9,6.6,9.9c0.8,0.7,1.7,1.5,1.6,2.5c-1.7-1.1-2-2.8-4.3-3.8c-0.1,0.9,0.4,1.4,0.8,2c2.1,2.6,4.1,5.2,6.5,7.7
					c10.9,11.4,24.2,21.5,40.4,30c3.3,1.7,6.6,3.4,10.3,4.7C713,445.1,713.8,445.8,714.4,444.8 M651.7,410.1c-0.4,0.6,0,0.9,0.2,1.1
					c1.9,3,4.5,5.9,7.2,8.6c3.7,3.7,6.6,7.8,12,10.6c3.7,2,7.7,3.5,12.3,4.5c0.6,0.1,1.2,0.3,1.7-0.1c0.5-0.4,0-0.8-0.3-1.1
					c-0.3-0.3-0.8-0.6-1.2-0.9c-4-2.7-8.8-4.8-13.1-7.3c-5.2-3-9.5-6.4-13.3-10C655.3,413.9,653.6,412.1,651.7,410.1"/>
				<path clip-path="url(#SVGID_5_)" fill="#AF1E30" d="M659.3,425.1c-1.8-0.3-2-1.5-2.7-2.3c-2.8-3.3-6.6-5.9-10.8-8.5
					c-0.8-0.5-1.9-0.8-3-0.5c-1.1,0.3-1,1-1,1.6c0,2.1,1.2,3.9,2.5,5.7c3.7,5,8.1,9.7,13,14.3c4.3,4,10.2,7,16.7,9.5
					c11.7,4.6,24.4,7.7,37.2,10.7c4,0.9,8,1.8,12.2,2.3c3.3,0.4,6.6,0.1,9.8-0.2c2.2-0.2,4.4-0.5,6.7-0.2c0.5,0.1,1.2-0.1,1.2,0.5
					c0,0.4-0.6,0.5-1.2,0.6c-2.5,0.3-5,0.6-7.5,0.8c-4.5,0.4-9.1,0.4-13.6,0.2c-5.9-0.2-11.9-0.6-17.8-1c-8.5-0.5-16.8-1.6-25.1-2.8
					c-8.3-1.2-16.5-2.7-24.7-4.1c-2-0.3-4.1-0.7-6.3-0.7c-1.2,0-1.7,0.2-1.2,1c1.6,2.7,3.7,5.3,6.1,7.8c0.6,0.6,1.8,0.6,2.3,1.2
					c-2.6,0-5.2,0-7.8,0.1c-1.4,0-1.9-0.3-2.2-1.2c-1.4-4.3-1.8-8.6-1.6-12.9c6.5-0.3,12.7,1.2,19.1,1.7c-5.8-1.9-11.6-3.7-17.4-5.5
					c-0.9-0.3-1.2-0.1-1.3,0.5c-0.1,0.6,0.4,1.3-0.5,1.7c-0.6-2,0.2-4.2-1-6.2c0.5,0,0.8,0.2,0.9,0.5c0.3,1.1,1.6,1.5,3,1.8
					c4.6,1.3,9.2,2.6,13.8,3.9c8.6,2.5,17.4,4.9,26.5,6.6c0.5,0.1,1,0.3,1.6-0.1c-1.1-0.7-2.4-1.2-3.8-1.6
					c-6.3-1.6-12.6-3.3-18.7-5.3c-4.4-1.5-8.4-3.3-11.4-5.9c-4.9-4.4-8.7-9.1-11.9-14c-0.5-0.8-1-0.8-1.8-0.3
					c-0.5-1.2-0.5-2.4,0.2-3.5c1.9-3.4,2.5-6.7,1.2-10.3c-0.8-2.2,0-4.4,0.8-6.5c0.5-1.4,1.2-2.8,1.8-4.2c0.1-0.3,0.3-0.8,0.9-0.8
					c0.7,0,0.7,0.5,0.9,0.8c1.8,3.3,3.4,6.5,5.3,9.8c2.7,4.5,5.8,9,9.6,13.2C658.5,424.1,658.9,424.6,659.3,425.1 M642,442.6
					c0.7,0.3,1.1,0.4,1.5,0.6c11,3.6,22.2,6.8,33.8,9.7c1.6,0.4,3.3,0.6,5,0.8c0.5,0.1,1.3,0.2,1.4-0.2c0.2-0.5-0.7-0.6-1.2-0.7
					c-1.4-0.3-2.8-0.5-4.1-0.8c-11.4-2.5-22.4-5.8-33.3-9C644.2,442.6,643.4,442.2,642,442.6 M642.1,401c-0.7,1.3-1.8,2.3-0.9,3.4
					c0.7,0.8,2.1,1.4,3.1,2.1c0.2,0.1,0.5,0.2,0.7,0.2c0.4-0.1,0.3-0.4,0.2-0.6C644.2,404.5,643.7,402.8,642.1,401"/>
				<path clip-path="url(#SVGID_5_)" fill="#AF1E30" d="M771.4,417.7c-0.9-0.9-0.1-1.9-0.7-2.8c-1-1.5-2.1-2.9-2.8-4.7
					c-1.2,0.7-1.4,1.5-1.8,2.2c-3.3,5.8-6.3,11.6-10.1,17.2c-1.9,2.9-4,5.8-6.6,8.6c-0.2,0.2-0.5,0.5-0.8,0.6
					c-0.8,0.4-1.3,1.4-2.5,0.8c-1.1-0.5-0.2-1.3,0.3-1.8c6.3-6.9,10.1-14.4,14.4-21.8c0.5-0.8,0.4-0.8,0.2-1.8
					c-1.5,1.4-2.8,2.8-4.2,4.1c-1.6,1.5-2.9,3.2-5.1,4.5c-0.3,0.2-0.6,0.6-1.2,0.4c-0.6-0.1-0.3-0.5-0.4-0.8c-0.1-1,0.4-1.9,0.9-2.8
					c4-7.8,8.1-15.6,12.2-23.4c2.6-5.1,4.8-10.2,5.9-15.5c1-4.9,1.4-9.8,1.4-14.7c0-1.6-0.1-3.3-0.2-5c-2-10.4-6.6-19.8-6.6-30
					c3.8,6.3,6.9,13.4,8.4,20.4c0.8-0.8,1.2-2.6,1.2-3.3c1.5,6.3,2.7,12.8,1.5,18.8c-0.1,1.9-0.2,3.7-0.2,5.6
					c-0.1,3.7-0.3,7.4-0.5,11.1c-0.2,3.5-0.3,7.1-1.4,10.5c-1.4,4.5-4.2,8.7-6.4,13c-4.3,8.5-8.6,16.9-14.4,25
					c-1.3,1.8-2.7,3.5-4.1,5.2c-0.2,0.2-0.8,0.5-0.2,0.8c0.6,0.3,0.8-0.2,1.1-0.3c0.7-0.3,1-0.9,1.3-1.3c6.5-8.1,11-16.8,15.9-25.4
					c1.6-2.8,3.1-5.6,4.7-8.4c0.4-0.6,0.7-1.3,1.6-2c0.5,0.7,0.7,1.4,0.7,2.1c0.2,4.8-0.2,9.6-1.3,14.4
					C771.7,417.4,771.6,417.5,771.4,417.7"/>
				<path clip-path="url(#SVGID_5_)" fill="#C90010" d="M709.6,331.8c-2.5,0-5.3,0-7.6-0.3c-2.3-0.3-4.6-1.2-6.7-1.8
					c-8.1-2-18.4-7.4-17.6-13.7c2.3-8.6,10.7,6.3,17.2,7.5c2,1,4.1,1.8,6.3,2.3c6.6,1.6,14,1.1,20.6-1.6c2.8-1.1,5.3-2.4,7.7-3.8
					c2.4-1.4,4.5-3,6.4-4.7c2.1-2.1,5.1-2.9,5.9,0.2c2.3,4.7-3.8,4.7-5.4,7.9c-2.4,1.8-5.2,3.3-8.3,4.5s-6.6,2.1-10.4,2.8
					C715,331.6,712.3,331.8,709.6,331.8"/>
				<path clip-path="url(#SVGID_5_)" fill="#AF1E30" d="M789.1,343c-1.2-0.6-3-1.8-3.8-3.4c0.8,11,9.9,19.6,7.3,31.4
					c0,1.9-0.2,3.9-0.4,5.8c-0.2,1.9-0.4,3.9-0.3,5.9c0,0.3-0.1,0.6-0.7,0.7c-0.2-0.6,0-1.3-0.7-1.8c-0.8,0.2-0.7,0.6-0.7,1
					c-0.1,1.5-0.4,3-0.3,4.5c0.2,2.8-1.7,4.7-5.8,5.8c-2.3,0.6-4.6,0.9-7,1c-1.4,0.1-1.9-0.3-1.7-1.2c1.4-4.7,1.1-9.4,1.3-14.1
					c0.1-1.8,0.1-3.6,0.2-5.4c0.1-1.8,0.1-3.6,0.2-5.4c1.1-4-1.1-11.8-1.1-15.7c2.3,3.9,0.7,10.2,5.3,11.8
					c0.8-5.5,3.1-13.4-1.5-16.5c-1.5-1.6-3.8,3.9-3.1,7.1c-1.5-3.9,0-7.1,3.8-9.4c2.3,5.5,3.1,11.8,1.8,17.5c-1,2.8-2.2,5.4-3.3,8
					c-0.1,0.3-0.2,0.6-0.3,0.9c0,0.3,0,0.6,0.5,0.7c0.5,0.1,0.7-0.2,0.8-0.5c0.7-1.5,1.5-2.9,2-4.5c2.5-8.2,3.1-15,0.1-22.1
					c1.3-2.8-0.4-7.4,3.6-7.8C786.2,338.4,788.2,341.9,789.1,343 M779.7,385.8c0,1.4-0.1,2.8,0,4.2c0.1,0.9-0.8,2.3,0.5,2.7
					c1.4,0.5,3.1-0.4,4.5-0.9c1.9-0.7,3.5-1.6,3.6-3.1c0.2-2.2,0.1-4.4,0.4-6.6c0.2-1.7,0.3-3.5,0.4-5.2c0.1-1.7,0.1-3.5,0.1-5.2
					c-0.2-8.5-0.2-18.8-6.3-25.8c1.5,6.3,2.3,12.6,0,19.2c-1.1,2.9-2.6,5.7-2.7,8.6C780.1,377.7,779.3,381.8,779.7,385.8
					 M790.5,379.1c0.2-2.4,0.3-4.8,0.4-7.2c1.2-7.1-0.4-15.8-4.2-22.1c3.8,7.1,3.8,14.1,3.5,22.1
					C790.3,374.3,790.4,376.7,790.5,379.1"/>
				<path clip-path="url(#SVGID_5_)" fill="#AF1E30" d="M685,314.1c4.1-0.4,8.5,1.8,12.3,2.3c2.1,0.2,4.1,0.4,6.2,0.5
					c8.6,0.5,17.2,0,26-1.2c1.8-0.2,3.5-0.5,5.3-0.8c-1.6,1.5-3.2,2.8-5,3.8c-1.8,1-3.9,1.7-6.5,2.1c-7,1-14,1.1-21,0.5
					c-2.3-0.2-4.7-0.5-7-0.9c-2.7-0.4-4.7-1.3-6.4-2.4C687.2,316.9,686,315.6,685,314.1"/>
				<path clip-path="url(#SVGID_5_)" fill="#AF1E30" d="M723.7,321.9c-5.3,3.4-14.8,4.3-21.9,3c-3.5-0.7-6.4-1.9-7.9-3.8
					c2.5,0.5,5,0.8,7.4,1c2.4,0.2,4.9,0.2,7.3,0.2C713.6,322.3,718.5,322.1,723.7,321.9"/>
				<path clip-path="url(#SVGID_5_)" fill="#C90010" d="M775.9,354.3c-0.6-2.9,1.1-7.8,2.9-7.4c6.1,3.1,3.3,12.3,1.8,17
					c-4.6-0.8-2.9-4.1-4.6-9C776,354.7,776,354.5,775.9,354.3"/>
				<path clip-path="url(#SVGID_5_)" fill="#C90010" d="M640.4,445.7c1-0.5,0.4-1.1,0.5-1.7c0.1-0.6,0.5-0.8,1.3-0.5
					c5.8,1.8,11.6,3.6,17.4,5.5c-6.4-0.5-12.6-2-19.1-1.7C640.4,446.7,640.4,446.2,640.4,445.7"/>
				<path clip-path="url(#SVGID_5_)" fill="#AF1E30" d="M780,397c-1.4-0.3-3.1-0.1-4.7-0.6c-0.5-0.2-1.1-0.3-1-0.9
					c0.2-0.5,0.7-0.6,1.4-0.6c4.1,0.1,7.7-0.9,11.1-2.2c0.5-0.2,1.1-0.5,1.7-0.2c0.5,0.4,0,0.8-0.2,1.1
					C786.6,395.8,783.7,396.7,780,397"/>
				<path clip-path="url(#SVGID_5_)" fill="#AF1E30" d="M749,448.2c-1.2,0.1-1.2,0.1-0.8-0.7c0.9-1.7,2.6-3.1,4.1-4.6
					c5.5-5.7,10.7-11.5,15.2-17.6c1-1.3,2.2-2.6,2.3-4.1c0-0.3,0.3-0.4,0.7-0.4c0,1.8-1.2,3.3-2.4,4.9c-5.1,6.7-11.1,13.1-17.1,19.5
					C750.2,446.2,749.1,447,749,448.2"/>
				<path clip-path="url(#SVGID_5_)" fill="#AF1E30" d="M638,342c3.8-1.7,5.3-5.6,8.4-8c-1.5,3.9-2.3,7.9-6.6,9.3
					C639,343.1,638.1,342.8,638,342"/>
				<path clip-path="url(#SVGID_5_)" fill="#C90010" d="M777.9,343.6c-1.1,0.7-1.1,1.5-1.8,2.3c-2.3-2.4-3.8-4.7-1.5-7.1
					c1.5-0.8,2.3,1.6,3.6,2.6C778.5,342.3,777.6,342.7,777.9,343.6"/>
				<path clip-path="url(#SVGID_5_)" fill="#AF1E30" d="M728.7,329.3c0.1,0.6-0.7,0.7-1.3,0.9c-6.5,2.2-13.4,3.2-20.6,2.9
					c-2.7-0.1-5.3-0.4-7.8-0.9c-2.5-0.5-5-1.2-7.4-2.1c-0.5-0.2-1.1-0.3-0.9-0.8c2.2,0.7,4.5,1.3,6.7,1.8c2.3,0.5,4.6,0.9,7,1.2
					c7.9,0.8,15.3-0.4,22.5-2.5C727.4,329.7,728.1,329.5,728.7,329.3"/>
				<path clip-path="url(#SVGID_5_)" fill="#AF1E30" d="M643,334.6c-2,2.6-3.5,4.2-5.8,6.5c-2.3-2.4,3.1-3.1,3.6-4.3
					C641.6,336.1,642.1,335.3,643,334.6"/>
				<path clip-path="url(#SVGID_5_)" fill="#C90010" d="M646.9,331.4c0.2-2,1-2.8,3.3-2.8c-0.8,1.6-1.5,2.4-3.1,2.9
					C647,331.4,646.9,331.4,646.9,331.4"/>
				<path clip-path="url(#SVGID_5_)" fill="#AF1E30" d="M744.5,317.1c-1.2,2-2,5.2-5.5,6.2C740.9,321.2,742.7,319.2,744.5,317.1"/>
				<path clip-path="url(#SVGID_5_)" fill="#AF1E30" d="M685.1,326.6c-1.9-0.3-4.1-2-4.2-3.2C682.3,324.5,683.7,325.5,685.1,326.6"
					/>
				<path clip-path="url(#SVGID_5_)" fill="#AF1E30" d="M732.4,327.7c-0.5,1.3-2,1.6-3.7,1.7C729.9,328.8,731.2,328.3,732.4,327.7"
					/>
				<path clip-path="url(#SVGID_5_)" fill="#AF1E30" d="M739,323.3c0,1.1-0.9,1.8-2.6,2C737.2,324.5,738,323.9,739,323.3"/>
				<path clip-path="url(#SVGID_5_)" fill="#AF1E30" d="M735.3,326.1c-0.1,1-1,1.5-2.5,1.4C733.5,326.9,734.3,326.5,735.3,326.1"/>
				<path clip-path="url(#SVGID_5_)" fill="#C90010" d="M645,332.7c-1.7,3.7-6.2,4.5-7,9.2c3.8-1.6,5.3-5.5,8.3-8
					C646.2,333.2,646.2,332.3,645,332.7"/>
				<path clip-path="url(#SVGID_5_)" fill="#C90010" d="M639.7,395.7L639.7,395.7L639.7,395.7c-0.9-2.6-2.1-5.2-3.8-7.6
					c-0.6,2.4,0.1,4.7,0.5,7c0.4,0.4,0.9,0.5,1.6,0.6C638.5,396.4,639.1,396.5,639.7,395.7C639.7,395.7,639.7,395.7,639.7,395.7"/>
				<path clip-path="url(#SVGID_5_)" fill="#AF1E30" d="M689.3,328.8c-0.7,0-1.3,0-1.3-0.6C688.5,328.3,689,328.5,689.3,328.8"/>
				<path clip-path="url(#SVGID_5_)" fill="#AF1E30" d="M690.6,329.3c-0.7,0.1-1.3,0.1-1.3-0.5C689.9,328.9,690.3,329,690.6,329.3"
					/>
				<path clip-path="url(#SVGID_5_)" fill="#AF1E30" d="M687.5,328c-0.7,0-1.3-0.1-1.2-0.7C686.9,327.5,687.3,327.7,687.5,328"/>
				<path clip-path="url(#SVGID_5_)" fill="#C90010" d="M631,391.8c-1-3.5-0.9-7-1.1-10.5c-0.2-2.5-0.4-5.1-0.6-7.6
					c-0.2-2.5,0.5-4.9,0.6-7.6c0.6-7.5,1.3-14.7,6.6-20.2c0-0.8-1-2.8-1.8-2.8c-8.4,2.4-8.6,10.1-14.7,13.3
					c-2.3,1.6-8.6,9.1-4.9,12.8c2.5,1.6,5.9,3.1,7.9,5c1.6,1.5,1.3,2.3-0.9,3.3c-1.7,0.8-3.6,1.4-5,2.3c-3.9,2.6-8.6,5.1-5.7,9.4
					c0.1,0.1,0.1,0.3,0.1,0.4c-0.2,1.1,0.4,2,1.3,2.8c0.4,0.2,0.9,0.2,1.4,0.1c0.2,0.3,0.6,0.4,1.1,0.3c-0.1-0.2-0.2-0.3-0.3-0.3
					c-0.1,0-0.2-0.1-0.3-0.1c0.1,0,0.2,0,0.3,0.1c0.1,0.1,0.2,0.2,0.3,0.3c0.4,0,0.8,0.1,1.2,0.1c0.5,0.3,1.1,0.2,1.7,0.2
					c0.9,0.1,1.9,0.1,2.8,0.2c0.3,0,0.6,0,0.9,0.1c2.5,0,4.9,0,7.4,0C629.6,392.8,631.3,392.8,631,391.8"/>
				<path clip-path="url(#SVGID_5_)" fill="#C90010" d="M681.3,450.7c-6.3-1.6-12.6-3.3-18.7-5.3c-4.4-1.5-8.4-3.3-11.4-5.9
					c-4.9-4.4-8.7-9.1-12-14c-0.5-0.8-1-0.8-1.8-0.3c0.1,0.2,0.1,0.3,0.2,0.5c0.1,1.4,1,2.6,2,3.7c0.5,0.9,0.9,1.9,1.1,2.9
					c0,0.2-0.1,0.4-0.1,0.6c-0.2,0.7-0.4,1.4-0.6,2.1c-0.3,0.1-0.3,0.3-0.3,0.5c-0.8,1.3-1.4,2.6-0.4,4c0.5,0,0.8,0.2,0.9,0.5
					c0.3,1.1,1.6,1.5,3,1.8c4.6,1.3,9.2,2.6,13.8,3.9c8.6,2.5,17.4,4.9,26.5,6.6c0.5,0.1,1,0.3,1.6-0.1
					C684,451.6,682.6,451.1,681.3,450.7"/>
				<path clip-path="url(#SVGID_5_)" fill="#C90010" d="M804.9,391.9c0.3,0,0.6-0.1,0.9-0.2c0.8,0,1.8-0.2,2.5-0.4
					c2.8-0.6,5.9-0.9,8.4-2.1c0.7-0.3,0.6-1.3,0-1.8c0-0.2-0.1-0.3-0.1-0.5c-0.2-1-0.7-2-2.6-1.5c-6.3,1.3-12.8,2.2-19.2,3.4
					c-0.6,0-0.6,0-1.1,0c0.4-0.5,0.4-0.5,1.2-0.7c2-0.4,4.1-0.3,6.1-0.7c3.9-0.7,8.2-1.8,12.1-2.6c1-0.2,2.6,0,1.9-1.6
					c-0.9-2.1-1.6-4.4-2.9-6.5c-0.1-0.6-0.4-1.1-0.8-1.6c0-0.2,0-0.4-0.3-0.6c-0.8-1.6-1.6-3.2-2.4-4.8c-0.8-1.6-1.6-3.2-2.4-4.8
					c-4.1-11.3-12.9-19.3-21.3-27.2c2.2,17.5,10.4,21.3,7.7,32.9c0,1.9-0.2,3.9-0.4,5.8c-0.2,1.9-0.4,3.9-0.3,5.9
					c0,0.3-0.1,0.6-0.7,0.7c0,1.2,0,2.5-0.1,3.7c0.4,0.2,0.8,0.3,1.3,0.4c-0.4-0.1-0.9-0.2-1.3-0.4c-0.1,1.8-1.1,4.3-1,6.1
					c0.1,0.8,0.8,0.7,2.2,0.3c0.4,0,1,0.3,1.4,0.3"/>
				<path clip-path="url(#SVGID_5_)" fill="#C90010" d="M801.3,391.8c0.3,0,0.6,0,0.9-0.2"/>
				<path clip-path="url(#SVGID_5_)" fill="#99041D" d="M714.4,444.8c-0.6,1-1.5,0.3-2.1,0.1c-3.7-1.3-7-3-10.3-4.7
					c-16.2-8.5-29.5-18.6-40.4-30c-2.4-2.5-4.4-5.1-6.5-7.7c-0.4-0.5-0.9-1.1-0.8-2c2.3,1,2.7,2.7,4.3,3.8c0,0,0,0,0,0
					c0.3,0.7,0.8,1.3,1.7,1.9l0,0c0.4,0.7,0.8,1.3,1.7,1.9c0,0,0,0,0,0c0.4,0.7,0.8,1.4,1.7,1.8l0,0c0.1,0.4,0.3,0.6,0.8,0.8l0,0
					c0.1,0.4,0.4,0.6,0.8,0.8c0,0,0,0,0,0c0.1,0.3,0.4,0.6,0.8,0.8c0,0,0,0,0,0c0.8,1.1,1.7,2,3,2.9c0,0,0,0,0,0
					c0.2,0.5,0.6,0.8,1.2,1.1c0,0,0,0,0,0c0.2,0.5,0.6,0.8,1.2,1.1l0,0c0.2,0.5,0.6,0.8,1.2,1.1c0,0,0,0,0,0
					c0.1,0.3,0.4,0.6,0.9,0.8l0,0c0.2,0.5,0.6,0.8,1.3,1.1l0,0c0.3,0.6,1,1,1.7,1.4c0.1,0.1,0.2,0.2,0.3,0.3
					c0.3,0.4,0.7,0.8,1.4,1.1c0.1,0.1,0.2,0.2,0.3,0.3c0.4,0.5,1,1,1.8,1.3c0.1,0.1,0.2,0.2,0.3,0.3c0.4,0.5,1,1,1.8,1.3
					c0.4,0.3,0.7,0.5,1.1,0.8c0.8,0.8,1.9,1.5,3,2.1c0.4,0.3,0.7,0.5,1.1,0.8c1.3,1.2,2.9,2.1,4.6,3c1.3,0.9,2.6,1.8,4.2,2.6
					c0.5,0.5,1.2,0.9,2,1.2c0.4,0.2,0.9,0.5,1.3,0.7c0.4,0.4,1,0.7,1.6,0.9c0.4,0.2,0.9,0.5,1.3,0.7c0.2,0.3,0.7,0.5,1.2,0.6
					c0.1,0.1,0.3,0.1,0.4,0.2c0.3,0.3,0.7,0.5,1.2,0.6c0.1,0.1,0.3,0.1,0.4,0.2c0.3,0.3,0.7,0.5,1.2,0.6c0.1,0.1,0.3,0.1,0.4,0.2
					c0.3,0.3,0.7,0.5,1.2,0.6c0.5,0.3,1.1,0.5,1.6,0.8c0.3,0.3,0.7,0.5,1.2,0.6c0.1,0.1,0.3,0.1,0.4,0.2c0.3,0.3,0.7,0.5,1.2,0.6
					C713.7,444.4,714.1,444.6,714.4,444.8"/>
				<path clip-path="url(#SVGID_5_)" fill="#C90010" d="M777.8,345.4c0.8,0,4-3.2,4-3.2l0.3-6c-0.1-0.4,0-0.8-0.9-1.4
					c-7.4-12.5-20.4-21.1-34.9-18c-5.3,1.6-7.8,8.5-13.5,10.7c-0.1,0.1-0.3,0.1-0.4,0.2c-0.5,1.3-2,1.6-3.7,1.7c0,0,0,0,0,0
					c0.1,0.6-0.7,0.7-1.3,0.9c-6.5,2.2-13.4,3.2-20.6,2.9c-2.7-0.1-5.3-0.9-7.8-1.4c-2.5-0.5-4.6-2-7.1-2.9
					c-10.1-7.8-25-12.8-33.4-2.6c-8.4,9.4-16,23.6-15,38.9c0.2,2.2,0.6,4.4,0.9,6.6c1.2,6.9,3.2,13.7,5.9,20.3
					c1.4,3.5,3.1,6.9,6.6,9.9c0.8,0.7,1.7,1.5,1.6,2.5l0,0h0c0.3,0.7,0.8,1.3,1.7,1.9l0,0l0,0c0,0,0,0,0,0c0.4,0.7,0.8,1.3,1.7,1.9
					l0,0h0c0.4,0.7,0.8,1.3,1.7,1.8c0,0,0,0,0,0c0.1,0.4,0.3,0.6,0.8,0.8l0,0c0,0,0,0,0,0v0c0.1,0.4,0.4,0.6,0.8,0.8l0,0h0
					c0.1,0.3,0.4,0.6,0.8,0.8l0,0c0,0,0,0,0,0c0.8,1.1,1.7,2,3,2.9c0,0,0,0,0,0l0,0h0c0.2,0.5,0.6,0.8,1.2,1.1c0,0,0,0,0,0
					c0.2,0.5,0.6,0.8,1.2,1.1c0,0,0-0.1,0-0.1c0,0,0,0.1,0,0.1l0,0h0h0h0c0.2,0.5,0.6,0.8,1.2,1.1l0,0h0c0.1,0.3,0.4,0.6,0.9,0.8
					c0,0,0,0,0,0v0c0.2,0.5,0.6,0.8,1.2,1.1c0,0,0,0,0,0l0,0c0.3,0.6,1,1,1.7,1.4c0-0.1,0-0.2,0-0.3c0,0.1,0,0.2,0,0.3
					c0.1,0.1,0.2,0.2,0.3,0.3h0c0.3,0.4,0.7,0.8,1.4,1.1c0,0,0-0.1,0-0.1c0-0.1,0-0.2,0-0.3c0,0.1,0,0.2,0,0.3c0,0,0,0.1,0,0.1
					l0.3,0.3h0c0.4,0.5,1,1,1.8,1.3c0.1,0.1,0.2,0.2,0.3,0.3c0.4,0.5,1,1,1.8,1.3c0.4,0.3,0.7,0.5,1.1,0.8h0c0.8,0.8,1.9,1.5,3,2.1
					c0.4,0.3,0.7,0.5,1.1,0.8h0c1.3,1.2,2.9,2.1,4.6,3c1.3,0.9,2.6,1.8,4.2,2.6c0.5,0.5,1.2,0.9,2,1.2c0.4,0.2,0.9,0.5,1.3,0.7
					c0.4,0.4,1,0.7,1.6,0.9c0.4,0.2,0.9,0.5,1.3,0.7c0.2,0.3,0.7,0.5,1.2,0.6c0.1,0.1,0.3,0.1,0.4,0.2c0.3,0.3,0.7,0.5,1.2,0.6
					c0.1,0.1,0.3,0.1,0.4,0.2c0.3,0.3,0.7,0.5,1.2,0.6c0.1,0.1,0.3,0.1,0.4,0.2c0.3,0.3,0.7,0.5,1.2,0.6c0.5,0.3,1.1,0.5,1.6,0.8
					c0.3,0.3,0.7,0.5,1.2,0.6c0-0.2,0-0.3-0.1-0.4c0.1,0.1,0.1,0.2,0.1,0.4c0.1,0.1,0.3,0.1,0.4,0.2h0c0.3,0.3,0.7,0.5,1.2,0.6
					c0.4,0.2,0.7,0.5,1.1,0.7c1.2-0.2,1.8,0.5,2.7,0.8c5.6,2.1,11.5,3.9,17.8,4.8c0.3,0,0.7,0.1,1,0.2c0.5,0.1,1.1,0.2,1,0.7
					c-0.1,0.6-0.9,0.5-1.5,0.5c-2-0.2-3.9-0.4-5.9-0.6c-8.8-0.8-17.4-2.1-25.7-4.2c-9.6-2.5-18.7-5.4-26.6-9.7
					c-1.7-0.9-3.5-1.8-5.2-2.8c-1.2-0.7-0.9,0.1-1,0.4c0.3,0.3,0.7,0.6,1,1c1.3,1.3,3.4,2.3,4.3,3.8c-1.8-0.2-2.5-1.4-3.9-2
					c-0.1-0.1-0.2-0.2-0.3-0.2c-0.4-0.5-1.1-1-1.8-1.3c-0.1-0.1-0.2-0.2-0.3-0.3c-0.3-0.4-0.7-0.8-1.3-1.1l0,0
					c-0.2-0.5-0.6-0.8-1.2-1.1c0,0,0,0,0,0c-0.1-0.3-0.4-0.6-0.9-0.8l0,0c-0.1-0.3-0.4-0.6-0.8-0.8l0,0c-0.1-0.3-0.4-0.6-0.8-0.8
					l0,0c-0.1-0.4-0.3-0.6-0.8-0.8l0,0c-0.1-0.4-0.4-0.6-0.8-0.9c-0.1-0.1-0.3-0.3-0.4-0.4c-0.1-0.3-0.3-0.6-0.8-0.8l0,0
					c-0.2-0.5-0.6-1-1.3-1.4c-0.1-0.2-0.3-0.3-0.4-0.5c-0.1-0.4-0.4-0.6-0.8-0.9c-0.1-0.2-0.3-0.3-0.4-0.5c-1.8-0.3-2-1.5-2.7-2.3
					c-2.8-3.3-6.6-6-10.8-8.5c-0.8-0.5-1.9-0.8-3-0.5c-1.1,0.3-1,1-1,1.6c0,2.1,1.2,3.9,2.5,5.7c3.7,5,8.1,9.7,13,14.3
					c4.3,4,10.2,7,16.7,9.5c11.7,4.6,24.4,7.7,37.2,10.7c4,0.9,8,1.8,12.2,2.3c3.3,0.4,6.6,0.1,9.8-0.2c2.2-0.2,4.4-0.5,6.7-0.2
					c0.5,0.1,1.2-0.1,1.2,0.5c0,0.4-0.6,0.5-1.2,0.6c-2.5,0.3-5,0.6-7.5,0.8c-4.5,0.4-9.1,0.4-13.6,0.2c-5.9-0.2-11.9-0.6-17.8-1
					c-8.5-0.5-16.8-1.6-25.1-2.8c-8.3-1.2-16.5-2.7-24.7-4.1c-2-0.3-4.1-0.7-6.3-0.7c-1.2,0-1.7,0.2-1.2,1c1.6,2.7,3.7,5.3,6.1,7.8
					c0.6,0.6,1.8,0.6,2.3,1.2c1.5,0.1,3,0.1,4.5,0.2c0.8,0.2,1.7,0.2,2.5,0.1c0.4,0,0.8,0.1,1.2,0.1c0.5,0.3,1.1,0.2,1.7,0.2
					c0.3,0,0.5,0.1,0.8,0.1c0.5,0.3,1.1,0.2,1.7,0.2c0.3,0,0.5,0.1,0.8,0.1c0,0,0.1-0.1,0.1-0.1c0,0-0.1,0.1-0.1,0.1
					c0.3,0.2,0.6,0.2,0.9,0.1c0.3,0,0.5,0.1,0.8,0.1c0.8,0.3,1.6,0.4,2.5,0.4c0.3,0,0.5,0.1,0.8,0.1c0.2,0.2,0.5,0.2,0.9,0.1
					c1.2,0.2,2.5,0.4,3.7,0.6c0.2,0.2,0.5,0.2,0.9,0.2c0.8,0.1,1.6,0.3,2.4,0.4c0.2,0.2,0.6,0.2,0.9,0.1c0.3,0,0.5,0.1,0.8,0.1
					c0.2,0.2,0.5,0.2,0.9,0.1c0.4,0.1,0.8,0.1,1.2,0.2c0.3,0,0.6,0.1,0.9,0.1c0.4,0.1,0.8,0.1,1.2,0.2c0.3,0.2,0.6,0.2,0.9,0.1
					c0.4,0,0.8,0.1,1.2,0.1c0.2,0.2,0.5,0.2,0.9,0.1c0.7,0.1,1.3,0.1,2,0.2c0.3,0.2,0.6,0.2,0.9,0.1c0.7,0,1.4,0.1,2,0.1
					c1.1,0.4,2.2,0.2,3.3,0.2c0.4,0,0.8,0.1,1.2,0.1c5.2,0.4,10.3,0.2,15.4-0.3c0.3,0,0.5-0.1,0.8-0.1c0.7,0,1.5,0.1,2.1-0.2
					c0.5,0,1.1-0.1,1.6-0.1c0.5,0.1,0.9,0.1,1.3-0.1c0.5,0,1.1-0.1,1.6-0.1c0.5,0.1,0.9,0.1,1.3-0.2c0.3,0,0.5-0.1,0.8-0.1
					c0.3,0,0.6,0.1,0.9-0.1c0.3,0,0.5-0.1,0.8-0.1c0.5,0,0.9,0.1,1.3-0.2c0.3,0,0.5-0.1,0.8-0.1c1.3,0,2.6-0.3,3.8-0.6
					c0.3-0.1,0.5-0.1,0.8-0.2c2-0.3,4-0.6,5.8-1.2h0c5-1.3,9.9-2.5,14.9-3.8c0.3,0,0.7,0,0.8-0.2c1.8-0.4,3.6-0.8,5.4-1.1
					c0.3,0,0.6,0,0.9-0.2c0.7-0.1,1.4-0.2,2-0.4c0.3,0,0.6,0,0.9-0.2c0.3,0,0.5-0.1,0.8-0.1c0.3,0.1,0.6,0.1,0.9-0.1
					c0.3,0,0.5-0.1,0.8-0.1c0.3,0,0.6-0.1,0.9-0.1c0.4-0.1,0.8-0.1,1.2-0.2c0.1-0.2,0.2-0.3,0.3-0.3c-0.1,0.1-0.2,0.2-0.3,0.3
					c0.3,0,0.6-0.1,0.9-0.1c0.7-0.1,1.3-0.1,2-0.2c0.3,0.1,0.6,0,0.9-0.1c2,0.1,2.5-0.4,2.5-1.7c-0.1-2.5,0.1-4.9-0.2-7.4
					c0.1-0.3,0.2-0.6-0.2-0.8c-0.1-0.4-0.2-0.9-0.2-1.3c0.1-0.3,0.2-0.6-0.2-0.8c-0.1-0.3-0.1-0.5-0.2-0.8c0.1-0.2,0.1-0.4-0.2-0.6
					c-0.1-0.2-0.1-0.3-0.2-0.5c-0.2,0-0.4-0.1-0.5-0.2c0.1,0.1,0.3,0.2,0.5,0.2c0-0.6-0.4-1.2-0.9-1.7c-0.6,0.2-1,0.5-1.2,0.9
					c0,0,0,0,0,0c-1.1,0.6-2.2,1.3-2.9,2.1l0,0c-2.9,1.9-5.8,3.8-8.6,5.6c-0.3,0.2-0.6,0.3-0.9,0.5c-0.6,0-1,0.5-1.7,0.1
					c0.6-0.7,1.6-1.2,2.4-1.8c1.8-1.3,4.1-2.3,5.7-3.8c0.1-0.1,0.2-0.2,0.3-0.3c0.9-0.4,1.6-1,2.2-1.6c0.1-0.1,0.2-0.2,0.3-0.3
					c0-0.1,0-0.1,0-0.2c0,0.1,0,0.1,0,0.2c0.5-0.2,0.7-0.5,0.9-0.8c0.4-0.4,0.7-0.7,1.1-1.1c0.5-0.2,0.8-0.5,0.8-0.8
					c2.2-2.2,3.6-4.7,4.7-7.2c0.3-0.2,0.3-0.4,0.2-0.6c0.1-0.2,0.1-0.3,0.2-0.5c0.3-0.2,0.2-0.4,0.2-0.6c0.1-0.2,0.1-0.3,0.2-0.5
					c0.4-0.2,0.3-0.5,0.2-0.8c0.2-1.2,0.4-2.3-0.4-3.4c0-0.5-0.3-0.9-1.3-1.3c-2.6,3.3-5.2,6.6-7.8,9.8c0,0,0,0,0,0
					c-1.3,1-2.2,2.2-3.2,3.4c-2.8,3-5.6,6.1-8.3,9.1c-0.5,0.2-0.7,0.5-0.8,0.8l0,0c-0.5,0.2-0.8,0.4-0.9,0.8
					c-0.4,0.2-0.8,0.3-1.2,0.5c-1.2,0.1-1.2,0.1-0.8-0.7c0.9-1.7,2.6-3.1,4.1-4.6c5.5-5.7,10.7-11.5,15.2-17.6
					c1-1.3,2.2-2.6,2.3-4.1c0-0.3,0.3-0.4,0.7-0.4c0.1-0.2,0.1-0.3,0.2-0.5c0.4-0.2,0.3-0.5,0.3-0.8c0-0.2,0.1-0.3,0.1-0.5
					c0.4-0.2,0.4-0.5,0.3-0.8c0-0.2,0.1-0.3,0.1-0.5c-0.9-0.9-0.1-1.9-0.7-2.8c-1-1.5-2.1-2.9-2.8-4.7c-1.2,0.7-1.4,1.5-1.8,2.2
					c-3.3,5.8-6.3,11.6-10.1,17.2c-1.9,2.9-4,5.8-6.6,8.6c-0.2,0.2-0.5,0.5-0.8,0.6c-0.8,0.4-1.3,1.4-2.5,0.8
					c-1.1-0.5-0.2-1.3,0.3-1.8c6.3-6.9,10.1-14.4,14.4-21.8c0.5-0.8,0.4-0.8,0.2-1.8c-1.5,1.4-2.8,2.8-4.2,4.1
					c-1.6,1.5-2.9,3.2-5.1,4.5c-0.3,0.2-0.6,0.6-1.2,0.4c-0.6-0.1-0.3-0.5-0.4-0.8c-0.1-1,0.4-1.9,0.9-2.8c4-7.8,8.1-15.6,12.2-23.4
					c2.6-5.1,4.8-10.2,5.9-15.5c1-4.9,1.4-9.8,1.4-14.7c0-1.6-0.1-3.3-0.2-5c-2-10.4-6.6-19.8-6.6-30c3.8,6.3,6.9,13.4,8.4,20.4
					l2.5-2.9 M673.6,419.2C673.6,419.2,673.6,419.2,673.6,419.2C673.6,419.2,673.6,419.2,673.6,419.2 M673.6,419.2
					C673.6,419.2,673.6,419.2,673.6,419.2C673.6,419.2,673.6,419.2,673.6,419.2 M673.6,419.1C673.6,419.1,673.6,419.1,673.6,419.1
					C673.6,419.1,673.6,419.1,673.6,419.1 M673.6,419C673.6,419,673.6,419,673.6,419C673.6,419,673.6,419,673.6,419 M673.6,418.9
					C673.6,418.9,673.6,418.9,673.6,418.9C673.6,418.9,673.6,418.9,673.6,418.9 M673.6,418.9C673.6,418.9,673.6,418.9,673.6,418.9
					C673.6,418.9,673.6,418.9,673.6,418.9 M673.6,418.8C673.6,418.8,673.6,418.8,673.6,418.8C673.6,418.8,673.6,418.8,673.6,418.8
					 M673.5,418.8C673.5,418.8,673.5,418.8,673.5,418.8C673.5,418.8,673.5,418.8,673.5,418.8 M668.9,414.9
					C668.9,414.9,668.9,414.9,668.9,414.9C668.9,414.9,668.9,414.9,668.9,414.9 M668.8,414.6C668.8,414.6,668.8,414.6,668.8,414.6
					C668.8,414.6,668.8,414.6,668.8,414.6 M665.3,411.3C665.3,411.3,665.3,411.3,665.3,411.3C665.3,411.3,665.3,411.3,665.3,411.3
					 M663.6,410C663.6,410,663.6,410,663.6,410C663.6,410,663.6,410,663.6,410 M663.6,409.4C663.6,409.4,663.6,409.4,663.6,409.4
					C663.6,409.4,663.6,409.4,663.6,409.4 M663.6,409.5C663.6,409.5,663.6,409.6,663.6,409.5C663.6,409.6,663.6,409.5,663.6,409.5
					 M663.6,409.7C663.6,409.7,663.6,409.7,663.6,409.7C663.6,409.7,663.6,409.7,663.6,409.7 M663.6,409.8
					C663.6,409.8,663.6,409.9,663.6,409.8C663.6,409.9,663.6,409.8,663.6,409.8 M670.3,416.3C670.3,416.4,670.3,416.4,670.3,416.3
					C670.3,416.4,670.3,416.4,670.3,416.3 M674.8,420.4C674.8,420.4,674.8,420.4,674.8,420.4C674.8,420.4,674.8,420.4,674.8,420.4
					 M676.5,421.2C676.5,421.2,676.5,421.2,676.5,421.2C676.5,421.2,676.5,421.2,676.5,421.2"/>
				<path clip-path="url(#SVGID_5_)" fill="#C90010" d="M651.7,410.1c1.9,1.9,3.6,3.7,5.4,5.5c3.8,3.7,8.1,7.1,13.3,10
					c4.3,2.5,9.1,4.6,13.1,7.3c0.4,0.3,0.9,0.6,1.2,0.9c0.3,0.3,0.7,0.7,0.3,1.1c-0.5,0.4-1,0.3-1.7,0.1c-4.6-1-8.6-2.5-12.3-4.5
					c-5.5-2.9-8.4-6.9-12-10.6c-2.7-2.8-5.3-5.6-7.2-8.6C651.7,411,651.3,410.8,651.7,410.1"/>
				<path clip-path="url(#SVGID_5_)" fill="#99041D" d="M642,442.6c1.3-0.4,2.1,0,3,0.3c11,3.2,21.9,6.5,33.3,9
					c1.4,0.3,2.8,0.5,4.1,0.8c0.5,0.1,1.4,0.2,1.2,0.7c-0.2,0.4-1,0.3-1.4,0.2c-1.7-0.2-3.4-0.4-5-0.8c-11.5-2.8-22.8-6-33.8-9.7
					C643.1,443,642.7,442.8,642,442.6"/>
				<path clip-path="url(#SVGID_5_)" fill="#C90010" d="M642.1,401c1.6,1.8,2.1,3.5,3.2,5.1c0.1,0.2,0.2,0.5-0.2,0.6
					c-0.2,0-0.5-0.1-0.7-0.2c-1.1-0.7-2.4-1.3-3.1-2.1C640.3,403.4,641.4,402.3,642.1,401"/>
				<path clip-path="url(#SVGID_5_)" fill="#AF1E30" d="M639.9,394.1c-3.4-6.4-5.1-13-6.1-19.7c-0.3-2.2-0.6-4.5-0.8-6.7
					c-0.3-6.8,1.2-13.9,5-20.2c2.3-3.9-4.6-4.7-3.8-9.4c-13,7.1-24.4,17.3-29.9,31.4c-0.9,2.4-1.8,4.7-2.7,7.1
					c-0.9,2.4-1.7,4.7-2.2,7.1c-0.3,1.4,0.5,2,2.4,2.4c2.5,0.5,4.9,1.2,7.3,1.9c0.5,0.2,1.5,0.3,1.1,0.9c-0.4,0.6-1.2,0.2-1.8,0.1
					c-2.6-0.5-5.1-1.1-7.7-1.6c-0.7-0.1-1.7-0.6-2.1,0.2c-0.3,0.7-0.5,1.6,0.9,2c4.2,1.2,8.5,2.4,13.1,2.9c-0.9-0.9-1.5-1.8-1.3-2.8
					c0-0.1,0-0.3-0.1-0.4c-2.9-4.3,1.8-6.8,5.7-9.4c1.4-0.9,3.3-1.6,5-2.3c2.2-1,2.5-1.9,0.9-3.3c-2-1.9-4.8-3.3-7.3-4.9
					c-3.7-6,2.4-10,4.7-12.3c5.3-3.9,7.6-8.6,12.2-12.6c2.3-1.6,3.8,0,3.1,1.6c-3.8,6.3-6.1,12.6-6.7,20c0,2.7,0.1,5.3,0.3,7.8
					c0.2,2.5,0.4,5.1,0.6,7.6c0.2,3.5,0.1,7.1,1.1,10.5c0.3,1-1.3,1-1.7,1.6c2.8-0.2,5.2,0.2,7.1,1.7c-0.3-2.3-1.1-4.6-0.5-7
					c1.8,2.4,2.9,5,3.8,7.6C641.2,395.2,640.1,394.5,639.9,394.1 M635.4,387L635.4,387c0,0.1-0.1,0.1-0.1,0.2
					C635.3,387.1,635.4,387,635.4,387"/>
				<path clip-path="url(#SVGID_5_)" fill="#C90010" d="M779.7,385.8c-0.4-4.1,0.4-8.1,0.5-12.2c0.1-2.9,1.6-5.7,2.7-8.6
					c2.3-6.6,1.6-12.9,0-19.2c6.1,7.1,6.1,17.3,6.3,25.8c-0.1,1.7-0.1,3.5-0.1,5.2c-0.1,1.7-0.1,3.5-0.4,5.2
					c-0.3,2.2-0.2,4.4-0.4,6.6c-0.1,1.5-1.8,2.4-3.6,3.1c-1.4,0.5-3.1,1.4-4.5,0.9c-1.3-0.5-0.4-1.8-0.5-2.7
					C779.6,388.7,779.7,387.3,779.7,385.8"/>
				<path clip-path="url(#SVGID_5_)" fill="#99041D" d="M790.5,379.1c-0.1-2.4-0.2-4.8-0.2-7.2c0.3-7.9-0.6-15.2-3.5-22.1
					c4.6,5,5.3,14.9,4.2,22.1C790.8,374.3,790.7,376.7,790.5,379.1"/>
				<polygon clip-path="url(#SVGID_5_)" fill="#FFFFFF" points="680.4,371.5 685.5,366.8 687.4,366.8 682.3,371.5 687.4,376.1 
					685.5,376.1 				"/>
				<path clip-path="url(#SVGID_5_)" fill="#FFFFFF" d="M689.1,377.4v-11.9h2.6v4c0.1-0.4,0.2-0.8,0.4-1c0.2-0.2,0.5-0.3,0.9-0.3
					h1.3c0.7,0,1.3,0.3,1.8,0.8c0.5,0.5,0.8,1.1,0.8,1.9v4c0,0.7-0.3,1.3-0.8,1.9s-1.1,0.8-1.8,0.8H689.1z M691.7,376.1h1.3
					c0.4,0,0.7-0.1,0.9-0.4c0.3-0.3,0.4-0.6,0.4-0.9v-4c0-0.4-0.1-0.7-0.4-0.9c-0.3-0.3-0.6-0.4-0.9-0.4c-0.3,0-0.6,0.1-0.9,0.4
					c-0.3,0.3-0.4,0.6-0.4,0.9V376.1z"/>
				<path clip-path="url(#SVGID_5_)" fill="#FFFFFF" d="M701.9,368.2h2.6c0.7,0,1.3,0.3,1.8,0.8c0.5,0.5,0.8,1.1,0.8,1.9v4
					c0,0.7-0.3,1.3-0.8,1.9c-0.5,0.5-1.1,0.8-1.8,0.8h-2.6c-0.7,0-1.3-0.3-1.8-0.8c-0.5-0.5-0.8-1.1-0.8-1.9v-4
					c0-0.7,0.3-1.3,0.8-1.9C700.6,368.4,701.2,368.2,701.9,368.2 M701.9,370.8v4c0,0.4,0.1,0.7,0.4,0.9c0.3,0.3,0.6,0.4,0.9,0.4
					c0.4,0,0.7-0.1,0.9-0.4c0.3-0.3,0.4-0.6,0.4-0.9v-4c0-0.4-0.1-0.7-0.4-0.9c-0.3-0.3-0.6-0.4-0.9-0.4c-0.3,0-0.6,0.1-0.9,0.4
					C702,370.1,701.9,370.4,701.9,370.8"/>
				<path clip-path="url(#SVGID_5_)" fill="#FFFFFF" d="M717.3,377.4h-2.6v-1.3c-0.1,0.9-0.5,1.3-1.3,1.3h-1.3
					c-0.7,0-1.3-0.3-1.8-0.8c-0.5-0.5-0.8-1.1-0.8-1.9v-4c0-0.7,0.3-1.3,0.8-1.9c0.5-0.5,1.1-0.8,1.8-0.8h2.6v-2.6h2.6V377.4z
					 M714.7,369.5h-1.3c-0.3,0-0.6,0.1-0.9,0.4c-0.3,0.3-0.4,0.6-0.4,0.9v4c0,0.4,0.1,0.7,0.4,0.9c0.3,0.3,0.6,0.4,0.9,0.4
					c0.4,0,0.7-0.1,0.9-0.4c0.3-0.3,0.4-0.6,0.4-0.9V369.5z"/>
				<path clip-path="url(#SVGID_5_)" fill="#FFFFFF" d="M721.1,378.7c0.1,0.9,0.5,1.3,1.3,1.3h1.3c0.4,0,0.7-0.1,0.9-0.4
					c0.3-0.3,0.4-0.6,0.4-0.9v-2.6c-0.1,0.9-0.5,1.3-1.3,1.3h-1.3c-0.7,0-1.3-0.3-1.8-0.8c-0.5-0.5-0.8-1.1-0.8-1.9v-6.6h2.6v6.6
					c0,0.4,0.1,0.7,0.4,0.9c0.3,0.3,0.6,0.4,0.9,0.4c0.4,0,0.7-0.1,0.9-0.4c0.3-0.3,0.4-0.6,0.4-0.9v-6.6h2.6v10.5
					c0,0.7-0.3,1.3-0.8,1.9s-1.1,0.8-1.8,0.8h-2.6c-1.5,0-2.4-0.9-2.6-2.6H721.1z"/>
				<polygon clip-path="url(#SVGID_5_)" fill="#FFFFFF" points="736.3,371.5 731.1,376.1 729.2,376.1 734.3,371.5 729.2,366.8 
					731.1,366.8 				"/>
				<path clip-path="url(#SVGID_5_)" fill="#99041D" d="M682.4,309.9c4.4,2.2,9.7,3,15.2,3.7c1.8,0.2,3.6,0.4,5.4,0.5
					c9.6,0.5,19,0,28.3-1.5c1.7-0.3,3.3-0.7,4.9-1.1c9.2,1.3,19.9,0.5,27.6,5.3c18.3,12.6,35.1,27.5,45.5,46.4
					c1.1,2.1,2.1,4.1,3.1,6.2c3.1,6.2,6,12.4,8.3,18.7c0.6,1.7,0.4,2.3-2.1,3.1c-6,1.9-12.5,3-19,4c-2.4,0.4-4.8,0.7-7.2,1.1
					c-1,0.1-1.9,0.4-2.6,0.8c-3,1.9-6.7,2.5-10.8,2.5c-1.6,0-2.1,0.4-2.1,1.4c0,3.1-0.1,6.3-0.1,9.4c0,3.3-0.7,6.4-1.7,9.6
					c-0.3,1.1-0.2,2.1,0.5,3.1c1.9,2.7,1.7,5.5,0.7,8.3c-0.7,2.2-1.9,11.9-1.5,14.2c0.6,3.1,0.4,6.1,0.3,9.2c-0.1,2.4-0.8,3-4.5,3.3
					c-10.9,0.8-20.8,3.6-30.9,6.1c-6.8,1.7-13.7,3.2-20.9,3.7c-7,0.6-14.2,0.7-21.3,0.7c-9.8,0-19.2-1.4-28.5-3.1
					c-8.4-1.5-16.9-1.8-25.4-1.4c-3.3,0.2-4.3-0.3-5.2-2.3c-1.3-2.9-1.9-5.8-2-8.8c-0.1-3.8-0.1-7.6-0.6-11.4c0,0,0-0.1,0-0.1
					c-1.6-2.8-1-5.5,0.6-8.1c0.6-1,0.3-2.1-0.6-3.1c-3.2-3.8-3.5-7.7-1.2-11.7c0.8-1.4,0.9-2.9,0.5-4.4c-1.2-4.2-0.7-8.4,1.6-12.4
					c0.3-0.5,0.4-0.9,0.6-1.4c0.5-1-0.1-1.6-1.4-2.3c-4.3-2.2-9.4-2-14.4-2.1c-7-0.1-13.5-1.3-19.9-2.9c-2.2-0.6-4.6-0.8-6.7-1.6v-9
					c1.6-0.4,0.8-1.4,1-2c1-3.4,2.2-6.7,3.6-9.9c0.7-1.6,1.4-3.3,2.2-4.9c1.9-5.4,5-10.9,9.5-14.1c16-11.8,27.5-23.6,42.7-34.6
					c7.6-5.5,18.3-3.1,27.3-7C681.7,309.8,682.1,309.8,682.4,309.9 M665.8,432L665.8,432c-0.1-0.4-0.3-0.6-0.8-0.8h0
					c-0.1-0.4-0.3-0.6-0.8-0.8l0,0c-0.1-0.4-0.4-0.6-0.8-0.9c-0.1-0.1-0.3-0.3-0.4-0.4c-0.1-0.3-0.3-0.6-0.8-0.8l0,0
					c-0.2-0.5-0.6-1-1.3-1.4c-0.1-0.2-0.3-0.3-0.4-0.5c-0.1-0.4-0.4-0.6-0.8-0.9c-0.1-0.2-0.3-0.3-0.4-0.5c-0.4-0.5-0.7-1.1-1.2-1.5
					c-3.8-4.2-6.9-8.6-9.6-13.2c-1.9-3.2-3.6-6.5-5.3-9.8c-0.2-0.3-0.2-0.8-0.9-0.8c-0.6,0-0.8,0.5-0.9,0.8
					c-0.6,1.4-1.3,2.8-1.8,4.2c-0.8,2.1-1.6,4.3-0.8,6.5c1.3,3.5,0.8,6.9-1.2,10.3c-0.7,1.1-0.6,2.3-0.2,3.5
					c0.1,0.2,0.1,0.3,0.2,0.5c0.1,1.4,1,2.6,2,3.7c0.5,0.9,0.9,1.9,1.1,2.9c0,0.2-0.1,0.4-0.1,0.6c-0.2,0.7-0.4,1.4-0.6,2.1
					c-0.3,0.1-0.3,0.3-0.3,0.5c-0.8,1.3-1.4,2.6-0.4,4c1.2,2,0.4,4.1,1,6.2c0,0.5,0.1,1,0.1,1.6c-0.2,4.3,0.1,8.6,1.6,12.9
					c0.3,0.9,0.9,1.2,2.2,1.2c2.6-0.1,5.2,0,7.8-0.1c1.5,0.1,3,0.1,4.5,0.2c0.8,0.2,1.7,0.2,2.5,0.1c0.4,0,0.8,0.1,1.2,0.1
					c0.5,0.3,1.1,0.2,1.7,0.2c0.3,0,0.5,0.1,0.8,0.1c0.5,0.3,1.1,0.2,1.7,0.2c0.3,0,0.5,0.1,0.8,0.1c0.3,0.2,0.6,0.2,0.9,0.1
					c0.3,0,0.5,0.1,0.8,0.1c0.8,0.3,1.6,0.4,2.5,0.4c0.3,0,0.5,0.1,0.8,0.1c0.2,0.2,0.5,0.2,0.9,0.1c1.2,0.2,2.5,0.4,3.7,0.6
					c0.2,0.2,0.5,0.2,0.9,0.2l2.4,0.4c0.2,0.2,0.6,0.2,0.9,0.1c0.3,0,0.5,0.1,0.8,0.1c0.2,0.2,0.5,0.2,0.9,0.1
					c0.4,0.1,0.8,0.1,1.2,0.2c0.3,0,0.6,0.1,0.9,0.1c0.4,0.1,0.8,0.1,1.2,0.2c0.3,0.2,0.6,0.2,0.9,0.1c0.4,0,0.8,0.1,1.2,0.1
					c0.2,0.2,0.5,0.2,0.9,0.1c0.7,0.1,1.3,0.1,2,0.2c0.3,0.2,0.6,0.2,0.9,0.1c0.7,0,1.4,0.1,2,0.1c1.1,0.4,2.2,0.2,3.3,0.2
					c0.4,0,0.8,0.1,1.2,0.1c5.2,0.4,10.3,0.2,15.4-0.3c0.3,0,0.5-0.1,0.8-0.1c0.7,0,1.5,0.1,2.1-0.2c0.5,0,1.1-0.1,1.6-0.1
					c0.5,0.1,0.9,0.1,1.3-0.1c0.5,0,1.1-0.1,1.6-0.1c0.5,0.1,0.9,0.1,1.3-0.2c0.3,0,0.5-0.1,0.8-0.1c0.3,0,0.6,0.1,0.9-0.1
					c0.3,0,0.5-0.1,0.8-0.1c0.5,0,0.9,0.1,1.3-0.2c0.3,0,0.5-0.1,0.8-0.1c1.3,0,2.6-0.3,3.8-0.6c0.3-0.1,0.5-0.1,0.8-0.2
					c2-0.3,4-0.6,5.8-1.2c5-1.3,9.9-2.5,14.9-3.8c0.3,0,0.7,0,0.8-0.2c1.8-0.4,3.6-0.8,5.4-1.1c0.3,0,0.6,0,0.9-0.2
					c0.7-0.1,1.4-0.2,2-0.4c0.3,0,0.6,0,0.9-0.2c0.3,0,0.5-0.1,0.8-0.1c0.3,0.1,0.6,0.1,0.9-0.1c0.3,0,0.5-0.1,0.8-0.1
					c0.3,0,0.6-0.1,0.9-0.1c0.4-0.1,0.8-0.1,1.2-0.2c0.3,0,0.6-0.1,0.9-0.1c0.7-0.1,1.3-0.1,2-0.2c0.3,0.1,0.6,0,0.9-0.1
					c2,0.1,2.5-0.4,2.5-1.7c-0.1-2.5,0.1-4.9-0.2-7.4c0.1-0.3,0.2-0.6-0.2-0.8l-0.2-1.3c0.1-0.3,0.2-0.6-0.2-0.8
					c-0.1-0.3-0.1-0.5-0.2-0.8c0.1-0.2,0.1-0.4-0.2-0.6c-0.1-0.2-0.1-0.3-0.2-0.5c0-0.6-0.4-1.2-0.9-1.7c-0.6,0.2-1,0.5-1.2,0.9l0,0
					c-1.1,0.6-2.2,1.3-2.9,2.1l0,0c-2.9,1.9-5.8,3.8-8.6,5.6c-0.3,0.2-0.6,0.3-0.9,0.5c-0.6,0-1,0.5-1.7,0.1
					c0.6-0.7,1.6-1.2,2.4-1.8c1.8-1.3,4.1-2.3,5.7-3.8c0.1-0.1,0.2-0.2,0.3-0.3c0.9-0.4,1.6-1,2.2-1.6c0.1-0.1,0.2-0.2,0.3-0.3
					c0.5-0.2,0.7-0.5,0.9-0.8c0.4-0.4,0.7-0.7,1.1-1.1c0.5-0.2,0.8-0.5,0.8-0.8c2.2-2.2,3.6-4.7,4.7-7.2c0.3-0.2,0.3-0.4,0.2-0.6
					c0.1-0.2,0.1-0.3,0.2-0.5c0.3-0.2,0.2-0.4,0.2-0.6c0.1-0.2,0.1-0.3,0.2-0.5c0.4-0.2,0.3-0.5,0.2-0.8c0.2-1.2,0.4-2.3-0.4-3.4
					c0-0.5-0.3-0.9-1.3-1.3c-2.6,3.3-5.2,6.6-7.8,9.8l0,0c-1.3,1-2.2,2.2-3.2,3.4c-2.8,3-5.6,6.1-8.3,9.1l0,0
					c-0.5,0.2-0.7,0.5-0.8,0.8l0,0c-0.5,0.2-0.8,0.4-0.9,0.8c-0.4,0.2-0.8,0.3-1.2,0.5c0.1-1.2,1.2-2.1,2.1-3
					c6-6.4,12-12.8,17.1-19.5c1.2-1.5,2.4-3.1,2.4-4.9c0.1-0.2,0.1-0.3,0.2-0.5c0.4-0.2,0.3-0.5,0.3-0.8c0-0.2,0.1-0.3,0.1-0.5
					c0.4-0.2,0.4-0.5,0.3-0.8c0-0.2,0.1-0.3,0.1-0.5c0.1-0.2,0.3-0.3,0.3-0.5c1.1-4.8,1.5-9.6,1.3-14.4c0-0.7-0.2-1.3-0.7-2.1
					c-0.9,0.6-1.2,1.3-1.6,2c-1.6,2.8-3.1,5.6-4.7,8.4c-4.9,8.6-9.4,17.2-15.9,25.4c-0.4,0.5-0.6,1-1.3,1.3
					c-0.3,0.2-0.5,0.6-1.1,0.3c-0.6-0.3,0-0.6,0.2-0.8c1.4-1.7,2.8-3.5,4.1-5.2c5.8-8.1,10.1-16.6,14.4-25c2.2-4.3,5-8.5,6.4-13
					c1.1-3.5,1.1-7,1.4-10.5c0.3-3.7,0.4-7.4,0.5-11.1c0.1-1.9,0.1-3.7,0.2-5.6c1.9-9.1-2.6-17.8-2.6-27.2c1.5,2.4,0.8,5.5,2.3,7.9
					c2.3-0.8,3.1-3.1,3.8-4.7c1.5-3.1-3.1-3.9-4.6-5.5c3.1,0,4.6,3.1,6.9,4.7c3.8-11-11-20.2-19.4-24.1c-4.6-1.6-13.1-1.9-14.9-0.7
					c-4.3,2.7-7.7,8.3-13.6,10.4l-0.4,0.2c-1.2,0.6-2.5,1.1-3.7,1.7l0,0c-0.6,0.2-1.2,0.4-1.9,0.5c-7.2,2.1-14.5,3.3-22.5,2.5
					c-2.4-0.2-4.8-0.3-7-1.2c-16.1-6.2-20.1-10.1-23.5-14.4c-4.6-5.7-31.3,4.7-35.1,20.4c3.8-0.8,7.6-9.4,7.6-4.7
					c1.5,12.6-16,22-11.1,36.9c0.4,2,0.7,3.9,0.6,5.9c0,2.3,0.4,4.6,1.1,6.8c1.3,3.9,2.8,7.8,4.5,11.7c5.2,11.7,12.3,22.9,21.8,33.5
					c2.3,2.6,4.7,5.2,7.7,7.5c0.3,0.3,0.7,0.6,1,1c1.3,1.3,3.4,2.3,4.3,3.8c-1.8-0.2-2.5-1.4-3.9-2c-0.1-0.1-0.2-0.2-0.3-0.2
					c-0.4-0.5-1.1-1-1.8-1.3c-0.1-0.1-0.2-0.2-0.3-0.3c-0.3-0.4-0.7-0.8-1.3-1.1l0,0c-0.2-0.5-0.6-0.8-1.2-1.1l0,0
					c-0.1-0.3-0.4-0.6-0.9-0.8l0,0C666.6,432.5,666.3,432.2,665.8,432 M637.1,340.9c1.7,1,2.4,3.3,3.9,2.6c2.3-2.4,7.6-7.9,3.8-11
					C644.1,337.2,637.2,335.6,637.1,340.9L637.1,340.9z M639.7,395.7L639.7,395.7c1.5-0.4,0.4-1.1,0.2-1.5c-3.4-6.4-5.1-13-6.1-19.7
					c-0.3-2.2-0.6-4.5-0.8-6.7c-0.3-6.8,1.2-13.9,5-20.2c2.3-3.9-4.6-4.7-3.8-9.4c-13,7.1-24.4,17.3-29.9,31.4
					c-0.9,2.4-1.8,4.7-2.7,7.1c-0.9,2.4-1.7,4.7-2.2,7.1c-0.3,1.4,0.5,2,2.4,2.4c2.5,0.5,4.9,1.2,7.3,1.9c0.5,0.2,1.5,0.3,1.1,0.9
					c-0.4,0.6-1.2,0.2-1.8,0.1c-2.6-0.5-5.1-1.1-7.7-1.6c-0.7-0.1-1.7-0.6-2.1,0.2c-0.3,0.7-0.5,1.6,0.9,2c4.2,1.2,8.5,2.4,13.1,2.9
					c0.4,0.2,0.9,0.2,1.4,0.1c0.2,0.3,0.6,0.4,1.1,0.3c0.4,0,0.8,0.1,1.2,0.1c0.5,0.3,1.1,0.2,1.7,0.2c0.9,0.1,1.9,0.1,2.8,0.2
					c0.3,0,0.6,0,0.9,0.1c2.5,0,4.9,0,7.4,0c2.8-0.2,5.2,0.2,7.1,1.7c0.4,0.4,0.9,0.5,1.6,0.6C638.5,396.4,639.1,396.5,639.7,395.7
					 M798.8,392.5c0.3,0,0.5-0.1,0.8-0.1c0.3,0.1,0.6,0.1,0.9-0.1c0.3,0,0.5-0.1,0.8-0.1c0.3,0,0.6,0,0.9-0.2c0.3,0,0.5-0.1,0.8-0.1
					c0.8,0,1.5-0.2,2.1-0.4c0.3,0,0.5-0.1,0.8-0.1c0.8,0,1.5-0.2,2.1-0.4c2.8-0.6,5.8-1,8.3-2.2c0.7-0.3,1-0.6,0.4-1.1
					c0-0.2-0.1-0.3-0.1-0.5c-0.2-1-0.7-2-2.6-1.5c-6.3,1.3-12.8,2.2-19.2,3.4c-0.6,0-1.1,0-1.7,0c0-0.9,1.2-0.9,2.1-1
					c2-0.4,4-0.6,6-0.9c3.9-0.7,7.8-1.4,11.7-2.2c1-0.2,2.6-0.3,2.1-1.4c-0.8-2.2-1.6-4.4-2.9-6.5c-0.1-0.6-0.4-1.1-0.8-1.6
					c0-0.2,0-0.4-0.3-0.6c-0.8-1.6-1.6-3.2-2.4-4.8c-0.8-1.6-1.6-3.2-2.4-4.8c-1.8-3-3.5-7.4-5.3-9.9c-4.9-6.7-10.3-11.9-16.4-17.4
					c-3.8,7.1,0,14.1-0.8,22c-0.8,2.4-1.5,4.7-2.4,7.2c-0.6,1.5-1.3,3-2,4.5c-0.1,0.2-0.3,0.5-0.8,0.5c-0.5-0.1-0.5-0.4-0.5-0.7
					c0-0.3,0.1-0.6,0.3-0.9c1.1-2.6,2.4-5.3,3.3-8c1.3-6.5,0.5-12-1.8-17.5c-8.4,5.5-1.5,14.9-3.4,22.8c-0.1,1.8-0.1,3.6-0.2,5.4
					c-0.1,1.8-0.1,3.6-0.2,5.4c-0.1,4.7,0.2,9.4-1.3,14.1c-0.3,0.9,0.3,1.2,1.7,1.2c2.4-0.1,4.7-0.4,7-1c4.1-1.1,6-2.9,5.8-5.8
					c-0.1-1.5,0.2-3,0.3-4.5c0-0.4-0.1-0.8,0.7-1c0.8,0.5,0.5,1.2,0.7,1.8c0,1.2,0,2.5-0.1,3.7c-0.1,1.8-0.9,3.5-0.8,5.3
					c0.1,0.8,0.6,1.2,1.9,0.8c0.4,0,0.8-0.1,1.2-0.1c0.5,0.1,0.9,0.1,1.3-0.1c1.1-0.1,2.2-0.3,3.3-0.4
					C798.3,392.7,798.6,392.7,798.8,392.5 M709.6,331.8c2.7,0,5.4-0.2,8-0.6c3.8-0.7,7.3-1.6,10.4-2.8c3.1-1.2,5.9-2.7,8.3-4.5
					c1.6-3.2,7.7-3.2,5.4-7.9c-0.8-3.1-3.8-2.4-5.9-0.2c-1.9,1.8-4,3.3-6.4,4.7c-2.4,1.4-4.9,2.6-7.7,3.8c-6.6,2.7-14,3.2-20.6,1.6
					c-2.2-0.5-4.3-1.3-6.3-2.3c-6.5-1.2-14.9-16.2-17.2-7.5c-0.8,6.3,10,10.1,18,13.8c2,0.9,4.4,1.1,6.7,1.4
					C704.7,331.6,707.1,331.8,709.6,331.8 M685,314.1c2.6,3.5,6.4,5.9,10.3,6.3c2.4,0.4,4.7,0.7,7,0.9c7,0.6,14,0.5,21-0.5
					c2.6-0.4,4.7-1.1,6.5-2.1c1.8-1,3.4-2.3,5-3.8c-1.8,0.3-3.5,0.5-5.3,0.8c-8.8,1.2-17.5,1.7-26,1.2c-2.1-0.1-4.1-0.3-6.2-0.5
					c-2.1-0.2-4.2-0.5-6.3-0.9C688.9,315.1,686.9,314.6,685,314.1 M723.7,321.9c-5.3,0.2-10.1,0.4-15,0.4c-2.5,0-4.9,0-7.3-0.2
					c-2.4-0.2-4.9-0.5-7.4-1c1.4,1.8,4.3,3.1,7.9,3.8C708.9,326.2,718.5,325.3,723.7,321.9 M780,397c3.6-0.3,6.6-1.2,8.2-3.3
					c0.3-0.3,0.7-0.7,0.2-1.1c-0.6-0.4-1.2,0-1.7,0.2c-3.4,1.3-7,2.3-11.1,2.2c-0.7,0-1.2,0.1-1.4,0.6c-0.2,0.5,0.4,0.7,1,0.9
					C776.9,396.9,778.6,396.7,780,397"/>
			</g>
		</g>
	</g>
	<g>
		<path fill="#FFFFFF" stroke="#000000" stroke-width="2" stroke-miterlimit="10" d="M668.9,319.9c-13.6-12.9-12.7-34.8-7.4-52.8
			c2.2-7.6,5.1-15.1,9.2-21.9c10.6-17.5,30.9-30,51.2-27.3c16.5,2.1,30.9,14,37.9,29.2c6.9,15.1,6.8,33,1.3,48.7
			c-2.8,8.2-7.2,16.1-13.9,21.6c-8,6.5-18.4,9-28.5,10.8C701.5,331.2,681.6,331.9,668.9,319.9z"/>
		<path fill="#FFFFFF" stroke="#000000" stroke-width="2" stroke-miterlimit="10" d="M739.9,231c-1.8-12.1-3.9-25.8-3-38.8
			c-8.2,10-15.3,24.1-21.1,35.5"/>
		<path fill="#FFFFFF" stroke="#000000" stroke-width="2" stroke-miterlimit="10" d="M701,227.2c-1.2-10-10-22.3-12.1-32.2
			c-4.9,12.3-4.9,23.6-6.8,36.6"/>
		<path fill="#FFFFFF" stroke="#000000" stroke-width="2" stroke-miterlimit="10" d="M715.5,255.7c4.2,2.9,12.1,4.3,19,3.4
			c1.3-0.2,2.7-0.5,3-1.2c0.1-0.3-0.1-0.6-0.2-0.9c-1.4-2-5.2-3.6-9.4-4c-4.2-0.4-8.8,0.5-11.5,2.2L715.5,255.7z"/>
		<path d="M728,253.6c-2.1,1.3-2.7,3.6-1.4,5.2C730.1,258.3,730.1,255,728,253.6z"/>
		<path fill="#FFFFFF" stroke="#000000" stroke-width="2" stroke-miterlimit="10" d="M676.6,253.1c4.2,2.9,8.4,4.5,15.3,3.6
			c1.3-0.2,6.4-0.8,6.6-1.5c0.1-0.3-1.5-2.1-1.8-2.3c-2.5-1.8-3.7-2.2-7.9-2.5c-4.2-0.4-8.8,0.5-11.5,2.2L676.6,253.1z"/>
		<path d="M687.9,250.5c2.1,1.4,1.7,1.5,1,3.3c-0.2,0.6-0.2,0.6-1.7,2.6c0,0-1.1,1.1-1.3,0.6C685,253.7,687.9,250.5,687.9,250.5z"/>
	</g>
	<path fill="none" stroke="#000000" stroke-width="2" stroke-miterlimit="10" d="M724.5,303.2c-5.2,4.3-18.3,4.8-23.2,4.2
		c-1.1-0.1-2.2-0.7-3.3-1c-2.1-0.6-1.6-0.9-1.6-1.9c0.1-4.3,1.4-12.7,2.3-18.3c1-6,5.5-5.9,10.4-10.4c-5.3-0.6-10.6-1.9-15.7-3.8
		c2,4,4,7.9,6,11.9c-2,6.2-1.9,12.6-3.6,19.5c-0.4,1.8-4.8,2.5-6.2,2.5c-11.5-0.2-17.3-7.9-20-12.4"/>
</g>
</svg>
